<svg xmlns="http://www.w3.org/2000/svg" width="2500" height="2500" viewBox="0 0 192.756 192.756"><g fill-rule="evenodd" clip-rule="evenodd"><path fill="#fff" d="M0 0h192.756v192.756H0z"/><path d="M98.072 184.252c1.848-1.453 3.271-2.713 4.695-3.84 3.994-2.164 6.324-4.064 11.119-5.418 14.115-3.982 19.568-3.117 32.424-12.861 22.982-17.42 31.686-39.824 19.105-72.22-2.703-6.963-1.127-15.731 8.854-22.982-5.217-14.667-5.873-19.333-.168-34.379-2.633-1.919-7.623-7.433-10.258-9.352-12.152 2.104-17.955 1.422-22.328-.97-31.673-17.334-56.448-19.406-91.175.413-4.33 2.47-7.936 1.866-20.125-.022-2.6 1.966-9.13 7.139-11.729 9.105 5.78 14.945 5.223 19.815.271 34.572C28.87 73.37 30.247 83.73 27.67 90.741c-11.991 32.615-2.882 54.861 20.413 71.869 13.029 9.512 19.115 8.82 33.3 12.551 5.872 1.544 11.528 6.126 16.689 9.091"/><path fill="#cc2229" d="m159.822 76.628.352-1 .404-.997.451-.987.498-.979.547-.967.596-.956.643-.942.689-.93.738-.915.785-.899.83-.885.879-.868.416-.383-.389-1.178-.389-1.219-.361-1.192-.338-1.169-.283-1.06-23.494 13.846 7.734 15.056-33.936 11.43-4.211-8.563-1.326.781 4.213 8.237-11.766 3.699-11.163-.703-.014-.195-28.032 16.521 1.593 19.898-3.72 1.031-9.946-.879 10.341-19.031-28.566 16.836.527 1.033 1.007 1.77 1.098 1.74 1.187 1.711 1.28 1.689 1.371 1.664 1.461 1.639 1.554 1.617 1.645 1.596 1.736 1.574 1.827 1.549 1.916 1.529 2.02 1.518 1.104.793 1.073.742 1.032.688.996.635.958.584.925.537.892.492.871.453.849.42.828.383.812.354.807.328.801.307.799.285.802.266.817.254.827.242.842.23.864.225.89.219.917.219.944.217.979.219 1.016.223 1.052.23 1.091.24 1.128.254 1.174.266 1.218.285 1.262.303 1.311.326 1.395.359.693.195.711.221.7.238.689.254.673.27.662.279.652.293.643.301.633.312.619.318.61.324.604.332.594.338.582.338.573.342.571.346.562.346.546.342.543.344.537.344.525.338.519.334.507.33.506.326.152.1.238-.197.291-.238.289-.234.293-.238.688-.547 1.146-.631.639-.363.631-.367.635-.373.643-.377.656-.385.682-.389.711-.395.744-.395.781-.395.818-.387.863-.379.906-.365.953-.35.998-.332 1.021-.307 1.385-.383 1.301-.348 1.252-.322 1.205-.303 1.156-.281 1.111-.266 1.068-.252 2-.469.969-.229.914-.223.887-.223.855-.223.828-.227.807-.234.789-.242.773-.252.766-.268.76-.285.762-.305.768-.328.777-.355.791-.387.814-.42.838-.459.867-.5.898-.547.936-.596.971-.646 1.012-.701 1.059-.764 1.092-.814 1.99-1.553 1.889-1.561 1.797-1.584 1.709-1.604 1.615-1.623 1.523-1.645 1.432-1.666 1.342-1.688 1.246-1.711 1.158-1.732 1.064-1.76.975-1.787.883-1.812.795-1.846.703-1.879.613-1.914.523-1.953.432-1.996.338-2.041.246-2.092.15-2.141.053-2.195-.047-2.254-.148-2.312-.254-2.373-.359-2.438-.471-2.5-.582-2.566-.697-2.633-.812-2.701-.932-2.768-1.088-2.931-.289-.784-.291-.901-.254-.916-.217-.928-.184-.943-.141-.96-.102-.968-.061-.977-.018-.987.025-.997.07-1.001.117-1.006.162-1.007.211-1.01.256-1.008zm-31.228 4.454-8.709 5.132 18.926-2.485-2.297-7.056-7.348 4.696zm-36.743 22.992 11.381.85c5.18-1.484 7.646-2.447 12.322-3.787l.789 2.982v.037l13.061 4.852.16 3.654-13.27-4.93-.027 1.953 13.453 4.998.16 3.654-13.664-5.076-.025 1.812 13.555 5.037.16 3.652-13.764-5.113-.146 1.697 13.539 5.031.16 3.652-13.748-5.107-1.932 8.781-11.736.346-3.893-5.639-10.941 6.785-1.29-2.973 10.865-6.869-.862-1.934-10.88 6.783-1.286-2.967 10.802-6.875-.738-1.627-10.823 6.762-1.286-2.965 10.746-6.855-.798-1.814-10.765 6.775-1.494-3.445 11.772-6.945zm10.379 29.944 11.633-.262-6.203 12.309-11.147-5.863zm-6.254 6.886 11.069 5.936-16.406 10.828-2.333-8.979zm-8.674 8.076 2.048 8.854-17.929-2.287 3.49-7.303zm-13.415-.835-3.678 7.135-7.771-13.979 3.626-1.189z"/><path fill="#fff22d" d="m157.297 57.225-1.021.119-.996.103-.965.087c-4.119.318-8.09.312-12.135-.603l-.682-.176-.67-.192c-15.043-4.84-24.359-13.472-41.373-15.021l-1.883-.107c-22.95-.559-39.093 16.383-56.544 16.113l-.69-.025-.702-.039-.724-.053-.731-.066-.747-.076-.772-.087-.795-.098-.818-.106-.849-.115-.881-.125-.916-.134-.95-.143-.988-.15-1.9-.384-.222 1.086-.26 1.148-.289 1.165-.315 1.181-.341 1.203-.365 1.228-.387 1.251.551.514.904.919.853.939.8.963.749.983.694.999.641 1.012.589 1.025.539 1.036.487 1.046.437 1.052.385 1.056.34 1.061.289 1.063.243 1.058.196 1.055.153 1.054.107 1.049.065 1.036.024 1.03-.016 1.024-.058 1.01-.094.993-.133.984-.169.969-.206.953-.241.936-.276.918-.274.797-1.042 2.957-.881 2.784-.765 2.715-.648 2.645-.536 2.576-.425 2.508-.316 2.443-.21 2.377-.107 2.314-.006 2.254.092 2.195.189 2.137.283 2.088.376 2.033.468 1.988.56 1.943.647 1.906.737 1.863.437.967 55.396-32.648-36.402.666.21-31.418 31.737-19.683-9.79 21.502 11.146.305-16.78 16.243-8.111-3.62.419 9.524 29.135-4.812.369 10.154 1.636-.963-.847-11.674 5.607.947 7.505-1.125 3.863-2.555 1.926 3.766 1.35-.795-.877-1.779 5.012-.658 11.357-6.694-21.502-10.815 12.611-2.542-17.434-16.728 34.994 9.197 6.223 12.111 23.879-14.073-.119-.525-.113-.519c-1.921.167-5.847.74-7.921 1"/><path fill="#0094d6" d="M164.877 53.515c-.512-3.812-.439-6.841.195-10.667l.229-1.168.264-1.183.299-1.198.336-1.221.367-1.245.402-1.273.434-1.307.057-.161-.059-.055-.727-.697-.725-.702-.717-.699-.709-.688-.688-.667-.664-.633-.619-.584-.004-.003-.574.087-1.08.15-1.049.134-1.021.119-.994.104-.965.087-.941.073-.922.057-.9.042-.875.025-.855.011-.838-.007-.818-.021-.797-.039-.785-.054-.771-.072-.754-.088-.736-.105-.729-.123-.711-.141-.701-.159-.682-.176-.67-.192-.656-.211-.645-.227-.623-.243-.611-.257-.604-.277-.58-.287-.518-.275-.863-.47-.82-.444-.814-.438-.807-.432-.803-.423-.801-.419-.797-.411-.789-.403-.787-.396-.787-.39-.785-.383-.783-.376-.779-.367-.779-.36-.781-.354-.775-.344-.777-.335-.781-.329-.783-.321-.779-.312-.785-.305-.789-.297-.789-.288-.791-.279-.797-.271-.805-.264-.807-.254c-15.025-4.543-26.625-4.794-41.969.044a125 125 0 0 0-9.242 3.557l-1.831.824-1.821.856-1.812.887-1.804.918-1.795.946-1.785.973-1.827 1.028-.513.283-.582.297-.593.277-.606.258-.627.24-.639.214-.646.189-.654.163-.66.139-.664.113-.673.09-.67.065-.673.045-.679.024-.68.007-.685-.011-.689-.025-.703-.039-.723-.053-.731-.066-.747-.075-.772-.086-.796-.098-.818-.106-.847-.115-.881-.126-.916-.134-.95-.143-.989-.15-.639-.099-.469.364-.779.607-.815.636-.84.657-.856.661-.855.669-.846.661-.653.51.396 1.164.41 1.271.376 1.241.342 1.217.309 1.198.274 1.185.239 1.168.202 1.159.166 1.152.126 1.146.089 1.14.05 1.135.012 1.132c-.039 1.574.151 2.874-.215 4.631l1.403.119.988.15.95.143.916.134.881.126.847.115.818.107.795.097.772.087.747.075.731.066.723.053.703.039.69.025c17.451.27 33.595-16.673 56.544-16.113l1.883.107c17.014 1.55 26.33 10.182 41.375 15.022l.67.192.682.176c4.043.915 8.014.921 12.133.603l.965-.087.996-.104 1.021-.119c1.957-.245 5.629-.857 7.602-.947"/><path fill="#fff" d="m135.312 31.05 4.406 1.652L138 38.138l4.816 1.807 1.719-5.435 4.426 1.66-4.91 15.532-4.426-1.66 1.986-6.281-4.816-1.807-1.986 6.281-4.404-1.652zm-16.339-8.087 13.131 5.779-1.395 3.762-4.408-1.939-4.254 11.468-4.318-1.902 4.252-11.467-4.404-1.938zm-14.481 3.24 1.943.335q.31.055 1.248-.009.474-.023.824-.38.346-.36.424-.891.114-.787-.283-1.284-.395-.503-1.654-.719l-2.021-.349zm-6.025 8.854 2.359-16.224 7.67 1.323c1.422.246 2.492.565 3.201.963q1.072.59 1.607 1.792.532 1.197.309 2.744c-.131.902-.422 1.646-.867 2.24a4.3 4.3 0 0 1-1.684 1.34c-.434.188-1.002.311-1.709.359q.778.441 1.113.808.22.241.611.977c.258.494.426.863.498 1.12l1.543 5.087-5.203-.897-1.736-5.384q-.328-1.04-.654-1.395a1.9 1.9 0 0 0-1.072-.568l-.406-.07-.957 6.584zm-9.149-5.615-2.495-5.548-.79 6.115zm1.474 3.344-5.243.904-.333 2.803-4.703.812 3.238-17.19 5.018-.866 7.96 15.258-4.817.831zm-21.558 5.529 2.234-.885q1.133-.449 1.448-1.066.32-.622.073-1.36-.228-.685-.826-.918c-.399-.154-.981-.083-1.75.222l-2.224.882zm-2.026-6.063 1.904-.755q1.023-.407 1.3-.951.27-.546.028-1.269-.224-.675-.751-.895-.532-.221-1.526.174l-1.934.767zm-6.44-4.303 8.198-3.25q2.05-.812 3.514-.14 1.469.67 2.012 2.299.459 1.369.004 2.66c-.206.574-.597 1.121-1.183 1.637q1.657-.204 2.706.482 1.044.691 1.537 2.162a4.9 4.9 0 0 1 .21 2.363 4.56 4.56 0 0 1-.895 2.072q-.435.564-1.495 1.163-1.409.797-1.893.991l-7.559 2.997zM54.25 42.121l-3.341-4.993.198 6.171zm1.985 3.012-5.02 1.883.12 2.822-4.502 1.689.449-17.541 4.804-1.802 10.271 13.52-4.611 1.73z"/></g></svg>