<svg xmlns="http://www.w3.org/2000/svg" width="1920" height="1080" preserveAspectRatio="none" style="display:block" viewBox="0 0 2048 1152"><path d="M986.989 182.447c56.401-3.664 151.061 9.16 193.961 47.306 90.38 80.377 90.26 280.326 17.07 371.478-37.09 46.186-113.37 59.244-168.81 63.449-62.731 1.659-155.399-6.679-201.339-50.388-85.748-81.585-86.35-283.359-9.44-371.083 39.42-44.963 113.55-57.736 168.558-60.762M1127.43 624.04c21.85-10.486 37.02-22.348 52.42-41.1 45.13-60.292 43.77-151.604 36-223.683-4.91-45.636-25.09-93.727-62.84-120.749-33.14-24.912-86.07-36.551-126.69-36.13a6502 6502 0 0 1 47.75 121.22c10.52 27.495 24.55 63.804 31.59 91.882 7.93 31.613 11.3 75.101 14.21 108.665 2.7 31.189 6.6 68.814 7.56 99.895M992.692 202.025c.379 58.674.196 117.351-.548 176.022l28.646-.009-.68-176.069c-8.58-.052-19-.378-27.418.056m26.058 443.114c36.23-1.403 70.33-5.046 104.13-18.938-14.54-38.444-32.38-79.266-49.04-116.902-14.82-33.477-32.95-73.793-51.37-105.194l-32.337.073c-16.989 30.335-32.624 62.938-46.572 94.817-18.283 41.787-37.744 84.487-53.694 127.211 36.752 14.447 89.061 21.408 128.883 18.933m-35.212-442.69c-158.452 7.452-195.993 99.42-189.973 244.583 1.926 46.432 9.123 100.875 40.757 137.561 14.865 17.531 29.983 29.215 50.718 39.519a5311 5311 0 0 1 9.196-113.56c3.144-33.815 6.709-79.399 17.166-110.751 21.278-63.8 47.167-127.67 72.266-190.101.996-2.48 2.105-4.695 1.532-7.162zM1166.05 762.32c66.46-1.475 134.34.399 200.81.251 46.21-.103 72.28 53.678 56.46 93.477-5.19 13.051-11.51 19.645-22.03 28.377a58.5 58.5 0 0 1 9.57 7.763c19.92 20.378 16.41 57.982 16.48 84.681l-51.12-.077c-.33-11.19-1.03-23.817-1.1-34.856-.29-45.457-27.25-40.852-62.11-40.783l-70.54.112-4.69-20.529-5.86-25.452 79.72.124c14.53.012 29.25.517 43.72-.717 14.07-1.199 20.59-8.748 20.92-22.702.61-25.135-22.1-24.584-40.77-24.2-8.07.166-17.07.022-25.24.041l-92.12.113-.1 169.147-51.93-.25zm404.26-.126q29.07-.098 58.14.15c13.62 23.657 29.46 48.734 43.69 72.212l86.15 142.253-61.55.064c-32.53-51.712-65.93-110.899-97.41-163.894l-29.52 49.483-22.15 37.6 83.6.064 24.93 40.389-130.76.134c-6.58 11.193-16.19 25.096-23.42 36.215l-61.09-.02c43.53-69.402 86.92-144.169 129.39-214.65m-1152.067.002 58.209.083c13.058 23.232 29.718 49.297 43.668 72.311l86.101 142.213-61.592.047-97.319-163.862-29.522 49.484c-7.191 12.528-14.797 25.13-22.15 37.589l83.599.047 24.927 40.403c-43.468.547-87.308-.281-130.897.202-6.421 11.071-16.146 25.159-23.282 36.146l-61.052-.029c43.553-69.874 86.687-143.873 129.31-214.634m659.967-.001 51.55-.05-.02 41.355.1 62.754c.05 41.8 3.83 88.362-45.82 105.29-18.65 6.358-36.13 5.579-55.56 5.507l-39.269.029c-30.978.077-67.591 2.686-91.299-21.296-24.873-25.162-19.866-68.901-19.836-101.762l-.005-91.706q26.523-.288 53.046.02l-.083 101.242c-.012 16.317-.554 32.956.505 49.219 1.019 17.498 18.857 23.189 34.008 22.771 29.263-.808 59.653 1.393 88.753-1.041 11.84-.99 22.32-8.657 23.3-21.14 1.28-16.3.75-33.344.74-49.863zm-403.389.242c18.273-.902 41.937-.282 60.648-.282l111.554.02-.012 43.767c-56.198.586-112.64-1.025-168.848.625-30.997.91-21.815 60.809-22.699 81.831-2.065 49.138 17.678 44.9 56.747 44.86l58.289-.13 76.566-.101-.07 43.746c-36.543.673-73.914-.098-110.884.136-61.927.392-128.066 9.766-133.025-74.309-.723-10.981.067-22.556-.357-33.468-2.137-55.026 5.363-101.704 72.091-106.695"/></svg>