<svg xmlns="http://www.w3.org/2000/svg" width="400" height="400" preserveAspectRatio="none" style="display:block" viewBox="0 0 1600 1600"><path fill="#2dcacf" d="M0 0h1600v1600H0z"/><path fill="#fefefe" d="M1600 835.774V1600H842.769c6.211-3.63 53.437-5.91 63.986-7.27 86.002-11.07 173.255-38.54 250.625-77.01a809.08 809.08 0 0 0 359.57-360.98c38.37-77.8 62.88-158.821 75.18-244.486 2.31-16.044 3.04-61.855 7.87-74.48M846.913 0H1600v761.28c-4.36-10.393-6.36-63.024-8.49-77.363-2.09-14.137-4.88-28.188-7.82-42.578-48.48-239.398-203.56-443.588-421.16-554.54-49.92-25.343-101.69-44.413-155.5-59.638-25.855-7.314-53.99-13.495-80.571-17.5-12.24-1.845-72.669-4.827-79.017-9.26-.181-.127-.353-.268-.529-.401M0 851.729c5.254 10.376 7.766 64.609 10.353 79.97a899 899 0 0 0 22.765 96.411c70.724 237.51 247.43 428.9 478.56 518.32a882.3 882.3 0 0 0 156.527 43.08c12.754 2.23 79.677 7.31 84.85 10.49H0zM0 0h753.871c-7.213 4.494-52.407 6.184-64.239 7.72-35.49 4.606-69.611 11.647-104.052 21.49-256.354 71.217-460.52 265.234-544.706 517.626C21.662 603.699 8.919 662.058 4.607 721.693 4.114 728.51 3.273 741.465 0 746.982zm888.317 676.414c52.481-5.326 119.693 12.365 160.663 45.502 45.43 36.734 57.21 94.445 16.51 139.82-37.13 41.402-89.126 57.175-142.736 61.498-54.794 4.855-123.723-10.327-164.394-46.467-94.883-84.313-5.42-178.499 90.293-195.699 13.961-2.509 25.869-3.603 39.664-4.654"/><path fill="#2dcacf" d="M887.585 724.381c29.971-4.197 77.409 4.74 99.984 23.979 71.141 60.627 1.766 119.579-65.325 127.234-29.095 5.334-78.986-6.084-101.357-25.239-69.75-59.726.572-119.081 66.698-125.974"/><path fill="#fefefe" d="M1393.03 681.828q39.465.264 78.93.07l-.15 157.921c.01 21.187 1.34 57.886-.19 78.031-17.92-.275-35.85-.283-53.77-.024-61.73.549-63.63-.677-103.53-45.252l-46.27-51.75-54.23-60.07c-9.04-10.074-21.82-23.636-29.71-34.273-1.48 22.34-.76 49.81-.78 72.551l.04 118.732c-22.37-1.253-55.78-.147-78.69-.142 1.17-60.485-.33-121.402.21-181.925.16-17.473.23-36.171-.74-53.589 35.12.652 75.2-2.706 109.42 2.723 15.71 2.492 48.59 42.979 60.33 55.931l81.46 90.91c8.3 9.388 28.51 33.488 37.5 40.043l.92.668c-1.26-23.866-.63-50.782-.62-74.847zm-1041.179.312c25.876-3.171 45.67 25.899 61.557 43.403l55.93 62.061 76.795 84.188c15.075 16.7 26.786 28.922 40.897 46.638-23.498-1.566-65.381-.536-90.145-.757q-114.352-.522-228.703.364c5.88-7.553 37.044-42.43 44.046-48.372 40.829.899 82.086-.051 122.943-.183 7.723-.024 15.189-.583 22.911.251l-8.266-9.059a2868 2868 0 0 0-57.124-62.925c-10.274-11.169-25.985-27.576-34.593-39.457-11.702 11.797-23.695 26.453-35.274 38.78-36.988 39.378-72.837 82.353-110.355 121.008a6887 6887 0 0 0-84.427.227c7.709-10.691 23.631-27.296 32.684-37.196l53.327-58.687 75.381-83.404c13.917-15.395 28.254-31.9 43.07-46.385 5.07-4.957 12.712-8.22 19.346-10.495m255.836-.148 86.228-.124c-.845 59.18.415 118.679-.11 177.887-.17 19.279-.221 38.984.398 58.229-25.639-1.326-60.402-.219-86.496-.085.679-28.973.215-59.512.22-88.576z"/></svg>