<svg xmlns="http://www.w3.org/2000/svg" width="32" height="32" viewBox="0 0 32 32"><g data-name="组 38926"><path fill="#fff" d="M0 0h32v32H0z" data-name="矩形 14673"/><g data-name="组 38898"><path stroke="rgba(0,0,0,0)" stroke-miterlimit="10" d="m15.043 27.495-3.4-3.509a2.4 2.4 0 0 1-.669-1.68v-5.14h3.018v5.488a1.55 1.55 0 0 0 .432 1.08l1.162 1.2a.58.58 0 0 0 .414.179.57.57 0 0 0 .415-.179l1.162-1.2a1.54 1.54 0 0 0 .435-1.08v-5.483h3.014v5.135a2.4 2.4 0 0 1-.67 1.675l-3.395 3.514a1.26 1.26 0 0 1-.961.5 1.25 1.25 0 0 1-.957-.5Zm4.642-10.846a.8.8 0 0 1-.311-.113.7.7 0 0 1-.224-.234.6.6 0 0 1-.078-.309.64.64 0 0 1 .31-.533.9.9 0 0 1 .3-.109 2 2 0 0 1 .324-.021 2 2 0 0 1 .322.021.9.9 0 0 1 .309.109.64.64 0 0 1 .305.533.6.6 0 0 1-.068.313.63.63 0 0 1-.222.234.8.8 0 0 1-.31.114 2 2 0 0 1-.327.021 2 2 0 0 1-.33-.026Zm.09-.974a.6.6 0 0 0-.2.068.3.3 0 0 0-.152.254.3.3 0 0 0 .036.142.3.3 0 0 0 .11.116.6.6 0 0 0 .2.067 1.3 1.3 0 0 0 .242.017 1.3 1.3 0 0 0 .242-.017.5.5 0 0 0 .2-.067.33.33 0 0 0 .113-.119.3.3 0 0 0 .037-.139.31.31 0 0 0-.152-.254.6.6 0 0 0-.2-.068 2 2 0 0 0-.476 0Zm-2.887.94v-.879h-.762v-.35h1.9v.35h-.759v.879Zm-2.3 0v-1.23h.38v1.23Zm-1.654 0-.66-.684a.03.03 0 0 0-.019-.007c-.006 0-.014 0-.015.007q-.334.34-.661.681h-.527q.541-.556 1.079-1.116a.173.173 0 0 1 .247 0l1.079 1.116Zm5.081-1.782V9.341a1.55 1.55 0 0 0-.441-1.08l-1.162-1.2a.57.57 0 0 0-.415-.177.58.58 0 0 0-.414.177l-1.159 1.2a1.55 1.55 0 0 0-.432 1.08v5.488h-3.018V9.69a2.4 2.4 0 0 1 .671-1.675l3.398-3.509a1.25 1.25 0 0 1 .957-.5 1.26 1.26 0 0 1 .961.5l3.395 3.509a2.4 2.4 0 0 1 .67 1.675v5.14Z" data-name="联合 142"/></g></g></svg>