<svg xmlns="http://www.w3.org/2000/svg" id="logosandtypes_com" data-name="logosandtypes com" viewBox="0 0 150 150"><defs><linearGradient id="linear-gradient" x1="-221.02" x2="-220.4" y1="494.19" y2="494.19" gradientTransform="matrix(174.05 0 0 -174.05 38488.41 86081.85)" gradientUnits="userSpaceOnUse"><stop offset="0" stop-color="#fff"/><stop offset=".19" stop-color="#fff"/><stop offset=".49" stop-color="#e5e5e5"/><stop offset=".49" stop-color="#c1c2c2"/><stop offset=".65" stop-color="#9e9f9f"/><stop offset=".9" stop-color="#cfd0d0"/><stop offset="1" stop-color="#cfd0d0"/></linearGradient><linearGradient id="linear-gradient-2" x1="-220.53" x2="-219.92" y1="494.99" y2="494.99" gradientTransform="rotate(207.69 10289.244 57328.807)scale(-208.64 208.64)" gradientUnits="userSpaceOnUse"><stop offset="0" stop-color="#fff"/><stop offset=".25" stop-color="#fff"/><stop offset=".69" stop-color="#e5e5e5"/><stop offset=".97" stop-color="#cfd0d0"/><stop offset="1" stop-color="#cfd0d0"/></linearGradient><linearGradient id="linear-gradient-3" x1="-206.02" x2="-205.41" y1="497.79" y2="497.79" gradientTransform="rotate(73.14 -8729.317 -2071.211)scale(19.85 -19.85)" gradientUnits="userSpaceOnUse"><stop offset="0" stop-color="#cedce4"/><stop offset="1" stop-color="#34465d"/></linearGradient><linearGradient id="linear-gradient-4" x1="-215.29" x2="-214.67" y1="497.06" y2="497.06" gradientTransform="rotate(76.75 -22177.058 -5859.2)scale(52.65 -52.65)" gradientUnits="userSpaceOnUse"><stop offset="0" stop-color="#fff"/><stop offset=".2" stop-color="#cddbe4"/><stop offset=".79" stop-color="#4a5262"/><stop offset="1" stop-color="#4a5262"/></linearGradient><radialGradient id="radial-gradient" cx="-220.49" cy="492.57" r=".62" fx="-220.49" fy="492.57" gradientTransform="matrix(91.21 0 0 -91.21 20186.19 44998.26)" gradientUnits="userSpaceOnUse"><stop offset="0" stop-color="#88b4e1"/><stop offset=".21" stop-color="#88b4e1"/><stop offset=".9" stop-color="#002455"/><stop offset="1" stop-color="#002455"/></radialGradient><style>.cls-2{fill:#fff}.cls-4{fill:#000d30}</style></defs><g id="Layer_3" data-name="Layer 3"><g id="Layer_2" data-name="Layer 2"><path id="Layer_3-2" d="M0 0h150v150H0z" data-name="Layer 3-2" style="fill:none"/></g></g><path d="M74.51 8.42c-37.04 0-67.07 30.02-67.07 67.07s30.03 67.06 67.07 67.06 67.06-30.02 67.06-67.06S111.55 8.42 74.51 8.42" style="fill:#e3000b"/><path d="M124.3 106.68c-1.51 2.41-3.18 4.7-5 6.87-.02.02-.05.04-.07.06-.89 1.07-1.84 2.1-2.81 3.1-10.72 10.95-25.65 17.76-42.18 17.76s-31.44-6.8-42.16-17.75a57 57 0 0 1-2.86-3.16h-.02a60 60 0 0 1-7.18-10.67 58.6 58.6 0 0 1-6.76-27.39c0-24.69 15.17-45.81 36.68-54.62a59.1 59.1 0 0 1 22.29-4.37c4.61 0 9.1.54 13.4 1.54 2.73.64 5.4 1.46 7.97 2.47 22.01 8.56 37.62 29.93 37.62 54.97 0 9.93-2.47 19.28-6.8 27.49-.67 1.26-1.38 2.51-2.14 3.71" class="cls-4"/><path d="M62.92 21.07c-2.81.65-5.53 1.52-8.14 2.58-19.69 8.05-33.55 27.38-33.55 49.96 0 9.05 2.23 17.58 6.17 25.07 1.84 3.49 4.05 6.77 6.56 9.75 0 0 .02 0 .03.01.84 1 1.71 1.96 2.62 2.89 9.8 10.02 23.45 16.24 38.57 16.24s28.77-6.22 38.58-16.24c.89-.92 1.75-1.86 2.57-2.84 0-.03.04-.04.05-.06a56 56 0 0 0 4.59-6.27 55 55 0 0 0 1.95-3.41 53.6 53.6 0 0 0 6.22-25.14c0-22.91-14.28-42.47-34.42-50.29-2.35-.91-4.78-1.67-7.29-2.25-3.94-.92-8.03-1.41-12.25-1.41s-8.31.5-12.25 1.41" style="fill:url(#radial-gradient)"/><path d="M81.8 70.45H66.73c-1.13 0-1.77-.87-1.42-1.93 0 0 1.6-4.92 3.63-10.65 3.12-8.79 3.41-9.51 4.44-11.88l.05-.1c.03-.08.25-.16.47-.17h.71c.22.01.44.09.48.17l.04.1c1.04 2.37 1.33 3.1 4.45 11.88a484 484 0 0 1 3.63 10.65c.34 1.06-.29 1.93-1.42 1.93m46.37 25.16c-.06-.17-6.43-17.4-14.8-36.21-7.95-17.87-15.41-30.82-15.72-31.35-.66-1.14-1.95-1.99-3.36-2.33 0 0-10.68-3.42-19.93-3.42s-19.93 3.42-19.93 3.42c-1.38.41-2.64 1.1-3.36 2.33-.31.54-7.77 13.49-15.72 31.35-8.37 18.81-14.74 36.03-14.8 36.21-.44 1.2-.38 2.52.17 3.67 2.91 6.02 7.72 12.62 12.58 17.21a4.95 4.95 0 0 0 3.32 1.33l14.68.09h.04c2.3 0 4.29-1.6 4.74-3.83.36-1.76 1.39-7.11 1.9-9.44h.76c3.8 0 13.89.11 15.5.13s.05 0 .11 0h.11c1.61-.03 11.69-.14 15.5-.14h.77c.51 2.32 1.54 7.68 1.9 9.44.46 2.23 2.45 3.83 4.75 3.83h.04l14.68-.09c1.24-.02 2.43-.48 3.31-1.33 4.86-4.59 9.68-11.19 12.58-17.21.55-1.15.61-2.47.17-3.67" class="cls-4"/><path d="M54.18 27.67s-8 12.07-16.4 31.05c-8.89 20.09-16.94 41.72-16.94 41.72 2.8 5.84 3.62 8.7 8.28 13.12h20.96s1.61-8.09 2.1-10.11c.5-2.02 1.06-2.58 5.5-2.58s16.69.14 16.69.14 12.25-.14 16.68-.14 5 .56 5.49 2.58c.5 2.02 2.11 10.11 2.11 10.11h20.96c4.66-4.43 5.47-7.29 8.28-13.12 2.81-5.84-8.05-21.63-16.95-41.72-8.4-18.98-16.4-31.05-16.4-31.05s-8.87-4.1-20.18-4.1-20.19 4.1-20.19 4.1m6.22 45.67c-.5-1.8.59-5.05 4.44-16.52 2.93-8.75 3.24-9.58 4.3-12.12 1.15-2.76 2.73-3.28 5.23-3.28s4.08.52 5.23 3.28c1.05 2.54 1.36 3.37 4.3 12.12 3.85 11.47 4.95 14.72 4.44 16.52-.5 1.79-1.79 2.61-4.44 2.61H64.83c-2.65 0-3.94-.83-4.44-2.61" style="fill:url(#linear-gradient)"/><path d="M17.71 45.67c-16.46 31.37-4.39 70.15 26.99 86.62s70.15 4.39 86.63-26.99c16.46-31.37 4.38-70.15-26.99-86.62-9.52-4.99-19.72-7.37-29.77-7.37-23.08 0-45.39 12.5-56.86 34.35m30.26 80.4C20.04 111.4 9.28 76.87 23.95 48.93c14.65-27.92 49.18-38.69 77.13-24.02 27.93 14.66 38.69 49.19 24.02 77.13-10.22 19.46-30.08 30.58-50.63 30.58-8.94 0-18.02-2.11-26.5-6.56" style="fill:url(#linear-gradient-2)"/><path d="M56.12 114.02c-.45 2.23-2.4 3.89-4.7 3.89h-.04l-14.68-.09c-1.49-1.26-3.26-2.91-3.26-2.91l-4.26-1.35h20.96l5.97.45Zm42.53-.45h20.96l-4.26 1.35s-1.76 1.65-3.25 2.91l-14.68.09h-.04c-2.3 0-4.29-1.61-4.74-3.83" class="cls-4"/><path d="M90.75 104.65c.51 2.32 1.55 7.68 1.9 9.44a4.67 4.67 0 0 0 1.53 2.62c.4.36 4.49-3.14 4.49-3.14s-1.61-8.09-2.11-10.11c-.16-.67-.34-1.17-.65-1.56l-5.16 2.76Z" style="fill:url(#linear-gradient-3)"/><path d="M94.56 29.28s13.57 18.62 30.63 67.29c-20.75-40.52-30.63-67.29-30.63-67.29" class="cls-2"/><path d="M75.14 45.99c1.03 2.37 1.33 3.09 4.45 11.88 2.03 5.74 3.63 10.65 3.63 10.65.2.6.08 1.13-.26 1.49-.25.26 4.18 5.18 4.38 5 .48-.42.8-.97 1-1.68.5-1.8-.59-5.05-4.44-16.52-2.94-8.75-3.25-9.58-4.3-12.12-.52-1.25-1.12-2.04-1.87-2.53h-.02c-.32 0-2.58 3.83-2.58 3.83" style="fill:url(#linear-gradient-4)"/><path d="M87.97 76.94c3.42.12 6.11-1.5 4.89-4.72-2.54-7.06-12.84-28.38-12.84-28.38 1.1 2.64 1.43 3.51 4.51 12.63 4.05 11.96 5.19 15.36 4.67 17.23-.52 1.86-1.88 2.73-4.67 2.73H64.52l23.44.51Zm6.59 22.81c4.56-.09 5.21.47 5.97 2.54.76 2.09 4.18 10.77 4.18 10.77h-5.2s-1.61-8.09-2.11-10.11c-.49-2.03-1.06-2.58-5.49-2.58s-16.69.14-16.69.14-12.25-.14-16.69-.14l36.01-.61Z" class="cls-2"/></svg>