<svg xmlns="http://www.w3.org/2000/svg" data-name="logosandtypes com" viewBox="0 0 150 150"><path d="M0 .2h150v150H0Z" style="fill:none" transform="translate(0 -.2)"/><path d="M74.45 94.52a12.29 12.29 0 0 1 10.24 5.5L74.54 38.19l-10.47 62a12.3 12.3 0 0 1 10.38-5.67m0 24.59a12.31 12.31 0 0 1-12-9.46l-4.7 27.9a65.3 65.3 0 0 0 33.11.13l-4.56-27.71a12.29 12.29 0 0 1-11.85 9.14m65.18-44.42A65.06 65.06 0 0 0 74.57 9.63l46.09 111a64.87 64.87 0 0 0 18.97-45.94m-130.12 0a64.85 64.85 0 0 0 18.69 45.63L74.54 9.63A65 65 0 0 0 9.51 74.69" style="fill:#d00709"/></svg>