<svg xmlns="http://www.w3.org/2000/svg" xml:space="preserve" width="2005.425" height="2586.925" viewBox="0 0 530.602 684.457"><path d="M350.656 558.525v173.766c0 12.563 4.895 31.232 16.33 50.2 7.104 11.781 17.268 22.998 27.67 32.394 20.451 18.471 50.182 27.08 65.723 28.379l.582.048.582-.048c15.536-1.298 45.419-9.894 65.885-28.38 10.402-9.395 20.566-20.612 27.67-32.394 11.435-18.967 16.33-37.636 16.33-50.199V558.525H459.033Zm14 14h192.772v159.766c0 8.57-4.145 26.093-14.32 42.97-6.06 10.05-15.435 20.537-25.065 29.235-16.517 14.919-45.5 23.58-57.082 24.705-11.575-1.125-40.388-9.774-56.92-24.705-9.63-8.698-19.006-19.185-25.064-29.234-10.176-16.878-14.32-34.401-14.32-42.971z" style="color:#000;fill:#243d98;fill-opacity:1;fill-rule:evenodd;-inkscape-stroke:none;paint-order:stroke fill markers" transform="translate(-842.767 -1342.36)scale(2.4034)"/><path d="M357.656 565.525v166.766c0 10.567 4.52 28.663 15.326 46.586 6.581 10.915 16.35 21.767 26.366 30.813 18.599 16.798 48.21 25.478 61.612 26.597 13.403-1.119 43.177-9.799 61.776-26.597 10.016-9.046 19.785-19.898 26.366-30.813 10.805-17.923 15.326-36.02 15.326-46.586V565.525H459.034Z" style="color:#000;fill:#fff;fill-opacity:1;fill-rule:evenodd;stroke-width:14;-inkscape-stroke:none;paint-order:stroke fill markers" transform="translate(-842.767 -1342.36)scale(2.4034)"/><g style="fill:#243d98;fill-opacity:1"><path d="M471.35 575.16a17.98 17.98 0 0 0-14.589 7.41v-3.557H438.32v227.36h18.442V601.771c0-3.764 2.727-6.795 6.113-6.795s6.114 3.03 6.114 6.795v21.007h20.391v-29.59a17.99 17.99 0 0 0-18.03-18.029m53.01 3.176a29.423 29.423 0 0 0-29.486 29.488v113.666a29.423 29.423 0 0 0 29.487 29.487 29.423 29.423 0 0 0 29.487-29.487V607.823a29.423 29.423 0 0 0-29.487-29.488m.114 12.376a11.26 11.26 0 0 1 11.285 11.286V726.55a11.26 11.26 0 0 1-11.285 11.285 11.26 11.26 0 0 1-11.286-11.285V601.997a11.26 11.26 0 0 1 11.286-11.286" style="fill:#243d98;fill-opacity:1;fill-rule:evenodd;stroke:none;stroke-width:10;stroke-dasharray:none;stroke-opacity:1;paint-order:stroke fill markers;stop-color:#000" transform="translate(-842.767 -1342.36)scale(2.4034)"/><path d="M394.878 575.847c-7.012 0-14.442 1.532-19.17 5.953-5.159 4.825-7.303 12.867-7.303 20.521v15.622h16.102V601.75c0-5.833 4.696-9.166 10.529-9.166a10.505 10.505 0 0 1 10.528 10.528v31.224c-3.187-1.77-8.317-3.715-13.148-4.454-4.883-.746-9.457-.26-13.317 1.72-3.86 1.978-7.007 5.449-8.67 8.904s-1.844 6.893-1.935 14.857c-.02 1.787-.09 72.2-.09 72.2 0 14.667 7.915 20.733 22.582 20.733h34.259V602.32a26.416 26.416 0 0 0-26.474-26.474zm.158 63.722c5.832 0 10.528 6.35 10.528 12.183v75.344c0 5.833-4.696 15.005-10.528 15.005s-10.53-9.172-10.53-15.005v-75.344c0-5.833 4.697-12.183 10.53-12.183" style="fill:#243d98;fill-opacity:1;fill-rule:evenodd;stroke-width:10;paint-order:stroke fill markers;stop-color:#000" transform="translate(-842.767 -1342.36)scale(2.4034)"/></g></svg>