<svg xmlns="http://www.w3.org/2000/svg" xml:space="preserve" viewBox="0 0 546.7 123.9"><path d="M149.6 20.3h247.2V62H149.6z" style="fill:#00594f"/><path d="M165.8 44.5h6.4l-3.3-8.5zm-6.6 8.2 9.5-22.4h2.6l9.5 22.4h-4.9l-2.1-5.7h-8.5l-2.3 5.7zm22.3-1-.3-4.1c2.1 1.8 4.4 2.8 6.7 2.8 1.3 0 2.3-.3 3.1-.8 1.1-.9 1.3-2.5.5-3.6-.1-.1-.1-.2-.2-.2-.8-1-2.3-1.5-5.7-3.1-3.1-1.5-4.6-3.6-4.6-6.4 0-1.8.8-3.3 2.1-4.6 2.8-2.6 7.7-1.5 8.2-1.5 1 .3 1.8.5 2.6.8l.3 3.9c-.9-.7-1.8-1.2-2.8-1.5-3.1-1-6.4-.3-6.4 2.3 0 1.3.8 2.1 2.6 3.1 3.9 2.1 5.9 2.8 7.2 4.6 1.8 2.1 1.8 6.4-1 8.5-1.5 1-3.3 1.8-5.9 1.8-3-.5-5.3-1.5-6.4-2m21.4 1V32.9c-1.8 0-3.9.3-6.7.5l.3-3.3h17.2l.3 3.3c-3.6-.5-5.7-.5-6.7-.5v19.5h-4.4zm22.3-2.3c3.6 0 6.7-2.8 6.7-9 0-.5 0-5.4-3.1-8-1-.8-2.1-1-3.6-1-4.6 0-6.7 4.4-6.7 9 .3 6.2 3.4 9 6.7 9m0 2.8c-6.7 0-11.3-4.9-11.3-11.6 0-6.9 4.6-11.6 11.3-11.6s11.3 4.6 11.3 11.6c.1 6.7-4.6 11.6-11.3 11.6m15-.5V30.3h2.3l13.4 15.2V30.3h3.1v22.4h-2.3l-13.4-15.2v15.2zm30.8 0 2.6-22.4h2.3l8 15.7 7.7-15.7h2.3l2.6 22.4h-4.6l-1.3-13.9-6.2 12.9h-2.1l-6.4-12.9-1.3 13.6H271zm33.7-8.2h6.4l-3.3-8.5zm-6.7 8.2 9.5-22.4h2.6l9.5 22.4h-4.9l-2.1-5.7h-8.5l-2.3 5.7zm27.5-12.3c.5 0 1.3.3 1.8.3 3.6 0 4.6-2.1 4.6-3.9 0-2.8-2.1-3.9-4.6-3.9h-1.5v7.5zM321.4 53V30.6c1.3-.3 2.8-.3 5.1-.3 2.1 0 3.9.3 5.1.8 2.1.8 4.6 2.3 4.6 5.7 0 1.3-.5 2.6-1.3 3.9-.8 1-2.1 1.8-3.6 2.3l8 10h-5.1l-6.9-9.5h-1.5V53zm23.2-.3V32.9c-1.8 0-3.9.3-6.7.5l.3-3.3h17.2l.3 3.3c-3.6-.5-5.7-.5-6.7-.5v19.5h-4.4zm13.8-22.4h4.4v22.4h-4.4zm8.8 22.4V30.3h2.3l13.4 15.2V30.3h3.1v22.4h-2.3l-13.4-15.2v15.2z" style="fill:#fff"/><path d="M545.7 4.1C544.2 1.5 541.3 0 538 0H317.6c-3.6 0-9.3 0-15.2 5.9q-2.4 2.4-3.9 5.4c-1.8 3.3-3.1 5.7-9.3 5.7h-32.1c-5.9 0-7.5-2.3-9.3-5.7-1-1.8-2.1-3.6-3.9-5.4C238.1 0 232.4 0 228.8 0H8.7C5.1 0 2.3 1.5 1 4.1c-1.5 2.6-1.3 5.9.5 8.7l3.9 6.7c2.1 3.6 4.9 4.1 6.9 4.6 1.8.3 3.1.5 4.4 3.1l3.6 6.2c2.8 5.1 5.9 5.7 8.2 6.2 1.8.3 3.6.5 5.9 4.6s5.7 10.3 14.1 12.9c.8.3 82 23.9 82.3 23.9 8.5 2.8 10.8 5.9 13.4 9.8 1.5 2.3 5.9 8.5 16.2 11.3l78.2 21.1c8.5 2.3 13.6-1.8 16.2-4.1l14.1-13.4c2.1-1.8 3.1-2.6 4.4-2.6s2.3.8 4.4 2.6l14.1 13.4c2.6 2.1 7.7 6.2 16.2 4.1l78.2-21.1c10.5-2.8 14.7-9 16.2-11.3 2.6-3.9 4.9-7.2 13.4-9.8 0 0 81.3-23.7 82.3-23.9 8.2-2.6 11.8-8.7 14.1-12.9 2.3-4.1 3.9-4.4 5.7-4.6 2.3-.5 5.7-1 8.5-6.2l3.6-6.2c1.5-2.6 2.6-2.8 4.4-3.1 2.1-.5 4.9-1 6.9-4.6l3.9-6.7c1.7-3 2-6.1.5-8.7m-150.5 18v38.6H151.4V22.1zm-87.4 95.4c-5.9 0-8-5.1-9.5-9.3-1.8-4.6-11.3-35-14.1-43.2h12.1c6.4 11.1 18.3 30.6 23.4 38.8 1 1.5 3.6 5.9 8.2 8.7-18.6 5-18.1 5-20.1 5m28.5-7.7c-6.7 0-10.3-5.1-12.3-8.5-4.4-6.9-14.4-23.7-21.9-36.3h13.4c8.5 9 26.2 27.8 33.2 35 1 1 3.3 3.3 6.7 5.4-16.5 4.1-16.5 4.4-19.1 4.4m27.3-7.5c-5.1 0-9-3.6-11.6-6.2-6.2-6.2-20.8-21.6-29.8-31.4h14.7c9.3 6.9 30.6 22.6 39.1 28.3 2.6 1.7 5.3 3.1 8.2 4.1-19.1 5.2-18.6 5.2-20.6 5.2M398 87.9c-2.3 3.6-4.1 5.4-8.2 5.4-3.9 0-7.7-1.8-11.1-4.1-6.9-4.9-23.1-16.5-33.4-24.2h17.5c21.3 10.5 30.3 15.4 36.3 17.2l3.1.8c-1.8 1.3-2.9 3.1-4.2 4.9m6.5-10c-4.9 0-11.3-3.3-30.9-13.1h19l26.7 6.7c1.8.5 3.6.8 5.1 1.3-15 4.6-17.4 5.1-19.9 5.1m51.9-14.4c-15.7 4.6-18.3 5.7-22.6 5.7-3.1 0-6.9-.5-13.4-2.3l-21.1-5.4V54zm16.5-4.6c-5.1 1.3-9.8.8-17-.5l-56.1-9.3v-5.9l91.8 10.3zm34.4-17.2c-.8 1.3-1.5 2.6-2.3 3.6-3.1 4.4-5.1 4.1-14.9 3.1l-90.8-10.3v-5.7L504 38.6c.8 0 2.8.3 5.1.3-.5.7-1.3 1.7-1.8 2.8m17.8-17.3s-2.1 3.3-2.8 5.1c-3.1 4.9-4.6 4.9-13.4 4.1l-109.3-6.4v-4.6h126.8c-.5.8-.8 1.3-1.3 1.8M540.8 10l-2.8 4.9c-2.1 3.1-2.8 3.1-9.5 3.1H300.8c2.3-2.8 3.1-5.7 5.7-8.2 4.4-4.4 8-4.4 11.3-4.4h220.4c1.5 0 2.6.5 3.1 1.3.2.8.2 2-.5 3.3M250.2 116.2c1-1.3 1.8-3.1 3.1-6.2 1.8-4.6 11.8-36.3 14.7-45h11c2.8 9 12.9 40.4 14.7 45 1 3.1 2.1 4.9 3.1 6.2-.3-.3-.8-.5-1-.8L281.7 102c-2.3-2.1-4.6-4.1-8-4.1-3.3 0-5.9 2.1-8 4.1l-14.1 13.4c-.6.3-1.2.6-1.4.8m-31.4-3.8c4.6-2.8 7.5-7.2 8.2-8.7 5.1-8 17-27.8 23.4-38.8h12.1c-2.6 8.2-12.3 38.6-14.1 43.2-1.5 4.1-3.6 9.3-9.5 9.3-2.1.1-1.6.1-20.1-5m-27.2-7.2c3.3-1.8 5.7-4.1 6.7-5.4 6.9-6.9 24.9-26 33.2-35h13.4c-7.5 12.6-17.5 29.3-21.9 36.3-2.1 3.3-5.7 8.5-12.3 8.5-2.7.2-2.9-.1-19.1-4.4m-28.8-8c3.6-1 6.7-3.1 8.2-4.1 8.5-5.7 29.8-21.3 39.1-28.3h14.7c-9 9.8-23.7 25.2-29.8 31.4-2.6 2.6-6.2 6.2-11.6 6.2-2.1-.1-1.9-.1-20.6-5.2m-18-14.4c1-.3 2.1-.3 3.1-.8 6.2-1.8 15.2-6.4 36.3-17.2h17.5C191 72.5 175.1 84.1 168.2 89c-3.1 2.3-7.2 4.1-11.1 4.1-4.1 0-5.9-1.8-8.2-5.4-1.3-1.6-2.6-3.4-4.1-4.9M122.4 73c1.5-.3 3.3-.8 5.1-1.3l26.7-6.7h19c-19.5 9.8-26 13.1-30.9 13.1-2.7-.2-5-.7-19.9-5.1m24.9-19v7.5l-21.1 5.4c-6.4 1.5-10.3 2.3-13.4 2.3-4.4 0-6.9-1-22.6-5.7zm-91.8-.5 91.8-10.3v5.9l-56.1 9.3c-7.5 1.3-12.1 1.8-17 .5zm-18-14.7c2.1-.3 4.4-.3 5.1-.3l104.7-6.2V38L56.6 48.3c-9.8 1-11.8 1.3-14.9-3.1-.8-1-1.5-2.3-2.3-3.6-.6-1-1.1-2-1.9-2.8M20.6 22.9h126.8v4.6L38 33.9c-8.7.5-10.3.8-13.4-4.1-1-1.7-1.9-3.4-2.8-5.1-.5-.8-1-1.3-1.2-1.8M5.6 6.7c.5-.8 1.5-1.3 3.1-1.3h220.4c3.3 0 7.2 0 11.3 4.4 2.6 2.6 3.3 5.4 5.7 8.2H18.5c-6.7 0-7.5 0-9.5-3.1L6.2 10c-.8-1.3-1.1-2.5-.6-3.3"/></svg>