<svg xmlns="http://www.w3.org/2000/svg" width="751" height="272" preserveAspectRatio="none" style="display:block" viewBox="0 0 2048 742"><path fill="#fff" d="M0 0h2048v742H0z"/><path fill="#2293cf" d="M535.573 383.352c97.057-1.083 196.956-.427 294.207-.047-7.495 7.512-37.598 26.676-48.252 33.749L686 480.433 510.054 597.516l-63.414 41.736c-14.331 9.557-30.996 24.756-47.902 26.522-63.875-.796-129.517-.246-193.579-.221l-49.057.279c-8.846.06-18.748.369-27.456-.55-7.313-.773-19.942-12.26-21.065-19.544-2.286-14.828-1.18-31.314-1.093-46.398q.054-27.783-.199-55.565c43.657-1.005 87.582.062 131.263.088 14.903.008 38.224 2.049 52.196-1.011 7.869-1.723 182.781-119.338 202.138-132.032 13.584-8.908 27.934-22.954 43.687-27.468m375.034.038c31.875-1.269 70.926-.204 103.243-.198l188.37.112c-9.42 9.91-27.61 20.115-39.83 28.333l-86.41 57.687-191.359 127.191-65.165 42.931c-11.622 7.738-31.885 24.798-44.821 26.121-39.694 1.098-84.176.133-124.184.144q-84.042.378-168.082-.339c13.851-11.218 42.075-28.761 57.706-39.139l107.856-71.682 157.083-104.596c30.025-20.081 60.381-40.022 90.443-60.08 5.021-3.35 9.225-5.38 15.15-6.485"/><path fill="#4da957" d="M1657.87 383.475c22.4-.685 46.97-.238 69.56-.24l146.1.012c26.83.007 55.05.527 81.72-.207-13.5 6.737-33.48 20.757-46.53 29.465l-69.71 46.336-238.7 158.682c-12.76 8.477-65.61 46.28-77.21 48.051-22.84 1.024-53.96.145-77.24.151l-150.54.016c-21.13-.005-47.27-.904-67.88.161 14.52-6.614 27.6-16.034 40.92-24.869l60.23-40.211 273.97-182.018c9.88-6.43 47.78-33.519 55.31-35.329m-376.99-.203 203.38-.078c27.41.009 66.27 1.452 92.24.003-10.78 6.573-23.87 16.204-34.64 23.395l-74.76 49.697-215.97 143.523-60.94 40.662c-8.61 5.78-30.72 21.555-38.92 24.452-9.56 1.318-27.2.804-37.49.783l-62.47-.064c-63.523.018-131.907 1.311-195.144-.646 130.476-84.153 258.514-173.74 388.664-258.527 11.46-7.47 24.02-16.953 36.05-23.2"/><path d="m1846.7 95.229 70.47-.056c1.04 78.296-.05 157.955.28 236.399-40.41.445-81.83.207-122.28-.025L1720 222.424c-14.35-20.972-29.04-42.27-43.72-63.057-1.18-1.668-3.55-3.966-5.55-4.484-1.6-.414-1.4-.099-3.17.891-1.29 5.84-.72 37.913-.73 45.383-.04 43.959-.54 86.318 1.99 130.276-23.29.801-49.46.206-72.95.174.92-78.51-.63-157.617.25-236.192 14.68-.637 116.41-2.288 122.42 1.095 5.74 3.236 92.18 131.849 104.29 149.293 3.93 5.663 12.9 21.919 17.67 25.135 2.1 1.419 3.6 1.113 5.95.77 1.48-1.602 1.64-6.454 1.6-8.677-.89-55.783-1.81-112.048-1.35-167.802m-897.903-2.741c33.945-.064 67.153-1.062 101.013 2.317 55.05 5.494 61.08 25.979 61.34 75.534-19.2-.194-49.07-1.147-67.51.314-.57-4.976-2.15-10.296-3.45-15.187l-.39-.404c-9.56-9.751-20.36-8.082-33.56-8.194-16.081-.136-86.118-3.572-96.155 6.742-3.082 3.166-3.348 7.801-3.295 11.978.092 7.181 2.684 11.026 9.426 13.89 7.999 3.397 18.519 2.207 27.11 2.738 30.248 1.871 60.554 2.162 90.814 3.819 15.32.838 31.66.944 46.54 4.898 8.47 2.252 16.54 6.104 22.84 12.302 14.35 14.13 15.59 34.431 15.7 53.374.12 20.627-1.6 44.338-17.02 59.802-5.39 5.401-12.05 9.227-19.28 11.574-21.99 7.135-61.63 6.34-85.42 6.277-37 .067-118.498 5.234-146.114-18.948-15.504-13.576-14.439-42.742-15.281-62.384q34.115-.173 68.23.107c1.348 9.11.373 21.393 12.216 23.851 25.401 5.271 46.941 2.553 73.587 3.193 10.052.241 48.022 1.63 57.982-6.951 14.82-36.607-20.61-31.79-41.88-32.379a4292 4292 0 0 1-68.428-2.869c-51.092-2.229-96.599 3.802-98.712-59.997-2.945-88.9 40.146-82.716 109.697-85.397m-718.069 2.886c35.578-.98 74.703-.221 110.548-.239 39.216 79.085 79.921 157.493 120.3 236.007-22.81 1.554-56.059.526-79.599.498-5.629-13.091-13.996-27.04-20.131-40.879l-22.346.152-130.481-.007c-5.498 12.397-14.213 28.299-20.52 40.664-25.162.851-54.678.084-80.183.072 7.102-15.817 15.784-28.664 23.374-43.763l65.691-128.746c11.598-22.338 21.939-40.409 33.347-63.76"/><path fill="#fff" d="M278.454 149.305c4.564.024 9.361.397 13.932.667 10.925 25.107 31.782 63.945 44.706 89.034-14.671.382-30.81.114-45.592.136l-57.778-.014c13.724-29.472 30.216-60.394 44.732-89.823"/><path d="M487.517 95.025c20.921 1.01 49.223.165 70.724.188l-.102 98.019c-.008 17.97-1.048 40.9 1.933 58.446 1.016 5.979 6.388 12.146 10.392 16.524 7.442 2.155 29 6.362 39.1 5.991 26.649-1.069 77.781 5.424 100.336-9.461 11.327-7.475 9.097-62.168 9.093-76.394l.1-93.092c23.436-.278 47.286-.027 70.755.003L789.8 155.5l.047 80.464c-.085 36.601-2.385 81.089-46.597 91.342-38.909 9.023-84.849 7.272-125.364 6.975-33.813-.249-86.976 1.08-113.087-23.187-21.794-22.241-17.438-80.088-17.443-110.37z"/><path fill="#2293cf" d="m127.099 383.17 211.761.035c38.953-.009 80.28.64 119.086-.39-28.411 16.752-58.69 38.782-86.725 57.086-16.323 10.272-85.822 60.965-98.325 62.297-18.958 2.021-38.964.672-58.091.652l-108.107-.045c-.169-29.311-1.451-72.194.133-100.829 5.327-8.53 11.599-13.981 20.268-18.806"/><path d="M1152.13 95.283c91.58-1.627 188.52-.086 280.45-.17l.07 59.815c-33.94.564-69.45.041-103.52.041-.61 24.014-.07 50.332-.08 74.531l.09 102.09-73.74.093q.45-52.54.27-105.08c0-22.895.57-48.947-.43-71.631l-103.24-.08zm318.63-.01 73.37-.19c1.53 77.039.09 159.038.08 236.478l-73.52.2z"/></svg>