<svg xmlns="http://www.w3.org/2000/svg" width="2461" height="2500" viewBox="-33.412 0 871.509 846.42"><path fill-rule="evenodd" d="M394.374 0C63.349 138.043-33.412 451.349 9.61 665.96c251.956 176.02 517.655 180.46 768.78 2.765C838.097 321.915 597.559 78.584 394.374 0m.653 35.936c0 .003.017.008.023.011L278.497 236.59l228.785 406.7 236.638.632L395.08 35.96c184.922 71.545 402.478 293.72 348.87 608-228.493 161.681-471.157 158.144-700.414-1.913l382.028 1.023-187.876-336.235L43.249 641.548C4.264 446.224 93.914 161.506 395.027 35.936"/></svg>