<svg xmlns="http://www.w3.org/2000/svg" xmlns:xlink="http://www.w3.org/1999/xlink" width="76" height="76" class="HeaderForPC_graphic-logo__3C7QW" viewBox="0 0 76 76"><defs><mask id="c" fill="#fff"><path d="M0 0h25.098v12H0Z"/></mask><mask id="d" fill="#fff"><path d="M0 0h2.201v7.49H0Z"/></mask><mask id="e" fill="#fff"><path d="M0 0h21.552v11.997H0Z"/></mask><path id="a" d="M0 0h76v62.122H0Z"/></defs><g fill="#fff" fill-rule="evenodd" style="fill:#000" transform="translate(-2.004 -1.581)scale(1.05)"><mask id="b"><use xlink:href="#a" width="100%" height="100%"/></mask><path d="m23.881 6.193 13.37 43.505-13.37 6.215zM51.85 3.297 38.1 48.227 24.327 3.297Zm.468 52.616-13.37-6.215 13.37-43.505zm-26.294.29L38.1 50.766l12.076 5.435zm-2.656 1.314h29.464q.803 0 .803-.802V2.785q0-.803-.803-.803H23.368q-.804 0-.804.802v53.93q0 .803.804.803" mask="url(#b)" style="fill:#000"/></g><g fill="#fff" fill-rule="evenodd" style="fill:#000"><path d="M23.288 12h1.81L13.406.354a1.213 1.213 0 0 0-1.713 0L0 12h1.81c.83 0 1.626-.329 2.214-.915l7.91-7.878a.87.87 0 0 1 1.23 0l7.91 7.878a3.14 3.14 0 0 0 2.214.915" style="fill:#000" transform="translate(0 68.182)scale(.62048)"/><path d="M1.81 0H0l11.693 11.646a1.213 1.213 0 0 0 1.712 0L25.098 0h-1.81c-.83 0-1.626.329-2.214.915l-7.91 7.878a.87.87 0 0 1-1.23 0L4.024.915A3.14 3.14 0 0 0 1.81 0" mask="url(#c)" style="fill:#000" transform="translate(15.364 68.182)scale(.62048)"/><path d="M2.201 6.93V.56a.56.56 0 0 0-.56-.56H.56A.56.56 0 0 0 0 .559V6.93c0 .309.25.559.559.559h1.083a.56.56 0 0 0 .56-.56" mask="url(#d)" style="fill:#000" transform="translate(51.577 70.98)scale(.62048)"/><path d="M96.092 2.19 94.812.918a3.15 3.15 0 0 0-2.22-.915H72.357l1.28 1.272a3.15 3.15 0 0 0 2.22.915h9.769zM72.782 12h1.81L62.899.354a1.213 1.213 0 0 0-1.713 0L49.493 12h1.81a3.14 3.14 0 0 0 2.215-.915l7.909-7.878a.87.87 0 0 1 1.231 0l7.91 7.878a3.14 3.14 0 0 0 2.214.915" style="fill:#000" transform="translate(0 68.182)scale(.62048)"/><path d="M18.122 6.804c1.946 0 3.514-1.607 3.427-3.556C21.467 1.412 19.877 0 18.035 0H0l1.283 1.272a3.16 3.16 0 0 0 2.224.915h14.54c.642 0 1.22.468 1.277 1.106a1.22 1.22 0 0 1-1.22 1.324H.56a.56.56 0 0 0-.56.559v6.262c0 .309.25.56.56.56h1.086a.56.56 0 0 0 .56-.56V6.804h10.99l4.313 4.27a3.16 3.16 0 0 0 2.231.923h1.813l-5.238-5.193Z" mask="url(#e)" style="fill:#000" transform="translate(62.627 68.184)scale(.62048)"/></g></svg>