<svg xmlns="http://www.w3.org/2000/svg" width="1024" height="768" preserveAspectRatio="none" style="display:block" viewBox="0 0 2048 1536"><path d="M1447.99 470.169q2.25-.126 4.5-.158l100.38-.08c52.15-.008 111.74-7.622 111.24 65.225-.1 13.369 0 27.42-.02 40.845l-.1 111.215v376.804c-61.59 1.32-128.5.09-190.49.09l-81.07-.11c.8-11.8-.11-34.88-.18-47.55-.1-34.588-.44-69.179-1.03-103.767l-.65-102.043c-.07-8.752 1.28-52.551-3.76-56.54-18.32-14.488-65.7-8.77-87.77-8.218a559 559 0 0 1-41.34-.226c23.54-34.625 47.28-69.11 71.23-103.45zm-629.517 2.19c23.086-.691 53.403.32 77.042.323q75.148-.257 150.295.265c-27.96 42.007-60.649 86.51-89.862 127.98l-169.603 240.77-93.509 132.807c-15.181 21.584-30.306 43.806-46.276 64.796-8.928 11.73-23.122 19.83-37.317 23.58-9.591 1.63-43.187.8-54.554.78l-115.328-.02c-14.35-.01-42.575-1.08-55.537.06l276.638-391.878 85.855-121.552c12.236-17.369 24.364-34.855 36.826-52.069 10.423-14.396 17.516-22.384 35.33-25.842m371.257-.086c43.44-.511 91.73.1 135.25.7-28.11 41.989-60.32 85.917-89.65 127.56l-173.41 246.173-90.556 128.671c-11.879 16.899-23.92 33.873-35.759 50.793-13.387 19.12-23.675 29.71-46.598 36.69-8.641 1.35-27.11.89-36.486.88l-62.931-.12c-10.858-.06-25.085-.67-35.582-.01l396.662-561.902c11.66-16.209 18.96-26.138 39.06-29.435"/></svg>