<svg xmlns="http://www.w3.org/2000/svg" width="500" height="500" preserveAspectRatio="none" style="display:block" viewBox="0 0 2000 2000"><defs><linearGradient id="s" x1="1758.49" x2="1762.9" y1="700.98" y2="1026.68" gradientUnits="userSpaceOnUse"><stop class="stop0" offset="0" stop-color="#646566"/><stop class="stop1" offset="1" stop-color="#9b9b9c"/></linearGradient><linearGradient id="r" x1="1888.56" x2="1868.13" y1="1122.2" y2="677.457" gradientUnits="userSpaceOnUse"><stop class="stop0" offset="0" stop-color="#838384"/><stop class="stop1" offset="1" stop-color="#c8c8c9"/></linearGradient><linearGradient id="q" x1="241.569" x2="247.444" y1="702.136" y2="1023.54" gradientUnits="userSpaceOnUse"><stop class="stop0" offset="0" stop-color="#646566"/><stop class="stop1" offset="1" stop-color="#9a9b9c"/></linearGradient><linearGradient id="p" x1="116.542" x2="126.95" y1="1121.12" y2="671.443" gradientUnits="userSpaceOnUse"><stop class="stop0" offset="0" stop-color="#838485"/><stop class="stop1" offset="1" stop-color="#cac9ca"/></linearGradient><linearGradient id="o" x1="1373.2" x2="1459.7" y1="366.072" y2="749.079" gradientUnits="userSpaceOnUse"><stop class="stop0" offset="0" stop-color="#171616"/><stop class="stop1" offset="1" stop-color="#68686a"/></linearGradient><linearGradient id="n" x1="570.584" x2="590.519" y1="458.942" y2="666.13" gradientUnits="userSpaceOnUse"><stop class="stop0" offset="0" stop-color="#1d1d1d"/><stop class="stop1" offset="1" stop-color="#6d6e6f"/></linearGradient><linearGradient id="m" x1="1000.98" x2="1001.25" y1="638.716" y2="377.915" gradientUnits="userSpaceOnUse"><stop class="stop0" offset="0" stop-color="#cfcfcf"/><stop class="stop1" offset="1" stop-color="#fff"/></linearGradient><linearGradient id="l" x1="1003.01" x2="1003" y1="1622.01" y2="1546.04" gradientUnits="userSpaceOnUse"><stop class="stop0" offset="0" stop-color="#090809"/><stop class="stop1" offset="1" stop-color="#333"/></linearGradient><linearGradient id="k" x1="463.507" x2="292.082" y1="1631.5" y2="1038.62" gradientUnits="userSpaceOnUse"><stop class="stop0" offset="0" stop-color="#302e2f"/><stop class="stop1" offset="1" stop-color="#878888"/></linearGradient><linearGradient id="j" x1="1548.48" x2="1718.36" y1="1623.17" y2="1029.94" gradientUnits="userSpaceOnUse"><stop class="stop0" offset="0" stop-color="#323132"/><stop class="stop1" offset="1" stop-color="#88898a"/></linearGradient><linearGradient id="i" x1="999.476" x2="999.936" y1="1003.39" y2="1571.04" gradientUnits="userSpaceOnUse"><stop class="stop0" offset="0" stop-color="#969697"/><stop class="stop1" offset="1" stop-color="#dddcdd"/></linearGradient><linearGradient id="h" x1="1544.53" x2="1562.85" y1="869.245" y2="1183.19" gradientUnits="userSpaceOnUse"><stop class="stop0" offset="0" stop-color="#c8c8ca"/><stop class="stop1" offset="1" stop-color="#fff"/></linearGradient><linearGradient id="g" x1="992.988" x2="993.001" y1="1184.99" y2="1282.96" gradientUnits="userSpaceOnUse"><stop class="stop0" offset="0" stop-color="#484748"/><stop class="stop1" offset="1" stop-color="#757677"/></linearGradient><linearGradient id="f" x1="1111.44" x2="1105.44" y1="790.753" y2="433.265" gradientUnits="userSpaceOnUse"><stop class="stop0" offset="0" stop-color="#c9c8c9"/><stop class="stop1" offset="1" stop-color="#fff"/></linearGradient><linearGradient id="e" x1="496.465" x2="491.663" y1="736.99" y2="1173.31" gradientUnits="userSpaceOnUse"><stop class="stop0" offset="0" stop-color="#8b8b8b"/><stop class="stop1" offset="1" stop-color="#dcdcdd"/></linearGradient><linearGradient id="d" x1="828.197" x2="801.398" y1="594.709" y2="755.732" gradientUnits="userSpaceOnUse"><stop class="stop0" offset="0" stop-color="#606061"/><stop class="stop1" offset="1" stop-color="#8b8b8c"/></linearGradient><linearGradient id="c" x1="897.453" x2="886.956" y1="779.471" y2="437.259" gradientUnits="userSpaceOnUse"><stop class="stop0" offset="0" stop-color="#cacacb"/><stop class="stop1" offset="1" stop-color="#fff"/></linearGradient><linearGradient id="b" x1="577.863" x2="640.902" y1="1395.84" y2="511.613" gradientUnits="userSpaceOnUse"><stop class="stop0" offset="0" stop-color="#8b8b8c"/><stop class="stop1" offset="1" stop-color="#dedede"/></linearGradient><linearGradient id="a" x1="1599.99" x2="928.666" y1="1391.45" y2="573.395" gradientUnits="userSpaceOnUse"><stop class="stop0" offset="0" stop-color="#959596"/><stop class="stop1" offset="1" stop-color="#bfbfc0"/></linearGradient></defs><path fill="url(#a)" d="M997.245 433.109c22.905.362 70.345-.018 90.805 3.022l2.73 1.096a4749 4749 0 0 0 56.98 33.213c10.81 6.262 25.88 15.551 36.76 20.869 2.16 21.986 1.42 43.916 3.96 67.567a572.7 572.7 0 0 0 74.79 228.15c23.12 37.23 43.14 66.59 72.44 99.392a575.2 575.2 0 0 0 299.95 175.192c37.95 8.91 70.54 11.17 108.92 13.9 8.78 14.31 17.83 25.66 28.83 42.12 7.17 10.73 27.52 39.49 36.02 52.29-.06.63-.12 1.26-.17 1.9-.04.07-.07.14-.11.22-4.09 10.72-10.14 19.96-16.71 30.33-43.22 68.23-104.93 126.18-171.77 170.85-3.59 2.4-23.36 5-28.07 5.7l-60.11 8.65c-9.01 1.25-28.4 3.43-36.36 5.94-21.46-16.48-36.79-29.25-59.81-45.1-56.48-36.58-108.08-62.34-172.09-83.78a840.7 840.7 0 0 0-551.609 7.73c-39.643 14.56-64.859 27.92-101.729 46.26-4.787 3.45-12.405 7.19-17.829 10.45a972 972 0 0 0-29.678 18.93c-23.539 15.7-38.898 29.09-60.546 45.22-4.062-1.94-23.214-3.95-28.628-4.68l-54.91-7.89c-11.544-1.68-28.033-3.55-38.842-6.77-8.312-2.47-25.455-16.79-33.073-22.49-63.467-47.51-121.859-108.97-159.221-179.41 13.956-22.78 48.754-70.35 65.462-95.31l3.155-1.17c16.266-1.6 32.521-2.13 48.724-3.97a558 558 0 0 0 117.325-26.89c152.392-52.27 267.402-160.862 337.481-304.618 25.32-55.565 37.005-97.375 47.212-156.864 3.182 6.913-3.364 10.167 3.691 15.966 10.045 2.694 44.218 3.752 55.406 2.805 2.322-.197 3.03-.317 4.698 1.049 12.112-33.682 35.488-116.776 36.863-152.257 1.201-2.632 1.68-11.424 1.919-14.681 21.715-2.869 64.45-2.53 87.144-2.931"/><path fill="url(#b)" d="M910.101 436.04c21.715-2.869 64.45-2.53 87.144-2.931l.446 3.617c.983 27.331-.357 56.621.702 83.156.84 17.504 2.317 38.352 2.237 55.631-.14 28.758-1.109 57.615-1.292 86.45l-.117 156.128.054 66.209c.016 11.944-.389 27.721.59 39.339l-20.003-38.7a11406 11406 0 0 1-131.629 75.685 39504 39504 0 0 0-486.53 280.616l2.034 2.61c14.815-7.95 33.812-16.21 49.297-23.84l98.411-49.61 487.943-247.395.051 261.025c-29.698-.09-58.934-.36-88.598 1.49a1096.1 1096.1 0 0 0-332.294 75.68c-10.039 4.12-52.005 21.34-58.697 26.39l.387 1.05c4.437 1.14 10.326-4.34 14.714-5.33 28.361-6.42 59.642-3.15 88.594-3.9 17.615-.45 36.45.02 53.399 3.12l.249 1.08c-12.073 6.99-61.884 27.19-66.301 35.01-4.787 3.45-12.405 7.19-17.829 10.45a972 972 0 0 0-29.678 18.93c-23.539 15.7-38.898 29.09-60.546 45.22-4.062-1.94-23.214-3.95-28.628-4.68l-54.91-7.89c-11.544-1.68-28.033-3.55-38.842-6.77-8.312-2.47-25.455-16.79-33.073-22.49-63.467-47.51-121.859-108.97-159.221-179.41 13.956-22.78 48.754-70.35 65.462-95.31l3.155-1.17c16.266-1.6 32.521-2.13 48.724-3.97a558 558 0 0 0 117.325-26.89c152.392-52.27 267.402-160.862 337.481-304.618 25.32-55.565 37.005-97.375 47.212-156.864 3.182 6.913-3.364 10.167 3.691 15.966 10.045 2.694 44.218 3.752 55.406 2.805 2.322-.197 3.03-.317 4.698 1.049 12.112-33.682 35.488-116.776 36.863-152.257 1.201-2.632 1.68-11.424 1.919-14.681"/><path fill="url(#c)" d="M910.101 436.04c21.715-2.869 64.45-2.53 87.144-2.931l.446 3.617c.983 27.331-.357 56.621.702 83.156-.312.423-.646.83-.935 1.269-5.082 7.727-16.021 229.407-17.05 257.826l-5.147-4.211c-48.341-4.569-97.366-5.835-145.819-1.969-10.255.818-20.136.02-30.361.284-3.381.103-7.212 6.581-11.768 4.855l10.125-17.029-1.192-3.03c.76-2.605.8-2.465.616-5.15-12.606-1.191-15.044.286-23.33-9.165-4.896-5.583-3.535-.61-8.97-.545-1.879-2.012-1.705-2.085-4.25-2.995 25.32-55.565 37.005-97.375 47.212-156.864 3.182 6.913-3.364 10.167 3.691 15.966 10.045 2.694 44.218 3.752 55.406 2.805 2.322-.197 3.03-.317 4.698 1.049 12.112-33.682 35.488-116.776 36.863-152.257 1.201-2.632 1.68-11.424 1.919-14.681"/><path fill="url(#d)" d="M807.524 583.158c3.182 6.913-3.364 10.167 3.691 15.966 10.045 2.694 44.218 3.752 55.406 2.805 2.322-.197 3.03-.317 4.698 1.049-21.424 59.909-42.312 103.07-73.881 157.929l-1.192-3.03c.76-2.605.8-2.465.616-5.15-12.606-1.191-15.044.286-23.33-9.165-4.896-5.583-3.535-.61-8.97-.545-1.879-2.012-1.705-2.085-4.25-2.995 25.32-55.565 37.005-97.375 47.212-156.864"/><path fill="url(#e)" d="M760.312 740.022c2.545.91 2.371.983 4.25 2.995 5.435-.065 4.074-5.038 8.97.545 8.286 9.451 10.724 7.974 23.33 9.165.184 2.685.144 2.545-.616 5.15l1.192 3.03-10.125 17.029c-33.198 50.062-65.685 97.397-107.676 140.604-11.967 12.315-22.762 26.936-35.41 38.827-12.637 11.089-26.422 20.902-39.211 31.837-96.308 82.346-212.65 146.836-337.437 172.506-23.409 4.82-55.455 10.12-79.414 10.27 13.956-22.78 48.754-70.35 65.462-95.31l3.155-1.17c16.266-1.6 32.521-2.13 48.724-3.97a558 558 0 0 0 117.325-26.89c152.392-52.27 267.402-160.862 337.481-304.618"/><path fill="#6e6e6f" d="m361.703 1241.24 2.034 2.61c-19.767 8.58-39.396 22.07-59.108 31.14-7.596 3.49-14.27 6.74-21.561 10.89 5.147-5.67 66.858-38 78.635-44.64"/><path fill="#6e6e6f" d="M997.691 436.726c4.139 9.758 6.279 90.694 7.109 106.998l12.24 223.994 4.18 78.56c.67 12.763 1.04 29.134 2.31 41.635 42.65 24.269 88.47 52.208 131.25 75.028 13.15 8.852 35.53 20.705 50.04 28.973 29.08 16.516 58.08 33.176 86.99 49.976l226.45 129.97c41.96 24.2 82.15 46.89 123.71 72.25l-1.38 2.8c-18.75-10.06-41.47-20.28-60.84-29.98l-127.27-64.33-426.59-216.189c4.58 82.109 9.64 165.479 13.18 247.559q-19.815.27-39.631.06l-.051-261.025L511.445 1170.4l-98.411 49.61c-15.485 7.63-34.482 15.89-49.297 23.84l-2.034-2.61a39504 39504 0 0 1 486.53-280.616 11406 11406 0 0 0 131.629-75.685l20.003 38.7c-.979-11.618-.574-27.395-.59-39.339l-.054-66.209.117-156.128c.183-28.835 1.152-57.692 1.292-86.45.08-17.279-1.397-38.127-2.237-55.631-1.059-26.535.281-55.825-.702-83.156"/><path fill="url(#f)" d="M997.245 433.109c22.905.362 70.345-.018 90.805 3.022-.84 13.311 4.75 37.721 7.68 51.677a864.5 864.5 0 0 0 86.42 239.288 1077 1077 0 0 0 43.43 72.596c1.19 1.849 6.02 8.167 5 9.183-5.81-6.343-12.03-22.033-21.62-22.95-4.75-.456-9.96.462-14.79.512-6.47.067-12.96-.298-19.42-.552-34.14-1.347-70.98-4.81-104.96-2.292-7.01.52-40.48 6.42-44.7 4.413-.5-.235-1-.461-1.5-.692-1.26 1.191-2.03 1.872-3.51 2.813-.08 7.82 3.98 95.104 6.02 96.404 35 22.343 73.33 42.232 109.31 63.458 3.51 2.072 18.99 9.566 19.37 12.952-42.78-22.82-88.6-50.759-131.25-75.028-1.27-12.501-1.64-28.872-2.31-41.635l-4.18-78.56-12.24-223.994c-.83-16.304-2.97-97.24-7.109-106.998z"/><path fill="url(#g)" d="M999.439 1184.03q19.816.21 39.631-.06c130.1-.58 287.79 35.34 406.64 87.77 15.91 7.02 48.81 21.83 62.36 30.92-2.45.84-5.08.68-7.5-.24-3.45-1.31-6.85-4.19-10.13-5.99-11.35-6.25-24.37-13.61-36.72-17.5-15.98-5.02-99.06-4.74-117.99-3.29-6.89.53-13.93 2.03-20.65 3.58l-1.45 1.29c8.97 5.57 19.3 8.43 28.81 13.2 20.18 10.12 78.93 38.92 94.59 53.37l-.71 1.33c-56.48-36.58-108.08-62.34-172.09-83.78a840.7 840.7 0 0 0-551.609 7.73c-39.643 14.56-64.859 27.92-101.729 46.26 4.417-7.82 54.228-28.02 66.301-35.01l-.249-1.08c-16.949-3.1-35.784-3.57-53.399-3.12-28.952.75-60.233-2.52-88.594 3.9-4.388.99-10.277 6.47-14.714 5.33l-.387-1.05c6.692-5.05 48.658-22.27 58.697-26.39a1096.1 1096.1 0 0 1 332.294-75.68c29.664-1.85 58.9-1.58 88.598-1.49"/><path fill="url(#h)" d="M1263.27 787.026c23.12 37.23 43.14 66.59 72.44 99.392a575.2 575.2 0 0 0 299.95 175.192c37.95 8.91 70.54 11.17 108.92 13.9 8.78 14.31 17.83 25.66 28.83 42.12 7.17 10.73 27.52 39.49 36.02 52.29-.06.63-.12 1.26-.17 1.9-.04.07-.07.14-.11.22-183.01-11.17-354.91-112.68-479.7-242.985-5.93-6.187-34.18-36.445-36.4-42.396l1.49.488c8.51 13.592 15.11 4.101 26.12-.952 2.39.737 2.48 1 4.9.615l.05-4.139c1.62-1.482 1.02-.658 1.91-2.393l-7.3-8.675c-17.89-21.273-42.82-54.504-57.05-80.14-.27-.478.05-3.928.1-4.437"/><path fill="#6e6e6f" d="M1641.97 1244.11c8.66 4.71 70.08 37.38 73.5 41.47-2.08.02-67.26-35-74.88-38.67z"/><path fill="url(#i)" d="M1751.2 1002.35c1.89 6.56 1.33 14.33 3.01 19.73 1.92-3.57 2.22-4.49 5.61-6.67 10.44-2.27 32.81 7.86 45.05 8.05 21.05.33 41.99-1.36 63.05-2.09 9.11-.32 13.94 3.19 19.75 3.54-.05-6.75-.36-15.68.14-22.21 2.15 12.56-3.84 70.36-8.31 81.07.88 4.63 3.05 9.66 7.2 12.29 14.97 9.52 70.73-.75 85.97 7.65 3.79 2.09 5.74 5.82 6.64 9.95.4 1.81.5 3.71.6 5.56l1.68 1.82c-57.69 171.93-203.4 290.91-361.27 369.42-34.67 17.06-70.12 32.5-106.22 46.27-4.4 1.69-24.36 9.32-28.61 9.95-30.25 12.63-86.12 27.54-118 35.53a1572.3 1572.3 0 0 1-726.344 2.32c-32.659-7.97-66.468-16.99-98.341-27.84-.755-.25-1.75-.75-2.261-1-4.134-.47-23.567-7.36-28.736-9.2a1249 1249 0 0 1-120.106-49.64c-138.975-67.24-273.24-166.83-345.78-306.68-12.524-24.15-20.052-44.53-28.919-70.06 5.903-3.02 4.59-2.84 9.849.17a81 81 0 0 1 4.459-2c6.47-2.73 13.343-3.82 20.27-4.73 8.2-1.08 64.856-5.54 68.42-3.99.508.22 1.003.47 1.504.7 2.713-1.99 2.057-2.47 3.28-6.58-3.579-7.31-13.302-59.63-12.919-69.74.099-2.63.947.65-.728-2.68l-.165-5.69 1.873.59c3.911-3.14 9.288-4.07 14.211-4.4 13.422-.9 29.8 1.31 43.548 1.85 10.811.42 59.851.46 66.404-3.23 5.348-3.02 7.208-7.4 8.829-13.07l.325-1.17-.988 7.58c2.34-3.44 1.589-4.12 1.954-9l.139 1.15c2.616 22.76 1.523 44.52 7.476 68.4l2.038 1.23-3.155 1.17c-16.708 24.96-51.506 72.53-65.462 95.31 37.362 70.44 95.754 131.9 159.221 179.41 7.618 5.7 24.761 20.02 33.073 22.49 10.809 3.22 27.298 5.09 38.842 6.77l54.91 7.89c5.414.73 24.566 2.74 28.628 4.68 217.44 130.05 501.391 161.83 745.771 100.71a918.2 918.2 0 0 0 185.87-67.4c21.04-10.31 41.07-22.03 61.65-33.02 7.96-2.51 27.35-4.69 36.36-5.94l60.11-8.65c4.71-.7 24.48-3.3 28.07-5.7 66.84-44.67 128.55-102.62 171.77-170.85 6.57-10.37 12.62-19.61 16.71-30.33.04-.08.07-.15.11-.22.05-.64.11-1.27.17-1.9-8.5-12.8-28.85-41.56-36.02-52.29-11-16.46-20.05-27.81-28.83-42.12 3.3-28.28 5.94-44.34 6.62-73.16"/><path fill="url(#j)" d="M1879.5 1083.77c.88 4.63 3.05 9.66 7.2 12.29 14.97 9.52 70.73-.75 85.97 7.65 3.79 2.09 5.74 5.82 6.64 9.95.4 1.81.5 3.71.6 5.56l1.68 1.82c-57.69 171.93-203.4 290.91-361.27 369.42-34.67 17.06-70.12 32.5-106.22 46.27-4.4 1.69-24.36 9.32-28.61 9.95-10.46-1.12-24.43 8.86-34.18 9.36-7.58-.14-16.5-5.93-23.96-5.62-40.87 1.65-82.04 1.75-122.86-1.17-7.6-.54-23.04-1.45-29.77-2.85 24.92-7.2 54.88-12.78 81.7-20.34a1055.4 1055.4 0 0 0 210.59-84.46c127.12-68.9 235.31-161.68 292.07-294.58 9.73-22.8 13.58-40.31 20.42-63.25"/><path fill="url(#k)" d="m124.785 1103.68.333.82c1.953 4.93 2.987 9.56 4.616 14.51 55.914 169.77 215.507 288.06 372.281 356.89a1113.4 1113.4 0 0 0 170.678 58.29c24.081 6.15 47.032 10.44 70.656 16.14-2.562 1.03-7.04 2.62-9.706 2.67-56.098 1.03-112.216 2-168.344 1.27-.568-.01-5.77 3.59-6.54 4.15-6.076 1.03-9.477-3.42-18.215-2.73-4.134-.47-23.567-7.36-28.736-9.2a1249 1249 0 0 1-120.106-49.64c-138.975-67.24-273.24-166.83-345.78-306.68-12.524-24.15-20.052-44.53-28.919-70.06 5.903-3.02 4.59-2.84 9.849.17a81 81 0 0 1 4.459-2c6.47-2.73 13.343-3.82 20.27-4.73 8.2-1.08 64.856-5.54 68.42-3.99.508.22 1.003.47 1.504.7 2.713-1.99 2.057-2.47 3.28-6.58"/><path fill="url(#l)" d="M743.349 1550.33c27.05 4.56 53.22 9.48 80.516 12.92a1426.5 1426.5 0 0 0 342.435.99c19.56-2.37 39.36-5.33 58.81-8.54 16.32-2.68 33.34-6.89 49.61-9.3 6.73 1.4 22.17 2.31 29.77 2.85 40.82 2.92 81.99 2.82 122.86 1.17 7.46-.31 16.38 5.48 23.96 5.62 9.75-.5 23.72-10.48 34.18-9.36-30.25 12.63-86.12 27.54-118 35.53a1572.3 1572.3 0 0 1-726.344 2.32c-32.659-7.97-66.468-16.99-98.341-27.84-.755-.25-1.75-.75-2.261-1 8.738-.69 12.139 3.76 18.215 2.73.77-.56 5.972-4.16 6.54-4.15 56.128.73 112.246-.24 168.344-1.27 2.666-.05 7.144-1.64 9.706-2.67"/><path fill="url(#m)" d="M207.785 617.399c51.762-43.091 112.075-79.199 174.046-109.466 175.352-85.642 374.998-128.618 569.691-132.407 44.868-.873 88.078.025 132.758.358 205.44 10.922 422.46 64.133 600.04 168.263a861 861 0 0 1 77.65 50.96c7.7 5.668 30.3 24.469 36.14 27.967-20.99 9.409-35.42 2.867-57.18 4.65-19.27 1.579-35.31 5.057-54.95 4.976 8.08 6.907 37.22 29.957 42.3 36.417 8.76 7.72 15.47 14.209 23.68 22.531 3.15 3.404 7.22 7.552 10.03 11.124-5.66-1.819-4.8-2.175-9.27 2.397-19.34.816-107.78-3.799-117.19 5.585-1.09 3.593-1.32 4.38-1.8 8.06l-19.13-19.636c-86.2-87.209-210.71-149.426-327.3-183.139a1016 1016 0 0 0-61.84-15.625c-12.75-2.738-28.93-5.004-40.94-9.105-10.88-5.318-25.95-14.607-36.76-20.869a4749 4749 0 0 1-56.98-33.213l-2.73-1.096c-20.46-3.04-67.9-2.66-90.805-3.022-22.694.401-65.429.062-87.144 2.931-.239 3.257-.718 12.049-1.919 14.681-1.375 35.481-24.751 118.575-36.863 152.257-1.668-1.366-2.376-1.246-4.698-1.049-11.188.947-45.361-.111-55.406-2.805-7.055-5.799-.509-9.053-3.691-15.966 2.202-17.77 4.008-33.325 5.003-51.139.743-13.297.503-27.221 1.306-40.138-12.408 3.088-24.956 5.265-37.435 7.983C680.569 520.736 584.619 556.102 501.126 608a701 701 0 0 0-45.838 30.92c-8.072 5.984-21.278 16.806-29.1 22-13.733 14.119-34.228 30.041-49.992 45.863.634-2.692 1.851-3.014 1.305-5.457-20.62-1.016-33.022 1.088-52.553 1.167l-48.984.035c-12.967-.001-27.931 1.404-40.198 1.006 5.564-6.424 12.372-13.01 18.401-19.102l3.709-4.333c5.077-2.735 38.183-33.618 44.984-39.282-1.26-1.369-4.489-4.935-6.114-5.562-16.546-6.38-39.693-9.148-57.184-9.464-8.621-.155-17.974 2.428-26.416 1.362-4.064-3.788.98.041-1.597-6.049l-2.662-.868z"/><path fill="url(#n)" d="M851.673 431.204c14.532 3.763 42.998-8.853 55.311 4.995 1.926 2.166.357 10.346-.05 13.413l1.248 1.109c-1.375 35.481-24.751 118.575-36.863 152.257-1.668-1.366-2.376-1.246-4.698-1.049-11.188.947-45.361-.111-55.406-2.805-7.055-5.799-.509-9.053-3.691-15.966 2.202-17.77 4.008-33.325 5.003-51.139.743-13.297.503-27.221 1.306-40.138-12.408 3.088-24.956 5.265-37.435 7.983C680.569 520.736 584.619 556.102 501.126 608a701 701 0 0 0-45.838 30.92c-8.072 5.984-21.278 16.806-29.1 22-13.733 14.119-34.228 30.041-49.992 45.863.634-2.692 1.851-3.014 1.305-5.457-20.62-1.016-33.022 1.088-52.553 1.167l-48.984.035c-12.967-.001-27.931 1.404-40.198 1.006 5.564-6.424 12.372-13.01 18.401-19.102l3.709-4.333c5.077-2.735 38.183-33.618 44.984-39.282 129.385-103.666 287.997-164.622 449.88-195.242 23.43-4.432 75.314-13.475 98.933-14.371"/><path fill="#6e6e6f" d="M254.167 684.432c.235 2.59.015 1.344.63 3.744 13.816-1.858 24.569-1.743 38.271-2.279 31.363-1.225 62.67-1.195 94.037-.393 2.403.062 7.571.192 9.431-1.03 5.921-4.052 10.989-9.929 16.17-14.964 3.751-3.645 8.22-6.044 11.698-9.699l1.784 1.109c-13.733 14.119-34.228 30.041-49.992 45.863.634-2.692 1.851-3.014 1.305-5.457-20.62-1.016-33.022 1.088-52.553 1.167l-48.984.035c-12.967-.001-27.931 1.404-40.198 1.006 5.564-6.424 12.372-13.01 18.401-19.102"/><path fill="url(#o)" d="M1101.04 426.928c160.29 9.191 344.68 59.658 483.79 138.696a954 954 0 0 1 67.96 42.551c10.58 7.409 22.97 17.797 33.19 24.525 8.08 6.907 37.22 29.957 42.3 36.417 8.76 7.72 15.47 14.209 23.68 22.531 3.15 3.404 7.22 7.552 10.03 11.124-5.66-1.819-4.8-2.175-9.27 2.397-19.34.816-107.78-3.799-117.19 5.585-1.09 3.593-1.32 4.38-1.8 8.06l-19.13-19.636c-86.2-87.209-210.71-149.426-327.3-183.139a1016 1016 0 0 0-61.84-15.625c-12.75-2.738-28.93-5.004-40.94-9.105-10.88-5.318-25.95-14.607-36.76-20.869a4749 4749 0 0 1-56.98-33.213l2.25-.162c1.07-3.262 5.47-7.411 8.01-10.137"/><path fill="#6e6e6f" d="M1728.28 669.117c8.76 7.72 15.47 14.209 23.68 22.531 3.15 3.404 7.22 7.552 10.03 11.124-5.66-1.819-4.8-2.175-9.27 2.397-19.34.816-107.78-3.799-117.19 5.585-1.09 3.593-1.32 4.38-1.8 8.06l-19.13-19.636c1.52-.25.65-.016 2.52-.926l-.83-6.839c8.86-11.785 119.21-2.404 124.9-6.09-4.04-6.973-10.63-6.805-12.91-16.206"/><path d="M851.673 431.204c11.004-1.873 24.705-2.623 36.039-3.618 38.079-3.229 76.784-4.085 115.008-3.666 31.76.347 66.85-.582 98.32 3.008-2.54 2.726-6.94 6.875-8.01 10.137l-2.25.162-2.73-1.096c-20.46-3.04-67.9-2.66-90.805-3.022-22.694.401-65.429.062-87.144 2.931-.239 3.257-.718 12.049-1.919 14.681l-1.248-1.109c.407-3.067 1.976-11.247.05-13.413-12.313-13.848-40.779-1.232-55.311-4.995"/><path fill="url(#p)" d="M152.233 667.201c14.89-14.457 39.173-38.64 55.552-49.802l1.102 2.837 2.662.868c2.577 6.09-2.467 2.261 1.597 6.049 8.442 1.066 17.795-1.517 26.416-1.362 17.491.316 40.638 3.084 57.184 9.464 1.625.627 4.854 4.193 6.114 5.562-6.801 5.664-39.907 36.547-44.984 39.282l-3.709 4.333c-6.029 6.092-12.837 12.678-18.401 19.102 12.267.398 27.231-1.007 40.198-1.006l48.984-.035c19.531-.079 31.933-2.183 52.553-1.167.546 2.443-.671 2.765-1.305 5.457-12.583 14.174-25.905 28.279-37.519 43.177-48.358 62.037-81.014 133.96-89.447 212.558-1.302 12.133-1.688 29.827-2.101 42.202-.365 4.88.386 5.56-1.954 9l.988-7.58-.325 1.17c-1.621 5.67-3.481 10.05-8.829 13.07-6.553 3.69-55.593 3.65-66.404 3.23-13.748-.54-30.126-2.75-43.548-1.85-4.923.33-10.3 1.26-14.211 4.4l-1.873-.59c.113-13.67 1.064-49.023-.663-60.692-2.423 13.763-1.617 53.442.23 67.532l.598-1.15c1.675 3.33.827.05.728 2.68-.383 10.11 9.34 62.43 12.919 69.74-1.223 4.11-.567 4.59-3.28 6.58-.501-.23-.996-.48-1.504-.7-3.564-1.55-60.22 2.91-68.42 3.99-6.927.91-13.8 2-20.27 4.73a81 81 0 0 0-4.46 2c-5.258-3.01-3.945-3.19-9.848-.17-.235-2.08-4.062-15.81-4.93-18.12-6.205-16.55-6.54-42.11-12.073-57.45v-88.159c1.494-3.427 4.99-26.788 5.97-31.972a410 410 0 0 1 9.822-40.219c26.228-86.485 73.86-153.384 136.441-216.989"/><path fill="url(#q)" d="M235.766 703.534c12.267.398 27.231-1.007 40.198-1.006l48.984-.035c19.531-.079 31.933-2.183 52.553-1.167.546 2.443-.671 2.765-1.305 5.457-12.583 14.174-25.905 28.279-37.519 43.177-48.358 62.037-81.014 133.96-89.447 212.558-1.302 12.133-1.688 29.827-2.101 42.202-.365 4.88.386 5.56-1.954 9l.988-7.58-.325 1.17c-1.621 5.67-3.481 10.05-8.829 13.07-6.553 3.69-55.593 3.65-66.404 3.23-13.748-.54-30.126-2.75-43.548-1.85-4.923.33-10.3 1.26-14.211 4.4l-1.873-.59c.113-13.67 1.064-49.023-.663-60.692 2.317-6.426 2.185-16.498 3.353-23.747 14.133-87.734 60.488-173.864 122.103-237.597"/><path fill="#ccc" d="M152.233 667.201c14.89-14.457 39.173-38.64 55.552-49.802l1.102 2.837 2.662.868c2.577 6.09-2.467 2.261 1.597 6.049 8.442 1.066 17.795-1.517 26.416-1.362 17.491.316 40.638 3.084 57.184 9.464 1.625.627 4.854 4.193 6.114 5.562-6.801 5.664-39.907 36.547-44.984 39.282-7.479 2.943-8.682 9.212-13.33 10.218l-.814-3.877-2.088 1.122-1.319-2.608c-5.439-4.023-61.377-4.76-71.548-5.023-1.147-.03-13.619 2.113-16.097 2.45 2.972-10.553-2.658-7.143-.447-15.18"/><path fill="url(#r)" d="M1798.11 623.074c7.24 5.394 46.65 41.11 51.07 47.122 72.83 67.157 132.06 171.697 146.51 270.192 1.17 7.978 1.63 20.046 4.31 27.247v65.135c-3.04 9.44-5.42 35.48-7.88 48.22-2.89 14.98-7.59 26.9-10.53 40.05l-1.68-1.82c-.1-1.85-.2-3.75-.6-5.56-.9-4.13-2.85-7.86-6.64-9.95-15.24-8.4-71 1.87-85.97-7.65-4.15-2.63-6.32-7.66-7.2-12.29 4.47-10.71 10.46-68.51 8.31-81.07-.5 6.53-.19 15.46-.14 22.21-5.81-.35-10.64-3.86-19.75-3.54-21.06.73-42 2.42-63.05 2.09-12.24-.19-34.61-10.32-45.05-8.05-3.39 2.18-3.69 3.1-5.61 6.67-1.68-5.4-1.12-13.17-3.01-19.73-2.56-118.012-41.03-195.223-117.47-283.536.48-3.68.71-4.467 1.8-8.06 9.41-9.384 97.85-4.769 117.19-5.585 4.47-4.572 3.61-4.216 9.27-2.397-2.81-3.572-6.88-7.72-10.03-11.124-8.21-8.322-14.92-14.811-23.68-22.531-5.08-6.46-34.22-29.51-42.3-36.417 19.64.081 35.68-3.397 54.95-4.976 21.76-1.783 36.19 4.759 57.18-4.65"/><path fill="url(#s)" d="M1752.72 705.169c4.47-4.572 3.61-4.216 9.27-2.397 13.44 11.992 30.97 35.097 41.47 49.267 47.41 63.956 81.34 141.76 84.85 222.002.2 4.625 1.77 9.842 2.02 14.506.64 5.008-3.01 10.622-2.52 14.153-.5 6.53-.19 15.46-.14 22.21-5.81-.35-10.64-3.86-19.75-3.54-21.06.73-42 2.42-63.05 2.09-12.24-.19-34.61-10.32-45.05-8.05-3.39 2.18-3.69 3.1-5.61 6.67-1.68-5.4-1.12-13.17-3.01-19.73-2.56-118.012-41.03-195.223-117.47-283.536.48-3.68.71-4.467 1.8-8.06 9.41-9.384 97.85-4.769 117.19-5.585"/><path fill="#ccc" d="M1798.11 623.074c7.24 5.394 46.65 41.11 51.07 47.122 1.38 7.552 6.07 6.164 6.58 11.487l-.86.699-1.05-2.474c-4.15.215-7.4 2.067-10.79 2.06-26.63-.058-64.97-4.424-89.5 7.442l-1.6 2.238c-8.21-8.322-14.92-14.811-23.68-22.531-5.08-6.46-34.22-29.51-42.3-36.417 19.64.081 35.68-3.397 54.95-4.976 21.76-1.783 36.19 4.759 57.18-4.65"/><path fill="#939496" fill-opacity=".765" d="M110.31 964.878c1.727 11.669.776 47.022.663 60.692l.165 5.69-.598 1.15c-1.847-14.09-2.653-53.769-.23-67.532"/></svg>