<svg xmlns="http://www.w3.org/2000/svg" width="362" height="273" preserveAspectRatio="none" style="display:block" viewBox="0 0 1448 1092"><defs><linearGradient id="c" x1="785.835" x2="740.415" y1="552.325" y2="619.843" gradientUnits="userSpaceOnUse"><stop class="stop0" offset="0" stop-color="#4a4c45"/><stop class="stop1" offset="1" stop-color="#85828d"/></linearGradient><linearGradient id="b" x1="710.726" x2="726.671" y1="511.404" y2="712.918" gradientUnits="userSpaceOnUse"><stop class="stop0" offset="0" stop-color="#252424"/><stop class="stop1" offset="1" stop-color="#585859"/></linearGradient><linearGradient id="a" x1="849.376" x2="762.381" y1="593.329" y2="593.664" gradientUnits="userSpaceOnUse"><stop class="stop0" offset="0" stop-color="#3d3d3e" stop-opacity=".765"/><stop class="stop1" offset="1" stop-color="#959596" stop-opacity=".808"/></linearGradient></defs><path fill="#262425" d="M444.339 160.25c7.367.784 15.663 1.693 22.657 3.971 17.343 2.306 135.813 31.214 144.488 36.297 4.931 9.079 10.937 74.965 12.611 89.254l16.377 140.28c20.306 9.141 49.688 19.882 71.002 27.657 22.083-7.993 157.682-62.577 169.045-62.799 1.326 1.049 2.878 1.811 2.741 3.524-1.71 21.422-7.026 50.691-10.321 71.433l-31.317 195.865-8.534 53.029c-1.279 8.377-3.456 25.846-5.436 32.978-18.426 9.411-45.673 19.251-65.125 27.803-10.573 4.648-41.405 17.821-51.227 20.37l-112.634-46.928c-13.816-5.768-43.238-17.02-55.383-23.276l-12.076-65.945c-1.518-8.395-6.175-31.363-5.617-38.932 8.721-5.869 37.045 16.584 47.644 13.752 1.81-5.316-30.815-212.792-34.312-235.932l-12.799-84.832c-1.744-11.598-4.09-31.853-6.581-42.396-10.965-5.672-25.592-10.614-34.826-15.649-8.377-3.525-20.157-6.324-27.212-11.93-7.117-5.656-11.833-74.369-13.165-87.594m310.459 308.612c-8.9 3.533-37.487 15.96-44.001 16.708 1 .577 2.364 1.051 2.419 1.889.835 12.719 1.992 42.674.958 53.872l-.902 1.145c15.929-1.276 63.793-28.734 76.031-23.665 5.402 5.219.812 26.862.475 34.533-1.356 3.819-2.933 22.115-3.446 26.996l-7.51 72.102c-.853 8.531-2.39 29.986-4.267 36.779-7.137 4.073-13.134 6.717-20.67 10.058-10.151 4.54-32.21 15.044-41.879 17.41l1.467 1.276c.489 7.927 1.144 53.994-.357 59.504 8.907-4.378 28.743-11.524 38.815-15.526a6633 6633 0 0 1 62.059-24.301c2.524-9.299 3.966-21.436 5.477-31.136l7.509-46.719 25.47-160.88c4.154-22.142 7.18-55.485 11.796-75.712-5.435 2.496-12.387 5.115-18.033 7.407a2121 2121 0 0 1-59.394 24.918c-5.941 2.413-27.284 10.621-32.017 13.342m8.385 277.098c-1.135-5.798-1.165-14.847.489-20.573.182 4.385 1.052 16.944-.489 20.573M661.399 547.774a2090 2090 0 0 1 6.602 54.948c.477 4.314 2.318 18.516 2.076 22.179.892 7.071 4.028 37.136 5.339 42.076 12.844 4.681 24.462 9.219 37.218 14.297 9.627-3.489 27.381-9.502 36.608-14.807l1.599-3.058c.192-5.914 1.624-15.829 2.338-22.004 2.467-31.606 6.87-63.532 9.328-95.182-11.565 4.093-43.391 21.811-50.922 21.222-11.639-3.861-34.391-18.096-47.402-21.11-1.316-.305-1.688.471-2.784 1.439"/><path fill="url(#a)" d="M846.209 430.602c7.793 18.473-2.95 61.698 6.237 68.305l-25.47 160.88-7.509 46.719c-1.511 9.7-2.953 21.837-5.477 31.136a6633 6633 0 0 0-62.059 24.301c-.649-3.577 3.904-2.764 6.793-5.322 3.641-3.225 3.493-5.833 4.459-10.661 1.541-3.629.671-16.188.489-20.573-.557-5.025-.155-21.268-.162-27.121-3.397 1.689-5.709 3.497-9.02 3.157l-.605-2.144c7.536-3.341 13.533-5.985 20.67-10.058 1.877-6.793 3.414-28.248 4.267-36.779l7.51-72.102c.513-4.881 2.09-23.177 3.446-26.996l.754 1.134c1.682-8.89 3.595-17.657 5.536-26.405.596-2.687-.777-8.365-2.917-10.178-13.312-11.282-29.716 9.513-46.602 8.416-1.751.169 16.023-7.649 16.517-7.872 1.333-10.028.524-39.613.548-51.137l-7.916 2.941-.9-1.381c4.733-2.721 26.076-10.929 32.017-13.342a2121 2121 0 0 0 59.394-24.918"/><path fill="#a8a7a9" fill-opacity=".812" d="m754.798 468.862.9 1.381 7.916-2.941c-.024 11.524.785 41.109-.548 51.137-.494.223-18.268 8.041-16.517 7.872 16.886 1.097 33.29-19.698 46.602-8.416 2.14 1.813 3.513 7.491 2.917 10.178-1.941 8.748-3.854 17.515-5.536 26.405l-.754-1.134c.337-7.671 4.927-29.314-.475-34.533-12.238-5.069-60.102 22.389-76.031 23.665l.902-1.145c1.034-11.198-.123-41.153-.958-53.872-.055-.838-1.419-1.312-2.419-1.889 6.514-.748 35.101-13.175 44.001-16.708"/><path fill="#a8a7a9" fill-opacity=".816" d="m753.885 699.279.605 2.144c3.311.34 5.623-1.468 9.02-3.157.007 5.853-.395 22.096.162 27.121-1.654 5.726-1.624 14.775-.489 20.573-.966 4.828-.818 7.436-4.459 10.661-2.889 2.558-7.442 1.745-6.793 5.322-10.072 4.002-29.908 11.148-38.815 15.526 1.501-5.51.846-51.577.357-59.504l-1.467-1.276c9.669-2.366 31.728-12.87 41.879-17.41"/><path fill="#262425" fill-opacity=".769" d="M864.242 423.195c-4.616 20.227-7.642 53.57-11.796 75.712-9.187-6.607 1.556-49.832-6.237-68.305 5.646-2.292 12.598-4.911 18.033-7.407"/><path fill="#f5f4f4" d="m459.826 176.632 1.365.371.96.406c10.232 4.271 27.001 8.915 37.891 12.174l59.26 17.723c7.816 2.342 25.105 7.095 31.732 10.198a8.94 8.94 0 0 1 4.482 4.566c2.74 6.258 5.432 38.807 6.389 47.616l13.307 117.06c1.63 14.5 4.466 48.519 7.526 60.687 26.107 12.355 61.034 27.121 88.059 38.137 1 .577 2.364 1.051 2.419 1.889.835 12.719 1.992 42.674.958 53.872l-.902 1.145c15.929-1.276 63.793-28.734 76.031-23.665 5.402 5.219.812 26.862.475 34.533-1.356 3.819-2.933 22.115-3.446 26.996l-7.51 72.102c-.853 8.531-2.39 29.986-4.267 36.779-7.137 4.073-13.134 6.717-20.67 10.058-10.151 4.54-32.21 15.044-41.879 17.41l1.467 1.276c.489 7.927 1.144 53.994-.357 59.504-4.008-.749-42.578-15.751-49.224-18.254l-64.226-24.217c-12.479-4.712-28.316-10.21-40.006-15.831-1.563-8.344-14.188-69.589-12.476-72.992 6.708 3.864 42.746 20.756 50.1 19.794 1.796-3.355-24.422-163.169-27.88-185.061l-33.751-214.936c-6.49-3.879-58.853-23.459-68.736-27.363l-.244-1.027c-3.13-13.647-5.645-43.773-8.086-58.983zm210.251 448.269c.892 7.071 4.028 37.136 5.339 42.076 12.844 4.681 24.462 9.219 37.218 14.297 9.627-3.489 27.381-9.502 36.608-14.807l1.599-3.058c.192-5.914 1.624-15.829 2.338-22.004 2.467-31.606 6.87-63.532 9.328-95.182-11.565 4.093-43.391 21.811-50.922 21.222-11.639-3.861-34.391-18.096-47.402-21.11-1.316-.305-1.688.471-2.784 1.439a2090 2090 0 0 1 6.602 54.948c.477 4.314 2.318 18.516 2.076 22.179"/><path fill="url(#b)" d="M712.006 716.689c-9.205-2.941-52.935-21.654-59.147-27.344-9.32-18.256-11.252-118.666-17.778-143.495-2.236-8.504-4.143-25.006 4.597-30.306 5.748-.849 63.941 22.973 73.594 26.932 15.929-1.276 63.793-28.734 76.031-23.665 5.402 5.219.812 26.862.475 34.533-1.356 3.819-2.933 22.115-3.446 26.996l-7.51 72.102c-.853 8.531-2.39 29.986-4.267 36.779-7.137 4.073-13.134 6.717-20.67 10.058-10.151 4.54-32.21 15.044-41.879 17.41m-41.929-91.788c.892 7.071 4.028 37.136 5.339 42.076 12.844 4.681 24.462 9.219 37.218 14.297 9.627-3.489 27.381-9.502 36.608-14.807l1.599-3.058c.192-5.914 1.624-15.829 2.338-22.004 2.467-31.606 6.87-63.532 9.328-95.182-11.565 4.093-43.391 21.811-50.922 21.222-11.639-3.861-34.391-18.096-47.402-21.11-1.316-.305-1.688.471-2.784 1.439a2090 2090 0 0 1 6.602 54.948c.477 4.314 2.318 18.516 2.076 22.179"/><path fill="url(#c)" d="M771.689 537.895c.776 5.409-1.031 20.215-1.554 26.422a3195 3195 0 0 1-5.344 59.756c-.617 6.86-1.845 42.824-4.056 45.839.624 1.404 1.138 2.974 1.657 4.429l-.905 1.563c-5.656-.605-10.196-6.923-10.646-12.495.192-5.914 1.624-15.829 2.338-22.004 2.467-31.606 6.87-63.532 9.328-95.182z"/><path fill="#a8a7a9" d="m753.179 641.405.476-.574c1.437-1.771 3.919-6.512 4.845-7.23a94 94 0 0 0-1.127 4.221c5.402 9.448-.46 27.199 3.362 32.09.624 1.404 1.138 2.974 1.657 4.429l-.905 1.563c-5.656-.605-10.196-6.923-10.646-12.495.192-5.914 1.624-15.829 2.338-22.004"/><path fill="#606062" d="m664.728 676.673-1.541 2.085-1.48.093c-3.681-6.579-1.468-49.539-1.627-59.813-.371-23.924-4.968-53.69-5.377-76.92l1.332-.406c2.931 2.143 3.865 2.612 5.364 6.062a2090 2090 0 0 1 6.602 54.948c.477 4.314 2.318 18.516 2.076 22.179.892 7.071 4.028 37.136 5.339 42.076-3.619 3.535-6.881 6.408-10.688 9.696"/><path fill="#a8a7a9" d="M670.077 624.901c.892 7.071 4.028 37.136 5.339 42.076-3.619 3.535-6.881 6.408-10.688 9.696.051-3.136 1.564-7.247 1.681-11.13.248-8.181-2.834-22.749.493-29.94 1.949-4.212 2.147-6.238 3.175-10.702"/><path fill="#262425" d="M711.585 567.445c6.191-4.118 16.217-6.652 22.829-11.569l-.854-1.917c-6.042-.617-5.373 3.835-10.688 2.614-.351-1.629-.365-2.735-1.596-3.803-10.467 3.138-3.721 5.478-7.61 9.805-.721-2.839.163-15.979.894-18.327l1.035 3.425c4.074.878 9.051-2.573 12.924-3.609 8.204-2.193 44.108-16.865 50.117-16.89-.086 3.241-4.599 7.813-6.947 10.721l-9.182 8.328c-11.565 4.093-43.391 21.811-50.922 21.222"/><path fill="#606062" d="m461.191 177.003 5.753-.524-8.395-4.31-.282-1.019c2.802-1.046 13.239 2.54 17.112 3.615l1.433-1.169c15.241 4.367 37.935 11.436 52.98 16.091 15.546 4.811 62.225 16.968 72.459 23.521 3.383 12.48 6.136 44.586 7.706 58.826l12.752 113.477c1.678 15.073 3.546 41.31 6.186 55.251a2959 2959 0 0 0 52.532 21.901c8.049 3.313 22.49 8.814 29.671 12.936 15.594-5.194 33.549-13.123 49.132-19.391l77.57-31.06c10.307-4.192 25.391-11.327 35.064-14.614l1.067 1.677c-1.544 6.104-2.34 10.092-3.242 16.296-4.117 28.332-9.016 56.663-13.36 85.011L836.64 646.992c-4.858 31.563-9.582 65.083-15.422 96.285-36.088 13.31-73.809 28.592-109.641 42.854a10430 10430 0 0 0-105.5-39.949c-6.205-2.303-42.793-15.385-46.782-17.664-.554-1.078-.992-1.927-1.896-2.758-1.516-1.393-3.127-2.474-4.055-4.374-4.974-10.189-7.213-39.559-10.076-52.538-.996-4.517-4.475-18.33-2.231-21.662l2.273.536c.136-1.972-.02-2.697 1.286-4.171 1.922.736 1.292.435 2.588 2.624-1.712 3.403 10.913 64.648 12.476 72.992 11.69 5.621 27.527 11.119 40.006 15.831l64.226 24.217c6.646 2.503 45.216 17.505 49.224 18.254 8.907-4.378 28.743-11.524 38.815-15.526a6633 6633 0 0 1 62.059-24.301c2.524-9.299 3.966-21.436 5.477-31.136l7.509-46.719 25.47-160.88c4.154-22.142 7.18-55.485 11.796-75.712-5.435 2.496-12.387 5.115-18.033 7.407a2121 2121 0 0 1-59.394 24.918c-5.941 2.413-27.284 10.621-32.017 13.342-8.9 3.533-37.487 15.96-44.001 16.708-27.025-11.016-61.952-25.782-88.059-38.137-3.06-12.168-5.896-46.187-7.526-60.687l-13.307-117.06c-.957-8.809-3.649-41.358-6.389-47.616a8.94 8.94 0 0 0-4.482-4.566c-6.627-3.103-23.916-7.856-31.732-10.198l-59.26-17.723c-10.89-3.259-27.659-7.903-37.891-12.174z"/><path fill="#5a595b" d="M444.339 160.25c7.367.784 15.663 1.693 22.657 3.971-6.545 1.757-16.016-3.646-20.047.27.998 1.883 1.811 3.595 2.701 5.532l1.192-.201 1.251-4.667c2.935.114 22.585 6.706 24.719 8.441l-1.433 1.169c-3.873-1.075-14.31-4.661-17.112-3.615l.282 1.019 8.395 4.31-5.753.524-1.365-.371-1.239 1.967c2.441 15.21 4.956 45.336 8.086 58.983l.244 1.027c9.883 3.904 62.246 23.484 68.736 27.363l33.751 214.936c3.458 21.892 29.676 181.706 27.88 185.061-7.354.962-43.392-15.93-50.1-19.794-1.296-2.189-.666-1.888-2.588-2.624-1.306 1.474-1.15 2.199-1.286 4.171l-2.273-.536c-2.244 3.332 1.235 17.145 2.231 21.662 2.863 12.979 5.102 42.349 10.076 52.538.928 1.9 2.539 2.981 4.055 4.374.904.831 1.342 1.68 1.896 2.758-2.042-.711-4.629-1.459-6.387-2.725-4.093-2.945-16.648-79.817-19.391-91.989 4.362-3.564 50.697 21.97 54.381 20.692-3.244-8.963-2.762-16.819-4.239-26.167l-12.289-77.356-26.309-166.898c-5.908-37.532-12.372-75.172-16.666-112.897-8.598-3.612-21.104-7.602-30.152-10.798-5.933-.972-7.532-1.05-13.527-.606-8.377-3.525-20.157-6.324-27.212-11.93-7.117-5.656-11.833-74.369-13.165-87.594"/><path fill="#929193" fill-opacity=".812" d="M763.183 745.96c-1.135-5.798-1.165-14.847.489-20.573.182 4.385 1.052 16.944-.489 20.573"/></svg>