<svg xmlns="http://www.w3.org/2000/svg" width="400" height="400" preserveAspectRatio="none" style="display:block" viewBox="0 0 1600 1600"><path fill="#fff" d="M0 0h1600v1600H0z"/><path d="M602.681 811.859c11.655 4.369 35.94 17.038 47.758 22.825l89.711 43.824 300.11 146.072.23 87.1c.03 20.46.47 42.52-.4 62.88-39.46 17.9-82.911 40.32-122.134 59.41l-232.565 113.3c-25.567 11.97-57.848 29.53-83.202 39.9.591-47.12.456-96.64.027-143.77 13.319-4.6 37.389-16.58 50.939-22.84l90.61-41.64 108.79-50c19.855-9.11 45.445-19.84 63.959-30.25-10.82-3.61-23.671-9.98-34.287-14.88l-51.507-23.78-154.853-71.142c-22.613-10.371-51.119-24.503-73.689-33.847.551-47.557-.581-95.681.503-143.162m-.123-603.602c5.641 1.208 41.063 18.884 48.849 22.683l111.409 54.424L946.73 374.91c25.721 12.529 69.86 32.319 93.45 46.13.44 47.017 1.46 101.814.25 148.53-13.21 7.572-30.24 15.329-44.182 22.128l-76.938 37.4L685.523 743.01c-25.471 10.842-56.859 27.99-83.516 40.211q.494-42.298.34-84.6c.013-18.786.512-40.665-.324-59.177 35.726-14.18 80.452-36.509 116.255-52.987l198.886-91.505c-28.104-11.137-61.469-27.523-89.23-40.305l-146.142-67.179c-23.957-11.074-55.918-27.043-79.749-36.179 1.116-47.378-.537-95.678.515-143.032"/></svg>