<svg xmlns="http://www.w3.org/2000/svg" width="1280" height="720" preserveAspectRatio="none" style="display:block" viewBox="0 0 2048 1152"><path fill="#8fa3a5" d="M470.123 25.536c32.964 9.71 64.47 20.185 97.083 30.155l351.438 108.092c15.169 4.624 97.676 31.947 106.616 31.967 13.18.029 39.86-11.402 53.91-15.808l63.26-19.368 294.94-90.997a5680 5680 0 0 0 62.86-19.218c24.45-7.875 54.62-18.142 79.51-24.12-10.08 11.626-22.48 18.878-34.89 28.22l-76.91 264.21-23.36 82.416c-2.48 8.636-8.68 31.848-12.13 38.928 9.27 28.44 22.55 60.196 33.51 88.415 5.54 14.241 17.29 46.01 23.73 58.647l-34.99-.087c-2.8-9.813-7.86-20.39-11.09-30.792-11.85 1.087-30.64.954-42.79.492-3.24 2.337-7.51 20.699-8.89 25.538-7.17 25.228-15.37 50.124-22.23 75.44-2.09 7.706-4.36 16.191-7.56 23.512-1.85-4.51-3.9-11.356-7.54-14.207-3.98.124-2.55-.371-5.67 1.593-3.07 6.296 7.11 23.248 8.92 30.844-2.18 6.615-4.14 13.826-5.94 20.577-12.72 47.517-29.84 95.101-41.14 142.957 1.32-68.33 3.23-136.648 5.74-204.945l12.82-442.214c6.77-5.67 15.79-11.955 23.03-17.751l66.08-52.85c9.26-7.381 28.62-21.853 35.83-29.493-13.22 3.512-42.1 19.34-54.93 26.078a3679 3679 0 0 1-41.87 21.177l-208.93 106.744c-40.61 21.187-82.55 43.953-123.31 64.49C981.147 312.909 615.147 115.616 600 115.8l-.104 1.119c6.577 6.744 21.184 17.313 29.081 23.717l67.497 54.48c7.961 6.383 20.688 14.824 27.15 22.242 2.282 32.469 7.381 334.692 10.88 340.565-1.524 8.424-11.139 22.131-8.792 27.994 2.341 1.705 4.976 1.202 8.051 1.133 2.505 51.142 2.972 101.501 4.661 152.472l2.307 75.881c.506 15.939 1.577 32.415 1.131 48.36-3.487-14.554-37.17-135.86-40.418-138.588l-1.166-.406c-26.519-3.389-18.534-29.73-19.028-48.638-.106-4.067-.247-7.254 2.644-9.917 1.697-4.428-18.428-69.132-21.944-79.158l-16.072.054-37.159-55.587c-9.423.309-19.255.038-28.716-.086-.456 17.956-.089 37.549-.118 55.639l-32.646.006c.817-52.083-.437-104.687.306-156.88l57.953.068c4.713-.16 6.393.641 9.501-1.672 1.326-5.644-97.625-339.87-107.025-373.358-9.164-9.809-25.914-17.327-37.851-29.704m109.742 477.31c15.828-.222 45.746 4.034 55.535-9.28-.989-2.225-7.814-27.364-9.079-31.483-10.356-6.872-33.308-4.389-46.551-4.115q.19 22.439.095 44.878m837.945-10.757c-1.89 2.991-8.39 28.3-9.44 32.972l.54 1.835 1.83.244c6.27-.4 15.29-.052 21.8.033-5.01-11.296-8.93-24.534-14.73-35.084"/><path fill="#054547" d="m547.545 430.202 57.953.068c29.793 2.168 47.633 1.07 65.293 30.955.649 32.947 4.602 49.914-31.034 65.203 10.484 12.271 31.711 45.49 41.951 60.528l-19.758.1-16.072.054-37.159-55.587c-9.423.309-19.255.038-28.716-.086-.456 17.956-.089 37.549-.118 55.639l-32.646.006c.817-52.083-.437-104.687.306-156.88m32.32 72.644c15.828-.222 45.746 4.034 55.535-9.28-.989-2.225-7.814-27.364-9.079-31.483-10.356-6.872-33.308-4.389-46.551-4.115q.19 22.439.095 44.878"/><path fill="#8fa3a5" d="M626.321 462.083c7.528 1.607 10.186 5.517 13.585 12.036l.06 14.6c-1.759 2.451-2.156 3.943-4.566 4.847-.989-2.225-7.814-27.364-9.079-31.483"/><path fill="#054547" d="M1387.39 430.068q19.5-.054 39 .361c1.94 3.232 3.83 6.555 6.06 9.584 9.27 28.44 22.55 60.196 33.51 88.415 5.54 14.241 17.29 46.01 23.73 58.647l-34.99-.087c-2.8-9.813-7.86-20.39-11.09-30.792-11.85 1.087-30.64.954-42.79.492-3.34-1.223-26.66-.529-31.69-.436-2.85 9.28-7.84 21.543-11.3 30.873l-32.89-.109c3.76-13.653 19.82-50.683 25.88-66.211l18.61-48.031c5.48-14.44 10.41-29.265 17.96-42.706m30.42 62.021c-1.89 2.991-8.39 28.3-9.44 32.972l.54 1.835 1.83.244c6.27-.4 15.29-.052 21.8.033-5.01-11.296-8.93-24.534-14.73-35.084"/><path fill="#8fa3a5" d="M1406.26 459.986c2.09 4.878 12.27 28.488 11.55 32.103-1.89 2.991-8.39 28.3-9.44 32.972l.54 1.835 1.83.244c-1.73.787-26.89.519-30.88.548 7.98-15.667 19.47-49.815 26.4-67.702"/><path fill="#054547" d="M683.894 666.214c2.078.493 5.357.772 6.126 2.21 2.906 5.442.786 15.201.989 22.08 3.313 4.668 6.14 15.529 7.284 21.18-.465 1.243-.726 2.117-1.384 3.282 9.412 1.855 12.643 1.24 21.028-3.801-.007-6.536-.783-40.686 1.115-43.941 3.787-.344 4.583-.194 8.215.402 1.639 5.479 1.287 43.055-1.152 48.965-10.772 10.986-19.987 5.787-25.837 8.178-26.519-3.389-18.534-29.73-19.028-48.638-.106-4.067-.247-7.254 2.644-9.917"/><path fill="#d3dadb" d="M691.009 690.504c3.313 4.668 6.14 15.529 7.284 21.18-.465 1.243-.726 2.117-1.384 3.282-8.644-7.018-6.33-14.032-5.9-24.462"/><path fill="#8fa3a5" d="M833.232 859.627c3.055 7.164 7.075 40.113 9.062 50.291l29.073 146.342a841 841 0 0 0 29.636-20.99c11.821 1.17 24.319 5.14 35.953 7.83 17.941 4.14 36.082 7.81 53.919 12.33 9.645 2.45 20.135 7.3 30.125 7.04 13.17-.35 27.49-5.89 40.31-8.86 15.31-3.55 75.43-19.46 85.21-16.53 10.31 3.09 22.31 13.49 31.61 19.29 9.17-66.587 27.78-132.893 37.4-200.288 2.88 18.775 3.69 40.942 6.28 60.548.91 21.493 3.99 48.413 6.1 70.179l8.5 92.671c-14.75 7.38-49.76 18.22-66.23 23.17a509.83 509.83 0 0 1-304.901-4.08c-16.214-5.25-37.821-11.7-52.502-19.6 2.238-12.6 3.926-41.45 5.229-55.48l10.772-116.075c1.167-12.906 2.324-35.858 4.454-47.788"/><path fill="#054547" d="M354.398 430.017c6.876-1.276 23.154.282 30.227.29 41.616.043 100.932-6.916 92.701 55.001-1.457 10.967-8.024 14.928-15.941 21.194 10.067 6.674 13.092 8.487 19.436 18.754.8 29.445 5.031 41.698-24.443 56.653-24.29 8.696-72.25 5.007-99.59 5.201.854-38.39.067-79.819.075-118.459 5.049-4.977 6.757-6.223 10.005-12.543q-19.857.067-39.713-.232c6.46-7.383 19.934-19.69 27.243-25.859m33.633 130.143c17.757.025 41.764 2.82 56.036-5.232 1.595-2.101 3.605-4.591 5.035-6.745l-.095-16.563c-4.901-6.646-8.58-9.233-17.259-10.21-13.994-1.573-29.648.684-43.744-.263zm0-65.405c17.481.179 39.339 3.074 53.393-5.754 7.207-6.43 6.732-17.305.424-23.994-2.533-2.685-7.001-5.097-10.205-6.952-14.062-.065-29.714.219-43.635-.229zm553.584-64.51 57.525.018c21.09.176 39.14-.051 55.89 16.027 11.28 10.826 8.37 28.793 7.99 44.255-5.08 8.054-8.52 10.121-15.98 15.996 10.14 5.545 14.03 8.986 19.76 18.588.78 27.835 4.98 43.606-24.28 56.908-23.69 8.488-72.477 4.967-99.442 5.067l.044-117.587c4.354-5.554 6.312-6.737 10.038-13.451l-39.787-.063c9.219-9.316 17.519-18.216 28.242-25.758m89.635 123.948 3.85-5.441.02-17.85c-7.95-9.556-15.72-9.955-27.72-10.013-11.032-.052-22.105.171-33.141.288-.098 13.062-.244 25.837.219 38.902 15.98.11 44.262 3.21 56.772-5.886m-56.796-59.396c17.977.124 38.666 3.013 53.286-6.011 7.2-6.877 6.17-17.751-.29-24.591-2.05-2.162-7.07-4.836-9.73-6.332-13.48.034-30.355.525-43.565-.078.026 12.124-.157 24.949.299 37.012m702.726-64.549c14.31.09 28.61.024 42.92-.198l-.04 157.03c-9.84-.279-20.78 0-30.71.043-.65-26.723.03-56.438.02-83.373.02-11.121-.06-22.243-.23-33.363-7.35 11.907-17.48 34.929-24.39 48.073-6.51 12.357-17.06 31.389-21.98 43.451-7.16.014-14.32-.097-21.47-.331-7.11-14.511-14.84-28.436-22.22-42.809-7.79-15.151-15.14-31.392-23.64-46.057-1.49 35.161-.37 78.556-.32 114.387-10.11-.224-20.9-.023-31.07-.013l.09-156.756 42.33-.252c1.86 3.006 3.47 6.115 5.03 9.284 13.35 27.109 27.67 53.759 40.22 81.253 4.82-8.003 9.44-19.147 13.76-27.753zm-892.359.351q20.461-.47 40.928-.54c5.889 12.229 9.723 25.329 14.998 37.609 16.827 39.163 30.633 79.967 46.796 119.364l-33.773.034c-4.026-10.902-7.511-19.885-12.239-30.576-20.8 1.393-51.625.42-73.297.346-3.233 10.825-7.694 19.933-11.395 30.302l-23.076-.088c-3.075.069-5.71.572-8.051-1.133-2.347-5.863 7.268-19.57 8.792-27.994 8.34-22.929 17.917-45.757 27.044-68.403 7.915-19.635 14.811-39.561 23.273-58.921m-6.083 97.214c9.224-.751 17.236-.718 26.512-.697 7.583.18 17.959.72 25.224-.157-2.866-8.979-21.143-61.66-25.504-65.469-8.307 19.541-18.363 49.855-26.232 66.323m354.522-97.582 31.25-.161c1.27 15.087.23 46.425.43 62.862l73.51-.055c.49-20.741-.47-41.578.2-62.726 10.43.055 20.86.003 31.28-.154l.11 101.316c.01 17.072.62 39.104-.24 55.823-10.14-.234-20.95-.058-31.15-.073-.87-20.207-.26-43.473-.15-63.881-14.34 1.472-57.68.084-73.53-.026-.53 20.985-.18 42.873-.13 63.926l-31.79-.006c-.15-49.108-1.69-108.517.21-156.845M892.945 666.282c15.173-1.727 24.173 3.304 31.84 15.925.467 7.982.114 19.071.093 27.283-6.572 10.133-10.51 11.89-21.815 15.436-16.048.514-24.083-1.317-33.752-14.853-.424-8.722-.48-21.487.098-29.939 7.665-9.284 11.887-11.923 23.536-13.852m-14.784 21.033-.073 16.633c2.089 2.769 4.435 6.094 6.818 8.514 4.297 1.486 11.237 4.549 15.444 3.495 18.503-7.474 14.943-13.052 14.271-31.035-8.191-9.4-9.712-9.981-22.145-9.799-8.101 3.862-9.663 4.682-14.315 12.192m233.649-21.091c2.73-.096 5.47-.132 8.2-.108 29.49.536 26.89 22.695 26.03 44.232-5.77 8.984-10.23 11.016-20.22 14.505-15.6.636-25.56-.916-34.7-14.551-.43-9.636-.14-20.578-.1-30.314 6.7-7.644 11.03-11.327 20.79-13.764m-11.08 18.799c-.64 14.626-2.83 29.515 19.23 31.665l1.13-.036c6.1-2.773 10.53-4.489 15.23-9.549-.02-6.891.23-16.709-.21-23.36-4.66-4.253-6.15-5.581-11.53-8.735l-11.27.183c-6.08 2.798-8.39 4.508-12.58 9.832m-93.26 16.015c7.11-11.094 8.57-21.477 16.12-30.729 4.14-5.075 9.91-4.206 16.36-4.28.02 9.178 1.21 51.505-.99 57.343-3.01.687-5.22 1.42-8.29 1.097-2.68-5.3-1.72-26.625-1.66-33.719l-.06-9.168c-5.41 8.124-14.03 32.926-23.01 32.339-5.89-3.722-15.654-26.64-18.92-33.959-.311 7.821 1.8 40.621-2.673 43.988-3.087-.059-5.176.216-7.867-1.224-.831-6.584-.983-50.329.154-56.298 3.641.793 10.073.428 14.025.361 5.886 10.999 11.391 22.959 16.811 34.249m-404.881-34.656c2.275.317 8.947.357 9.881 1.305 4.395 4.458 23.424 53.922 23.061 55.774-3.85 2.469-2.362 2.212-6.185 2.17-8.242-5.223-3.034-13.293-15.661-13.644l-19.694-.016c-4.135 9.357-3.736 13.586-15.146 11.737l-.385-1.636c4.707-10.263 18.312-52.053 24.129-55.69m-4.732 34.619c3.945.386 7.903.891 11.858.771 3.787-.607 3.21.117 5.023-2.146-.631-5.452-4.56-18.698-8.769-21.879zM1450.1 666.57c9.98 1.448 27.98-2.144 38.76 1.204 1.9 3.79 1.43 5.832-.94 8.967-5.08.791-21.8-.032-27.72-.296.05 4.863.03 9.727-.07 14.589 8.75-.267 19.81-1.513 27.43 2.745l.2 3.651c-7.28 3.712-14.86 2.753-23.01 2.58l-3.59.375c-1.83 3.208-1.11 9.611-1.07 13.711 8.27-.174 21.65-2.288 28.04 1.591 1.99 3.343 1.53 1.816 1.53 5.9-3.64 4.161-30.09 2.074-39.76 3.445-.13-17.773-.87-41.196.2-58.462m-58.14.545c3.81-.285 8.05-.507 11.79-1.087a2239 2239 0 0 1-23.68 58.577l-11.86-.365a349 349 0 0 1-10.36-24.832c-1.81-7.596-11.99-24.548-8.92-30.844 3.12-1.964 1.69-1.469 5.67-1.593 3.64 2.851 5.69 9.697 7.54 14.207l11.53 31.002c5.61-13.09 13.98-31.894 18.29-45.065m-198.8-1.037c8.62 1.926 42.19-1.853 45.52 2.542.06 4.018.85 5.009-1.23 7.441-4.27 1.645-12.21.861-17.09.688l.16 28.395c.08 6.738 2.27 15.115-3.09 19.293-3.09.431-3.68.611-6.57-.498-2.33-4.566-1.12-39.428-1.01-47.197-6.78.096-15.84 2.321-19.95-3.043-.64-4.999-.86-5.269 3.26-7.621m-414.922.276c9.98 1.794 38.148-1.575 45.95 1.456 1.42 3.383 1.011 5.932-1.401 8.495-4.05 1.59-12.066.392-16.746.015l.26 30.893c.132 4.03.561 9.748-.022 13.654-.538 3.596-6.709 4.589-9.792 2.973-1.935-6.868-.873-37.892-.726-47.003-6.423.228-17.649 2.376-19.772-4.636.599-2.965.532-3.472 2.249-5.847m509.892-.526c3.99 1.189 6.49-.165 9.61 1.995.92 7.465 1.02 49.947.02 57.281-4.41-.009-6.83.535-9.94-2.197-.99-7.337-1.06-50.256.31-57.079"/></svg>