<svg xmlns="http://www.w3.org/2000/svg" width="2500" height="1324" viewBox="4.664 5.91 301.592 152.886"><path fill="#be0030" d="M155.46 157.057c-83.93 0-149.055-34.13-149.055-74.528 0-40.746 65.125-74.876 149.056-74.876 83.582 0 149.055 34.13 149.055 74.876 0 40.398-65.472 74.528-149.055 74.528z"/><path fill="#aaa" d="M4.664 82.529C4.664 40.04 71.88 5.91 155.46 5.91c83.583 0 150.796 34.13 150.796 76.618 0 42.139-67.214 76.268-150.796 76.268S4.664 124.667 4.664 82.53zM155.46 19.842c-85.323 0-136.866 34.826-136.866 62.687 0 27.512 51.542 62.338 136.866 62.338s136.867-34.826 136.867-62.338c0-27.861-51.543-62.687-136.867-62.687m-8.01-6.966c0-2.09-1.741-3.482-3.482-3.482-2.09 0-3.483 1.741-3.483 3.83 0 1.742 1.741 3.135 3.483 3.135 2.09 0 3.482-1.741 3.482-3.483m-11.492.349c-.348-1.742-1.741-3.135-3.831-3.135-1.741.349-3.134 1.742-3.134 3.831 0 1.742 1.74 3.483 3.83 3.135 1.742 0 3.135-1.742 3.135-3.831m-11.493 1.045c-.348-1.742-2.09-3.135-3.83-2.787-2.09 0-3.483 1.742-3.135 3.831.348 1.742 2.09 3.135 3.83 2.786 2.09 0 3.483-1.74 3.135-3.83m-11.492 1.393c-.349-1.742-2.09-3.135-3.831-2.787-2.09.349-3.135 2.09-3.135 4.18.349 1.74 2.09 3.134 4.18 2.786 1.74-.348 3.134-2.09 2.786-4.18zm-11.145 2.09c-.348-1.742-2.438-3.135-4.179-2.787-2.09.697-3.134 2.438-2.786 4.18.348 2.089 2.438 3.134 4.18 2.785 1.74-.348 3.134-2.437 2.785-4.179zM90.336 20.19c-.349-1.741-2.09-2.786-4.18-2.438-1.74.697-2.785 2.438-2.437 4.18.696 2.089 2.438 3.134 4.179 2.437 2.09-.348 3.134-2.09 2.438-4.179M79.54 23.324c-.697-1.741-2.786-2.786-4.528-2.09-1.74.349-2.786 2.439-2.09 4.18.35 2.09 2.439 2.786 4.18 2.438 2.09-.697 2.786-2.786 2.438-4.528m-11.145 3.831c-.696-1.741-2.438-2.786-4.179-2.09-2.09.697-2.786 2.787-2.09 4.528s2.787 2.786 4.528 2.09 2.438-2.787 1.741-4.528m-10.447 4.18c-1.045-1.742-3.135-2.439-4.528-1.394-1.741.697-2.438 2.786-1.741 4.528.696 1.74 2.786 2.437 4.527 1.74 1.742-1.044 2.438-3.133 1.742-4.875zM47.5 36.557c-.697-1.741-3.134-2.09-4.528-1.045-1.74 1.045-2.437 3.135-1.393 4.528 1.045 1.741 3.135 2.438 4.876 1.393s2.09-3.135 1.045-4.876m-9.752 6.269c-1.044-1.742-3.134-2.09-4.875-1.045-1.393 1.393-1.741 3.483-.697 4.876 1.393 1.741 3.483 2.09 4.876 1.045 1.741-1.394 2.09-3.483.696-4.876m-9.054 6.965c-1.393-1.393-3.483-1.393-4.876 0s-1.393 3.483 0 4.876 3.483 1.393 4.876 0 1.393-3.483 0-4.876m-7.662 8.358c-1.741-1.044-3.83-.696-4.875.697-1.045 1.741-.697 3.83.696 4.875 1.741 1.045 3.83.697 4.876-.696 1.044-1.741.696-3.831-.697-4.876M14.763 67.9c-1.74-.696-3.83.349-4.527 2.09s.348 3.83 2.09 4.527c2.09.349 3.83-.348 4.527-2.437.697-1.742-.348-3.483-2.09-4.18m144.18 83.931c0-1.741-1.741-3.482-3.483-3.482-2.09 0-3.482 1.74-3.482 3.482 0 2.09 1.393 3.483 3.482 3.483 1.742 0 3.483-1.393 3.483-3.483m-11.493 0c0-1.741-1.393-3.482-3.482-3.482-1.741 0-3.483 1.393-3.483 3.134 0 2.09 1.393 3.83 3.483 3.83 1.741 0 3.482-1.392 3.482-3.482m-11.492-.348c0-2.09-1.393-3.831-3.135-3.831-2.09 0-3.83 1.393-3.83 3.134 0 2.09 1.393 3.483 3.134 3.831 2.09 0 3.483-1.393 3.83-3.134zm-11.493-1.045c.349-2.09-1.044-3.83-3.134-3.83-1.741-.349-3.483 1.044-3.83 2.785-.35 2.09 1.044 3.831 3.133 4.18 1.742 0 3.483-1.394 3.831-3.135m-11.492-1.393c.348-2.09-1.045-3.83-2.786-4.179-2.09-.348-3.831 1.045-3.831 2.786-.348 2.09.696 3.83 2.786 4.18 1.741.347 3.483-1.046 3.83-2.787zm-11.145-2.09c.349-1.74-1.044-3.83-2.786-4.179-1.741-.348-3.83.697-4.179 2.787-.348 1.74.697 3.83 2.786 4.179 1.742.348 3.831-1.045 4.18-2.786zm-11.492-2.437c.696-1.742-.348-3.831-2.438-4.18-1.741-.696-3.482.349-4.179 2.438-.348 1.742.697 3.483 2.438 4.18 2.09.348 3.83-.697 4.179-2.438m-10.796-3.135c.348-1.74-.348-3.83-2.438-4.527-1.741-.348-3.83.697-4.18 2.438-.696 1.741.35 3.83 2.09 4.179 1.742.696 3.831-.348 4.528-2.09m-11.145-3.83c.697-1.742 0-3.831-1.74-4.528-1.742-.696-3.832.348-4.528 2.09-.697 1.741 0 3.83 2.09 4.527 1.74.697 3.482-.348 4.178-2.09zm-10.447-4.18c.696-1.74 0-3.83-1.742-4.875-1.74-.697-3.83 0-4.527 1.741-.696 1.741 0 3.83 1.741 4.527 1.393 1.045 3.483.349 4.528-1.393M47.5 128.15c1.045-1.74.696-3.83-1.045-4.875s-3.83-.348-4.876 1.393c-1.044 1.393-.348 3.83 1.393 4.527 1.394 1.045 3.831.697 4.528-1.045m-9.751-6.268c1.393-1.393 1.044-3.483-.697-4.876-1.393-1.045-3.482-.696-4.875 1.045-1.045 1.393-.697 3.483.696 4.876 1.741 1.044 3.83.696 4.876-1.045m-9.055-6.965c1.393-1.393 1.393-3.483 0-4.876s-3.483-1.393-4.876 0-1.393 3.483 0 4.876 3.483 1.393 4.876 0m-7.662-8.359c1.393-1.044 1.742-3.134.697-4.875-1.045-1.393-3.135-1.742-4.876-.697-1.393 1.045-1.741 3.135-.696 4.876 1.044 1.393 3.134 1.741 4.875.696m-6.269-9.751c1.742-.348 2.787-2.438 2.09-4.179-.696-2.09-2.438-2.786-4.527-2.438-1.742.697-2.786 2.786-2.09 4.528.697 1.74 2.786 2.786 4.527 2.09zM11.63 86.011c2.09-.348 3.483-1.741 3.483-3.83 0-1.742-1.742-3.483-3.831-3.135-1.741 0-3.134 1.393-3.134 3.483 0 1.74 1.74 3.482 3.482 3.482m287.663-6.965c-1.742-.348-3.483 1.393-3.483 3.134 0 2.09 1.393 3.483 3.483 3.831 1.741 0 3.482-1.741 3.482-3.482 0-2.09-1.393-3.483-3.482-3.483m-1.045 11.144c-1.741-.348-3.83.348-4.18 2.438-.696 1.741.35 3.83 2.09 4.179 1.742.697 3.831-.348 4.528-2.09.348-1.74-.349-3.83-2.438-4.527m-4.18 10.796c-1.74-1.045-3.83-.696-4.875.697-1.393 1.741-.696 3.83.697 4.875 1.741 1.045 3.83.697 4.875-.696 1.045-1.741.697-3.831-.696-4.876zm-6.964 9.055c-1.393-1.393-3.831-1.393-5.224 0-1.045 1.393-1.045 3.483 0 4.876 1.393 1.393 3.83 1.393 5.224 0 1.044-1.393 1.044-3.483 0-4.876m-8.707 8.01c-1.045-1.741-3.134-2.09-4.527-1.045-1.742 1.393-2.09 3.483-1.045 4.876 1.393 1.741 3.482 2.09 4.875 1.045 1.742-1.393 2.09-3.483.697-4.876m-9.403 6.617c-.696-1.741-3.134-2.438-4.527-1.393-1.742 1.045-2.438 3.134-1.393 4.875 1.044 1.742 3.134 2.09 4.875 1.045 1.742-.696 2.09-3.134 1.045-4.527m-9.751 5.572c-1.045-1.741-3.134-2.438-4.876-1.741-1.741 1.044-2.438 3.134-1.393 4.875.697 1.742 2.786 2.438 4.528 1.393 1.74-.696 2.437-2.786 1.74-4.527zm-10.448 4.876c-.697-1.742-2.786-2.786-4.527-2.09s-2.786 2.786-2.09 4.528c.697 1.74 2.786 2.786 4.527 2.09s2.786-2.787 2.09-4.528m-10.796 4.179c-.697-1.741-2.438-2.786-4.527-2.438-1.742.697-2.786 2.786-2.09 4.527s2.438 2.786 4.527 2.09c1.742-.348 2.787-2.438 2.09-4.18zm-10.796 3.482c-.697-2.09-2.438-3.134-4.527-2.437-1.742.348-2.787 2.437-2.438 4.179.696 1.741 2.438 2.786 4.179 2.438 2.09-.697 3.134-2.438 2.786-4.18m-11.144 2.787c-.697-2.09-2.438-3.135-4.18-2.787-2.089.349-3.134 2.438-2.786 4.18.349 1.74 2.09 3.134 4.18 2.786 1.74-.349 3.134-2.438 2.786-4.18zm-11.493 2.09c-.348-1.742-2.09-3.135-3.83-2.787-2.09.348-3.135 2.09-3.135 4.18.348 1.74 2.09 3.133 4.179 2.785 1.741-.348 3.134-2.09 2.786-4.179zm-11.144 1.74c-.349-1.74-2.09-3.134-4.18-2.786-1.74 0-3.134 1.742-2.786 3.831 0 1.741 1.742 3.134 3.831 3.134 1.742-.348 3.135-2.09 3.135-4.179m-11.493 1.393c-.348-1.74-1.741-3.134-3.83-3.134-1.742 0-3.483 1.741-3.135 3.83 0 1.742 1.741 3.135 3.83 3.135 1.742-.348 3.135-1.741 3.135-3.83zm-11.492.697c0-1.741-1.742-3.134-3.483-3.134-2.09 0-3.483 1.74-3.483 3.482 0 2.09 1.742 3.483 3.483 3.483 2.09 0 3.483-1.742 3.483-3.831M151.978 12.877c0 1.741 1.393 3.483 3.482 3.483 1.742 0 3.483-1.742 3.483-3.483 0-2.09-1.741-3.483-3.483-3.483-2.09 0-3.482 1.394-3.482 3.483m11.492 0c0 1.741 1.393 3.483 3.483 3.483 1.741 0 3.483-1.393 3.483-3.135 0-2.09-1.393-3.83-3.483-3.83-1.741 0-3.483 1.393-3.483 3.482m11.493.348c-.348 2.09 1.393 3.831 3.134 3.831 2.09.348 3.483-1.393 3.831-3.134 0-2.09-1.393-3.483-3.134-3.831-2.09 0-3.831 1.393-3.831 3.134m11.492 1.045c-.348 2.09 1.045 3.83 2.787 3.83 2.09.35 3.83-1.044 4.179-2.785 0-2.09-1.393-3.831-3.135-3.831-2.09-.348-3.83 1.045-3.83 2.786zm11.145 1.393c0 2.09 1.045 3.831 3.134 4.18 1.741.348 3.483-1.046 3.831-2.787.348-2.09-1.045-3.83-2.786-4.179-2.09-.348-3.83 1.045-4.18 2.786zm11.492 2.09c-.348 1.741.697 3.83 2.786 4.179 1.742.348 3.483-.697 4.18-2.786.348-1.742-1.045-3.483-2.787-4.18-2.09-.348-3.83 1.045-4.179 2.787m11.145 2.438c-.349 2.09.696 3.83 2.438 4.179 2.09.696 3.83-.349 4.527-2.438.348-1.741-.697-3.483-2.786-4.18-1.741-.348-3.483.697-4.18 2.439zm11.144 3.134c-.696 1.741.348 3.83 2.09 4.527 2.09.349 3.83-.348 4.527-2.437.696-1.742-.348-3.831-2.09-4.18-2.09-.696-3.83.349-4.527 2.09m10.796 3.83c-.696 1.742.348 3.832 2.09 4.528 1.74.697 3.83-.348 4.527-2.09.696-1.74-.348-3.83-2.09-4.527-1.74-.696-3.83.349-4.527 2.09zm10.796 4.18c-1.045 1.741-.348 3.83 1.393 4.876 1.742.696 3.831 0 4.876-1.742.696-1.741 0-3.83-1.741-4.527-1.742-1.045-3.831-.348-4.528 1.393m10.1 5.224c-1.045 1.741-.349 3.83 1.393 4.875 1.393 1.045 3.83.349 4.527-1.393 1.045-1.393.697-3.482-1.045-4.527s-3.83-.697-4.875 1.045m9.75 6.268c-1.044 1.393-.696 3.483 1.046 4.876 1.393 1.045 3.482.697 4.527-1.045 1.393-1.393 1.045-3.482-.697-4.875-1.393-1.045-3.482-.697-4.875 1.044zm9.056 6.966c-1.045 1.393-1.045 3.482 0 4.875 1.393 1.393 3.83 1.393 5.224 0 1.044-1.393 1.044-3.482 0-4.875-1.393-1.393-3.831-1.393-5.224 0m8.01 8.358c-1.393 1.045-2.09 3.134-.697 4.876 1.045 1.393 3.134 1.74 4.876.696 1.393-1.045 1.741-3.134.696-4.876-1.044-1.393-3.134-1.74-4.875-.696m6.268 9.751c-1.741.697-2.786 2.438-2.09 4.18.349 2.089 2.439 2.785 4.18 2.437 2.09-.697 2.786-2.786 2.438-4.527-.697-1.742-2.786-2.786-4.528-2.09"/><path d="m170.087 78.001-3.482 14.279h-4.528l4.528-21.244c.348-.697 1.741-.697 2.09.348zm4.876 24.378h-10.448l-1.741 8.01h-9.752l-3.134-3.134 1.393-.697h7.314l2.09-8.358h13.233zm3.134 8.01-3.134-3.134 1.045-.697h7.313l-10.1-43.184.697-.696 3.134 3.134 10.796 44.577zm18.459-36.567h-6.965l-3.135-3.134.697-.697h9.403zm2.09 36.915-3.135-3.134 1.045-1.045h7.313V69.991h9.055v-6.617l1.045-.696 3.134 3.134v8.01H207.7v36.916h-9.055zm31.343-36.915h-6.966l-3.134-3.134 1.045-.697h9.055zm2.09 36.915-3.135-3.134 1.045-1.045h7.313V69.991h9.055v-6.617l1.045-.696 3.134 3.134v8.01h-9.055v36.916h-9.403zm25.421-.347-3.133-3.135 1.044-.697h7.313V63.374l.697-.696 3.135 3.134v44.577zM62.824 63.722a9.2 9.2 0 0 1 3.134 2.09c.697.696 1.741 1.393 2.786 2.438.697 1.044 1.045 1.741 1.741 2.786 1.394 2.09 2.09 4.527 2.09 6.269 0 3.134-1.741 7.313-4.18 9.403l1.742 1.74c2.09 2.09 3.483 4.876 3.483 9.056 0 5.92-4.528 12.885-11.493 12.885h-16.02l-3.134-3.134 1.045-.697h14.975c6.268 0 10.448-6.617 10.448-12.189 0-5.224-2.438-8.358-5.224-9.751l-1.393-.696 1.393-1.045c2.438-1.393 4.179-5.572 4.179-8.359 0-3.482-1.741-8.01-5.92-10.099zm-7.662 9.055v8.358h-3.83V68.598h4.178c2.786 0 4.876 1.741 5.572 4.876-.696-.697-1.393-.697-2.437-.697zm0 17.761v10.796h-3.83V86.36h5.571c2.09 0 4.18 2.09 4.876 4.876-.348-.697-1.045-.697-1.741-.697h-4.876zm32.04-27.164 1.045-.696 3.134 3.134v32.04c0 .696 0 1.741.348 2.09-2.786-.349-4.527-2.438-4.527-5.224zm8.706 48.06c-3.482 0-6.268-1.045-9.402-3.483-2.09-1.74-4.18-4.527-4.528-5.224-.348 0-.696-1.044-1.045-1.74l.349-.35c2.09 4.18 6.617 6.966 11.492 6.966 6.965 0 12.886-5.92 12.886-12.886V63.374l.696-.696 3.135 3.134v32.04c0 7.662-6.27 13.582-13.583 13.582m46.667-26.816 1.045-.697 3.134 3.135v10.796c0 8.358-4.527 13.582-13.93 13.582-3.135 0-5.92-1.045-9.055-3.483-2.09-1.74-4.527-4.527-4.876-5.224q0-.522-1.044-2.09h.696c2.09 3.832 6.617 6.966 11.493 6.966 8.706 0 12.537-5.224 12.537-12.886zm-5.92 9.403h-2.438l-3.135-3.134.697-1.045h4.876zm-.349-20.2c-.696-.696-2.09-1.044-3.134-.696-2.786 0-4.876 2.438-4.876 5.224v19.503c0 1.045.349 2.09 1.045 2.786-3.134-.697-4.875-3.134-4.875-5.92V75.215c0-3.134 2.09-5.92 5.572-6.269 3.134-.348 5.92 1.742 6.268 4.876zm10.448 5.225h-8.01l-3.134-3.134 1.045-.697h5.92c0-5.224-1.741-9.403-5.92-11.493l.696-.696c.697.348 1.393 1.045 2.09 1.393 1.044 1.045 2.09 1.741 3.482 3.134 1.045 1.393 1.742 2.09 2.438 3.483 1.045 2.438 1.393 4.527 1.393 7.313z"/><path fill="#fff" d="M52.028 87.404v12.886h4.875c2.787 0 4.528-3.135 4.528-6.617s-2.438-6.269-4.528-6.269zm0-17.761V80.09h3.482c3.135 0 4.528-1.742 4.528-5.224s-2.09-5.224-4.528-5.224zM64.913 83.92c3.135 1.393 5.572 4.876 5.572 10.448 0 5.92-4.527 12.886-11.492 12.886h-16.02V62.678h14.975c8.01 0 11.493 6.965 11.493 11.84 0 2.787-1.742 7.662-4.528 9.403zm32.388 10.798v-32.04h9.055v32.04c0 7.661-6.268 13.582-13.582 13.582-7.662 0-13.93-5.92-13.93-13.582v-32.04h9.403v32.04c0 2.437 1.741 4.527 4.527 4.527s4.527-2.09 4.527-4.527m38.309 0v-3.831h-4.528v-6.965h12.538v10.796c0 8.358-4.18 13.582-13.583 13.582-7.661 0-13.93-5.92-13.93-13.582V75.215c0-7.662 6.269-13.582 13.93-13.582 9.404 0 13.583 5.224 13.583 13.582v.697h-8.01v-.697c0-3.134-2.438-5.572-5.573-5.224-2.786 0-4.875 2.438-4.875 5.224v19.503c0 2.437 2.09 4.875 4.875 5.223 3.135 0 5.573-2.09 5.573-5.223m36.219-3.483-4.18-19.85-4.527 19.85zm-21.94 16.02 11.492-44.577h12.537l10.448 44.577h-9.403l-1.741-8.01H161.38l-1.741 8.01zm54.677.348h-9.055V70.688h-9.055v-8.01h27.513v8.01h-9.403zm33.78 0h-9.402V70.688h-9.055v-8.01h27.512v8.01h-9.055zm16.021-44.925h9.054v44.577h-9.054z"/><path d="M165.56 50.14c2.09 0 3.483-1.74 3.483-3.83 0-1.742-1.393-3.483-3.483-3.483h-7.313v7.313zm0-12.537a3.12 3.12 0 0 0 3.135-3.134 3.12 3.12 0 0 0-3.135-3.135h-7.313v6.269zm-17.76 5.224v1.741h-4.528v-8.706h4.527v1.74h4.528v-6.268H141.53v2.09h-4.528v-6.617h28.557c4.18 0 8.01 3.482 8.01 8.01q0 3.134-2.09 5.224c1.394 1.741 2.439 3.83 2.439 5.92 0 4.876-3.831 8.707-8.359 8.707h-28.557v-6.965h4.528v2.437h10.796v-7.313h-4.528z"/></svg>