<svg xmlns="http://www.w3.org/2000/svg" width="900" height="900" preserveAspectRatio="none" style="display:block" viewBox="0 0 2048 2048"><defs><linearGradient id="n" x1="1126.71" x2="1153.88" y1="688.97" y2="708.041" gradientUnits="userSpaceOnUse"><stop class="stop0" offset="0" stop-color="#ba5a39"/><stop class="stop1" offset="1" stop-color="#cb8666"/></linearGradient><linearGradient id="m" x1="1163.44" x2="1211.31" y1="688.417" y2="721.413" gradientUnits="userSpaceOnUse"><stop class="stop0" offset="0" stop-color="#c8805e"/><stop class="stop1" offset="1" stop-color="#e8dad1"/></linearGradient><linearGradient id="l" x1="1841.9" x2="1884.34" y1="851.142" y2="880.637" gradientUnits="userSpaceOnUse"><stop class="stop0" offset="0" stop-color="#c06a49"/><stop class="stop1" offset="1" stop-color="#d5a286"/></linearGradient><linearGradient id="k" x1="1280.49" x2="1235.09" y1="737.142" y2="706.43" gradientUnits="userSpaceOnUse"><stop class="stop0" offset="0" stop-color="#c77c59"/><stop class="stop1" offset="1" stop-color="#e6d1c4"/></linearGradient><linearGradient id="j" x1="1889.19" x2="1917.76" y1="877.039" y2="896.654" gradientUnits="userSpaceOnUse"><stop class="stop0" offset="0" stop-color="#d5a48b"/><stop class="stop1" offset="1" stop-color="#e8d5cb"/></linearGradient><linearGradient id="i" x1="1357.22" x2="1359.78" y1="1086.32" y2="1073.68" gradientUnits="userSpaceOnUse"><stop class="stop0" offset="0" stop-color="#bfadb5"/><stop class="stop1" offset="1" stop-color="#c8c5c6"/></linearGradient><linearGradient id="h" x1="689.412" x2="682.384" y1="984.777" y2="969.787" gradientUnits="userSpaceOnUse"><stop class="stop0" offset="0" stop-color="#9c999d"/><stop class="stop1" offset="1" stop-color="#b5b3b2"/></linearGradient><linearGradient id="g" x1="1733.45" x2="1709.89" y1="1310" y2="1294.88" gradientUnits="userSpaceOnUse"><stop class="stop0" offset="0" stop-color="#32477a"/><stop class="stop1" offset="1" stop-color="#70739c"/></linearGradient><linearGradient id="f" x1="957.242" x2="973.153" y1="953.407" y2="923.601" gradientUnits="userSpaceOnUse"><stop class="stop0" offset="0" stop-color="#979896"/><stop class="stop1" offset="1" stop-color="#b3abac"/></linearGradient><linearGradient id="e" x1="875.781" x2="918.342" y1="1009.1" y2="1040.52" gradientUnits="userSpaceOnUse"><stop class="stop0" offset="0" stop-color="#234174"/><stop class="stop1" offset="1" stop-color="#646894"/></linearGradient><linearGradient id="d" x1="1608.35" x2="1656.3" y1="1169.96" y2="1204.69" gradientUnits="userSpaceOnUse"><stop class="stop0" offset="0" stop-color="#465383"/><stop class="stop1" offset="1" stop-color="#8283a5"/></linearGradient><linearGradient id="c" x1="1661.27" x2="1733.27" y1="1182.58" y2="1236.89" gradientUnits="userSpaceOnUse"><stop class="stop0" offset="0" stop-color="#7c7fa2"/><stop class="stop1" offset="1" stop-color="#eae4e1"/></linearGradient><linearGradient id="b" x1="1179.09" x2="1064.5" y1="1124.42" y2="1051.6" gradientUnits="userSpaceOnUse"><stop class="stop0" offset="0" stop-color="#002f65"/><stop class="stop1" offset="1" stop-color="#7d769d"/></linearGradient><linearGradient id="a" x1="933.308" x2="1110.71" y1="999.651" y2="1108.14" gradientUnits="userSpaceOnUse"><stop class="stop0" offset="0" stop-color="#8084a4"/><stop class="stop1" offset="1" stop-color="#b6b2c2"/></linearGradient></defs><path fill="#eeeeed" d="M0 0h2048v2048H0z"/><path fill="#063669" d="M953.177 933.829c25.915-.816 35.226.663 60.943 5.663 56.76 9.779 93.01 26.261 143.66 52.567 5.36 2.78 24.26 11.141 27.4 14.301 7.65 3.84 13.32 6.75 20.55 11.27 8.06 3.87 19.23 8.84 26.72 13.27 2.5 1.28 12.46 6.19 14.21 7.48 21.89 8.04 64.65 36.05 78.86 38.83 25.12 3.78 50.69-5.35 75.38 5.01 2.67 1.12 12.56-.55 15.84 1.49 53.09 2.81 107.78.17 161.02 4.3 7.2.56 35.36 1.56 41 2.83 11.64.17 33.15 2.95 44.37 5.65 3.06.41 8.14 1.25 11.05 1.32 18.62.7 52.55 10.44 67.97 20.57 10.08 3.9 35.16 21.25 40.63 30.22 16.13 20.63 22.76 54.05 25.13 79.8.64 5.21 1.3 10.31 1.73 15.55-4.54 10.63-13.99 26.17-19.97 36.58l-37.4 64.59-28.35 50.04c-4.27 7.48-11.1 20.23-16.02 26.7-4.74.1-9.53.3-14.26.05.59-29.49-2.65-80.09-26.56-101-58.97-51.58-163.85-48.81-238.56-52.2-57.87-2.62-114.4.31-172.04-2.43-12.39-.59-25.47.43-37.69-2.24-24.46-7.89-53.16-25.89-75.73-38.3-31-17.28-62.38-33.87-94.12-49.76-55.799-27.86-87.81-39.53-150.378-47.3-60.453-7.51-112.552-5.34-172.83 4.45-67.99 9.28-134.633 22.97-201.798 37.9A15126 15126 0 0 0 263.072 1232c-41.301 10.19-82.434 21.49-123.851 31.52-35.133 12.78-39.963 20.43-68.03 38.12-4.385 3.82-7.728 6.3-12.409 9.7-5.431 5.07-11.808 12.27-17.735 16.09l-1.036-1.75c3.394-6.99 5.81-11.63 10.304-17.96 17.798-33.64 40.51-68.84 59.518-102.38 11.065-19.52 31.995-55.63 45.26-72.37 8.407-10.61 44.66-33.38 56.695-40.49 31.281-27.51 82.586-33.14 123.713-43.36 8.897-3.58 60.383-14.59 70.851-16.36 5.189-2.16 47.017-11.03 54.529-12.69l128.398-27.784c17.608-3.691 48.708-8.645 64.329-13.367 11.348-3.617 41.52-9.209 53.529-10.89a1812 1812 0 0 0 59.517-11.111c8.909-1.728 24.646-5.234 33.215-5.839 17.444-4.549 57.681-11.505 75.378-12.756-2.139 1.865-4.724 3.882-6.387 6.121 12.433-6.99 24.744-.241 36.201.763 10.162-1.004 17.865-1.107 27.997-1.191l.378-2.002c-1.377-2.343-2.837-4.115-2.779-6.737 2.697-1.478 16.125-.922 21.284-1.34z"/><path fill="url(#a)" d="M1014.12 939.492c56.76 9.779 93.01 26.261 143.66 52.567 5.36 2.78 24.26 11.141 27.4 14.301-2.27-.41-5.11-1.73-7.24-1.75-10.57-.11-22.23-10.463-31.91-11.171-7.35-3.775-34.52-17.611-40.79-16.381l-1.77 2.029c4.04.603 3.71-.167 5.53 2.238-2.89 20.975-54.5 86.955-65.99 106.745-8.6 14.8-18.2 33.48-28.58 47.07-2.35 3.06-11.22-3.57-15.387-3.69l-.843 1.02c-9.615-2.34-20.897-6.18-31.188-8.81-11.641-3.35-23.089-5.5-34.943-7.9-3.494-.06-28.611-4.45-32.77-5.45-7.335-4.06-20.745-3.79-29.256-3.8 7.914-16.79 25.15-34.25 36.475-49.86 16.238-20.9 29.982-43.29 44.696-65.249 10.404-15.529 24.966-27.373 32.5-45.214 1.244-2.945 12.243 3.251 16.716 2.548l-.49-.681c-4.429-1.154-4.871-1.448-8.971-3.75l-1.076-.613c8.456-1.819 14.927-.365 24.227-4.199"/><path fill="#e2dcde" d="M932.069 1115.76c1.676-3.86 4.83.97 8.483-1.32l-.971-7.93c-2.344.72-1.635.89-3.727.47 12.142-24.93 10.828-16.83 24.606-33.53.028-4.82-.194-4.74 3.117-7.84l.824.51-1.525-.2 2.493 1.5c2.983-5.46 7.201-7.16 11.989-11.06l-2.074.1q.42-2.13.917-4.26c1.775-7.48 6.571-8.6 12.807-12.63 5.758-3.72 5.755-11.28 9.768-16.62 1.894-2.51-.482 2.36 3.744-1.04.97-4.05.99-2.07-.23-6.16 5.53-10.27 10.25-19.871 19.88-26.976.71-6.386 1.9-1.761-.36-8.82 3.62-6.744 11.71-21.561 18.47-25.427 2.87-1.647 12.08.993 15.5 1.974 2.96 1.887 6.43 3.595 8.03 6.559 2.08 16.464-32.28 45.37-28.26 54.31-7.66 11.86-11.93 18.73-18.57 31.17 1.19 2.71.75 1.82 2.87 4.09-1.22 2.43-1.84 2.43-4.21 3.97-2.21.01-5.61-.45-6.78.93-5.01 5.92-9.703 15.63-13.242 22.45.504 3.39 1.495 5.4-.115 7.97-2.563 4.11-8.793 4.72-10.859 7-2.727 3.02-6.645 9.25-8.961 12.85l2.713-1.32.79.81c-1.935 2.88-3.137 3.9-5.563 6.28 2.113-.57 3.896-2.36 5.778-3.82l.405.73c-2.122 2.99-9.645 11.75-12.794 13.18-11.641-3.35-23.089-5.5-34.943-7.9"/><path fill="#eeeeed" d="M1053.75 960.53c3.88.493 4.09.626 5.16 3.889-2.47 10.411-51.08 75.841-59.815 90.421-8.706 14.53-32.634 52.94-42.722 64.38-2.838-.36-3.141-.13-5.477-1.64l-.485-2.71c2.993-10.22 20.855-33.6 27.677-43.38l31.132-45.59c14.82-21.66 28.35-44.697 44.53-65.37"/><path fill="#eeeeed" d="M1055.78 956.501c6.57 1.362 14.77 3.149 20.17 7.262l1.09 2.209c-3.04 6.953-9.99 2.367-11.32 13.827-3.02 1.905-4.29 2.579-7.53 4.119-2.84 3.808-3.53 9.195-5.36 11.3-5.43 6.232-11.67 16.622-17.28 22.152-4.02-8.94 30.34-37.846 28.26-54.31-1.6-2.964-5.07-4.672-8.03-6.559"/><path fill="url(#b)" d="m998.2 1132.47.843-1.02c4.167.12 13.037 6.75 15.387 3.69 10.38-13.59 19.98-32.27 28.58-47.07 11.49-19.79 63.1-85.77 65.99-106.745-1.82-2.405-1.49-1.635-5.53-2.238l1.77-2.029c6.27-1.23 33.44 12.606 40.79 16.381 9.68.708 21.34 11.061 31.91 11.171 2.13.02 4.97 1.34 7.24 1.75 7.65 3.84 13.32 6.75 20.55 11.27 8.06 3.87 19.23 8.84 26.72 13.27 1.47 2.93 3.25 5.69 3.4 8.86-3.35-1.62-6.36-2.96-9.78-4.41l.68 2.13c1.39.71 2.47 1.29 3.92 1.89l1.01 1.77c-3.34 1.69-10.36-2.96-11.35.73-1.31 4.93-13.83 16.73-14.5 20.04-4.83 23.84-19.57 48.51-34.38 67.6l2.53 4.18c-1.04 3.83-14.55 12.14-17.33 15.66-11.47 14.53-22.22 29.99-38.12 40.18-5.46 3.5-14.55-5.29-20.04-7.23-19.72-10.52-39.24-21.56-59.34-31.36-8.04-4.08-36.12-15.25-40.95-18.47"/><path fill="#a6a3a3" d="M1146.03 993.439c9.68.708 21.34 11.061 31.91 11.171 2.13.02 4.97 1.34 7.24 1.75 7.65 3.84 13.32 6.75 20.55 11.27 2.66 3.08 3.74 3.09 3.54 6.01l-1.29 1.21c-9.05-3.91-55.16-26.557-61.95-31.411"/><path fill="#b2ada9" d="M1205.73 1017.63c8.06 3.87 19.23 8.84 26.72 13.27 1.47 2.93 3.25 5.69 3.4 8.86-3.35-1.62-6.36-2.96-9.78-4.41-5.08-3.61-12.48-7.42-18.09-10.5l1.29-1.21c.2-2.92-.88-2.93-3.54-6.01"/><path fill="url(#c)" d="M1712.21 1112.16c3.68.91 9.45 2.63 13.04 2.42 5.43-.3 12.72 4.45 16.9 3.8 10.08 3.9 35.16 21.25 40.63 30.22.69 6.06 7.5 10 6.7 14.04-3.86 1.23-4.82.98-8.99.86-7.77-9.53-3.6-12.75-15.74-22.11l6.54 8.43c.14.65 1.15 5.85.99 6.15-15.92 30.45-39.25 56.27-56.48 85.81-1.5 2.57-6.88 7.33-8.91 10.45-7.12 10.93-25.42 47.43-37.74 49.84l-8.08-5.7c-8.29-5.27-17.6-9.73-26.21-14.65-7.05-8.09-15.87-6.13-23.62-11.19-2.42-9.5 29.96-46.1 36.28-55.65 15.34-23.27 30.09-46.45 46.91-68.74 7.01-9.31 18.86-22.44 17.78-33.98"/><path fill="#eeeeed" d="M1661.07 1296.37c.28-3.09 22.2-35.66 25.59-40.1 21.3-27.69 37.36-58.98 56.73-87.94 7.04-10.53 13.95-22.35 27.9-18.51.14.65 1.15 5.85.99 6.15-15.92 30.45-39.25 56.27-56.48 85.81-1.5 2.57-6.88 7.33-8.91 10.45-7.12 10.93-25.42 47.43-37.74 49.84z"/><path fill="url(#d)" d="M1663.13 1096.49c3.06.41 8.14 1.25 11.05 1.32 18.62.7 52.55 10.44 67.97 20.57-4.18.65-11.47-4.1-16.9-3.8-3.59.21-9.36-1.51-13.04-2.42 1.08 11.54-10.77 24.67-17.78 33.98-16.82 22.29-31.57 45.47-46.91 68.74-6.32 9.55-38.7 46.15-36.28 55.65 7.75 5.06 16.57 3.1 23.62 11.19-33.6-11.9-50.99-16.71-86.98-21.89.09-.24.19-.48.29-.72 7.22-21.73 30.38-42.48 43.14-61.36 16.94-25.07 34.62-48.6 52.2-73.13 5.2-7.27 17.03-21.01 19.62-28.13"/><path fill="#a6a3a3" d="M1674.18 1097.81c18.62.7 52.55 10.44 67.97 20.57-4.18.65-11.47-4.1-16.9-3.8-3.59.21-9.36-1.51-13.04-2.42-15-3.7-24.94-5.98-38.03-14.35"/><path fill="url(#e)" d="M953.177 933.829c25.915-.816 35.226.663 60.943 5.663-9.3 3.834-15.771 2.38-24.227 4.199l1.076.613c4.1 2.302 4.542 2.596 8.971 3.75l.49.681c-4.473.703-15.472-5.493-16.716-2.548-7.534 17.841-22.096 29.685-32.5 45.214-14.714 21.959-28.458 44.349-44.696 65.249-11.325 15.61-28.561 33.07-36.475 49.86 8.511.01 21.921-.26 29.256 3.8-23.492-1.27-46.916-5.02-70.446-3.18-7.89.62-15.982 1.19-23.887 1.3l.953-.77c1.727-.22 6.693-.72 7.166-1.63 4.542-8.78 6.805-18.49 12.957-26.85l71.468-98.735c6.201-8.388 23.081-25.372 25.725-33.886-8.533-1.197-18.386 1.483-27.588.455 2.608-.648 6.666-1.29 9.414-1.807 10.162-1.004 17.865-1.107 27.997-1.191l.378-2.002c-1.377-2.343-2.837-4.115-2.779-6.737 2.697-1.478 16.125-.922 21.284-1.34z"/><path fill="url(#f)" d="M953.177 933.829c25.915-.816 35.226.663 60.943 5.663-9.3 3.834-15.771 2.38-24.227 4.199-15.498 1.025-40.486.271-56.835.325l.378-2.002c-1.377-2.343-2.837-4.115-2.779-6.737 2.697-1.478 16.125-.922 21.284-1.34z"/><path fill="url(#g)" d="m1771.29 1149.82-6.54-8.43c12.14 9.36 7.97 12.58 15.74 22.11 4.17.12 5.13.37 8.99-.86.8-4.04-6.01-7.98-6.7-14.04 16.13 20.63 22.76 54.05 25.13 79.8l-1.32.98c-.42-3.88-5.15-26.48-7.74-28.84-8.62 1.9-11.13 15.15-14.99 21.44-2.41 3.92-4.71 4.67-6.23 9.52l3.07-2.49 1.05.12-.93 3.58c2.04-3.67 4.49-9.93 7.58-11.54l1.25.93c-6.26 8.88 3.18 7.07-6.16 12.96.59 1.42.68.94 2.73 2.02-5.29.88-3.72-.16-6.74 3.37 1.15.22 1.94.38 3 .9-2.47 1.54-1.44 1.05-4.55 1.4l-.69 1.41c2.18 1.05 1.27.72 3.97.56-1.65 2.22-4.22 2.54-7.03 3.4-1.75 2.21-3.97 5.97-5.98 6.76 0-2.27-.24-1.13.87-3.38-.16-2.57.1-3.81-1.4-5.81-4.93 5.33-5.56 8.93-11.12 13.28.49 3.18.45 2.98-.3 6.13l.25.03c-.39 12.3-9.11 29.33-19.69 35.84l2.62.9-.32 1.24-3.46.76 3.36.43.36 1.21c-2.95 1.19-3.78 1.31-6.82 1.96l2.42 2.48.1-1.95.57 1.21c-2.93 1.94-4.51 1.8-8.14 2.53 2.55.87 5.69-.01 8.51-.46l-2.84 6.01c19.03-14.71 27.2-30.87 37.33-51.62l-3.75-.33-.61-1.22c3.24-5.1 7.21-12.09 11.48-16.05l1.48-.02c.31 2.26.2 3.36 1.23 5.3 2.42-1.68 6.39-8.21 7.17-10.85l-3.42.4-.04-1.6c2.99-1.68 3.29-1.67 6.46-2.57l-1.6-1.67c2.1-1.91 3.34-3.45 5.04-5.68l1.31.14c.12 3.6-3.73 13.91-6.01 16.87-25.76 33.44-47.35 70.39-70.05 105.86-1.35 2.12-3.78 2.47-6.1 2.87l2.01.26c-.16 2.74-1.52 3.9-3.25 6.09l-1.48.49c-1.5-2.53-2.94-5.59-5.21-7.3l-1.01.99c.13 1.95.23 3.9.32 5.85-2.03-2.42-5.97-19.56-7.74-24.52a80 80 0 0 0-7.91-16.33l-2.23-3.25c-5.08-6.14-7.36-8.4-13.32-13.72-1.11-.74-3.04-2.63-4.12-3.61 12.32-2.41 30.62-38.91 37.74-49.84 2.03-3.12 7.41-7.88 8.91-10.45 17.23-29.54 40.56-55.36 56.48-85.81.16-.3-.85-5.5-.99-6.15"/><path fill="#535d89" d="m1771.29 1149.82-6.54-8.43c12.14 9.36 7.97 12.58 15.74 22.11 4.17.12 5.13.37 8.99-.86.8-4.04-6.01-7.98-6.7-14.04 16.13 20.63 22.76 54.05 25.13 79.8l-1.32.98c-.42-3.88-5.15-26.48-7.74-28.84-8.62 1.9-11.13 15.15-14.99 21.44-2.41 3.92-4.71 4.67-6.23 9.52l3.07-2.49 1.05.12-.93 3.58c2.04-3.67 4.49-9.93 7.58-11.54l1.25.93c-6.26 8.88 3.18 7.07-6.16 12.96.59 1.42.68.94 2.73 2.02-5.29.88-3.72-.16-6.74 3.37 1.15.22 1.94.38 3 .9-2.47 1.54-1.44 1.05-4.55 1.4l-.69 1.41c2.18 1.05 1.27.72 3.97.56-1.65 2.22-4.22 2.54-7.03 3.4-1.75 2.21-3.97 5.97-5.98 6.76 0-2.27-.24-1.13.87-3.38-.16-2.57.1-3.81-1.4-5.81-4.93 5.33-5.56 8.93-11.12 13.28-3.9-.75-3.9-.84-7.79-.47-3.82-2.17-1.43-2.09-4.28-5.4-3.23 1.39-11.6 12.82-16.95 16.61l2.44-4.62c8.44-16.14 21.61-35.81 31.56-51.5 3.41-5.38 7.24-12.33 10.64-17.08l-1.58-.4c-13.9 12.45-22.33 38.25-41.55 48.34-13.11 6.88-41.83 58.63-50.09 62.34-1.99-.34-3.73-.65-5.68-1.11-1.11-.74-3.04-2.63-4.12-3.61 12.32-2.41 30.62-38.91 37.74-49.84 2.03-3.12 7.41-7.88 8.91-10.45 17.23-29.54 40.56-55.36 56.48-85.81.16-.3-.85-5.5-.99-6.15"/><path fill="#777aa0" d="M1686.59 1319.4c8.04-3 22.06-33.41 31.27-41.48l.72.96c-1.52 4.4-22.33 40.28-25.57 44.41l-4.19-.64z"/><path fill="#a6a3a3" d="M406.352 1032.76c5.189-2.16 47.017-11.03 54.529-12.69l128.398-27.784c17.608-3.691 48.708-8.645 64.329-13.367 10.309 1.535 18.529 1.55 28.844 1.967 1.514.061 3.168 1.786 4.283 2.826L506.89 1021.49c-20.082 4.08-43.328 10.28-62.924 13.48-9.255 2.86-19.723 4.65-29.298 6.54-7.789 2.27-16.049 3.79-24 5.45-48.699 10.15-97.352 21.7-145.318 34.9-11.084 3.04-22.372 8.26-33.562 10.62 31.281-27.51 82.586-33.14 123.713-43.36 8.897-3.58 60.383-14.59 70.851-16.36"/><path fill="#b2ada9" d="M335.501 1049.12c8.897-3.58 60.383-14.59 70.851-16.36-16.454 12.12-50.695 18.37-70.851 16.36"/><path fill="#99979b" d="m414.668 1041.51 1.083-3.35c6.65-5.62 21.058-8.14 28.215-3.19-9.255 2.86-19.723 4.65-29.298 6.54"/><path fill="#a6a3a3" d="M707.137 968.029a1812 1812 0 0 0 59.517-11.111c8.909-1.728 24.646-5.234 33.215-5.839 8.187.068 18.55.229 26.689 1.092-10.398 1.506-29.47 3.872-38.902 8.254l3.721-.578c-5.668 2.127-13.806 3.516-17.863 6.989a1777 1777 0 0 0-61.476 11.839 629 629 0 0 1-25.303 5.037c-1.115-1.04-2.769-2.765-4.283-2.826-10.315-.417-18.535-.432-28.844-1.967 11.348-3.617 41.52-9.209 53.529-10.89"/><path fill="url(#h)" d="M653.608 978.919c11.348-3.617 41.52-9.209 53.529-10.89-4.242 2.948-9.307 3.291-14.363 4.284l.986 1.108.318-1.748c4.057 4.677 7.639 4.332 13.768 4.178 1.99 1.126 2.483 1.343 4.192 2.824a629 629 0 0 1-25.303 5.037c-1.115-1.04-2.769-2.765-4.283-2.826-10.315-.417-18.535-.432-28.844-1.967"/><path fill="#535d89" d="M1618.76 1090.84c11.64.17 33.15 2.95 44.37 5.65-2.59 7.12-14.42 20.86-19.62 28.13-17.58 24.53-35.26 48.06-52.2 73.13-12.76 18.88-35.92 39.63-43.14 61.36-.1.24-.2.48-.29.72-8.3-1.24-18.04-1.66-25.94-3.54 6.3-.98 15.44.71 22.24 1.38.14-3.91 4.36-13.34 6.87-16.28 21.91-25.63 42.52-52.78 60.52-81.29 7.35-11.64 42.96-51.82 40.94-62.73-3.79-2.66-25.91-3.44-33.75-6.53"/><path fill="#99979b" d="M799.869 951.079c17.444-4.549 57.681-11.505 75.378-12.756-2.139 1.865-4.724 3.882-6.387 6.121 12.433-6.99 24.744-.241 36.201.763-2.748.517-6.806 1.159-9.414 1.807-33.96 2.1-87.188 14.168-122.133 19.822 4.057-3.473 12.195-4.862 17.863-6.989l-3.721.578c9.432-4.382 28.504-6.748 38.902-8.254-8.139-.863-18.502-1.024-26.689-1.092"/><path fill="#b2ada9" d="M799.869 951.079c17.444-4.549 57.681-11.505 75.378-12.756-2.139 1.865-4.724 3.882-6.387 6.121l-.817 1.565c-7.103 1.998-16.491.275-22.706 1.295-7.921 1.3-8.502 4.245-18.779 4.867-8.139-.863-18.502-1.024-26.689-1.092m446.791 87.301c21.89 8.04 64.65 36.05 78.86 38.83l-.02 5.72c-15.24-4.8-36.29-14.93-50.16-22.29-4.73-6.82-23.6-14.39-28.68-22.26"/><path fill="url(#i)" d="M1325.52 1077.21c25.12 3.78 50.69-5.35 75.38 5.01 2.67 1.12 12.56-.55 15.84 1.49-30.05.4-61.36 1.53-91.24-.78z"/><path fill="#0e1e34" d="m71.19 1301.64-.417-1.7c10.079-10.82 46.759-33.75 62.284-38.14 2.822-.8 4.089.42 6.164 1.72-35.133 12.78-39.963 20.43-68.03 38.12"/><path fill="#a6a3a3" d="M1232.45 1030.9c2.5 1.28 12.46 6.19 14.21 7.48 5.08 7.87 23.95 15.44 28.68 22.26-9.06-4.08-31.38-15.71-39.49-20.88-.15-3.17-1.93-5.93-3.4-8.86"/><path fill="#0e1e34" d="m50.315 1307.72 1.108 1.83c-1.434 3.57-1.625 3.57-3.96 6.44l.79.49c5.627-2.33 5.684-4.74 10.529-5.14-5.431 5.07-11.808 12.27-17.735 16.09l-1.036-1.75c3.394-6.99 5.81-11.63 10.304-17.96"/><path fill="#a92b16" d="M1278.75 640.758c13.32-.665 45.77 11.968 57.72 18.593 7.84 2.375 23.24 10.284 31.21 14.273 31.6 16.027 59.46 31.7 89.98 49.57 14.81 8.67 44.98 27.363 59.36 32.694 13.43 4.979 52.98 2.448 69.53 2.93 69.76 2.031 140.05 2.615 209.73 7.577 9.6.684 40.73 2.766 47.76 4.879 31.06 1.533 69.05 14.58 94.96 31.157l2.72 1.788c13.09 9.338 15.53 14.158 25.64 22.678 2.7 2.704 5.64 5.195 6.11 9.1 1.4 4.342 9.25 14.705 12.79 24.175.66 1.692 1.78 4.257 2.23 5.925 2.25 8.475 6.72 26.702 6.2 35.422.17 7.493 1.11 26.44-1.79 32.158-10.75 21.199-25.37 44.686-37.44 65.125l-31.15 53.078c-6.58 11.24-14.73 26.01-22.8 35.94-2.28-3.69-1.34-21.44-1.67-28.09-.46-1.04-.29-.48-.43-1.87a211 211 0 0 0-7.13-37.05c-15.6-39.706-28.73-48.075-66.14-68.163-26.98-10.801-44.33-16.398-73.5-21.191-14.31-2.448-25.03-2.724-39.15-4.282-16.72.238-40.47-2.438-58.29-2.532-14.46-.077-43.86.373-57.27-1.513-48.5-1.962-98.58.833-148.15-1.26-7.54.192-22.56-.061-29.49-3.235-34.3-15.714-67.11-35.215-100.41-53.045-14.33-7.675-31.52-15.752-45.19-24.078-12.34-4.598-41.96-20.21-56.73-26.893-62.85-28.425-115.99-34.644-184.15-34.755 11.35-4.802 14.88-3.174 27.21-2.182l.53-.554c-4.84-4.428-7.9.443-15.23-1.529 1.79-.8 11.58-2.064 14.11-2.453 7.44-.373 13.63-.235 21.1-.026l1.07.135c9.77 1.174 19.27 1.091 29.43 2.373 21.85 2.756 42 7.342 63.31 12.622-2.12-4.055-4.63-3.52-5.59-6.312 1.48-.644 3.22-1.408 5.25-2.292 3.49-6.778 4.96-10.852 9.59-16.875-1.03 5.067-1.86 7.597-1.38 12.793 1.92.52 3.26-1.893 4.41-3.691a3840 3840 0 0 1 68.2-102.515c6.63-9.634 12.99-23.142 22.93-28.599"/><path fill="#ac4427" d="M1941.72 804.219c13.09 9.338 15.53 14.158 25.64 22.678 2.7 2.704 5.64 5.195 6.11 9.1 1.4 4.342 9.25 14.705 12.79 24.175.66 1.692 1.78 4.257 2.23 5.925 2.25 8.475 6.72 26.702 6.2 35.422.17 7.493 1.11 26.44-1.79 32.158-10.75 21.199-25.37 44.686-37.44 65.125l-31.15 53.078c-6.58 11.24-14.73 26.01-22.8 35.94-2.28-3.69-1.34-21.44-1.67-28.09-.46-1.04-.29-.48-.43-1.87a211 211 0 0 0-7.13-37.05c-15.6-39.706-28.73-48.075-66.14-68.163-2.44-2.86-4.69-3.336-8.06-6.668l2.23 1.42-.44-1.271c4.05.944 7.24 1.623 11.35 2.248l6.01 2.691 3.82 1.832c24.21-43.143 58.27-89.734 87.99-129.562 4.06-5.45 12.8-12.178 12.68-19.118"/><path fill="url(#j)" d="M1941.72 804.219c13.09 9.338 15.53 14.158 25.64 22.678 2.7 2.704 5.64 5.195 6.11 9.1-1.32 1.574-2.43 3.58-2.55 5.904-.36 7.315-6.63 10.942-9.75 16.049-16.95 27.719-32.53 57.527-50.69 84.612-6.45 9.609-19.25 38.523-30.27 40.883l-1.57-2.482c-14.65-15.015-19.42-17.741-37.59-28.064 24.21-43.143 58.27-89.734 87.99-129.562 4.06-5.45 12.8-12.178 12.68-19.118"/><path fill="#e2dcde" d="M1967.36 826.897c2.7 2.704 5.64 5.195 6.11 9.1-1.32 1.574-2.43 3.58-2.55 5.904-.36 7.315-6.63 10.942-9.75 16.049-16.95 27.719-32.53 57.527-50.69 84.612-6.45 9.609-19.25 38.523-30.27 40.883l-1.57-2.482c3.01-2.022 4.02-4.159 5.99-7.198.24-2.69.22-2.499-.81-5.014-4.95-.622-4.45 3.779-9.21 2.743-1.15-4.416-.59-3.489.91-8.603 1.72-2.32 6.79-8.348 7.76-9.99 7.97-13.466 11.03-20.766 21.69-32.662 3.43-2.821 17.66-26.853 21.36-32.027 9.08-12.878 17.78-26.002 26.55-39.092 5.14-7.662 12.02-13.305 14.48-22.223"/><path fill="#eeeeed" d="m1875.52 962.891-1.77-.332c-5.68-7.779 21.08-44.544 30.27-45.281l.95 2.961c-10.66 11.896-13.72 19.196-21.69 32.662-.97 1.642-6.04 7.67-7.76 9.99"/><path fill="#96240d" d="m1899.84 1059.73 1.48-.24c3.71-18.12-3.76-27.89-2.05-41.95 1.75 1.08 2.63 1.85 4.25 3.12l1.39-.42c23.44-30.888 43.32-65.641 68.64-95.263-.37.426 1.46-11.377 2.64-14.082 3.76-2.603 2.45-1.968 8.31-1.143 2.28-2.655 1.69-1.161 1.87-4.621-.96-.986-1.92-1.983-2.86-2.99-.2-3.303.29-5.395 2.06-8.36 2.62-4.375 1.96-10.708 1.94-16.122l.94.126c2.2 4.679 4.2 18.421 5.23 24.172l1.01-.438c.17 7.493 1.11 26.44-1.79 32.158-10.75 21.199-25.37 44.686-37.44 65.125l-31.15 53.078c-6.58 11.24-14.73 26.01-22.8 35.94-2.28-3.69-1.34-21.44-1.67-28.09m-73.7-107.083c-2.44-2.86-4.69-3.336-8.06-6.668l2.23 1.42-.44-1.271c4.05.944 7.24 1.623 11.35 2.248l6.01 2.691 3.82 1.832c18.17 10.323 22.94 13.049 37.59 28.064l1.57 2.482c11.72 12.07 15.08 20.765 16.8 37.995.27 2.79-.19 2.97-1.51 4.65l-.47-1.79c-.58-2.13-.69-2.43-1.88-4.37l-.87.88c-15.6-39.706-28.73-48.075-66.14-68.163"/><path fill="#c47555" d="m1988.49 866.097-3.45 5.531c-4.19.789-3.73 1.442-6.61-.135a249 249 0 0 0 3.79-14.968l1.3.256c.89 2.056 1.06 1.877 2.74 3.391.66 1.692 1.78 4.257 2.23 5.925"/><path fill="url(#k)" d="M1278.75 640.758c13.32-.665 45.77 11.968 57.72 18.593l-4.89.464c-4.41 5.385-8.63 15.735-12.81 21.627-14.75 20.805-28.41 43.074-43.07 63.828-10.65 15.066-34.74 53.951-49.13 64.331-10.23-4.842-20.92-9.26-31.35-13.713-5.02-1.792-8.89-3.449-13.72-5.589l-6.16-2.05c-2.12-4.055-4.63-3.52-5.59-6.312 1.48-.644 3.22-1.408 5.25-2.292 3.49-6.778 4.96-10.852 9.59-16.875-1.03 5.067-1.86 7.597-1.38 12.793 1.92.52 3.26-1.893 4.41-3.691a3840 3840 0 0 1 68.2-102.515c6.63-9.634 12.99-23.142 22.93-28.599"/><path fill="#e2dcde" d="M1184.59 762.77c-1.03 5.067-1.86 7.597-1.38 12.793 1.92.52 3.26-1.893 4.41-3.691a3840 3840 0 0 1 68.2-102.515c6.63-9.634 12.99-23.142 22.93-28.599l-.32 1.319c-3.95 3.421-5.61 6.575-7.87 11.153-7.45 15.079-18.47 26.706-28.2 40.019-6.12 8.379-11 18.713-17.23 27.568-9.63 11.207-20.85 33.186-28.26 46.262-3.51 6.191-9.07 17.557-13.65 22.592l-1.72.628-6.16-2.05c-2.12-4.055-4.63-3.52-5.59-6.312 1.48-.644 3.22-1.408 5.25-2.292 3.49-6.778 4.96-10.852 9.59-16.875"/><path fill="#eeeeed" d="M1225.13 720.817c6.23-8.855 11.11-19.189 17.23-27.568 9.73-13.313 20.75-24.94 28.2-40.019 2.26-4.578 3.92-7.732 7.87-11.153-.64 2.616-3.11 12.585-4.18 14.259-9.32 14.586-33.59 59.074-49.12 64.481"/><path fill="#d6a68d" d="M1183.22 789.671c8.39.204 16.93-9.382 21.21-6.57-1.86 7.16-5.76 6.088-9.21 12.787-5.02-1.792-8.89-3.449-13.72-5.589z"/><path fill="url(#l)" d="M1844.04 771.274c31.06 1.533 69.05 14.58 94.96 31.157l2.72 1.788c.12 6.94-8.62 13.668-12.68 19.118-29.72 39.828-63.78 86.419-87.99 129.562l-3.82-1.832-6.01-2.691c-4.11-.625-7.3-1.304-11.35-2.248l.44 1.271-2.23-1.42c3.37 3.332 5.62 3.808 8.06 6.668-26.98-10.801-44.33-16.398-73.5-21.191l1.93-1.904c6.29.088 12.92 2.472 19.41 3.347l.35.294-.79-1.348c2.04-2.124 1.2-1.42 3.97-2.707 3.77.401 12.9 1.415 15.96-.798-.11-2.338-.28-5.89 1.2-7.907 26.2-35.751 49.23-73.698 76.57-108.685 7.22-9.252 14.44-18.653 20.28-28.82-13.28-5.274-32.17-7.647-46.79-10.012z"/><path fill="#d6a68d" d="m1939 802.431 2.72 1.788c.12 6.94-8.62 13.668-12.68 19.118-29.72 39.828-63.78 86.419-87.99 129.562l-3.82-1.832c20.75-38.15 49.41-73.98 72.47-110.803 7.69-12.289 23.17-24.382 29.3-37.833"/><path fill="#ac4427" d="M1754.57 929.552c6.29.088 12.92 2.472 19.41 3.347l.35.294c12.6-5.149 27.35 2.566 39.49 6.995 3.34 1.22 14.95 6.446 17.4 8.188-4.11-.625-7.3-1.304-11.35-2.248l.44 1.271-2.23-1.42c3.37 3.332 5.62 3.808 8.06 6.668-26.98-10.801-44.33-16.398-73.5-21.191z"/><path fill="#c47555" d="M1336.47 659.351c7.84 2.375 23.24 10.284 31.21 14.273-8.03.645-13.73-5.544-22.23-7.471-6.47 8.998-11.55 18.724-17.69 27.833-13.08 19.429-26.27 38.862-39.27 58.336-12.83 19.222-30.55 46.653-47.19 62.352 4.6 2.28 9.43 4.347 13.38 7.55l-1.68.418a579 579 0 0 0-26.43-13.041c14.39-10.38 38.48-49.265 49.13-64.331 14.66-20.754 28.32-43.023 43.07-63.828 4.18-5.892 8.4-16.242 12.81-21.627z"/><path fill="#96240d" d="M1060.43 773.145c7.44-.373 13.63-.235 21.1-.026l1.07.135c9.77 1.174 19.27 1.091 29.43 2.373 21.85 2.756 42 7.342 63.31 12.622l6.16 2.05c4.83 2.14 8.7 3.797 13.72 5.589 10.43 4.453 21.12 8.871 31.35 13.713a579 579 0 0 1 26.43 13.041c5.45 3.605 10.18 6.467 15.84 9.738l-1.23.563-.76-.477c-19.63-12.063-44.13-22.822-65.29-31.849-3.73-1.588-12.8-6.003-16.02-6.691l-1.13 1.372c.9 7.368 17.11 9.555 23.45 12.974 10.11 5.455 60.58 24.574 66.65 31.82l.18 1.419c-12.34-4.598-41.96-20.21-56.73-26.893-62.85-28.425-115.99-34.644-184.15-34.755 11.35-4.802 14.88-3.174 27.21-2.182l.53-.554c-4.84-4.428-7.9.443-15.23-1.529 1.79-.8 11.58-2.064 14.11-2.453"/><path fill="#310000" d="M1449.78 921.869c8.73-5.446 65.82-3.202 78.78-3.062 21.95.238 54.08-1.299 75.22 2.489l1.12.893c-3.22.837-3.74.781-6.97.94-48.5-1.962-98.58.833-148.15-1.26"/><path fill="#ac4427" d="M1713.49 927.174c9.04-1.067 24.1-4.499 31.92-.427l-1.3.089c3.87 1.304 8.03 1.852 10.46 2.716l-1.93 1.904c-14.31-2.448-25.03-2.724-39.15-4.282"/><path fill="#a92b16" d="M253.207 963.884c11.062-21.961 29.517-52.558 42.589-74.392 22.108-35.288 41.313-78.897 70.72-108.578 34.868-35.195 102.608-43.743 150.234-53.347a3963 3963 0 0 0 107.756-23.161l216.887-48.384c44.779-9.797 92.573-20.622 137.689-27.529 52.968-8.11 105.148-9.274 158.618-8.26 29 .47 46.57 2.406 75.31 6.052 18.79 1.511 41.23 4.424 58.25 12.831-18.4 19.208-18.69 24.651-32.44 45.747-11.16 17.107-23.31 32.872-34.16 51.094-3.89 6.536-13.76 16.817-20.07 26.813-4.63 6.023-6.1 10.097-9.59 16.875-2.03.884-3.77 1.648-5.25 2.292.96 2.792 3.47 2.257 5.59 6.312-21.31-5.28-41.46-9.866-63.31-12.622-10.16-1.282-19.66-1.199-29.43-2.373l-1.07-.135c-7.47-.209-13.66-.347-21.1.026-2.53.389-12.32 1.653-14.11 2.453 7.33 1.972 10.39-2.899 15.23 1.529l-.53.554c-12.33-.992-15.86-2.62-27.21 2.182-58.018.337-135.695 14.153-192.876 24.637-15.928 2.755-54.87 12.204-67.785 13.289-13.493 3.593-30.564 6.715-44.427 9.494-11.896 2.385-27.902 6.137-39.681 7.795-9.169 2.775-25.178 5.575-35.193 7.666l-61.826 13.239-62.316 13.569c-4.45.963-23.882 5.384-27.238 5.329-90.803 23.795-174.027 17.825-245.726 90.759z"/><path fill="url(#m)" d="M1213.01 626.285c18.79 1.511 41.23 4.424 58.25 12.831-18.4 19.208-18.69 24.651-32.44 45.747-11.16 17.107-23.31 32.872-34.16 51.094-3.89 6.536-13.76 16.817-20.07 26.813-4.63 6.023-6.1 10.097-9.59 16.875-2.03.884-3.77 1.648-5.25 2.292.96 2.792 3.47 2.257 5.59 6.312-21.31-5.28-41.46-9.866-63.31-12.622-10.16-1.282-19.66-1.199-29.43-2.373l-1.07-.135c11.27-1.659 14.48-1.229 26.01-.347 26.42-40.99 54.2-81.089 83.29-120.228 5.45-7.372 10.35-16.504 15.45-24.217 1.01-1.518 4.77-1.782 6.73-2.042"/><path fill="url(#n)" d="M1137.7 620.233c29 .47 46.57 2.406 75.31 6.052-1.96.26-5.72.524-6.73 2.042-5.1 7.713-10 16.845-15.45 24.217a2195 2195 0 0 0-83.29 120.228c-11.53-.882-14.74-1.312-26.01.347-7.47-.209-13.66-.347-21.1.026-2.78-.107-6.07-.052-8.48-1.159 4.92-.015 22.26.823 24.9-1.259-.06-1.896-.36-5.881.51-7.438 6.39-11.412 16.36-22.935 23.55-33.659 9.82-14.657 17.6-28.196 28.06-42.468 14.5-19.786 34.54-42.402 45.32-64.29-10.35.813-15.98-.257-25.5.121-1.04 1.853-.78 1.332-1.44 2.712l-.4.839-1.38-.528-.29-3.781c-4.08-.344-4.01-.185-7.58-2.002"/><path fill="#96240d" d="M502.468 874.881c-.001-1.648-.186-.74 1.004-2.593l97.11-21.412c21.427-4.777 42.858-9.78 64.308-14.486 7.193-1.578 16.07-1.657 23.611-2.478l.54 1.166c-9.169 2.775-25.178 5.575-35.193 7.666l-61.826 13.239-62.316 13.569c-4.45.963-23.882 5.384-27.238 5.329m270.681-57.092.791-1.25c9.318-2.075 17.212-6.211 26.593-8.331 12.863-2.906 25.137-6.078 38.389-5.832l2.012 2.124c-15.928 2.755-54.87 12.204-67.785 13.289"/><path fill="#a6a3a3" d="M875.247 938.323c26.303-5.593 51.2-6.321 77.93-4.494l-1.236.108c-5.159.418-18.587-.138-21.284 1.34-.058 2.622 1.402 4.394 2.779 6.737l-.378 2.002c-10.132.084-17.835.187-27.997 1.191-11.457-1.004-23.768-7.753-36.201-.763 1.663-2.239 4.248-4.256 6.387-6.121"/><path fill="#747073" d="M156.166 1128.76c3.908-9.58 9.658-17.31 15.07-26.09a2198 2198 0 0 0 19.368-32.57c20.778-34.87 41.429-72.194 62.603-106.216l3.535 1.756c-9.278 11.015-23.367 37.05-31.235 50.56l-40.315 68.24c-8.154 14.12-18.098 32.46-29.026 44.32m1745.344-40.94c-24.4 43.57-52.25 86.86-77.92 129.82-4.17 6.98-7.18 13.86-11.95 20.68l-.88-.03c.46-7.56 16.95-31.82 21.89-40.03l48.36-80.9c5.38-9.09 14.67-23.59 17.97-33.09.75-2.15.54-19.69.86-24.54.33 6.65-.61 24.4 1.67 28.09"/></svg>