<svg xmlns="http://www.w3.org/2000/svg" width="3840" height="2160" preserveAspectRatio="none" style="display:block" viewBox="0 0 2160 2160"><path d="M1058.8 21.658c10.42-1.854 35.6-.614 46.17.155 70.44 5.121 143.95 34.318 200.55 77.377 211.44 160.866 306.21 442.293 348.36 694.76 55 375.22 11.19 806.18-210.08 1123.66-72.51 104.04-185.72 197.27-312.75 216.13-9.22 1.36-18.51 1.76-27.58 3.18-16.04-.18-28.06.72-45.06-.24-54.87-3.08-109.74-21.16-157.491-48.03-184.059-103.57-299.538-340.96-353.686-537.93-106.128-386.06-82.077-869.304 114.015-1222.879 64.26-112.961 153.461-220.924 274.286-275.43 38.986-17.586 81.016-27.946 123.266-30.753"/><path fill="#fefefe" d="M1072.62 28.993c102.79-1.27 195.37 41.328 270.85 109.476 217.41 196.303 307.92 547.268 324.52 829.869 19.44 331.132-48.52 743.102-272.98 1000.092-80.34 91.97-180.61 153.95-304.2 161.12-108.939 1.22-203.09-43.34-281.74-117.15-218.193-204.75-305.583-563.96-317.781-853.49-13.677-324.608 57.633-727.678 281.277-976.231C851.658 94.777 952.622 33.916 1072.62 28.993"/><path fill="#f9bd0b" d="m1060.08 71.1 2.52-.188c100.52-6.505 199.27 39.688 272.92 107.036 209.62 191.683 295.64 532.153 309.88 806.605 16.42 316.687-50 707.637-265.74 951.937-70.88 80.26-171.46 145.48-280.94 150.92-1.14.11-2.28.22-3.43.34-94.79 5.56-189.88-37.35-260.302-98.71-205.947-179.46-295.642-504.64-316.363-767.39-25.636-325.098 35.512-728.903 250.457-985.89C843.286 147.042 942.481 80.245 1060.08 71.1"/><path fill="#fefefe" d="M1069.26 388.562c65.97-3.67 129.2 24.163 178.43 66.717 141.1 121.963 202.89 344.73 217.4 523.667 18.07 222.964-23.38 500.834-171.07 677.714-51.33 61.48-118.66 106.69-200.19 113.18-69.9 3-131.134-22.97-183.189-68.83-142.432-125.49-203.033-352.49-215.851-534.86-15.442-219.721 27.318-493.658 174.278-666.931 51.633-60.877 118.92-105.055 200.192-110.657"/><path fill="#04490a" d="M1070.66 427.687c62.17-2.194 117.95 21.043 165.02 60.907 133.17 112.788 192.24 321.184 206.93 488.577 18.53 211.259-19.55 475.089-158.39 643.979-47.71 58.04-111.66 102.55-188.14 109.23l-.9.08c-63.78 5.21-127.208-22.69-174.375-64.19-133.202-117.2-190.798-328.16-203.674-498.61-15.758-208.596 23.764-469.089 162.957-634.414 49.682-59.009 112.3-99.654 190.572-105.559"/><path fill="#fefefe" d="M1054.11 615.542a337.7 337.7 0 0 1 170.77 30.777c56.57 26.383 125.64 80.557 146.96 140.567 12.47 35.081 15.09 77.943 9.71 114.769-1.91 13.094-7.95 30.769-11.97 43.69l-17.21 55.175-60.27 194.16-69.8 224.82c-22.21 71.49-39.49 170.08-118.86 198.34-51.38 12.91-90.72-21.83-114.559-63.8-22.071-38.85-32.852-86.73-46.136-129.51l-63.101-203.29-65.299-210.31-18.749-60.255c-6.009-19.328-13.401-39.793-15.035-59.667-4.58-55.712 3.024-110.425 40.127-154.04 61.46-72.246 140.28-112.12 233.422-121.426"/><path fill="#f9bd0b" d="M1058.75 644.991c59.08-2.418 108.01 4.794 162.5 30.428 51.13 24.051 117.06 73.862 136.83 128.365 9.38 25.885 11.7 63.051 7.2 90.084-1.88 11.259-7.48 27.904-11.02 39.331l-18.53 59.547L1275.41 1187l-67.55 217.65c-19.86 63.98-36.62 159.22-107.56 183.94-24.55 6.8-47.81-.5-67.02-16.43-35.709-29.6-48.197-70.58-60.842-112.83l-16.704-54.22-64.446-207.76-64.54-208.092-16.974-54.406c-4.669-14.888-11.851-35.044-12.855-50.013-3.242-48.33 3.009-89.074 35.435-126.07 60.148-68.627 136.615-105.922 226.396-113.778"/><path fill="#fefefe" d="M1072.89 951.797c57.09-3.175 131.56 9.422 185.11 28.588V1092.3c-86.57 103.07-128.47 236.39-134.91 369.49l-100.92.01c3.27-46.15 8.88-83.05 20.47-127.88 19.85-74.66 51.67-148.41 94.19-213.08 10.97-16.68 27.49-37.43 39.93-53.53-3.4-1.52-6.83-2.98-10.29-4.36-62.29-24.93-93.77-25.95-154.96.14v49.58c-32.177 13.64-59.495 16.34-92.827 5.33l.003-138.312a520.8 520.8 0 0 1 154.204-27.891m162.61-184.246c19.17 9.151 38.62 19.445 57.34 29.401 24.18 12.867 34.27 42.329 19.13 65.989-3.15 4.927-16.36 6.6-21.8 7.278-1.8 3.972 13.07 43.63 17.05 48.668 1.38 1.755 5.81 4.467 7.96 5.717l-2.71 16.957-28.38-14.322-5.99-19.996c-3.52-11.814-6.45-24.092-10.06-35.809-3.1-10.047-3.05-11.71-11.34-16.182-1.64 9.465-6.07 25.507-3.89 34.234 1.04 4.175 4.92 5.631 8.62 7.563l-2.77 17.438a1478 1478 0 0 0-43.35-22.266l2.48-17.322c2.92 1.364 4.39 1.941 7.45 3 1.26-.364 2.91-.493 3.13-1.453 5.8-25.503 11.44-58.166 13.37-84.077.21-2.865-7.64-6.296-9.58-7.246z"/><path fill="#f9bd0b" d="M1264.75 804.828c18.53 7.773 40.25 18.707 25.6 41.479-10.79 2.699-20.64-4.25-30.57-9.389 1.17-10.115 3.35-21.911 4.97-32.09"/><path fill="#fefefe" d="M1129.39 743.316c25.57 5.245 51.02 11.473 76.66 16.579 2.66 14.393 5.2 28.808 7.63 43.244l-12.4 3.589c-5.9-27.842-14.02-29.947-39.67-35.489-.35 8.833-2.45 23.254-1.33 31.249 3.99 3.242 8.66 3.464 12.8.381 2.44-4.53 2.26-9.399 2.65-14.663 3.82 1.014 8.02 1.816 11.91 2.638l-3.9 54.819c-3.98-.958-7.98-1.856-11.99-2.692 1.4-15.456 2.09-17.872-13.54-22.015-.15 4.813-.68 10.082-1.06 14.921-.36 7.551-.77 15.099-1.24 22.644 27.9 7.016 36.83 4.962 47.95-22.94l11.69 8.504c-5.44 14.239-10.66 30.934-15.59 45.523-23.62-6.395-55.28-12.354-79.51-17.481.27-6.688-.91-13.589 4.87-17.578 2.9.374 3.32.769 5.92-.317 3.11-5.071 8.27-80.81 6.51-89.035-2.61-3.026-5.53-3.229-9.51-4.268zm-96.5-.339c8.54.039 17.75-.424 26.17-.157 14.77.469 34.09-3.035 45.76 7.763 16.07 14.877 16.63 46.209 1.28 61.73-10.53 10.655-25.23 9.069-38.95 8.988v25.877c.09 3.28-.13 3.212 1.49 5.987 1.56.491 3.01 1 4.64 1.251 6.65 1.026 4.95 13.114 4.8 18.205l-45.25.052c-.08-2.978-.37-7.711-.14-10.505.92-10.937 4.38-5.008 9.77-10.07 4.97-15.361.74-66.23.86-84.651.06-9.244-11.32 1.84-10.43-24.47"/><path fill="#f9bd0b" d="M1067.33 764.052c7.16.046 12.47-1.024 18.72 3.327 11.36 7.899 8.5 20.942 1.15 30.808-6.87 3.446-12.37 2.836-20.05 2.913-.13-12.35-.06-24.7.18-37.048"/><path fill="#fefefe" d="M897.429 780.953c3.428 4.276 12.646 30.432 15.167 37.189l-11.051 10.731c-25.405-32.403-49.898-7.048-43.213 6.261 5.563 5.382 13.564 4.373 20.658 3.745 14.021-1.242 29.925-3.495 39.641 9.334 6.506 8.68 6.06 19.647 4.632 29.925-3.35 24.11-25.866 50.242-52.277 44.047-1.832-.43-.925-.469-2.872.714-1.316 4.776-4.71 15.668-11.78 11.635a4506 4506 0 0 1-13.363-43.242l10.932-10.202c11.517 19.105 34.869 31.695 50.663 5.146 1.204-2.024.462-8.304-1.087-10.077-10.798-12.352-35.3.862-49.649-5.898-5.281-1.755-11.722-5.863-13.736-11.793-9.138-26.903 6.681-61.024 35.606-67.086 1.271-.267 10.742.464 11.201-.373 3.633-6.637 3.523-7.195 10.528-10.056m117.421-36.181 1.86.222c1.69 3.419 1.81 12.633 2.09 16.917-2.64.879-9.05 2.213-9.41 4.482-5.13 33.8 14.26 73.911-6.75 105.198-8.34 13.742-36.286 21.982-48.754 10.169-20.326-19.258-13.489-59.127-17.914-85.176-3.363-19.799-4.105-7.505-12.114-14.186-1.784-4.618-1.26-8.53-1.179-13.542l1.553-1.373a1878 1878 0 0 1 42.815-10.55l1.508 17.291c-5.332 1.67-10.414 2.434-10.175 9.308.8 20.893 2.14 42.58 5.141 63.236 4.05 27.886 31.396 18.601 32.724-1.873 1.355-20.875-2.489-45.657-3.973-66.714-.805-11.424-5.583-5.516-10.892-9.332-2.331-4.542-1.906-9.766-2.066-15.044 11.256-3.201 24.086-6.151 35.536-9.033m455.78-299.044c3.26 3.256 24.5 59.522 27.96 68.34l-38.77 87.547c13.48-6.029 45.19-25.468 59.99-33.634a6162 6162 0 0 1 27.61 70.603l-10.99 13.867c-.79-1.992-1.6-3.977-2.42-5.957-1.76-4.214-2.33-6.557-6.44-8.247-10.25 8.046-45.54 54.026-54.77 67.344-2.32 3.36 2.9 15.762 4.63 20.224l-11.14 13.977-29.11-73.677 11.25-13.701c1.7 4.25 4.16 12.03 8.15 14.099 6.12-2.954 21.06-23.167 26.08-29.485l28.68-35.798a5030 5030 0 0 0-81.5 46.162l-8.3-21.155 50.39-116.184c-13.89 15.311-37.86 46.063-50.39 63.881-2.87 4.073 2.26 15.544 4.18 20.469l-11.2 14.17-24.46-62.469 11-14.094c2.25 5.731 3.59 11.639 9 14.204 6.81-4.379 47.72-56.941 54.21-66.466 3-4.411-2.24-15.9-4.34-21.112zm-426.26-302.332c19.88 1.978 40.17 2.252 60.15 3.705 14.88 1.081 31.21 6.285 37.23 21.665 11.38 29.063 8.52 63.311-23.69 77.43 7.69 16.526 15.28 33.746 23.91 49.806 3.66 6.811 7.33 4.409 13.23 7.391 1.18 5.374.32 17.577.09 23.667-11.22-.645-22.44-1.416-33.65-2.315l-10.93-26.6c-3.64-8.481-18.08-47.386-22.88-50.944-4.06-.919-2.09-1.014-6.11.436-1.86 9.891-4.58 44.806 3.56 50.718 3.36.26 3.48.098 6.52 1.379 1.26 3.77.49 18.572.42 23.313-17.12-.907-34.23-2.011-51.32-3.313l.52-24.017c4.08.241 4.5.247 8.53-.315 2.48-1.891 3.71-2.85 3.86-6.416 1.49-36.865 1.88-73.948 2.12-110.851.02-3.625-.55-5.14-2.69-7.789-3.22-.543-3.6-.421-6.54-2.023-4.33-6.481-2.69-16.742-2.33-24.927"/><path fill="#f9bd0b" d="M1082.22 174.949c9.85.549 20.78.239 29.56 5.275 13.77 7.893 10.3 25.594 2.61 36.743-9.88 6.932-20.91 4.473-32.91 3.556z"/><path fill="#fefefe" d="m1202.99 167.153 48.42 29.622-4.47 22.905-.73-.401c-3.36-1.808-5.62-3.908-9.57-3.422-4.55 4.513-8.61 31.977-10.34 40.698 11.91 6.914 24.47 14.951 36.28 22.194 2.33-12.139 8.04-29.64 6.24-41.536-.76-5.027-5.42-7.375-9.51-9.986l4.31-22.958c16.23 9.809 32.4 19.727 48.49 29.753l-4.59 23.029c-4.17-2.673-6.42-4.698-11.05-3.975-3.91 7.407-21.5 99.423-22.27 115.159-.16 3.392 6.82 7.454 10.08 9.563-1.03 5.422-2.44 18.333-5.53 21.951l-2.16-.83c-13.27-8.939-31.39-19.253-45.37-27.766l4.73-22.793c3.61 2.06 6.33 4.101 10.33 3.635 4.28-4.209 9.88-39.214 11.39-47.128l-36.35-22.39c-2.34 14.683-8.99 34.219-7.29 48.315.59 4.944 5.39 7.297 9.42 9.81l-4.39 22.913c-15.84-9.11-32.76-19.959-48.46-29.572l4.39-22.794c3.8 2.043 6.93 4.424 10.98 3.638 4.23-6.843 22.06-101.375 22.65-115.218.15-3.454-6.96-7.376-10.2-9.388zm-207.864-11.917c2.262 3.657 17.324 43.352 19.564 49.112q-6.135 6.998-12.06 14.174c-14.838-31.106-22.824-27.493-50.736-14.917 1.292 13.789 3.885 29.256 5.959 43.001 18.352-7.879 15.364-13.214 12.919-31.571l12.957-5.996c3.979 21.674 7.134 50.228 10.218 72.531l-13.025 5.701c-2.417-16.673-1.15-25.516-20.022-16.955 2.944 15.572 4.439 32.855 7.416 49.106 26.925-9.254 34.654-18.292 41.524-45.46 1.41-7.297 1.95-12.777 2.65-20.197 4.65.385 9.58 1.135 14.24 1.745-1.03 22.949-2.82 46.528-4.28 69.5a7422 7422 0 0 1-88.002 38.905l-3.347-23.48c5.414-2.66 11.619-4.863 10.776-11.3-1.859-14.2-12.563-110.342-17.8-115.423-3.944-.567-6.499 1.188-10.232 2.893l-3.387-23.761c25.611-12.545 57.952-25.683 84.668-37.608m-245.254 200c11.883 10.405 73.612 70.894 81.109 72.899 4.005-1.176 3.947-2.212 7.371-5.635l8.622 18.344c-12.753 17.893-25.859 38.238-38.189 56.611l-8.882-18.579c10.87-15.79 5.45-18.767-6.939-30.729-7.926 10.731-16.853 24.904-24.392 36.208 1.535 6.878 1.87 24.183 8.763 25.552 3.415-1.493 5.06-4.811 7.221-8.006 2.768 6.185 5.908 12.555 8.826 18.702l-31.189 46.43-8.945-18.131c1.613-2.86 5.196-9.354 4.954-12.477-1.22-15.764-5.014-34.095-7.818-49.567-6.303-34.784-12.22-69.672-18.869-104.312z"/><path fill="#f9bd0b" d="M754.844 410.858c4.316 2.709 19.955 19.055 24.879 23.842l-9.437 14.142-6.456 9.326q-4.8-23.596-8.986-47.31"/><path fill="#fefefe" d="M1385.08 320.375c3.01 1.124 16.9 20.882 19.76 24.734-1.42 6.439-2.44 14.589-3.3 21.213-5.9 45.375-15.15 90.795-18.77 136.336-.17 2.045 3.73 8.292 4.99 10.405l-8.1 19.308c-13.17-16.892-26.78-35.805-39.67-53.07 2.6-6.541 5.53-13.002 8.37-19.447 2.91 3.844 4.5 7.888 9.43 6.124 2.8-4.393 3.19-10.171 4.06-15.49l1.61-10.02c-8.15-11.268-16.96-22.716-25.32-33.894-12.3 13.183-17.94 15.321-6.2 31.466l-8.13 19.373c-10.64-13.169-22.3-29.606-32.6-43.348 2.31-5.923 4.44-14.333 9.82-16.929l4.35 2.467c7.36-.504 23.8-20.553 29.87-26.92z"/><path fill="#f9bd0b" d="M1374.8 366.789c.91 5.458-5.82 40.396-7.12 47.662l-7.02-9.168c-2.78-4.046-6.56-8.887-9.54-12.898 7.79-8.622 15.69-17.155 23.68-25.596"/><path fill="#fefefe" d="M672.898 488.083c11.497 6.329 24.058 14.396 35.35 21.352-1.78 7.855-3.365 16.021-5.009 23.929-11.467-1.337-23.221-1.992-31.511 8.135-20.535 25.085-14.01 71.137 9.621 92.256 11.196 10.005 27.883 10.982 36.361-2.816 14.983-23.359 12.827-56.185 8.549-82.005l13.581-8.835c1.573 10.608 3.109 20.429 3.883 31.158 4.014 32.244-4.407 76.191-25.114 101.828-21.531 26.657-49.081 16.774-64.167-9.733-25.228-44.328-19.869-114.188 14.404-152.039l-1.854-8.187zm205.489-277.391c3.905 2.908 23.475 38.493 27.334 45.315l-10.249 18.198c-5.879-7.638-18.975-23.11-30.034-18.428-3.793 5.508-1.921 12.078.107 17.944 4.339 12.547 23.324 93.112 28.534 96.669 4.086-.469 6.901-3.396 10.206-6.035l6.117 21.622c-15.198 12.768-30.9 26.841-45.942 39.915-1.392-4.503-6.114-18.95-5.183-22.632 2.381-2.096 6.537-5.779 7.74-8.75.702-1.733.973-4.474.477-6.257-4.4-15.804-23.679-95.429-28.985-105.113l-1.453-.356c-13.315 9.161-12.804 38.747-13.261 53.543-4.761 1.056-9.629 2.018-14.412 3.013l-3.633-65.574c5.889-5.62 5.336-5.486 13.314-5.313 15.011-12.648 38.967-31.059 51.387-46.626 3.438-4.31-1.603-3.274 7.936-11.135"/></svg>