<svg xmlns="http://www.w3.org/2000/svg" width="3840" height="2160" preserveAspectRatio="none" style="display:block" viewBox="0 0 2160 2160"><path d="M539.31 1178.61c3.866-.71 26.691-.43 32.036-.42l72.071.11h277.091l834.452 1.01 226.27 2.91c37.9.55 76.01 1.98 113.93 1.83-28.81 17.64-57.24 37.78-85.76 55.76-31.03 19.56-54.33 39.72-90.78 48.35-21.64 5.13-42.3 9.12-64.46 11.82-10.65 1.29-18.23 1.43-28.87 3.53l-.55-.88c14.81-12.04 38.37-27.63 54.34-38.74 25.21-17.55 51.03-36.33 76.47-53.21h-328.69l-1422.419.01c10.594 6.45 24.892 17.03 35.33 24.29l61.263 42.76c5.83 4.12 29.544 20.13 32.485 23.47l-.468 1.35c-6.497 1.14-28.424-2.93-35.862-3.67-55.87-5.57-98.607-25.81-144.202-57.33-27.354-18.91-59.36-39.91-88.2-57.47 118.201.71 237.92-5.51 356.306-4.83 39.125.22 79.196.87 118.217-.65"/><path d="m1435.34 1273.57.72.54c-1.49 3.39-29.85 26.41-35.05 31.03-38.24 34-60.97 56.89-114.98 59.27-59.71 2.63-120.57 5.83-180.59 4.97-18.45-.08-37.17 1.75-56.04 1.38-13.89-.28-28.1-1.25-41.75-1.35-37.189.08-74.375-.91-111.509-2.97-40.309-2.29-68.593-3.8-100.655-30.42-18.305-15.2-36.335-30.8-54.311-46.36-6.277-5.05-11.837-10-17.84-15.38 38.827-.96 77.89 9.62 112.605 26.47 39.745 19.3 53.208 32.93 98.702 36.19a2120 2120 0 0 0 262.668 1.2c16.86-1 46.67-2.34 62.54-6.39 16.6-4.25 40.94-18.74 56.41-27.18 29.86-16.3 57.72-25.82 91.72-29.23 9.35-.94 18.07-.94 27.36-1.77m142.6-476.272 96.2.015c-3.27 6.59-6.51 14.14-9.59 20.899l-74.2.027v54.12l65.62.001.03 20.919-65.65.017v61.68h76.89c3.27 6.642 6.48 14.131 9.55 20.934l-98.85-.025zm227.28.008c7.75-.029 16.01-.325 23.72-.084 14.53.736 34.41-1.878 48.27 1.573 29 7.226 31.61 51.552 24.77 75.089-4.91 16.913-13.14 24.188-27.37 31.948 11.51 22.002 23.28 47.52 34.14 70.07l-14.9-.022c-14.66-28.872-28.98-59.22-43.19-88.439 6.57.319 11.86-.174 18.26-1.566 30.48-10.448 31.45-53.001 6.18-67.675l-57.01.011v157.696l-12.87-.015zm-1071.026-.008c17.55-.079 57.131-1.707 72.533 1.566 32.065 6.813 33.685 71.24 15.622 92.075-6.855 7.908-9.179 9.854-18.661 14.638 9.782 22.395 23.102 48.126 33.909 70.311l-15.039.021c-14.319-28.138-29.411-59.862-42.791-88.418 8.161.35 13.072-.672 20.748-2.54 24.578-6.807 25.678-47.066 11.412-61.288-8.821-8.794-51.546-5.548-65.327-5.442v157.61l-12.406.012zm-244.88-.034 12.542.072v75.017l75.893-.009v-75.008l12.147-.003.083 116.95c.013 16.885.876 44.974-.462 60.449-2.738 1.751-4.962 1.524-8.47 1.959l-1.96-.838c-2.443-3.933-1.362-72.273-1.334-82.587l-75.897.009v82.662l-12.606-.068zm708.756-5.702 3.48-.087c18.58-.535 26.85 6.871 37.39 20.842-2.99 3.955-5.69 7.922-8.51 11.995-19.03-20.185-46.81-18.419-54.34 9.733-10.26 38.361 50.92 29.334 65.95 61.959 17.3 37.562-2.74 98.303-52.9 82.957-17.23-9.002-24.36-16.822-33.7-33.787l9.51-11.661c4.7 8.855 10.75 16.853 19.21 22.462 13.22 8.714 36.78 7.437 45.18-7.474 5.65-10.013 9.77-22.402 6.18-33.837-7.53-22.219-32.71-23.21-51.18-33.484-26.31-14.64-25.05-48.49-12.04-71.696 5.22-9.314 15.12-15.767 25.77-17.922m-891.869-1.952c25.824 5.012 36.135 21.568 45.046 44.711l-15.188.01c-10.404-18.59-28.059-31.393-48.125-15.808-15.323 11.902-21.74 38.203-23.508 56.768-2.648 27.797 6.075 80.535 40.173 85.941 7.429 1.09 16.633-5.398 22.386-10.498 4.5-5.281 5.521-6.937 9.011-12.875l15.47.008c-3.339 8.366-6.366 14.687-11.136 22.226-10.236 18.366-36.267 30.449-54.585 15.234-42.658-35.43-42.975-121.079-13.245-164.572 8.833-12.923 19.257-18.738 33.701-21.145m631.739 7.726h16.148c10.393 27.503 22.953 56.877 34.217 84.221l35.065-84.232 15 .013-27.4 65.655c-5.5 12.879-16.503 34.751-16.572 47.931-.112 21.423.089 43.469.135 64.947l-12.395.036c-.155-22.345.945-48.628-.449-70.644-.468-7.396-13.473-36.405-16.983-44.773a4201 4201 0 0 0-26.766-63.154m440.67-.036 12.45.032v157.644h70.54a585 585 0 0 1 8.85 20.915l-91.84.021z"/></svg>