<svg xmlns="http://www.w3.org/2000/svg" width="371" height="377" preserveAspectRatio="none" style="display:block" viewBox="0 0 1484 1508"><defs><linearGradient id="h" x1="910.098" x2="912.638" y1="94.855" y2="86.299" gradientUnits="userSpaceOnUse"><stop class="stop0" offset="0" stop-color="#605c5e"/><stop class="stop1" offset="1" stop-color="#7b797b"/></linearGradient><linearGradient id="g" x1="726.118" x2="725.993" y1="1427.07" y2="1372.45" gradientUnits="userSpaceOnUse"><stop class="stop0" offset="0" stop-color="#807e7f"/><stop class="stop1" offset="1" stop-color="#b0b0b0"/></linearGradient><linearGradient id="f" x1="1018.33" x2="1018.74" y1="744.516" y2="782.328" gradientUnits="userSpaceOnUse"><stop class="stop0" offset="0" stop-color="#858385"/><stop class="stop1" offset="1" stop-color="#a8a8a9"/></linearGradient><linearGradient id="e" x1="218.035" x2="153.679" y1="724.351" y2="839.558" gradientUnits="userSpaceOnUse"><stop class="stop0" offset="0" stop-color="#858485"/><stop class="stop1" offset="1" stop-color="#aaaaa9"/></linearGradient><linearGradient id="d" x1="798.097" x2="778.389" y1="962.765" y2="972.007" gradientUnits="userSpaceOnUse"><stop class="stop0" offset="0" stop-color="#a2a1a2"/><stop class="stop1" offset="1" stop-color="#dedddd"/></linearGradient><linearGradient id="c" x1="496.84" x2="507.239" y1="1189.69" y2="1196.97" gradientUnits="userSpaceOnUse"><stop class="stop0" offset="0" stop-color="#848284"/><stop class="stop1" offset="1" stop-color="#a09fa0"/></linearGradient><linearGradient id="b" x1="636.814" x2="670.257" y1="989.819" y2="1013.66" gradientUnits="userSpaceOnUse"><stop class="stop0" offset="0" stop-color="#8b8a8b"/><stop class="stop1" offset="1" stop-color="#a9a9aa"/></linearGradient><linearGradient id="a" x1="723.776" x2="723.484" y1="148.849" y2="775.059" gradientUnits="userSpaceOnUse"><stop class="stop0" offset="0" stop-color="#b9b8b8"/><stop class="stop1" offset="1" stop-color="#fff"/></linearGradient></defs><path fill="#fcfbfc" d="M0 0h1484v1508H0z"/><path fill="url(#a)" d="M600.315 69.909c31.384-12.407 187.501-15.307 220.85-4.153 14.281 2.097 43.904 7.521 57.025 10.073 17.58 3.419 107.281 30.216 117.615 39.988l2.641 2.994-.206 2.796c20.55 7.197 87.73 43.317 103.92 56.887 14.45 7.693 54.58 40.08 67.22 51.143a679.97 679.97 0 0 1 206.86 321.158c16.7 54.764 27.56 123.006 26.85 179.687-.52 6.114-1.1 28.628-2.07 31.945-7.89 5.942-75.17-.995-88.86 5.949-1.39.705-8.6 1.029-10.72 1.139-1.56-10.934-.28-29.145-2.42-37.799-1.23 72.033-7.33 133.731-35.39 201.335-7.11 17.118-14.98 30.998-22.28 47.247 2.78-2.676 3.38-4.453 7.48-4.363 34.98.76 69.95.645 104.92 1.896 3.77.135 6.14 3.258 6.92 6.751a679.1 679.1 0 0 1-195.85 278.038c-6.98 6.03-46.14 38.22-53.64 40.82-36.04 28.76-114.649 67.01-158.18 81.98-7.122.76-13.856 3.96-19.718 7.91l-.22.65c-1.659 1.37-2.615 2.22-4.513 3.31l1.509.45c-15.336 7.82-42.703 13.11-59.845 16.71a688.9 688.9 0 0 1-286.755 1.28c-16.139-3.38-40.348-7.49-55.379-14.09-44.379-14.42-69.961-24.54-111.149-44.78-128.888-68.21-229.565-162.24-298.219-292.35C34.152 904.424 16.37 717.381 69.247 544.227A683.3 683.3 0 0 1 295.655 209.87c21.558-17.453 61.542-46.141 87.079-59.609 2.178-1.932 18.124-10.489 21.788-12.461 52.521-28.276 136.595-59.888 195.793-67.891"/><path fill="#fcfbfc" d="M140.851 725.867a29528 29528 0 0 0 295.232 3.02q35.624.265 71.247-.264c22.792-.45 60.234-6.498 75.908 12.454.525.634 7.111 8.075 7.09 8.06 9.933 6.787 6.198 17.173 6.973 26.636.367-.359 3.435-3.633 3.203-3.629 67.043-1.136 134.683-.37 201.646-.971 11.065-.1 24.239-.228 31.059-.898 8.522-.837 7.518-15.387 16.691-23.356l.844-.725.377-.459c9.346-11.167 18.316-17.037 32.945-17.394 30.194-.737 60.779.723 91.134.627l190.92-1.294 79.36-.997c8.37-.126 50.27-1.908 53.4.77l.14 4.269c-1.23 72.033-7.33 133.731-35.39 201.335-7.11 17.118-14.98 30.998-22.28 47.247 2.78-2.676 3.38-4.453 7.48-4.363 34.98.76 69.95.645 104.92 1.896 3.77.135 6.14 3.258 6.92 6.751a679.1 679.1 0 0 1-195.85 278.038c-6.98 6.03-46.14 38.22-53.64 40.82-36.04 28.76-114.649 67.01-158.18 81.98-7.122.76-13.856 3.96-19.718 7.91l-.22.65c-1.659 1.37-2.615 2.22-4.513 3.31l1.509.45c-15.336 7.82-42.703 13.11-59.845 16.71a688.9 688.9 0 0 1-286.755 1.28c-16.139-3.38-40.348-7.49-55.379-14.09-44.379-14.42-69.961-24.54-111.149-44.78l5.137-1.47c-20.39-10.99-70.449-37.89-85.761-52.17-7.614-2.15-45.589-34.02-53.327-40.6-85.976-73.09-160.717-176.59-198.358-283.359 2.11.315 1.09-.014 2.885 1.544 6.038-2.219 12.448-2.268 18.736-3.049 24.324-3.021 48.94-.103 73.343-1.187 2.803-.125 8.872-2.271 11.69-3.242 1.981 1.237 2.755 2.27 4.306 3.965-6.66-14.843-14.141-27.682-21.031-44.103-22.529-53.688-32.202-108.014-34.073-166.047-.249-7.712-1.204-35.889.374-41.275"/><path fill="#fcfbfc" d="M621.38 983.048c23.79-28.727 46.028-72.801 73.221-98.483 9.036-7.302 21.434-11.318 32.741-9.678 27.632 4.01 35.98 26.003 49.94 46.702a1544 1544 0 0 0 35.031 49.345l116.751 162.646c18.723 26.44 48.799 71.44 68.736 95.03-5.998 3.89-11.424 8.12-17.381 12.18-53.012 36.17-117.695 51.61-180.708 58.36-4.198.45-8.399.93-12.576.86-4.357-.31-11.294 0-14.317-2.37l.908-1.22c-22.148.8-43.619.06-65.382.68 2.214.54 4.239 1 6.406 1.74-1.71 1.41-11.17 1.9-14.162 2.21-12.944.66-36.494-2.3-49.875-3.89-61.57-7.31-123.597-21.88-180.215-47.53-5.905-2.68-22.55-9.86-26.901-14.1 48.074-63.47 91.864-132.6 139.076-196.93 13.009-17.72 26.727-37.14 38.707-55.552"/><path fill="#272626" d="M621.38 983.048c23.79-28.727 46.028-72.801 73.221-98.483 9.036-7.302 21.434-11.318 32.741-9.678 27.632 4.01 35.98 26.003 49.94 46.702a1544 1544 0 0 0 35.031 49.345l116.751 162.646c18.723 26.44 48.799 71.44 68.736 95.03-5.998 3.89-11.424 8.12-17.381 12.18-53.012 36.17-117.695 51.61-180.708 58.36-4.198.45-8.399.93-12.576.86-4.357-.31-11.294 0-14.317-2.37l.908-1.22c77.846-2.72 155.644-21.66 218.637-68.95l-.856-.92c-7.566-8.26-18.398-24.15-25.285-33.73a6674 6674 0 0 1-44.942-63.11L797.312 955.786a1353 1353 0 0 1-22.175-31.928c-13.639-20.474-22.747-44.403-49.44-44.9-9.705-.181-22.249 2.792-30.257 9.55-20.845 22.823-39.957 53.832-58.147 78.877-63.754 87.785-124.5 180.305-188.592 267.565 81.68 40.17 168.845 59.43 259.643 62.15 2.214.54 4.239 1 6.406 1.74-1.71 1.41-11.17 1.9-14.162 2.21-12.944.66-36.494-2.3-49.875-3.89-61.57-7.31-123.597-21.88-180.215-47.53-5.905-2.68-22.55-9.86-26.901-14.1 48.074-63.47 91.864-132.6 139.076-196.93 13.009-17.72 26.727-37.14 38.707-55.552"/><path fill="#929192" d="M565.281 1091.6a9375 9375 0 0 1 77.816-111.274c17.263-24.727 34.876-49.865 52.504-74.368 2.905-3.273 7.176-9.108 11.085-11.082 22.743-11.487 38.527.359 48.82 20.536l-.653 1.395-.532-.55c-1.405 1.616-1.697 2.023-3.757 2.645l-4.473-1.325-.255 10.763c-7.943 2.54-21.92-10.978-34.45 6.271-9.45 13.009-18.668 26.86-27.824 40.106l-45.796 65.893-95.438 137.23c-12.594 18.33-23.956 37.98-36.535 56.37-.774 1.13-2.807 1.91-4.042 2.43-.698 1.96-.649 1.2-.347 3.25l-.843 1.91 1.837 1.67c-4.676-.43-10.829-2.98-15.438-4.65-6.839-2.76-13.698-5.46-20.578-8.12 19.405-24.06 38.812-55.16 57.826-80.78 9.095-14.94 30.576-44.06 41.073-58.32"/><path fill="url(#b)" d="M565.281 1091.6a9375 9375 0 0 1 77.816-111.274c17.263-24.727 34.876-49.865 52.504-74.368 2.905-3.273 7.176-9.108 11.085-11.082 22.743-11.487 38.527.359 48.82 20.536l-.653 1.395-.532-.55c-1.405 1.616-1.697 2.023-3.757 2.645l-4.473-1.325c-35.842-33.728-63.273 32.978-82.067 54.081-2.744 3.08-3.648 6.829-7.035 9.581l-.121 1.784c-5.327 10.314-64.613 92.877-71.54 98.757-3.178 4.63-12.717 22.28-16.883 24.19l-2.494-.29c1.296-4.75 4.583-5.18 3.069-12.11-2.035-.81-2.153-.62-3.739-1.97"/><path fill="#a2a1a1" d="M585.328 1081.78c-.845-7.68 18.695-30.26 24.21-37.94l41.278-57.318c2.202-3.045 3.058-3.145 6.052-3.499-5.327 10.314-64.613 92.877-71.54 98.757"/><path fill="url(#c)" d="m524.208 1149.92 2.737 2.37c-.72 5.56-.768 6.48-4.757 9.55-8.24 6.35-2.667 16.48-14.349 20.64-7.919 2.81-11.66 21.12-17.288 29.95l3.961.37.388 1.27c-2.148 3.52-6.311 5.05-6.768 5.75-1.31 2.01-1.105 16.23-1.172 19-6.839-2.76-13.698-5.46-20.578-8.12 19.405-24.06 38.812-55.16 57.826-80.78"/><path fill="#a2a1a1" d="M509.87 1186.44c1.569.7 1.097.49 2.409 1.69-4.861 9.67-6.816 8.34-12.785 15.47l-.536.66c-.113.84.033.31-.852 1.42l-.209-2.02c5.353-8.82 4.544-9.81 11.973-17.22m21.535-33.21c1.929-.77.938-.68 3.079-.11.221 2.85.028 2.99-1.371 5.61-1.946-.61-2.023-.73-3.85-1.67 2.299-2.16 1.671-.89 2.142-3.83"/><path fill="url(#d)" d="m746.091 917.577 4.473 1.325c2.06-.622 2.352-1.029 3.757-2.645l.532.55.653-1.395c9.137 12.488 21.612 32.316 31.062 45.718 8.551 12.129 32.419 45.59 38.739 57.8l-1.77 3.34c-2.764-4.15-12.901-15.67-16.511-20.22-10.839-13.658-48.722-68.814-61.19-73.71z"/><path fill="#929192" d="m823.537 1022.27 1.77-3.34c44.052 60.18 87.492 120.8 130.311 181.86l-3.558 2.49-103.786-144.63c-9.036-12.43-14.962-24.02-24.737-36.38"/><path fill="#a2a1a1" d="M955.618 1200.79c5.105 6.36 15.073 17.3 16.221 25.04l-.791 1.45c-6.596-1.11-16.138-18.1-18.988-24z"/><path fill="#272626" d="M140.851 725.867a29528 29528 0 0 0 295.232 3.02q35.624.265 71.247-.264c22.792-.45 60.234-6.498 75.908 12.454.525.634 7.111 8.075 7.09 8.06 5.18 11.382 8.241 24.192 2.92 36.042-11.35 25.277-35.156 52.134-50.676 75.391-23.943 35.879-49.921 70.803-73.743 106.415a19733 19733 0 0 1-132.945 189.705c-56.889-55.58-101.752-109.08-140.303-179.398-6.66-14.843-14.141-27.682-21.031-44.103-22.529-53.688-32.202-108.014-34.073-166.047-.249-7.712-1.204-35.889.374-41.275"/><path fill="#fcfbfc" d="M143.971 729.919c32.646 1.965 71.002 1.09 104.233 1.492l208.671 1.609q26.38.139 52.754-.417c17.902-.447 51.671-3.904 65.996 6.229a40 40 0 0 1 15.967 25.364c1.306 7.664.037 18.501-3.72 25.242-12.641 22.685-29.955 44.621-44.801 65.837L441.768 999.77l-66.787 94.78c-12.418 17.6-28.216 38.81-39.278 56.86-7.056-8.35-18.934-18.74-26.979-27.16-63.287-66.21-122.123-151.951-147.23-240.676-13.812-48.809-17.698-103.813-17.523-153.655"/><path fill="#bbbaba" d="m156.017 742.635 127.461 1.508c55.265-1.315 115.075.747 170.906.877q27.064.17 54.126-.262c15.519-.306 30.475-1.092 46.007.061 12.397.92 16.396 4.757 23.305 14.976 2.785 4.705 2.866 10.699 2.345 16.009l-1.092 1.714c-7.998-.482-10.358-1.801-16.786-2.662-16.358-2.191-37.049-1.997-53.546-2.026l-88.475-.004c-71.96-.185-143.67-2.425-215.698-.231-12.941.393-22.949-3.011-25.713 13.713-3.017 18.259 3.242 37.422 3.997 55.018.468 10.915 7.724 34.752 7.24 43.269l-2.924-2.837-.011-2.559c-7.259 9.752 37.394 104.259 46.939 118.527 5.162 7.714 24.49 32.954 22.943 39.384l-1.532.71c-2.114-6.68 1.287-6.53-3.949-12.62-3.332-3.87-5.453-7.62-9.451-11.37-.232 4.01 3.423 11.94 6.502 14.74-1.812-.33-6.275-5.52-7.338-7.13-34.516-52.239-66.498-112.722-75.761-175.205-6.313-39.266-7.913-64.343-9.495-103.6"/><path fill="#929192" d="M283.478 744.143c55.265-1.315 115.075.747 170.906.877q27.064.17 54.126-.262c15.519-.306 30.475-1.092 46.007.061 12.397.92 16.396 4.757 23.305 14.976-5.981-.514-12.138-1.983-18.165-2.028-36.556-.278-73.245.838-109.829.81L256.99 757.51c-4.622-2.861-13.919-9.629-18.875-9.188-1.275.114-.495.183-1.955-.79.657-.855 40.535-1.204 47.318-3.389"/><path fill="url(#e)" d="m156.017 742.635 127.461 1.508c-6.783 2.185-46.661 2.534-47.318 3.389 1.46.973.68.904 1.955.79 4.956-.441 14.253 6.327 18.875 9.188-27.916-.135-94.138-9.6-93.222 29.363.316 13.464 8.282 48.811 4.966 60.072l-1.291.802-1.931-1.512c-6.313-39.266-7.913-64.343-9.495-103.6"/><path fill="#272626" d="m850.744 746.194.377-.459c9.346-11.167 18.316-17.037 32.945-17.394 30.194-.737 60.779.723 91.134.627l190.92-1.294 79.36-.997c8.37-.126 50.27-1.908 53.4.77l.14 4.269c-1.23 72.033-7.33 133.731-35.39 201.335-7.11 17.118-14.98 30.998-22.28 47.247-1.83 2.758-3.73 6.735-5.43 9.735-35.84 63.157-79.98 116.587-132.67 166.687-2.31-1.82-21.72-31.22-24.81-35.61L972.134 970.345l-86.03-122.897c-13.159-18.88-32.742-42.134-41.036-63.264-5.405-13.769-.564-25.717 5.676-37.99"/><path fill="#fcfbfc" d="M1279.76 730.453c4.17-.422 10.78-.395 15.15-.509.67 111.066-17.94 190.597-78.4 284.926a659 659 0 0 1-58.64 79.32c-18.7 21.71-35.02 37.17-54.09 57.32-6.77-12.16-28.67-41.47-37.63-53.99l-61.31-87.04-105.082-149.285c-15.11-21.618-30.593-42.621-45.128-64.845-14.127-18.987-8.739-48.722 12.479-59.97 12.978-6.879 50.212-4.037 65.828-3.699q30.782.49 61.566.203c93.687-.409 191.817-.094 285.257-2.431"/><path fill="#929192" d="M1204.4 743.454c24.38-.712 55.21.506 78.52-1.117l-1.59 26.173-247.12 1.071-82.075-.061c-19.449-.069-56.175-4.842-69.508 11.031-5.031 5.989-5.639 13.673-5.452 21.2q.054 2.056.152 4.11c-1.998-.705-8.282-10.233-10.003-12.647-11.496-16.255-12.013-37.308 7.554-46.451 9.22-4.308 39.847-2.275 51.184-2.013q25.229.533 50.464.372c74.584-.186 153.514.008 227.874-1.668"/><path fill="url(#f)" d="M867.324 793.214c-11.496-16.255-12.013-37.308 7.554-46.451 9.22-4.308 39.847-2.275 51.184-2.013q25.229.533 50.464.372c74.584-.186 153.514.008 227.874-1.668l3.42 1.2c-6.71 2.198-29.66-.251-38.26 1.261 5.89 1.131 14.99 1.404 21.03 1.292 28.2-.521 56.36.706 84.5-1.223 1.74-.12 5.78.528 6.98 1.814l-.48 2.036c-2.84.973-27.29.806-32.13.948-72.4 1.89-144.82 2.465-217.23 1.725-19.35-.018-36.622.702-56.314 1.029-25.259.419-58.416-4.287-83.333 1.378-4.615 1.049-22.319 16.768-24.067 21.934-1.395 4.122.086 10.846-1.192 16.366"/><path fill="#bbbaba" d="M1094.88 1113.23c-3.13-2.09-13.82-16.71-14.76-19.85 3.85 1.69 4.46 7.81 9.53 10.28l1.51-.9c.17-2.89-4.13-8.12-6.09-11.14l.34-1.38c5.73 7.01 10.73 14.58 14.94 22.6l-3.01-1.12z"/><path fill="#a2a1a1" d="m1094.88 1113.23 2.46-1.51 3.01 1.12c2.49 5.67 5.52 10.77 6.68 16.68-2.48-1.85-10.22-13.2-12.15-16.29"/><path fill="#bbbaba" d="M590.328 749.137c9.933 6.787 6.198 17.173 6.973 26.636.367-.359 3.435-3.633 3.203-3.629 67.043-1.136 134.683-.37 201.646-.971 11.065-.1 24.239-.228 31.059-.898 8.522-.837 7.518-15.387 16.691-23.356l.844-.725c-6.24 12.273-11.081 24.221-5.676 37.99 8.294 21.13 27.877 44.384 41.036 63.264l86.03 122.897c-5.625-1.583-26.159.053-33.691.042-29.702-.044-59.826.314-89.513.126-7.192-.046-32.182.842-36.617.421a1544 1544 0 0 1-35.031-49.345c-13.96-20.699-22.308-42.692-49.94-46.702-11.307-1.64-23.705 2.376-32.741 9.678-27.193 25.682-49.431 69.756-73.221 98.483.52-1.598 2.006-6.123 1.413-6.893-5.636-7.32-52.639-5.23-58.912-5.195q-31.822.323-63.644-.082c-8.734-.062-19.138-.27-28.077-1.31l-3.331-2.583c23.822-35.612 49.8-70.536 73.743-106.415 15.52-23.257 39.326-50.114 50.676-75.391 5.321-11.85 2.26-24.66-2.92-36.042"/><path fill="url(#g)" d="m336.306 1303.22.712.15c30.321 17.75 60.352 37.35 91.99 53.18 15.219 7.61 32.713 13.25 48.269 20.37-1-.45 20.242-4.43 24.581-4.45 143.867-.56 287.88 1.42 431.712-.95 14.317-.24 28.104 2.29 42.308 2.03 35.312-13.09 73.062-33.29 105.432-52.95 8.48-5.15 23.61-16.96 29.87-17.16-36.04 28.76-114.649 67.01-158.18 81.98-7.122.76-13.856 3.96-19.718 7.91l-.22.65c-1.659 1.37-2.615 2.22-4.513 3.31l1.509.45c-15.336 7.82-42.703 13.11-59.845 16.71a688.9 688.9 0 0 1-286.755 1.28c-16.139-3.38-40.348-7.49-55.379-14.09-44.379-14.42-69.961-24.54-111.149-44.78l5.137-1.47c-20.39-10.99-70.449-37.89-85.761-52.17"/><path fill="#615f61" d="M422.067 1355.39c29.638 11.6 58.82 26.96 89.417 36.96 5.372 1.76 13.194 3.57 17.592 6.47-.238 2.05.196 1.15-.997 2.82-44.379-14.42-69.961-24.54-111.149-44.78zm286.277-58.29c21.763-.62 43.234.12 65.382-.68l-.908 1.22c3.023 2.37 9.96 2.06 14.317 2.37-12.233 2.42-73.867 3.78-86.547 1.04 2.992-.31 12.452-.8 14.162-2.21-2.167-.74-4.192-1.2-6.406-1.74"/><path fill="#272626" d="M473.855 203.652c12.018-4.877 25.781-11.83 37.282-16.3 35.517-13.805 93.003-33.945 130.586-35.545-.492 17.994-.91 49.585.105 67.4-.675 5.855-.311 21.183-.286 27.356l.128 50.248q.046 81.256-.742 162.508c-.089 17.92.247 35.838-.078 53.749-.328 18.141-4.616 28.545-16.654 41.905-20.691 22.963-54.759 18.33-82.921 18.338l-85.596-.229c-95.228-.513-196.025-1.36-290.916-.032 45.749-128.277 110.205-240.356 223.792-319.334a638 638 0 0 1 50.648-31.482c9.811-5.358 25.207-12.609 34.095-18.224z"/><path fill="#fcfbfc" d="M170.191 569.055c26.772-71.624 55.375-132.06 100.362-195.113 82.484-115.609 228.578-196.334 367.947-218.61l-.415 95.964c2.934-16.769.176-40.319 1.554-58.393l.455-.137c1.823 15.147 1.053 48.786.918 65.521-.254 31.593 1.382 71.133-1.887 102.165l-.081-.851c-.837 6.476-1.129 13.899-1.947 19.693-1.508 32.417.499 66.41-.766 98.797-1.059 27.104 5.701 51.308-13.767 72.911-20.312 22.541-48.921 18.084-76.201 18.019l-70.999-.143-195.323-.133c-35.227-.027-75.226-1.168-109.85.31"/><path fill="#615f61" d="M638.085 251.296c2.934-16.769.176-40.319 1.554-58.393l.455-.137c1.823 15.147 1.053 48.786.918 65.521-.254 31.593 1.382 71.133-1.887 102.165l-.081-.851c-.837 6.476-1.129 13.899-1.947 19.693-.893-18.747-.079-44.252.032-63.383.112-19.294-.475-45.941.956-64.615"/><path fill="#929192" d="m621.611 170.304 3.42-.32 1.325 1.235c1.212 5.593.4 16.569.238 22.914-13.751 4.242-29.42 6.992-44.149 11.521-17 4.701-33.212 11.981-49.608 18.28C406.99 272.319 304.29 362.845 244.299 483.993c-11.361 22.943-22.825 48.927-34.702 71.076-4.564.541-9.435.589-14.051.749-2.422.417-2.538.462-4.976.302l-.854-2.232c.793-7.976 5.579-15.037 8.499-22.392 19.873-50.061 48.584-102.458 79.343-146.577 61.78-88.613 159.742-153.526 259.909-190.95 25.203-9.416 57.407-19.231 84.144-23.665"/><path fill="#272626" d="M803.27 151.5c3.778.924 13.411 1.76 18.223 2.527a394 394 0 0 1 36.397 7.923c13.045 3.595 26.426 7.873 39.351 11.942 6.838 2.153 14.566 6.338 21.596 7.682a630.6 630.6 0 0 1 138.213 72.963c103.57 72.244 153.51 152.807 204.31 266.509 7.69 17.207 13.57 35.123 20.78 51.918l-.99-.077c-10.42-.774-26.05-.216-36.82-.164l-67.24.255-220.694.259-57.646.048c-13.154.048-33.341.758-45.391-1.466a57.68 57.68 0 0 1-33.518-19.212 54.97 54.97 0 0 1-13.236-28.212c-1.388-8.969-1.034-25.063-1.085-34.647l-.322-58.032c-.515-71.223-.158-146.4-2.154-217.293 1.253-16.967-1.865-49.481.226-62.923"/><path fill="#fcfbfc" d="M806.858 155.414c42.807 5.005 97.087 22.188 136.911 39.668 183.911 80.721 262.191 194.053 332.721 373.77-96.63-.999-195.74-.23-292.511.01l-81.422.239c-28.012.067-55.728 4.457-77.234-16.361-18.525-17.932-15.57-37.721-15.587-61.147a3502 3502 0 0 0-.224-54.138c-1.64-93.377-.043-189.26-2.654-282.041"/><path fill="#bbbaba" d="M819.539 169.729c17.142.566 46.146 9.947 62.739 15.104 88.974 27.651 180.992 81.464 244.982 149.559 41.13 43.774 87.67 119.144 110.49 174.978l-.37.77c-3.05-3.303-1.11-7.084-6.57-8.608l-1.34 4.094c-19.37-46.301-54.08-106.551-87.78-143.728-45.06-49.716-130.35-104.639-192.659-130.007-17.466-7.111-86.533-35.032-103.237-27.865-2.509 1.077-5.526 3.449-6.414 6.143-4.206 12.768-1.098 30.905-.923 44.318l1.009 71.191 1.044 205.493c10.742 11.235-.964 7.63 10.217 20.883l-.416.959c-7.597-2.658-17.672-10.33-22.63-16.857-3.016-5.361-5.182-10.802-5.307-17.009-.435-21.718-.39-43.818-.505-65.526l-.829-126.584-1.201-101.355c-.234-17.099-1.247-39.413-.3-55.953"/><path fill="#a2a1a1" d="M827.681 536.156c-3.016-5.361-5.182-10.802-5.307-17.009-.435-21.718-.39-43.818-.505-65.526l-.829-126.584-1.201-101.355c-.234-17.099-1.247-39.413-.3-55.953l.836 7.894-.006-.034c1.617-1.555 2.369-3.077 3.375-5.029l2.383-1.109c10.773 2.877 21.98 4.402 32.605 7.655 1.266.388 1.472 1.175 2.335 2.267-1.197.737-.968.684-2.296 1.131 9.228 2.036 54.408 15.536 62.019 19.986-11.547 7.44-58.905-26.819-86.421-9.551-1.695 2.593-1.9 3.097-3.011 6.014-2.206-.262-2.531-.383-4.658-1.075-4.642 6.581-1.362 118.13-1.209 133.721.379 38.627-.127 80.463-.132 119.521.187 13.344 4.664 76.364 2.322 85.036"/><path fill="#a2a1a1" d="M600.315 69.909c31.384-12.407 187.501-15.307 220.85-4.153 14.281 2.097 43.904 7.521 57.025 10.073 17.58 3.419 107.281 30.216 117.615 39.988l2.641 2.994-.206 2.796c20.55 7.197 87.73 43.317 103.92 56.887-15.33-2.245-32.41-25.001-52.97-26.047-1.06-2.835-.14-2.042-2.2-3.224-.41.26-5.58 3.436-5.48 3.429-9.21.596-19 .547-28.35.465-33.536-.295-66.989 1.144-100.474 2.755-12.523.603-49.49-2.046-59.655 2.089l-.294 1.044c13.174.784 51.509 15.384 65.285 20.537l.815 2.032c-7.03-1.344-14.758-5.529-21.596-7.682-12.925-4.069-26.306-8.347-39.351-11.942a394 394 0 0 0-36.397-7.923c-4.812-.767-14.445-1.603-18.223-2.527-2.091 13.442 1.027 45.956-.226 62.923-3.756-12.654.081-54.539-4.425-61.518-2.111.922-1.352.573-2.986 2.585-6.966.16-14.103-1.222-21.291-1.226-29.449-.018-58.222.834-87.726-.557-9.501-.448-23.449.487-33.216-.697-.558-.068-3.605 2.753-4.376 3.469-3.417-2.827.211-3.26-4.152-4.667-.766 1.332-.781 58.03-3.044 67.395-1.015-17.815-.597-49.406-.105-67.4-37.583 1.6-95.069 21.74-130.586 35.545-11.501 4.47-25.264 11.423-37.282 16.3 9.43-11.268 58.852-25.998 74.723-32.41 6.347-2.564 23.674-4.347 23.984-12.817-12.305-1.315-26.019.158-38.305-.918-38.944-3.413-77.711-4.263-116.772-3.708-6.811.097-14.596-1.353-21.994-1.451l-1.193-2.061c-6.33-2.292-25.036 17.38-33.153 17.069 3.248-3.509 18.251-12.106 22.846-14.679l-1.257-2.416c2.178-1.932 18.124-10.489 21.788-12.461 52.521-28.276 136.595-59.888 195.793-67.891"/><path fill="url(#h)" d="M821.165 65.756c14.281 2.097 43.904 7.521 57.025 10.073 17.58 3.419 107.281 30.216 117.615 39.988l2.641 2.994-.206 2.796c-21.641-8.495-42.19-18.043-64.554-24.966-31.685-9.81-62.919-17.153-95.374-23.605-5.67-1.127-13.403-1.682-17.214-5.855z"/><path fill="#615f61" d="M600.315 69.909c-11.191 6.594-32.897 10.703-46.035 13.87a494 494 0 0 0-38.418 10.614 685 685 0 0 0-84.534 33.471c-15.526 7.498-31.889 16.771-47.337 24.813l-1.257-2.416c2.178-1.932 18.124-10.489 21.788-12.461 52.521-28.276 136.595-59.888 195.793-67.891"/><path fill="#bbbaba" d="M416.93 1356.86c-128.888-68.21-229.565-162.24-298.219-292.35C34.152 904.424 16.37 717.381 69.247 544.227A683.3 683.3 0 0 1 295.655 209.87c21.558-17.453 61.542-46.141 87.079-59.609l1.257 2.416c-4.595 2.573-19.598 11.17-22.846 14.679-19.077 9.753-42.594 28.545-59.691 42.029a679.87 679.87 0 0 0-225.13 325.203c-15.513 48.088-32.6 129.095-31.412 180.208 1.155 17.588 1.22 33.293 2.889 51.605 5.25 4.257 13.812-.082 19.946-.525 23.36-1.686 46.658-.416 69.529-.087.301-11.948 1.816-28.856 1.552-39.898l1.239-.527.784.503c-1.578 5.386-.623 33.563-.374 41.275 1.871 58.033 11.544 112.359 34.073 166.047 6.89 16.421 14.371 29.26 21.031 44.103-1.551-1.695-2.325-2.728-4.306-3.965-2.818.971-8.887 3.117-11.69 3.242-24.403 1.084-49.019-1.834-73.343 1.187-6.288.781-12.698.83-18.737 3.049-1.793-1.558-.773-1.229-2.884-1.544 37.641 106.769 112.382 210.269 198.358 283.359 7.738 6.58 45.713 38.45 53.327 40.6 15.312 14.28 65.371 41.18 85.761 52.17z"/><path fill="#272626" d="M416.93 1356.86c-128.888-68.21-229.565-162.24-298.219-292.35C34.152 904.424 16.37 717.381 69.247 544.227A683.3 683.3 0 0 1 295.655 209.87c21.558-17.453 61.542-46.141 87.079-59.609l1.257 2.416c-4.595 2.573-19.598 11.17-22.846 14.679-19.077 9.753-42.594 28.545-59.691 42.029a679.87 679.87 0 0 0-225.13 325.203c-15.513 48.088-32.6 129.095-31.412 180.208-1.123 9.075-.841 18.125-1.037 27.247-1.664 77.503 9.844 154.68 36.834 227.452 1.113 2.999 2.395 7.075 3.912 9.766 37.641 106.769 112.382 210.269 198.358 283.359 7.738 6.58 45.713 38.45 53.327 40.6 15.312 14.28 65.371 41.18 85.761 52.17z"/><path fill="#929192" d="m1414.74 648.159-.37-1.16c-1.51-4.829-5.06-28.381-6.25-34.72a689 689 0 0 0-15.36-64.662c-7.6-25.69-17.06-50.222-26.91-75.101-3.93-9.923-10.67-20.879-13.59-29.934l.88-.078c3.37 3.154 14.13 32.072 17.88 38.014 2.92 4.619 2.82 16.1 8.7 18.725-1.04-11.35-27.54-70.59-33.8-82.214 2.61 3.329 5.36 6.185 6.18 10.459 1.28 6.717 6.87 12.703 9.49 18.688 9.27 21.208 19.48 42.112 28.52 63.4 2.56 6.039 3.23 14.845 5.46 21.194 3.57 10.13 9.04 26.425 13.84 35.741l-.07-1.09c13.05 31.265 20.59 86.284 25.06 120.341 5.94 45.222 6.04 105.462 1.86 150.898-2.88 31.311-11.63 80.459-19.77 110.525-45.52 166.835-150.31 311.345-294.73 406.475-43.89 29.13-95.65 55.16-145.942 70.56-25.543 7.82-58.295 20.78-84.99 23.21-19.85 4.05-48.99 10.45-68.803 12.38-7.355 1.46-16.135 5.53-23.424 6.81-5.245.93-19.28 5.99-23.884 5.91-21.644-.4-43.208-.2-64.85-.34-11.359-.07-22.782 1.01-34.148.3-35.768-7.21-75.422-10.28-110.36-19.4a1688 1688 0 0 1-49.355-13.92c-13.189-3.98-26.128-8.81-39.071-13.53-6.011-2.37-8.302-4.81-14.58-6.02-7.536-1.45-21.642-8.82-28.678-12.22l.721-1.89-1.239-1.25c-5.139-1.53-5.16-.17-7.355-.18-4.745-1.3-16.737-7.93-20.347-11.35-13.146-12.47-28.68-16.61-43.061-25.33-12.818-7.78-25.562-20.95-36.989-30.6-5.047-4.26-14.202-7.66-19.778-11.63-1.991-1.49-6.888-5.71-8.651-6.38l-.569 1.1c-1.202-1.9-2.207-2.57-3.901-4-.196.47-.393.95-.589 1.43l-.498 1.31c-5.766-9.22-11.696-10.69-17.352-16.26-6.64-6.52-31.678-28.02-36.103-34.69l.469-.78c9.913 8.27 23.917 25.14 36.13 31.88 5.661 3.12 6.156 3.88 11.177 8.09 1.23-2.29.85-2.3 3.678-2.52-1.891-8.58-26.974-22.62-33.986-28.3-2.61-2.11-5.984-10.15-8.815-13.7-2.932-.53-3.53-.46-5.951-2.04-4.964-9.31-14.279-13.14-19.077-20.61-.881 2.6-.725 2.48-2.899 4.12-3.998-6.96-6.513-12.89-10.106-19.85 7.233 4.29 18.688 19.17 26.58 19a1392 1392 0 0 0 52.291 45.45c4.785 3.88 28.26 20.42 30.822 23.6a705.35 705.35 0 0 0 479.738 125.18c184.793-19.65 354.035-112.45 469.945-257.7a699.2 699.2 0 0 0 149.72-367.141c4.86-51.924 2.89-112.646-2.94-164.2"/><path fill="#bbbaba" d="m1414.74 648.159-.37-1.16c-1.51-4.829-5.06-28.381-6.25-34.72a689 689 0 0 0-15.36-64.662c-7.6-25.69-17.06-50.222-26.91-75.101-3.93-9.923-10.67-20.879-13.59-29.934l.88-.078c3.37 3.154 14.13 32.072 17.88 38.014 2.92 4.619 2.82 16.1 8.7 18.725-1.04-11.35-27.54-70.59-33.8-82.214 2.61 3.329 5.36 6.185 6.18 10.459 1.28 6.717 6.87 12.703 9.49 18.688 9.27 21.208 19.48 42.112 28.52 63.4 2.56 6.039 3.23 14.845 5.46 21.194 3.57 10.13 9.04 26.425 13.84 35.741l-.07-1.09c13.05 31.265 20.59 86.284 25.06 120.341 5.94 45.222 6.04 105.462 1.86 150.898-2.88 31.311-11.63 80.459-19.77 110.525-45.52 166.835-150.31 311.345-294.73 406.475-43.89 29.13-95.65 55.16-145.942 70.56-25.543 7.82-58.295 20.78-84.99 23.21 8.604-5.42 34.773-8.03 45.249-14.86 22.43-14.64 48.871-25.85 73.343-36.08 32.13-13.43 63.45-30.56 92.67-49.12a721 721 0 0 0 67.35-47.48c82.75-66.94 157.51-164.22 198.63-262.39a858 858 0 0 0 22.83-62.771c1.69-5.131 4.33-11.511 5.7-16.417 1.73-6.032 1.8-14.127 3.66-19.934 5.28-16.337 8.09-33.301 11.75-50.088 16.33-74.901 15.18-154.981 6.33-230.706-.15-1.278-1.61-5.487-1.94-8.196l-.15-1.352zM208.584 1223.97c7.233 4.29 18.688 19.17 26.58 19a1392 1392 0 0 0 52.291 45.45c4.785 3.88 28.26 20.42 30.822 23.6l-1.302 2.31c6.725 7.88 12.1 9.28 20.45 14.9 29.971 20.17 63.521 36.72 94.546 55.09 16.437 5.74 31.726 11.05 47.786 18 11.155 4.83 18.31 12.66 27.986 17.12 37.997 17.54 81.715 22.8 122.108 32.54 13.433 3.24 28.28 1.85 41.704 5.27 42.64 4.2 86.306 1.09 129.123 2.73 7.09.28 15.14-.87 21.347-.17-7.355 1.46-16.135 5.53-23.424 6.81-5.245.93-19.28 5.99-23.884 5.91-21.644-.4-43.208-.2-64.85-.34-11.359-.07-22.782 1.01-34.148.3-35.768-7.21-75.422-10.28-110.36-19.4a1688 1688 0 0 1-49.355-13.92c-13.189-3.98-26.128-8.81-39.071-13.53-6.011-2.37-8.302-4.81-14.58-6.02-7.536-1.45-21.642-8.82-28.678-12.22l.721-1.89-1.239-1.25c-5.139-1.53-5.16-.17-7.355-.18-4.745-1.3-16.737-7.93-20.347-11.35-13.146-12.47-28.68-16.61-43.061-25.33-12.818-7.78-25.562-20.95-36.989-30.6-5.047-4.26-14.202-7.66-19.778-11.63-1.991-1.49-6.888-5.71-8.651-6.38l-.569 1.1c-1.202-1.9-2.207-2.57-3.901-4-.196.47-.393.95-.589 1.43l-.498 1.31c-5.766-9.22-11.696-10.69-17.352-16.26-6.64-6.52-31.678-28.02-36.103-34.69l.469-.78c9.913 8.27 23.917 25.14 36.13 31.88 5.661 3.12 6.156 3.88 11.177 8.09 1.23-2.29.85-2.3 3.678-2.52-1.891-8.58-26.974-22.62-33.986-28.3-2.61-2.11-5.984-10.15-8.815-13.7-2.932-.53-3.53-.46-5.951-2.04-4.964-9.31-14.279-13.14-19.077-20.61-.881 2.6-.725 2.48-2.899 4.12-3.998-6.96-6.513-12.89-10.106-19.85"/><path fill="#bbbaba" d="M995.805 115.817c16.655 5.52 46.105 21.599 62.085 30.479a691.23 691.23 0 0 1 277.03 289.265c98.21 195.998 97.83 427.243-2.53 622.529a687.6 687.6 0 0 1-300.83 297.9c-6.29 3.13-14.02 6.88-20.49 9.61-7.65 5.78-71.532 30.9-81.012 32.14l-1.509-.45c1.898-1.09 2.854-1.94 4.513-3.31l.22-.65c5.862-3.95 12.596-7.15 19.718-7.91 43.531-14.97 122.14-53.22 158.18-81.98 7.5-2.6 46.66-34.79 53.64-40.82a679.1 679.1 0 0 0 195.85-278.038c-.78-3.493-3.15-6.616-6.92-6.751-34.97-1.251-69.94-1.136-104.92-1.896-4.1-.09-4.7 1.687-7.48 4.363 7.3-16.249 15.17-30.129 22.28-47.247 28.06-67.604 34.16-129.302 35.39-201.335 2.14 8.654.86 26.865 2.42 37.799 2.12-.11 9.33-.434 10.72-1.139 13.69-6.944 80.97-.007 88.86-5.949.97-3.317 1.55-25.831 2.07-31.945.71-56.681-10.15-124.923-26.85-179.687a679.97 679.97 0 0 0-206.86-321.158c-12.64-11.063-52.77-43.45-67.22-51.143-16.19-13.57-83.37-49.69-103.92-56.887l.206-2.796z"/><path fill="#272626" d="M995.805 115.817c16.655 5.52 46.105 21.599 62.085 30.479a691.23 691.23 0 0 1 277.03 289.265c98.21 195.998 97.83 427.243-2.53 622.529a687.6 687.6 0 0 1-300.83 297.9c-6.29 3.13-14.02 6.88-20.49 9.61-7.65 5.78-71.532 30.9-81.012 32.14l-1.509-.45c1.898-1.09 2.854-1.94 4.513-3.31l.22-.65c5.862-3.95 12.596-7.15 19.718-7.91 43.531-14.97 122.14-53.22 158.18-81.98 7.5-2.6 46.66-34.79 53.64-40.82a679.1 679.1 0 0 0 195.85-278.038c24.96-70.858 39.67-133.832 42.39-209.527.43-11.893 1.2-33.242.03-44.573.71-56.681-10.15-124.923-26.85-179.687a679.97 679.97 0 0 0-206.86-321.158c-12.64-11.063-52.77-43.45-67.22-51.143-16.19-13.57-83.37-49.69-103.92-56.887l.206-2.796z"/><path fill="#615f61" d="M953 1385.42c-.588.97-2.151 1.77-3.221 2.47 4.423 1.52 41.381-14.87 47.389-17.45 3.942-1.7 10.172-5.93 13.902-4.84-7.65 5.78-71.532 30.9-81.012 32.14l-1.509-.45c1.898-1.09 2.854-1.94 4.513-3.31l.22-.65c5.862-3.95 12.596-7.15 19.718-7.91"/><path fill="#929192" d="M208.584 1223.97c-31.61-31.49-76.055-94.69-96.898-134.94l.479-.56.386.59c1.021 1.55 1.358 2.35 2.954 3.31l.803-.92c-.086-1.02-.424-3.09-.082-3.87 3.033 4.6 5.607 8.77 8.133 13.68 16.386 31.86 40.344 61.26 62.885 88.83a527 527 0 0 0 29.393 33.43c2.587 2.73 17.326 17.68 18.527 19.45-7.892.17-19.347-14.71-26.58-19"/></svg>