<svg xmlns="http://www.w3.org/2000/svg" width="600" height="361" preserveAspectRatio="none" style="display:block" viewBox="0 0 2048 1232"><path fill="#fff" d="M0 0h2048v1232H0z"/><path fill="#d32126" d="M415.958 378.529c84.538-2.735 169.952-.156 254.523 1.364 251.695 4.524 923.329 24.184 1121.609 154.985 17.41 11.484 45.23 32.424 49.4 54.096 1.89 9.838-1.66 19.395-7.28 27.382C1736.1 755.855 772.023 935.735 570.416 969.538l103.565-153.959c-32.558-32.406-66.329-68.37-98.265-101.621L464.999 599.492 256.948 384.126c23.364-.053 57.457-3.526 81.635-5.141l123.511 123.656 292.329 292.094c165.909-13.222 931.607-94.465 1033.237-185.727 5.73-5.149 11.83-12.179 12.16-20.298.33-7.995-4.11-15.139-9.43-20.73-99.35-104.417-939.839-135.829-1115.862-139.921 21.507 21.345 44.483 46.873 65.659 69.148l154.341 162.934c24.207 25.502 49.254 52.772 73.921 77.62-17.299.611-46.235 4.704-64.441 6.637l-129.331 13.639c-40.229-41.385-84.593-83.274-125.963-124.018L389.319 378.702c8.786.081 17.831-.102 26.639-.173"/></svg>