<svg xmlns="http://www.w3.org/2000/svg" width="500" height="151.206" viewBox="0 0 132.292 40.007"><g transform="translate(24.473 25.512)"><path d="M-8.174-13.235s-2.082-.298-1.685-.558c1.497-.72 3.082-1.255 4.695-1.807 1.417-.484 3.127-1.521 4.276-1.137.657.22-1.701 2.116-1.701 2.116L-2.938 7.89S9.905 3.465 9.905-8.943c0-12.41-11.558-14.475-15.88-14.475-4.26 0-13.97 2.76-13.97 10.31 0 7.549 6.768 11.193 15.011 8.243 8.244-2.95 39.05-18.483 70.636-18.483s42.117 9.372 42.117 19.68-8.223 18.163-27.858 18.163C62.72 14.495 59.1 10.69 59.1 10.69s6.504 2.332 21.108 2.332c14.603 0 25.28-5.522 25.28-16.076S91.742-20.85 65.849-20.85s-42.093 6.627-47.247 8.223C13.447-11.031-5.083-1.704-12.201-1.704S-24.473-5.51-24.473-12.135c0-6.627 6.381-13.377 18.285-13.377s20.004 7.363 20.004 15.34S4.734 11.672-8.888 11.672c-1.562 0 1.228-2.307 1.228-2.307z" style="fill:#3b3128;fill-opacity:1;fill-rule:nonzero;stroke:none;stroke-width:1.23628px;stroke-linecap:butt;stroke-linejoin:miter;stroke-opacity:1"/><path d="M15.674 1.739s-.272-4.892 6.096-4.892c.849 0 2.82.238 2.82.238v-2.464c-.703-1.636-1.354-1.94-2.701-1.94-3.32 0-1.778 3.428-3.796 3.428-.973 0-1.248-.813-1.248-1.239 0-.565 1.16-3.664 5.63-3.664 4.4 0 5.412 2.085 5.412 2.712v9.285c.369.533.517 1.041 2.105 1.714v.477h-4.925q-.45-.341-.954-.737c-.833.943-2.153.737-3.396.737-5.063 0-5.043-3.655-5.043-3.655m8.916-.488c0-1.248.135-3.428-2.354-3.428-1.277 0-2.831 1.287-2.831 3.178 0 1.91 1.515 2.701 3.07 2.701 1.624 0 2.115-.307 2.115-2.451m8.942 2.259V-6.543c-.942-1.069-1.885-.903-1.885-1.461 0-.154.068-.478.246-.478h4.672c.264 0 .464.188.464.491V3.157c0 .66 1.34 2.293 1.34 2.293h-5.883l-.412-.492s1.458-.943 1.458-1.448" style="fill:#3b3128;fill-opacity:1;fill-rule:nonzero;stroke:none;stroke-width:1.85443;stroke-linecap:butt;stroke-linejoin:miter;stroke-miterlimit:4;stroke-dasharray:none;stroke-dashoffset:0;stroke-opacity:1"/><circle cx="35.218" cy="-12.456" r="1.858" style="fill:#3b3128;fill-opacity:1;fill-rule:nonzero;stroke:none;stroke-width:1.85443;stroke-linecap:butt;stroke-linejoin:miter;stroke-miterlimit:4;stroke-dasharray:none;stroke-dashoffset:0;stroke-opacity:1"/><path d="M75.096-.746c0-3.782 2.843-7.922 7.977-7.922 1.237 0 2.496.101 3.563.824 1.098.745 2.065 1.88 2.065 2.18 0 1.543-9.616 5.068-9.616 5.068.523 2.371 1.718 4.385 4.098 4.385 3.247 0 3.611-3.17 3.879-3.17.762 0 1.147 1.576 1.147 2.05-1.26 1.4-3.074 2.814-6.092 2.814-3.69 0-7.02-2.014-7.02-6.229m9.417-3.727c0-2.043-1.206-2.775-2.368-2.775-2.392 0-3.333 3.236-3.333 5.287zM43.14 3.518V-6.76c-.56-.572-1.622-.82-1.622-1.236 0-.51.232-.464.232-.464h4.443s.695.507.695 1.468c0 0 2.36-1.738 4.482-1.738 1.781 0 3.612 1.738 3.612 1.738 1.388-.86 3.598-1.738 4.694-1.738 3.453 0 4.095 2.704 4.095 2.704v9.543l1.43 1.97h-6.432l-.174-.309 1.7-1.159v-9.581s-.949-.966-2.26-.966c-2.043 0-2.918.966-2.918.966V4.02l1.353 1.468h-6.045l-.253-.348 1.43-1.352c.022-2.617 0-8.944 0-8.944s-.756-1.371-2.26-1.371c-1.204 0-2.685.966-2.685.966V4.02l.925 1.468h-5.849l-.212-.3Zm25.404.586v-17.648c-.588-.363-1.404-.422-2.13-.6l5.873-3.06V4.104l2.103 1.448h-7.73Zm21.371 1.019L91.8 3.785v-10.3c0-.814-1.885-1.173-1.885-1.939h5.163s.508 1.202.82 1.202c.287 0 1.647-1.448 3.538-1.448 2.114 0 2.445 1.38 2.445 1.817 0 .281-.026 1.598-1.503 1.598-1.134 0-2.283-.983-3.182-.983-.565 0-1.899.983-1.899.983v9.07l2.13 1.693h-7.266z" style="fill:#3b3128;fill-opacity:1;fill-rule:nonzero;stroke:none;stroke-width:1.85443;stroke-linecap:butt;stroke-linejoin:miter;stroke-miterlimit:4;stroke-dasharray:none;stroke-dashoffset:0;stroke-opacity:1"/></g></svg>