<svg xmlns="http://www.w3.org/2000/svg" width="1440" height="900" preserveAspectRatio="none" style="display:block" viewBox="0 0 2048 1280"><path fill="#f0f0f2" d="M153.704 471.854c37.915 1.639 83.695.441 122.123.467l220.983.328 70.781-.07c15.64-.028 35.466.163 49.197 1.713 23.13 2.612 64.729 40.554 66.711 65.678 4.274 54.162.425 119.182 1.357 174.201.447 26.411-15.367 52.368-34.701 68.478-29.258 25.962-47.457 23.643-83.725 23.59l-73.09-.097-225.012.388c-37.174.032-77.209-.667-114.217.172l.06-3.689c.296-5.992.311-12.873.168-18.885-1.024-43.22 1.655-87.881-.306-130.945l1.18-2.465.918.095c12.896 1.253 40.745.586 54.249.601l103.072.019 128.569-.206c19.275-.053 37.94.176 57.86-.012 19.761 1.653 27.219-21.97 15.21-34.409-8.315-8.613-47.708-5.78-58.838-5.777l-82.618.2c-72.838.16-146.928-.849-219.575-.01l-1.171-.52-.135-1.428c.621-14.688.164-32.864.169-47.784l-.133-87.274-.13-.341z"/><path fill="#201f1f" d="M153.704 471.854c37.915 1.639 83.695.441 122.123.467l220.983.328 70.781-.07c15.64-.028 35.466.163 49.197 1.713 23.13 2.612 64.729 40.554 66.711 65.678 4.274 54.162.425 119.182 1.357 174.201.447 26.411-15.367 52.368-34.701 68.478-29.258 25.962-47.457 23.643-83.725 23.59l-73.09-.097-225.012.388c-37.174.032-77.209-.667-114.217.172 6.128-5.159 18.689-19.013 24.748-25.326l301.873-.018 77.788.11c12.538.022 26.835.393 39.185-.353 21.851.808 61.55-32.242 63.606-55.528 4.421-50.06-.703-109.269 1.619-160.413.932-20.517-8.073-34.786-21.225-48.982-24.367-26.302-48.66-22.105-80.843-22.06l-79.982.132-304.127-.019a1159 1159 0 0 0-23.049-22.391"/><path fill="#201f1f" d="M177.187 589.541c73.98-.872 148.826-.349 222.862-.286l68.966.075c13.208.016 26.865-.265 40.047.725 41.032 3.079 37.636 78.023-.895 83.093-12.049 1.586-26.911.927-39.245.89l-65.083-.156-224.434.009-.839-.009c-5.077-5.177-18.4-19.292-23.353-23.164l.918.095c12.896 1.253 40.745.586 54.249.601l103.072.019 128.569-.206c19.275-.053 37.94.176 57.86-.012 19.761 1.653 27.219-21.97 15.21-34.409-8.315-8.613-47.708-5.78-58.838-5.777l-82.618.2c-72.838.16-146.928-.849-219.575-.01 7.868-7.18 15.556-14.165 23.127-21.678m-23.154 63.642c8.337 7.218 15.346 15.087 23.283 22.04.019 34.177.729 70.758.01 104.723a822 822 0 0 1-23.155 23.067c.296-5.992.311-12.873.168-18.885-1.024-43.22 1.655-87.881-.306-130.945m-1.243-178.97 23.156 22.844-.008 90.671c-7.455 6.969-15.567 14.885-23.184 21.543.621-14.688.164-32.864.169-47.784z"/><path fill="#201f1f" d="m178.671 497.067 300.239.081 80.51-.129c14.628-.03 32.201-.607 46.512 1.102 19.39 2.775 48.194 29.242 51.853 49.034 3.554 19.225 1.753 49.945 1.719 70.498l.595 88.898c.104 23.138-4.981 33.348-20.86 49.945-23.622 24.688-42.335 22.293-72.916 22.295l-54.26-.001-212.563-.045-119.458-.027.011-101.996 225.38.067 64.666.004c12.521-.002 27.625.685 39.711-1.003 19.248-3.206 32.717-27.103 31.735-45.319-2.635-48.855-32.586-43.975-67.6-43.941l-62.442-.039-232.918.17z"/><path fill="#f0f0f2" d="M1855.1 807.139c-9.74-1.151-31.05-.623-41.43-.613l-73.37.018-241.14-.431-57.32.103c-12.02.027-30.74.851-41.98-1.599-29.92-7.104-64.92-38.603-71.5-69.323-4.37-20.385-2.63-55.529-2.59-77.865l-.12-94.472c-.06-30.142 7.11-43.845 27.24-65.227 28.38-30.142 57.92-25.168 95-25.15l87.36.032 322.45-.32c-.31 29.715-.41 59.431-.28 89.147 0 12.171-.65 38.567.59 49.569l-2.15.373c-28.62-.905-59.7-.283-88.48-.165l-125 .052-88.16-.273c-13.17-.02-49.49-2.888-58.56 5.747a44 44 0 0 0-4.73 5.335c-1.36 7.067-2.54 15.152 1.65 21.679a14.55 14.55 0 0 0 9.78 6.509c9.94 1.623 40.62 1.037 51.77 1.053l101.62.109 133.5-.022c14.83-.021 52.18.849 65.14-.635 1.15.915 1.34.78 1.88 1.929-1.98 42.57.64 86.812-.36 129.535-.17 7.32-.16 15.605.11 22.933z"/><path fill="#201f1f" d="M1855.1 807.139c-9.74-1.151-31.05-.623-41.43-.613l-73.37.018-241.14-.431-57.32.103c-12.02.027-30.74.851-41.98-1.599-29.92-7.104-64.92-38.603-71.5-69.323-4.37-20.385-2.63-55.529-2.59-77.865l-.12-94.472c-.06-30.142 7.11-43.845 27.24-65.227 28.38-30.142 57.92-25.168 95-25.15l87.36.032 322.45-.32c-5.8 2.864-18.71 16.728-24.37 21.932l-304.49.016-78.6-.108c-14.37-.018-34.62-.386-47.3 1.326-19.63 2.649-52.71 33.432-54.1 53.684-3.59 52.053.19 109.064-1.7 161.537-.72 19.922 9.8 36.173 23.16 49.211 25.13 25.775 49.15 21.624 81.88 21.566l80.95-.109 297.84-.011c5.69 6.286 18.24 20.87 24.13 25.803"/><path fill="#201f1f" d="m1831.31 673.932-226.61-.05-64.83.168c-11.92.038-25.99.658-37.7-.835-38.17-4.865-42.29-77.843-2.87-82.965 11.82-1.536 27.7-.947 39.92-.967l66.23-.037 227.1.178 23.31 21.957c-28.62-.905-59.7-.283-88.48-.165l-125 .052-88.16-.273c-13.17-.02-49.49-2.888-58.56 5.747a44 44 0 0 0-4.73 5.335c-1.36 7.067-2.54 15.152 1.65 21.679a14.55 14.55 0 0 0 9.78 6.509c9.94 1.623 40.62 1.037 51.77 1.053l101.62.109 133.5-.022c14.83-.021 52.18.849 65.14-.635a2611 2611 0 0 0-23.08 23.162m1.51 1.611 23.45-22.844c-1.98 42.57.64 86.812-.36 129.535-.17 7.32-.16 15.605.11 22.933l-23.21-25.338zm24.88-203.251c-.31 29.715-.41 59.431-.28 89.147 0 12.171-.65 38.567.59 49.569-2.21-3.656-19.96-19.764-23.88-23.355l.02-90.606c5.2-5.098 20.86-19.007 23.55-24.755"/><path fill="#201f1f" d="M1406.9 497.242c14.39-.674 33.2-.135 47.85-.139l93.73-.007 283.16-.006.01 89.598-231.38-.153-63.62-.02c-11.84-.005-25.31-.453-36.7.748-36.01 4.406-39.55 57.528-17.04 79.124 15.17 14.554 41.56 10.462 61.77 10.443l78.82-.098 206.53-.026v102.023l-285.46-.005-86.32.077c-15.07.025-30.68-.014-45.73-.366-23.02-.54-58.6-31.403-61.09-54.181-3.34-30.569-.32-65.683-1.02-96.974-.54-23.497-.5-48.658.32-72.215 2.5-27.45 30.93-52.333 56.17-57.823"/><path fill="#f0f0f2" d="M730.712 805.029c.954-26.757.318-56.861.309-83.833l-.045-151.222c.012-30.76 2.565-47.001 24.883-69.247 29.131-29.038 47.55-27.275 85.211-27.236l68.324-.01 248.156-.594c34.11.068 48.09 3.936 74.1 28.501 9.76 9.207 25.03 31.787 26.78 44.167 3.26 23.001 1.9 55.217 2 79.227l.09 179.54.38 2.151c-.98.167-1.06.345-1.84.077q-45.945-.378-91.89-.257c-8.71-.002-37.61-.501-44.51.784l-1.14-.565.23-2.207c.35-6.949.23-14.22.2-21.196-.2-49.321.52-98.784-.26-148.082-.21-13.308-5.06-22.329-18.72-23.73-14.49-1.485-30.75 7.531-30.47 23.513-.98 27.406-.63 55.094-.56 82.624l.37 55.283c.1 9.02-.11 22.529.91 31.075l.86 2.663c-1.34.278-.87.462-1.77-.006-49.81-.303-102.369-.816-152.044.064-1.295.505-.628.325-2.283-.029l.54-2.23c1.905-54.78-.9-110.989.174-165.726.796-40.574-48.361-28.579-49.374-6.402-.531 23.161-1.275 47.341-.571 70.484 1.006 33.102-1.66 68.748.438 101.567l.597 1.873-1.644.645c-6.803-.386-14.729-.531-21.524-.331-37.613 1.107-77.201-1.781-114.619.382l-1.751.166z"/><path fill="#201f1f" d="M730.712 805.029c.954-26.757.318-56.861.309-83.833l-.045-151.222c.012-30.76 2.565-47.001 24.883-69.247 29.131-29.038 47.55-27.275 85.211-27.236l68.324-.01 248.156-.594c34.11.068 48.09 3.936 74.1 28.501 9.76 9.207 25.03 31.787 26.78 44.167 3.26 23.001 1.9 55.217 2 79.227l.09 179.54-24.39-24.757-.05-154.853c.02-20.525.3-40.967.01-61.58-.3-21.09-9.71-35.942-23.62-50.725-19.35-20.573-37.27-17.093-62.84-17.175l-70-.191-256.973-.184c-21.296.135-33.511 7.862-49.054 22.364-6.874 6.412-18.749 23.194-19.893 31.867-2.99 22.677-1.575 52.631-1.558 75.748l-.033 154.876c-6.693 7.822-15.252 17.29-21.407 25.317"/><path fill="#201f1f" d="m1049.34 780.259.13-108.827c.02-17.375-.82-40.003 1.33-56.677 2.34-18.06 33.17-27.661 48.69-26.527 42.49 3.104 44.97 29.11 43.17 64.423-.32 6.137-.01 15.336-.01 21.551l-.13 106.587c-5.98 6.9-14.51 17.326-20.77 23.516.35-6.949.23-14.22.2-21.196-.2-49.321.52-98.784-.26-148.082-.21-13.308-5.06-22.329-18.72-23.73-14.49-1.485-30.75 7.531-30.47 23.513-.98 27.406-.63 55.094-.56 82.624l.37 55.283c.1 9.02-.11 22.529.91 31.075zm-202.305-1.011-.115-108.459c-.007-15.617-1.129-38.061.914-53.028 5.187-37.999 88.948-38.161 90.866 1.564 2.537 52.535.518 107.322 1.052 159.948-5.665 7.862-14.606 17.542-21.229 24.981 1.905-54.78-.9-110.989.174-165.726.796-40.574-48.361-28.579-49.374-6.402-.531 23.161-1.275 47.341-.571 70.484 1.006 33.102-1.66 68.748.438 101.567zm94.859 1.807 105.216.101a1693 1693 0 0 0 25.2 25.293c-49.81-.303-102.369-.816-152.044.064a1034 1034 0 0 1 21.628-25.458m-187.676.003 91.123-.036c7.306 8.201 15.847 17.332 22.802 25.673-6.803-.386-14.729-.531-21.524-.331-37.613 1.107-77.201-1.781-114.619.382zm391.002.006 89.29-.053c8.09 8.608 16.27 17.122 24.55 25.539q-45.945-.378-91.89-.257c-8.71-.002-37.61-.501-44.51.784 6.78-6.708 16.2-18.456 22.56-26.013"/><path fill="#201f1f" d="M811.751 498.177c6.902-.666 19.236-.419 26.404-.433l241.265.314 66.08-.074c12.2-.013 27.11-.49 38.95 1.085 19.26 2.563 44.4 32.188 47.12 50.47 3.66 24.589 2.17 53.601 2.17 78.797l-.06 149.926-88.58.009.06-107.097c0-13.199 1.28-43.903-1.31-55.531-7.96-35.769-65.48-37.984-88.09-15.05-12.1 12.283-9.15 30.76-8.95 46.907l-.13 131.01-104.244-.199.126-105.166c.006-6.978.323-14.656.018-21.543-1.191-19.952 4.305-34.491-10.072-51.052-20.492-23.605-78.514-16.992-87.322 14.119-2.418 8.543-1.232 43.304-1.229 54.651l.091 108.949-88.808.037-.077-152.084c-.011-23.488-1.063-50.139.868-73.35 1.976-23.742 33.603-49.785 55.72-54.695"/><path fill="#201f1f" fill-opacity=".941" d="M1881.06 785.389c6.07-1.785 12.45 1.579 14.4 7.589s-1.23 12.482-7.18 14.602a11.68 11.68 0 0 1-11.65-2.249 11.676 11.676 0 0 1 4.43-19.942m7.29 19.249a8.873 8.873 0 0 0 4.01-11.9 8.88 8.88 0 1 0-15.91 7.892c2.18 4.394 7.51 6.189 11.9 4.008"/><path fill="#201f1f" fill-opacity=".02" d="M1880.46 788.728a8.88 8.88 0 0 1 11.9 4.01 8.873 8.873 0 0 1-4.01 11.9c-4.39 2.181-9.72.386-11.9-4.008s-.38-9.723 4.01-11.902m7.5 14.113c3.01-3.191 1.54-8.505-1.47-11.499-2.84-.456-3.68-.547-6.55-.422-.03 3.608-.34 7.142.74 10.527l.53-.436c1.4-1.135 1.94-1.78 3.71-2.149 1.67 1.768 1.79 1.907 3.04 3.979"/><path fill="#201f1f" fill-opacity=".937" d="M1879.94 790.92c2.87-.125 3.71-.034 6.55.422 3.01 2.994 4.48 8.308 1.47 11.499-1.25-2.072-1.37-2.211-3.04-3.979-1.77.369-2.31 1.014-3.71 2.149l-.53.436c-1.08-3.385-.77-6.919-.74-10.527"/></svg>