<svg xmlns="http://www.w3.org/2000/svg" width="314" height="275" preserveAspectRatio="none" style="display:block" viewBox="0 0 1256 1100"><path fill="#64737c" d="M459.306 306.541c12.904-.836 31.577-.277 44.918-.323q41.444-.382 82.889-.318 54.683-.17 109.366.239c25.721.053 108.673-2.138 128.089 5.033 2.459.909 3.473 1.699 4.562 4.141 2.627 5.889 1.525 13.392-.098 19.393-4.4 16.28-11.336 32.157-17.505 47.829a7017 7017 0 0 1-30.786 77.07l-84.892 209.319c-10.358 25.428-21.5 50.924-31.533 76.386-2.651 5.027-4.753 11.104-7.082 16.462-10.322 23.78-19.574 48.459-31.587 71.421-1.615 6.291-16.562 16.763-21.395 9.094-24.947-39.585-49.847-107.629-67.01-149.179a18743 18743 0 0 1-91.096-223.811c-10.87-27.087-52.863-124.279-54.397-144.582-.298-3.945.135-7.801 3.016-10.792 9.333-9.693 50.273-7.18 64.541-7.382m165.459 244.21c.473-35.079 1.726-72.612 6.496-107.238 1.293-9.387 7.684-13.9 14.064-19.68 25.051-22.697 157.595-81.952 170.273-99.724l-.192-1.843c-10.777-3.647-179.498 85.217-207.14 80.656-24.511-4.044-49.624-16.64-71.781-26.329l-88.341-39.179c-9.033-4.043-32.643-15.678-41.047-15.529 1.622 6.106 8.383 9.196 14.111 12.524a4443 4443 0 0 0 94.79 53.006c21.439 11.831 43.66 23.859 63.433 38.275 17.423 12.704 15.349 44.591 16.252 64.616a4039 4039 0 0 1 2.337 61.365l6.281 190.3c.539 12.858 1.071 76.281 5.926 81.427l1.99.255c5.507-4.433 4.393-30.759 4.615-38.396l1.861-51.285z"/></svg>