<svg xmlns="http://www.w3.org/2000/svg" width="880" height="660" preserveAspectRatio="none" style="display:block" viewBox="0 0 2048 1536"><defs><linearGradient id="q" x1="852.055" x2="852.525" y1="475.081" y2="555.752" gradientUnits="userSpaceOnUse"><stop class="stop0" offset="0" stop-color="#a3a2a2"/><stop class="stop1" offset="1" stop-color="#c6c5c5"/></linearGradient><linearGradient id="p" x1="1194.02" x2="1195.03" y1="474.836" y2="555.672" gradientUnits="userSpaceOnUse"><stop class="stop0" offset="0" stop-color="#a3a2a2"/><stop class="stop1" offset="1" stop-color="#c6c5c5"/></linearGradient><linearGradient id="o" x1="1266.56" x2="1266.13" y1="794.716" y2="916.212" gradientUnits="userSpaceOnUse"><stop class="stop0" offset="0" stop-color="#5b5a5a"/><stop class="stop1" offset="1" stop-color="#8a8a89"/></linearGradient><linearGradient id="n" x1="781.105" x2="783.451" y1="793.545" y2="921.109" gradientUnits="userSpaceOnUse"><stop class="stop0" offset="0" stop-color="#5a5a5a"/><stop class="stop1" offset="1" stop-color="#8c8b8b"/></linearGradient><linearGradient id="m" x1="1026.49" x2="1026.63" y1="911.864" y2="1096.02" gradientUnits="userSpaceOnUse"><stop class="stop0" offset="0" stop-color="#8a8989"/><stop class="stop1" offset="1" stop-color="#cac9c9"/></linearGradient><linearGradient id="l" x1="1060.29" x2="1060.68" y1="617.126" y2="587.887" gradientUnits="userSpaceOnUse"><stop class="stop0" offset="0" stop-color="#929091"/><stop class="stop1" offset="1" stop-color="#c9c8c8"/></linearGradient><linearGradient id="k" x1="989.053" x2="984.995" y1="618.256" y2="586.127" gradientUnits="userSpaceOnUse"><stop class="stop0" offset="0" stop-color="#908f90"/><stop class="stop1" offset="1" stop-color="#cbc9c9"/></linearGradient><linearGradient id="j" x1="1179.38" x2="1140.37" y1="938.386" y2="987.665" gradientUnits="userSpaceOnUse"><stop class="stop0" offset="0" stop-color="#868585"/><stop class="stop1" offset="1" stop-color="#c8c7c7"/></linearGradient><linearGradient id="i" x1="868.006" x2="908.453" y1="938.999" y2="988.454" gradientUnits="userSpaceOnUse"><stop class="stop0" offset="0" stop-color="#858485"/><stop class="stop1" offset="1" stop-color="#cbcac9"/></linearGradient><linearGradient id="h" x1="858.678" x2="886.334" y1="892.938" y2="924.347" gradientUnits="userSpaceOnUse"><stop class="stop0" offset="0" stop-color="#494748"/><stop class="stop1" offset="1" stop-color="#858584"/></linearGradient><linearGradient id="g" x1="884.766" x2="966.919" y1="713.583" y2="825.791" gradientUnits="userSpaceOnUse"><stop class="stop0" offset="0"/><stop class="stop1" offset="1" stop-color="#4c4441"/></linearGradient><linearGradient id="f" x1="1189.07" x2="1157.75" y1="888.745" y2="922.694" gradientUnits="userSpaceOnUse"><stop class="stop0" offset="0" stop-color="#4a4848"/><stop class="stop1" offset="1" stop-color="#878685"/></linearGradient><linearGradient id="e" x1="1161.69" x2="1079.11" y1="703.426" y2="832.494" gradientUnits="userSpaceOnUse"><stop class="stop0" offset="0"/><stop class="stop1" offset="1" stop-color="#464546"/></linearGradient><linearGradient id="d" x1="691.452" x2="714.088" y1="879.205" y2="864.102" gradientUnits="userSpaceOnUse"><stop class="stop0" offset="0" stop-color="#8d8d8f"/><stop class="stop1" offset="1" stop-color="#b0adac"/></linearGradient><linearGradient id="c" x1="1340.62" x2="1363.41" y1="908.195" y2="762.751" gradientUnits="userSpaceOnUse"><stop class="stop0" offset="0" stop-color="#8e8e8e"/><stop class="stop1" offset="1" stop-color="#bdbcbc"/></linearGradient><linearGradient id="b" x1="984.614" x2="1015.24" y1="1111.78" y2="778.937" gradientUnits="userSpaceOnUse"><stop class="stop0" offset="0" stop-color="#565556"/><stop class="stop1" offset="1" stop-color="#727273"/></linearGradient><linearGradient id="a" x1="1018.16" x2="1024.35" y1="1009.04" y2="425.876" gradientUnits="userSpaceOnUse"><stop class="stop0" offset="0" stop-color="#043781"/><stop class="stop1" offset="1" stop-color="#0183d0"/></linearGradient></defs><path fill="#efefef" d="M985.882 416.362c194.528-21.183 369.338 119.497 390.248 314.057 20.91 194.561-120.02 369.171-314.61 389.801-194.2 20.59-368.385-119.99-389.251-314.161-20.867-194.172 119.471-368.556 313.613-389.697"/><path fill="#efefef" d="M867.112 457.943c129.784-65.631 286.688-43.656 393.458 55.103 106.76 98.759 140.87 253.483 85.52 387.977-64.86 157.647-234.35 245.117-400.428 206.657-166.073-38.46-279.859-191.532-268.824-361.643 7.975-122.936 80.337-232.5 190.274-288.094"/><path fill="url(#a)" d="M869.273 459.461c23.122-9.305 48.147-19.642 72.469-25.546 75.298-18.278 151.638-10.122 222.918 19.415 3.41 1.413 6.71 3.065 9.42 5.567.49 1.657.64 2.062.8 3.769-5.46 7.072-21.31 19.394-28.18 26.495-19.31 19.962-63.52 60.046-77.61 81.658-9.47 8.239-23.02 29.508-28.63 40.813-1.12 3.465-2.2 6.744-3.15 10.27-.6 8.745-1.39 15.582 1.57 23.868 8.55 25.578 17.23 34.86 34.3 55.289 2.16 2.588 11.59 14.853 13.23 17.847 2.7 7.009 18 27.39 22.99 35.258 23.19 36.529 41.54 71.482 48.9 114.274 1.6 17.742 2.67 35.951-2.53 53.387-4.05 16.085-8.3 23.389-17.36 37.129-56.89 70.396-171.068 70.586-228.041.446-9.919-15.027-13.297-20.947-17.978-38.099-5.757-25.968-4.608-47.299 1.873-72.775 4.621-26.812 35.036-84.03 49.834-106.813 20.693-31.86 51.374-56.639 65.012-94.164 10.18-31.873-14.252-60.369-34.823-82.342-10.92-15.155-88.846-94.702-104.885-104.621z"/><path fill="url(#b)" d="M676.838 746.037c.123 2.451-.032 3.513 1.183 5.671 1.69-3.181 2.276-8.537 2.925-12.264.315 10.1-1.936 49.036.922 56.197l.249.667c1.147 3.133 1.644 5.301 2.389 8.548l.989-2.586 1.661 2.265.302-.13.61-1.718-.897.329-.115-.636 1.295-1.256-.141-3.34c8.56 77.405 31.126 126.513 78.491 187.081 29.312 32.555 53.847 54.055 91.945 75.855 122.726 70.22 282.644 53.88 388.064-40.48 3.43-3.08 6.95-6.63 10.6-9.38 62.99-63.446 100.78-138.792 103.91-229.281 1.82-6.008.98-21.071 2.57-28.334 1.44-6.613-.83-8.2 3.95-11.914 3.65 51.561-3.53 106.368-23.37 154.268 1.72 2.498 1.63 2.361 1.72 5.424-64.86 157.647-234.35 245.117-400.428 206.657-166.073-38.46-279.859-191.532-268.824-361.643"/><path fill="url(#c)" d="M1361.22 781.579c1.82-6.008.98-21.071 2.57-28.334 1.44-6.613-.83-8.2 3.95-11.914 3.65 51.561-3.53 106.368-23.37 154.268-6.2 13.389-39.52 80.954-50.18 84.648l-.38-.996c9.35-9.443 41.52-59.766 42.41-71.701l-1.33-.411 1.23.877-1.76-.147c-6.94 11.563-14.81 26.55-21.39 37.562-8.04 13.464-42.59 61.459-55.66 65.429 62.99-63.446 100.78-138.792 103.91-229.281"/><path fill="url(#d)" d="m681.868 795.641.249.667c1.147 3.133 1.644 5.301 2.389 8.548l.989-2.586 1.661 2.265.302-.13.61-1.718-.897.329-.115-.636 1.295-1.256-.141-3.34c8.56 77.405 31.126 126.513 78.491 187.081-13.833-6.419-39.462-55.311-50.813-70.28-2.238 8.004 29.288 51.571 33.833 60.033-6.775-6.133-14.418-18.781-19.232-26.804-25.854-43.086-47.449-101.517-48.621-152.173"/><path fill="url(#e)" d="M1037.31 621.902c4.14 8.771 18.99 2.07 29.07 5.021-.48 4.918-1.09 10.162-1.42 15.06 5.57 38.412 31.97 61.743 54.72 91.645 27.8 36.521 72.4 107.023 75.32 154.31 1.63 8.132 3.52 34.836 1.21 41.9-3.34 4.204-2.22 9.643-4.63 17.159-18.81-8.896-19.66-14.335-35.81-25.172 5.2-17.436 4.13-35.645 2.53-53.387-7.36-42.792-25.71-77.745-48.9-114.274-4.99-7.868-20.29-28.249-22.99-35.258-1.64-2.994-11.07-15.259-13.23-17.847-17.07-20.429-25.75-29.711-34.3-55.289-2.96-8.286-2.17-15.123-1.57-23.868"/><path fill="url(#f)" d="m1158.3 868.438 1.24-6.295c1.32 5.124 2.06 11.015 2.85 16.293 1.01-.624.66-.208 1.1-1.178l.79 2.092c4.53 12.165 19.78 19.533 30.73 26.976-.17-4.806-.69-13.803-.01-18.388 1.63 8.132 3.52 34.836 1.21 41.9-3.34 4.204-2.22 9.643-4.63 17.159-18.81-8.896-19.66-14.335-35.81-25.172 5.2-17.436 4.13-35.645 2.53-53.387"/><path fill="#706862" d="M1086.41 718.906c7.87 8.455 17.65 22.746 24.1 32.508 28.75 43.499 45.29 74.741 52.98 125.844-.44.97-.09.554-1.1 1.178-.79-5.278-1.53-11.169-2.85-16.293l-1.24 6.295c-7.36-42.792-25.71-77.745-48.9-114.274-4.99-7.868-20.29-28.249-22.99-35.258m-49.1-97.004c4.14 8.771 18.99 2.07 29.07 5.021-.48 4.918-1.09 10.162-1.42 15.06-.99-2.085-1.29-3.85-3.39-4.301-9.49-2.044-12.31-3.038-20.98.287-2.43 2.85-1.63 3.317-1.71 7.801-2.96-8.286-2.17-15.123-1.57-23.868"/><path fill="url(#g)" d="M983.259 645.524q.687-4.051 1.46-8.087c5.843-1.022 16.671-.998 22.541.008 2.15 3.104 1.73 6.204 1.85 10.104-13.638 37.525-44.319 62.304-65.012 94.164-14.798 22.783-45.213 80.001-49.834 106.813-6.481 25.476-7.63 46.807-1.873 72.775-10.18 6.021-29.42 26.039-37.506 27.641-3.562-18.964-5.347-37.924-1.926-57.108.086-5.406 2.676-17.457 4.102-23.065 12.659-49.769 41.595-94.273 71.596-135.143 22.779-31.032 46.483-49.241 54.602-88.102"/><path fill="url(#h)" d="M894.264 848.526c-6.481 25.476-7.63 46.807-1.873 72.775-10.18 6.021-29.42 26.039-37.506 27.641-3.562-18.964-5.347-37.924-1.926-57.108.705 4.758.505 13.364.538 18.455 6.719-6.623 27.151-23.549 29.896-30.176l-1.108-.782-5.224 1.08 7.132-5.599c2.426-10.113 1.93-20.775 10.071-26.286"/><path fill="#191919" d="M867.112 457.943c129.784-65.631 286.688-43.656 393.458 55.103 106.76 98.759 140.87 253.483 85.52 387.977-.09-3.063 0-2.926-1.72-5.424 19.84-47.9 27.02-102.707 23.37-154.268.51-23.781-12.13-71.208-20.95-93.582a317 317 0 0 0-6-15.121c-31.27-72.572-87.47-134.55-159.45-170.439-2.93-1.46-3.89-.817-6.46.477-.16-1.707-.31-2.112-.8-3.769-2.71-2.502-6.01-4.154-9.42-5.567-71.28-29.537-147.62-37.693-222.918-19.415-24.322 5.904-49.347 16.241-72.469 25.546l.129 1.125c-85.138 45.506-142.904 109.9-173.558 203.331-.821 2.502-3.403 11.35-3.614 13.504-6.097 16.608-9.902 44.388-11.284 62.023-.649 3.727-1.235 9.083-2.925 12.264-1.215-2.158-1.06-3.22-1.183-5.671 7.975-122.936 80.337-232.5 190.274-288.094"/><path fill="url(#i)" d="M892.391 921.301c4.681 17.152 8.059 23.072 17.978 38.099-14.733 11.691-19.975 33.209-20.452 51.03-18.978-17.813-28.034-37.158-35.032-61.488 8.086-1.602 27.326-21.62 37.506-27.641"/><path fill="url(#j)" d="M1155.77 921.825c16.15 10.837 17 16.276 35.81 25.172 2.41-7.516 1.29-12.955 4.63-17.159-1.47 29.216-15.44 57.984-35.88 78.682-1.87-19.451-7.29-35.752-21.92-49.566 9.06-13.74 13.31-21.044 17.36-37.129"/><path fill="url(#k)" d="M974.287 565.207c20.571 21.973 45.003 50.469 34.823 82.342-.12-3.9.3-7-1.85-10.104-5.87-1.006-16.698-1.03-22.541-.008a389 389 0 0 0-1.46 8.087c.012-25.662-5.608-38.535-19.253-59.308-1.527-2.324-5.555-8.078-5.816-10.623 8.966 1.868.749 22.126 30.179 9.581-4.834-7.912-13.085-11.683-14.082-19.967"/><path fill="url(#l)" d="M1040.46 611.632c5.61-11.305 19.16-32.574 28.63-40.813.37 5.865-9.53 11.697-10.43 16.774 4.12 1.649 9.09-1.531 14.34.792 4.63 2.048 6.12 2.635 8.35-1.632 3.65-5.164 6.26-11.16 10.78-15.436l.53.892c-2.55 7.924-4.9 7.042-8.18 12.58-6 10.102-14.5 24.615-16.66 36.012l-1.44 6.122c-10.08-2.951-24.93 3.75-29.07-5.021.95-3.526 2.03-6.805 3.15-10.27"/><path fill="#868585" d="M1037.31 621.902c.95-3.526 2.03-6.805 3.15-10.27.34 4.597-.45 3.696 2.07 6.302 9.16 2.588 20.44-3.741 25.29 2.867l-1.44 6.122c-10.08-2.951-24.93 3.75-29.07-5.021"/><path fill="#bebdbd" d="M680.946 739.444c1.382-17.635 5.187-45.415 11.284-62.023.443 9.055-4.638 29.13-6.281 39.164-2.392 14.612-2.411 20.939-1.762 35.621l2.363.746-.128.533-2.078.161 1.783.888-.818 1.483-.859-1.594.701 1.604c.918-1.808.594-.864.982-2.829l-2.276-.22 2.418-.78 1.794-23.045c1.183 5.794-1.053 23.638-1.207 30.182-.301 12.79.205 25.692 1.348 38.449l.141 3.34-1.295 1.256.115.636.897-.329-.61 1.718-.302.13-1.661-2.265-.989 2.586c-.745-3.247-1.242-5.415-2.389-8.548l-.249-.667c-2.858-7.161-.607-46.097-.922-56.197m665.844-91.695c8.82 22.374 21.46 69.801 20.95 93.582-4.78 3.714-2.51 5.301-3.95 11.914-1.59 7.263-.75 22.326-2.57 28.334-.04-34.155-1.1-66.384-10.82-99.52-.77-2.614-2.74-7.371-2.05-9.686 5.14 17.467 9.63 33.044 11.64 51.418.37 3.368.51 10.272 1.39 12.912 2-1.997-.22-4.871 1.48-9.219 5.13-13.087-17.81-72.55-16.07-79.735"/><path fill="url(#m)" d="M737.473 929.727c-9.694-14.524-19.644-42.479-25.12-59.188-4.242-12.942-17.725-66.528-11.487-76.073 2.532-1.093 5.647-.894 8.32-.334 46.233 9.686 92.907 17.436 139.982 21.6 4.517.4 12.642 1.009 15.546 4.658-1.36 11.586-7.917 25.814-11.622 37.29-4.345 13.461-6.23 23.675-8.373 37.6-.368 16.614-.878 33.687 2.862 49.954 30.418 132.296 223.109 157.046 311.579 72.096a142.46 142.46 0 0 0 42.67-79.509c1.74-10.421 1.56-17.894 2.74-27.139l.16.691c.73 3.051.8 4.148.92 7.268.3-.2.59-.414.9-.602 7.42-4.549 74.11-1.118 88.31-1.68 8.84-.35 17.23-2.71 25.89-3.243a322.44 322.44 0 0 1-185.43 167.374c-85.39 29.95-170.954 25.94-254.506-13.58-55.602-26.3-114.648-78.943-143.151-136.606z"/><path fill="url(#n)" d="M737.473 929.727c-9.694-14.524-19.644-42.479-25.12-59.188-4.242-12.942-17.725-66.528-11.487-76.073 2.532-1.093 5.647-.894 8.32-.334 46.233 9.686 92.907 17.436 139.982 21.6 4.517.4 12.642 1.009 15.546 4.658-1.36 11.586-7.917 25.814-11.622 37.29-4.345 13.461-6.23 23.675-8.373 37.6l-1.845.512c-.833 5.387.063 10.669-.237 16.292-5.934 1.033-17.815 3.955-23.011 3.961-15.332.02-71.349-2.665-82.44 3.665-1.858 4.718.257 5.936.287 10.017"/><path fill="url(#o)" d="M1204.57 910.682c-1.5-16.456-2.98-30.958-7.39-47.012-2.57-9.383-17.02-37.534-12.21-44.705 5.94-3.421 19.77-3.385 27.61-4.292 25.11-2.869 50.14-6.362 75.07-10.476 13.24-2.271 49.61-10.326 60.46-9.845 3.14 3.852 2.77 8.721 2.19 13.575-4.07 34.305-14.15 74.156-29.55 105.189-8.66.533-17.05 2.893-25.89 3.243-14.2.562-80.89-2.869-88.31 1.68-.31.188-.6.402-.9.602-.12-3.12-.19-4.217-.92-7.268z"/><path fill="url(#p)" d="M1180.27 473.72c17.28 2.017 99.22 68.269 104.89 83.244l-.86.846c-.75-.715-4.62-4.474-5.42-4.428-12.37 1.211-27.96 2.064-39.93 3.099-10.82.934-77.05-1.958-82.1 1.009-12.88.072-31.66-1.018-44.54-1.163-9.62 9.422-18.18 23.033-25.81 34.107-3.4 4.923-.01 4.041-3.73 5.296-.04-.301-.07-.601-.1-.902 14.06-30.557 80.62-102.741 97.6-121.108"/><path fill="url(#q)" d="m865.646 473.905.768-.199c3.403 1.218 14.303 13.383 17.347 16.844 27.721 31.512 60.925 66.594 81.24 103.224l-.791.837c-3.879-6.032-25.446-35.724-26.821-39.355l-1.974-1.312c-12.451 1.733-29.065 2.692-40.915 2.546-32.093-.03-90.211 2.469-122.847-3.212-4.969-.865-4.434 5.778-9.874 7.568l-.687-.818c2.837-6.742 12.11-14.642 17.358-19.948 26.926-27.224 53.518-47.654 87.196-66.175"/><path fill="#bebdbd" d="m1104.26 1020.1 1.53.34c-10.28 5.07-18.03 5.39-28.55 9.33l1.35 1.54c20.26 5.15 26.82-10.45 34.08-7.24-20.87 11.99-26.89 10.71-49.21 14.15-35.02 5.4-66.137 5.38-100.756-3.36-5.996-1.52-9.786-1.93-15.669-4.49 11.141 2.26 18.756 3.81 29.835 6.63 7.231-.18 49.95 3.81 50.34 3.7-1.43-1.81-1.54-1.69-1.95-3.92l1.37-1.05c-2.36-2.68-20.06-2.61-25.9-3.16-17.198-1.63-32.761-7.05-49.105-10.44l-.482-.89c6.691.65 22.112 5.57 30.855 7.03 44.202 7.37 79.802 8.04 122.262-8.17"/></svg>