<svg xmlns="http://www.w3.org/2000/svg" width="1278" height="1278" preserveAspectRatio="none" style="display:block" viewBox="0 0 2048 2048"><path fill="#fff" d="M0 0h2048v2048H0z"/><path fill="#ec3d48" d="M992.007 351.918c370.213-22.953 688.903 258.644 711.703 628.868s-258.93 688.794-629.17 711.434c-370.014 22.63-688.353-258.89-711.137-628.9-22.785-370.005 258.608-688.462 628.604-711.402"/><path fill="#fff" d="M1032.62 620.107c20.93 14.824 51.36 51.898 66.78 72.424 89.39 118.94 126.58 271.298 102.39 418.219-15.99 97.07-57.12 188.28-120.29 264.23-13.38 16.08-31.41 36.72-47.96 48.99-4.72-.04-32.62-31.22-37.408-36.66-97.459-109.86-146.733-254.25-136.769-400.769a550.6 550.6 0 0 1 127.724-318.657c13.213-15.664 30.193-34.32 45.533-47.777"/><path fill="#fff" d="M1012.4 432.5c68.68-4.162 148.68 9.702 213.58 31.565a591.36 591.36 0 0 1 338.87 300.129c-26.77 99.589-86.35 198.784-165.04 265.956.14-22.17-.48-38.196-2.17-60.389-.12-1.337-.26-2.673-.4-4.009-14.86-142.775-85.97-273.755-197.6-363.996a542.6 542.6 0 0 0-312.268-119.48c-35.692-1.851-65.031-.076-100.215 3.604 11.093-5.917 28.515-12.509 40.452-16.966C888.55 446.165 947.71 435.417 1012.4 432.5m-346.494 583.49c.516.62 1.034 2.24 1.019 2.91-.406 18.19.841 35.7 2.435 53.82a537.2 537.2 0 0 0 190.639 364.38 543.06 543.06 0 0 0 347.671 126.55c23.18.19 46.49-1.7 69.55-3.78-40.69 17.15-78.17 30.49-121.61 39.74-13.19 2.81-28.28 4.41-41.84 6.94-103.23 11.95-193.816 3.53-291.903-33.54a591.96 591.96 0 0 1-278.188-221.09c-13.734-20.21-31.506-49.87-41.53-72.11 3.13-13.34 10.086-32.86 14.911-45.91a544.94 544.94 0 0 1 148.846-217.91"/><path fill="#fff" d="M784.723 486.937c87.179 18.535 183.034 70.85 247.187 132.419-22.68.366-46.207 1.181-68.731 4.04A544.8 544.8 0 0 0 693.38 737.55c-104.95 83.409-184.455 215.343-199.903 349.21-1.356 5.25-2.82 24.61-3.423 30.5-5.501 53.68-.493 105.29 9.336 158.23-12.444-28.63-23.612-55.82-32.438-85.82a593 593 0 0 1 14.889-379.265c54.047-139.117 165.635-263.074 302.882-323.468m784.397 286.855c2.12 4.202 4.15 8.457 6.06 12.761a589.66 589.66 0 0 1 9.79 447.057c-54.32 140.61-165.84 262.98-304.19 324.18-10.66-3.16-20.77-5.27-31.75-8.68a540.7 540.7 0 0 1-113.56-49.4c-42.5-22.37-66.83-48.14-103.39-74.58 9.61.28 19.23.23 28.84-.17a542.58 542.58 0 0 0 375.21-176.08 542.33 542.33 0 0 0 142.77-377.556c-.24-18.655-1.58-36.683-3.69-55.197-1.53-13.369-5.79-29.263-6.09-42.335"/></svg>