<svg xmlns="http://www.w3.org/2000/svg" xmlns:xlink="http://www.w3.org/1999/xlink" xml:space="preserve" width="400" height="487.61" viewBox="0 0 400 487.61"><defs><linearGradient id="b"><stop offset="0" style="stop-color:#787878;stop-opacity:1"/><stop offset=".25" style="stop-color:#fff;stop-opacity:1"/><stop offset=".75" style="stop-color:#fff;stop-opacity:1"/><stop offset="1" style="stop-color:#787878;stop-opacity:1"/></linearGradient><linearGradient id="e"><stop offset="0" style="stop-color:#1c1c1c;stop-opacity:1"/><stop offset=".631" style="stop-color:#5a5859;stop-opacity:1"/><stop offset="1" style="stop-color:#c6c4c5;stop-opacity:1"/></linearGradient><linearGradient id="a"><stop offset="0" style="stop-color:#4f4f4f;stop-opacity:1"/><stop offset=".42" style="stop-color:#fff;stop-opacity:1"/><stop offset=".58" style="stop-color:#fff;stop-opacity:1"/><stop offset="1" style="stop-color:#4f4f4f;stop-opacity:1"/></linearGradient><linearGradient id="c"><stop offset="0" style="stop-color:#b2b2b2;stop-opacity:1"/><stop offset="1" style="stop-color:#fafafa;stop-opacity:1"/></linearGradient><linearGradient xlink:href="#a" id="g" x1="881" x2="881" y1="720.199" y2="809.055" gradientUnits="userSpaceOnUse"/><linearGradient xlink:href="#b" id="i" x1="672.835" x2="672.835" y1="724.665" y2="809.699" gradientTransform="translate(-759.968 -951.346)scale(2.20321)" gradientUnits="userSpaceOnUse"/><linearGradient xlink:href="#a" id="j" x1="602.142" x2="602.142" y1="223.491" y2="317.571" gradientTransform="translate(-759.968 140.65)scale(2.20321)" gradientUnits="userSpaceOnUse"/><linearGradient xlink:href="#c" id="k" x1="589" x2="589" y1="325.807" y2="257.578" gradientTransform="translate(-759.968 140.65)scale(2.20321)" gradientUnits="userSpaceOnUse"/><linearGradient xlink:href="#a" id="l" x1="661.105" x2="661.105" y1="275.508" y2="366.232" gradientTransform="translate(-759.968 140.65)scale(2.20321)" gradientUnits="userSpaceOnUse"/><linearGradient xlink:href="#b" id="m" x1="649.26" x2="649.26" y1="275.253" y2="361.648" gradientTransform="translate(-759.968 140.65)scale(2.20321)" gradientUnits="userSpaceOnUse"/><linearGradient xlink:href="#e" id="n" x1="651.291" x2="651.291" y1="794.975" y2="766.631" gradientTransform="translate(-759.968 -951.346)scale(2.20321)" gradientUnits="userSpaceOnUse"/><linearGradient xlink:href="#e" id="o" x1="611.51" x2="628.92" y1="794.7" y2="780.802" gradientTransform="translate(-759.968 -951.346)scale(2.20321)" gradientUnits="userSpaceOnUse"/><linearGradient xlink:href="#e" id="p" x1="676.964" x2="676.964" y1="348.255" y2="319.984" gradientTransform="translate(-759.968 140.65)scale(2.20321)" gradientUnits="userSpaceOnUse"/><linearGradient xlink:href="#b" id="q" x1="590.75" x2="590.75" y1="227.327" y2="313.698" gradientTransform="translate(-759.968 140.65)scale(2.20321)" gradientUnits="userSpaceOnUse"/><clipPath id="f"><path d="M852 719.4h58.046v90.454H852z"/></clipPath></defs><path d="M880.9 775.5c-1.101-3.2-1.623-6.4-1.623-9.3 0-2.6.523-5.3 1.623-8.2 2.035-5.196 6.21-11.192 12.71-17.992 2.178-2.2 10.6-10.642 14.889-15.008.7-.7 1.139-1.6 1.339-2.8.156-.929.155-1.87.18-2.808l-56.246 43.812c-.563.464-1.3 1.088-1.7 2.088a2.56 2.56 0 0 0-.008 1.72c.348.81.828 1.339 1.027 1.539.488.47 2.892 2.484 2.892 2.484l50.196 39.076c-8.8-8.6-21.279-22.511-25.279-34.611" clip-path="url(#f)" style="fill:url(#g);fill-opacity:1" transform="translate(-2613.45 -2368.304)scale(3.30366)"/><path d="M696.134 757.245c-2.426-7.05-3.625-14.1-3.625-20.49 0-5.728 1.202-11.677 3.625-18.066 4.407-11.457 13.658-24.628 27.979-39.61 4.621-4.812 23.304-23.476 32.828-33.096.693-.742.79-.856 1.101-1.322-9.694 7.711-57.14 50.004-67.275 74.68-2.424 5.728-3.949 11.474-3.949 17.202 0 6.39.914 12.865 3.34 19.254 11.236 32.388 53.782 70.77 61.273 77.379-18.58-18.865-46.704-49.272-55.297-75.931" style="fill:url(#i);fill-opacity:1" transform="translate(-747.092 -941.787)scale(1.49947)"/><path d="m502.692 833.256 1.983-1.543c7.05-4.847 14.541-10.134 24.456-17.846 9.253-7.49 19.39-16.303 29.305-26.66 15.643-15.862 27.54-33.27 27.54-50.675 0-17.185-11.897-34.59-27.54-50.453-9.915-10.355-20.052-19.168-29.305-26.659-9.915-7.931-17.403-12.999-24.456-17.846l-2.017-1.542.034-6.39 123.82 96.501c1.543 1.322 4.187 3.525 4.187 6.61 0 2.864-2.644 5.288-3.966 6.39L502.709 839.73z" style="fill:url(#j);fill-opacity:1" transform="translate(-747.092 -941.787)scale(1.49947)"/><path d="M576.17 755.482c-11.678 32.167-64.004 69.842-71.495 76.231l-1.983 1.543V640.034l1.983 1.542c7.491 6.39 59.817 44.065 71.494 76.231 2.424 6.39 3.746 12.559 3.746 18.948 0 6.169-1.322 12.338-3.746 18.727" style="fill:url(#k);fill-opacity:1" transform="translate(-747.092 -941.787)scale(1.49947)"/><path d="M757.91 839.373c-1.101-1.102-6.475-5.677-6.475-5.677l-110.601-86.145c19.388 18.947 47.148 49.572 55.961 76.451 2.424 7.05 3.525 14.1 3.525 20.49 0 5.73-1.101 11.68-3.525 18.066-4.406 11.239-13.66 24.676-27.98 39.658-4.848 5.068-25.778 25.998-32.828 33.048-3.452 3.835-3.368 6.598-3.368 12.373L756.5 851.099c1.324-.879 4.052-3.304 4.052-6.61-.13-2.095-1.104-3.723-2.642-5.116" style="fill:url(#l);fill-opacity:1" transform="translate(-747.092 -941.787)scale(1.49947)"/><path d="M702.964 825.544c-11.457-32.607-54.903-71.552-62.09-77.907 19.165 18.947 47.065 49.486 55.878 76.365 2.424 7.05 3.568 14.1 3.568 20.49 0 5.73-1.101 11.68-3.525 18.066-4.406 11.239-13.66 24.676-27.98 39.658-4.848 5.068-25.778 25.998-32.828 33.048-.22.441-1.006 1.183-1.224 1.626 9.778-7.83 57.411-50.254 67.542-74.99 2.88-7.487 3.91-11.457 3.91-17.185-.003-6.392-1.048-12.781-3.25-19.17" style="fill:url(#m);fill-opacity:1" transform="translate(-747.092 -941.787)scale(1.49947)"/><path d="M585.974 736.535c0 17.194-11.869 34.707-27.384 50.656-9.928 10.207-20.118 19.025-29.417 26.496-9.838 7.907-17.326 13.149-24.352 17.925 8.044-6.299 56.92-44.097 69.742-76.286 2.5-6.28 3.957-12.591 3.957-18.791s-1.456-12.512-3.957-18.792c-12.822-32.19-62-69.985-70.044-76.288 7.024 4.777 14.816 10.023 24.654 17.93 9.3 7.469 19.49 16.286 29.417 26.491 15.517 15.95 27.384 33.465 27.384 50.659m104.212 19.168c-2.22-6.363-3.281-12.761-3.281-19.043 0-5.724 1.569-11.551 3.957-17.348 10.157-24.614 57.493-66.823 67.191-74.594.036-.048.064-.101.102-.152-8.472 6.068-43.364 36.238-52.525 45.329-14.832 14.722-26.176 30.891-26.176 46.765 0 17.423 12.102 35.175 25.868 51.335 8.812 10.342 17.024 19.278 25.27 26.848 8.732 8.014 14.615 13.474 20.848 18.314-7.143-6.387-49.875-44.836-61.254-77.454m-2.424 37.675c-8.813-10.342-17.022-19.276-25.269-26.851-8.73-8.013-15.288-13.882-21.496-18.785 7.14 6.388 50.522 45.307 61.903 77.926 2.221 6.365 3.276 12.763 3.276 19.044 0 5.724-1.566 11.554-3.954 17.348-10.146 24.593-57.66 66.95-67.428 74.783-.035.051-.063.104-.103.157 8.517-6.112 43.615-36.44 52.763-45.52 14.834-14.724 26.176-30.893 26.176-46.77 0-17.42-12.102-35.17-25.868-51.332" style="fill:#1d1d1b;fill-opacity:1" transform="translate(-747.092 -941.787)scale(1.49947)"/><path d="M712.658 799.767c.22-.22-12.558-12.779-14.1-14.321-14.321-13.22-25.557-33.71-25.778-33.71-4.184-8.151-5.508-11.896-13.44-12.557-8.592-.882-13.88-1.102-18.727-1.102-1.983 0-3.084.22-3.304 1.322-.223.66.44 1.762 1.98 2.864 13 9.033 31.726 24.235 57.947 44.943 1.542 1.324 14.982 13.001 15.422 12.56" style="fill:url(#n);fill-opacity:1" transform="translate(-747.092 -941.787)scale(1.49947)"/><path d="M548.96 799.767c0-.22 3.305-3.082 10.577-9.692 1.763-1.542 3.525-3.085 5.068-4.629 14.098-13.22 25.557-33.71 25.557-33.71 4.186-8.151 5.73-11.896 13.66-12.557 8.372-.882 13.88-1.102 18.727-1.102 1.983 0 2.864.22 3.085 1.322.22.66-.441 1.762-1.983 2.864-12.779 9.033-31.506 24.676-57.724 44.943-1.763 1.324-3.305 2.644-5.068 3.968-7.493 5.508-11.238 8.813-11.9 8.593" style="fill:url(#o);fill-opacity:1" transform="translate(-747.092 -941.787)scale(1.49947)"/><path d="M678.288 907.724c-.879-.879 23.575-18.066 37.234-47.59 3.746-8.371 5.729-11.896 13.66-12.557 8.373-.882 18.287-1.543 23.134-1.543 1.98 0 3.082.223 3.305 1.324.22.661-.44 1.763-1.983 2.642-12.999 9.254-31.726 24.458-57.944 45.166-1.543 1.322-16.965 12.999-17.406 12.558" style="fill:url(#p);fill-opacity:1" transform="translate(-747.092 -941.787)scale(1.49947)"/><path d="M504.675 831.713c8.152-6.387 57.063-44.064 69.842-76.23 2.424-6.39 3.966-12.559 3.966-18.948 0-6.17-1.542-12.338-3.966-18.728-12.779-32.166-61.69-69.841-69.842-76.23 7.491 6.389 52.657 44.064 64.334 76.23 2.423 6.39 3.745 12.559 3.745 18.728 0 6.389-1.324 12.558-3.745 18.947-11.677 32.167-56.843 69.842-64.334 76.231" style="fill:url(#q);fill-opacity:1" transform="translate(-747.092 -941.787)scale(1.49947)"/><path d="M390.51 315.643c-13.654-12.9-75.667-71.884-92.32-122.354-3.357-10.162-5.26-20.377-5.26-30.41 0-8.643 1.903-17.444 5.26-26.199 7.582-19.802 24.424-40.932 41.556-58.947 7.315-7.697 38.891-39.3 49.32-49.726 2.36-2.36 4.058-5.762 4.622-8.732.602-3.148.83-6.105.83-8.342l.089-5.92-188.53 146.821c-2.075 1.527-5.17 4.398-6.293 8.167-1.137-3.776-4.259-6.654-6.264-8.18L5 5v315.73l188.52-146.82c2.015-1.53 5.147-4.414 6.267-8.204.965 3.182 3.26 5.52 4.05 6.27 13.65 12.902 75.66 71.885 92.32 122.355 3.357 10.165 5.26 20.377 5.26 30.41 0 8.643-1.903 17.443-5.26 26.201-7.574 19.78-24.397 40.896-41.506 58.905-7.318 7.69-38.904 39.336-49.33 49.766-2.3 2.31-4.047 5.729-4.626 8.738a44 44 0 0 0-.816 8.339l-.089 5.92 188.48-146.825c2.577-1.89 6.73-5.854 6.73-11.044-.003-4.592-3.485-8.14-4.49-9.098M192.463 172.608 6.715 317.278V8.588l185.731 144.657c2.26 1.721 6.03 5.243 6.03 9.686 0 4.444-3.77 7.969-6.013 9.677m9.114-6.898c-.75-1.97-.515-4.407-.01-5.709 1.302-3.327 4.229-5.854 5.514-6.796L392.855 8.528l-.036 2.379c0 1.03-.063 3.647-.601 6.918-.601 3.677-2.124 6.752-4.477 9.108-14.285 14.285-42.386 42.435-49.224 49.63-21.246 22.343-35.35 42.364-41.917 59.51-3.561 9.303-5.368 18.322-5.368 26.805 0 9.79 1.794 20.202 5.342 30.943 13.178 39.937 54.117 85.234 82.895 113.533l-165.13-128.595s-7.988-6.736-9.343-8.015c-.756-.72-2.497-2.613-3.419-5.034m185.686 168.708L201.535 479.095l.036-2.382c0-2.534.248-4.883.588-6.915.604-3.63 2.25-6.865 4.486-9.108 10.41-10.416 41.854-41.92 49.231-49.68 21.216-22.323 35.303-42.33 41.868-59.463 3.56-9.303 5.368-18.322 5.368-26.806 0-9.789-1.797-20.198-5.342-30.942-13.327-40.38-55.036-86.242-83.86-114.482l165.586 128.955s8.157 7.007 9.848 8.603c1.186 1.13 3.951 4.173 3.951 7.866.003 4.738-4.218 8.342-6.032 9.677"/></svg>