<svg xmlns="http://www.w3.org/2000/svg" width="1024" height="393" viewBox="-1.5 -1.5 138.011 53"><path d="M108.05 8.53q-2.225.46-3.37 1.576-1.146 1.115-1.505 3.018-.361 1.903-.425 4.855v13.254q0 3.676.458 5.808.456 2.133 1.668 3.215 1.21 1.082 3.436 1.377 2.225.296 5.759.296 3.205 0 5.398-.328t3.567-1.444q1.374-1.114 1.963-3.248.59-2.13.59-5.676V17.98q.063-3.478-.557-5.446-.622-1.968-1.996-2.953t-3.6-1.247q-2.224-.262-5.365-.262-3.796 0-6.02.46M123.298.59q3.925.592 6.544 2.461 2.617 1.87 3.894 5.447 1.275 3.576 1.275 9.481v13.254q0 5.906-1.178 9.58t-3.73 5.71q-2.552 2.034-6.51 2.755-3.96.721-9.522.722-5.694 0-9.653-.657-3.96-.654-6.413-2.657-2.454-2.001-3.566-5.708-1.114-3.707-1.113-9.745V17.98q0-5.709 1.047-9.252t3.468-5.479 6.414-2.591Q108.245 0 114.07 0q5.301 0 9.227.59M13.575 32.666v-5.277H24.58V26.08q-.001-2.566-.41-3.994-.413-1.429-1.425-2.106-1.015-.679-2.68-.8-1.667-.12-4.13-.12-2.896 0-4.66.242-1.763.241-2.703 1.09-.942.847-1.256 2.517t-.362 4.527v8.328q.047 2.615.314 4.237.264 1.621 1.183 2.518.916.895 2.68 1.21 1.762.315 4.805.315 2.268 0 3.911-.073 1.642-.073 2.68-.556 1.038-.485 1.545-1.574.508-1.09.508-3.074h6.905q.049 2.905-.459 4.866-.507 1.96-1.496 3.22a6.5 6.5 0 0 1-2.415 1.912q-1.425.653-3.163.92-1.74.266-3.767.29-2.028.025-4.25.025-4.2 0-7.219-.533-3.018-.533-4.95-2.057-1.93-1.526-2.847-4.31Q0 40.315 0 35.764v-8.328q0-4.6.87-7.432.868-2.833 2.752-4.358 1.883-1.526 4.925-2.033 3.043-.51 7.389-.509 4.829 0 7.871.509 3.041.508 4.757 1.936 1.713 1.428 2.342 3.97.628 2.543.628 6.561v6.585zm74.583-9.174v8.924q-.001 5.446-.851 8.89-.852 3.447-3.174 5.381-2.324 1.936-6.446 2.625-4.123.69-10.667.689-5.89 0-10.012-.69-4.124-.687-6.675-2.755-2.553-2.067-3.73-5.905-1.179-3.839-1.178-10.072V19.29q0-6.166 1.243-9.94t3.861-5.84T57.236.72q4.09-.72 9.783-.721 3.01 0 5.759.033 2.749.034 5.104.393 2.356.363 4.287 1.247a8.8 8.8 0 0 1 3.272 2.593q1.341 1.705 2.028 4.363.687 2.657.622 6.594h-9.358q0-2.69-.687-4.166t-2.094-2.133q-1.409-.657-3.632-.754-2.225-.099-5.3-.099-4.124 0-6.512.427-2.39.425-3.632 1.64-1.245 1.215-1.603 3.412-.36 2.2-.426 5.741v11.287q.065 3.87.491 6.135.425 2.263 1.701 3.412 1.277 1.148 3.665 1.476t6.315.328q3.338 0 5.595-.164 2.258-.164 3.632-1.083t1.931-2.854q.555-1.935.556-5.413v-1.772H66.365V23.49z" style="fill:#00aeef;fill-opacity:1;fill-rule:nonzero;stroke:none"/><path d="M44.154 44.951a5.02 5.02 0 0 1-5.014 5.028 5.02 5.02 0 0 1-5.014-5.028 5.02 5.02 0 0 1 5.014-5.028 5.02 5.02 0 0 1 5.014 5.028" style="fill:#231f20;fill-opacity:1;fill-rule:nonzero;stroke:none"/></svg>