<svg xmlns="http://www.w3.org/2000/svg" width="500" height="500" preserveAspectRatio="none" style="display:block" viewBox="0 0 2000 2000"><path d="M0 0h2000v2000H0z"/><path fill="#f2f2f1" d="M269.096 797.972c83.233-1.425 170.798-.062 254.483-.07l86.248.005c34.449.011 72.983-5.433 95.309 26.813 9.58 13.837 12.011 23.869 14.333 40.355-46.689.708-94.695.166-141.467.166l-241.083-.05c-.046 10.723.202 23.043-.674 33.605 42.373 1.087 89.05.172 131.719.175l251.034-.006a4370 4370 0 0 0-.164 67.055l-100.334-.059-281.706-.03-.085 34.011 382.515.068c-2 19.48-7.091 33.88-20.98 48.2-22.375 23.07-53.738 18.84-83.625 18.85l-75.094.01-270.47-.18zm764.284.084c61.46-.93 130.09-.98 191.49.12l-.04 139.245c.03 61.886 10.78 119.159-67.47 130.419-1.37-66.07-.11-136.167-.32-202.576-8.06.662-24.36.041-33.12.031l-69.17-.042-20.77-.139c-2.8 63.777.6 135.816-.8 200.786l-66.688-.01c-.819-22.79-.324-48.27-.322-71.296l-.139-129.451c-12.36.698-29.308.16-41.951.143l-81.058-.147c-2.214 66.422 1.801 136.651-.927 202.701-19.418-2.49-33.381-6.75-47.76-20.69-19.339-18.75-19.471-42.85-19.313-68.089.09-14.299-.015-28.828-.017-43.167l.032-137.84c61.386-1.437 129.856-.336 191.56.004 10.861 11.301 22.737 22.498 33.159 34.002 9.794-10.964 23.054-23.649 33.624-34.004m309.65.325c8.14-1.064 30.93-.534 40.26-.52l79.68.11 268.04.02c-.28 22.291-.1 44.998-.11 67.323l-382.75.04c.87 13.977.3 34.184.3 48.529l-.13 86.127c42.21-.5 84.93-.173 127.18-.178l255.39-.036-.13 67.304-273.27-.11-74.32.14c-12.76.03-32.55.65-44.56-.87a61.94 61.94 0 0 1-29.44-11.59c-13.1-9.49-25.63-27.65-26.89-43.43-1.94-24.408-1.46-55.099-1.25-79.738.15-18.052-1.34-63.838 1.54-79.384a66.36 66.36 0 0 1 12.87-28.5c12.66-16.398 27.62-22.765 47.59-25.237m-140.14 336.829c5.26-.53 11.68-.91 16.82-.65 34.32 1.71 66.25-10.65 61.63 38.93-1.21 13-2.18 21.46-15.94 26.9-16.91 1.43-34.29.37-51.23.77-22.71.53-28.62-11.69-27.99-32.64.5-16.41-.11-26.12 16.71-33.31"/><path d="m1204.82 1151.97 58.44.08-.09 31.87-58.54-.01c-.29-11.09-.12-20.87.19-31.94"/><path fill="#f2f2f1" d="m269.131 1159.09 347.602.16.001 15.79-347.659-.14zm1112.029.07h347.48c.07 5.28.03 10.61.04 15.89l-347.59-.07zm-606.153-26.14c4.348.16 8.927.43 12.271 3.48 19.837 18.08 34.11 44.19 51.541 64.62-7.895-.06-15.788-.25-23.678-.54l-7.083-11.72c-7.908-.48-16.015-.5-23.953-.62-12.129-.07-22.391-.11-34.505.7-2.439 3.94-5.854 8.4-8.619 12.21-7.482-.22-14.722-.07-22.205.05 15.338-16.9 38.769-58.76 56.231-68.18"/><path d="M777.931 1150.59c3.917 1.94 13.385 16.3 16.457 20.6l-16.638-.15c-5.683-.18-9.045.32-14.599 1.02 4.614-7.28 9.8-14.42 14.78-21.47"/><path fill="#f2f2f1" d="m960.596 1134.44 17.191.59c-3.51 49.76 16.184 70.26-54.808 66.19-29.743-1.71-38.618 3-39.498-32.43q-.267-16.995.034-33.99l17.532.29-.029 48.97c19.435-.34 39.518-.1 59.003-.11-.083-10.95-.839-39.4.575-49.51m74.824.39c31.16-.16 62.32-.13 93.48.08l-.2 17.08h-37.54l-.27 11.74-.13 37.39c-5.69-.13-11.75-.03-17.47-.03l-.06-49.11-37.87-.1c-.06-5.61.04-11.42.06-17.05"/></svg>