<svg xmlns="http://www.w3.org/2000/svg" width="1079" height="1079" preserveAspectRatio="none" style="display:block" viewBox="0 0 2048 2048"><defs><linearGradient id="h" x1="856.716" x2="857.245" y1="973.332" y2="1024.87" gradientUnits="userSpaceOnUse"><stop class="stop0" offset="0" stop-color="#cfcecd"/><stop class="stop1" offset="1" stop-color="#fff"/></linearGradient><linearGradient id="g" x1="789.602" x2="789.392" y1="902.892" y2="970.079" gradientUnits="userSpaceOnUse"><stop class="stop0" offset="0" stop-color="#918f8f"/><stop class="stop1" offset="1" stop-color="#cbcac9"/></linearGradient><linearGradient id="f" x1="1273.85" x2="1274.14" y1="973.133" y2="1024.12" gradientUnits="userSpaceOnUse"><stop class="stop0" offset="0" stop-color="#cecdcd"/><stop class="stop1" offset="1" stop-color="#fff"/></linearGradient><linearGradient id="e" x1="1188.21" x2="1187.8" y1="974.212" y2="1024.68" gradientUnits="userSpaceOnUse"><stop class="stop0" offset="0" stop-color="#d0cece"/><stop class="stop1" offset="1" stop-color="#fff"/></linearGradient><linearGradient id="d" x1="1450.52" x2="1454.63" y1="903.424" y2="1068.44" gradientUnits="userSpaceOnUse"><stop class="stop0" offset="0" stop-color="#9a9897"/><stop class="stop1" offset="1" stop-color="#fff"/></linearGradient><linearGradient id="c" x1="492.139" x2="492.612" y1="972.285" y2="1025.64" gradientUnits="userSpaceOnUse"><stop class="stop0" offset="0" stop-color="#d1cfcf"/><stop class="stop1" offset="1" stop-color="#fff"/></linearGradient><linearGradient id="b" x1="511.091" x2="510.982" y1="902.718" y2="968.34" gradientUnits="userSpaceOnUse"><stop class="stop0" offset="0" stop-color="#928f8f"/><stop class="stop1" offset="1" stop-color="#c9c7c7"/></linearGradient><linearGradient id="a" x1="535.463" x2="533.574" y1="1024.49" y2="1140.25" gradientUnits="userSpaceOnUse"><stop class="stop0" offset="0" stop-color="#d8d7d7"/><stop class="stop1" offset="1" stop-color="#fff"/></linearGradient></defs><path fill="#aa0617" d="M0 0h2048v2048H0z"/><path fill="#dddcdc" d="M1215.78 893.006c15.06-1.222 40.67-.702 56.12-.75 36.42-.125 72.83-.063 109.24.186l129.68-.001c66.33-.018 141.87-3.24 203.66 23.173 26.48 11.323 46.22 40.63 48.53 68.367 8.24 98.779 1.06 153.679-110.3 164.659-77.92 7.68-147.62 4.79-225.16 5.36-62.92.19-131.47 1.8-192.39-16.12-26.34-7.75-42.52-24-54.01-48.21-14.19 15.14-48.58 50.71-63.79 64.01-42.11 1.56-93.18.35-135.86.33l-54.145-.06c-7.358-6.02-16.324-15.7-23.167-22.68l-36.884-37.46-131.057-132.258-318.842.084-.056 27.172 192.525-.096c14.882.002 79.062-1.094 89.544 1.755 2.781 3.4 5.47 10.373 4.698 15.873-1.159 6.41 2.41 47.49-4.053 49.05-18.341 4.45-84.698 2.43-101.728 2.43l-180.922.01.054 27.86c79.222-1.09 159.946.23 239.255-.26 19.754-.12 117.058-1.29 128.273 2.32 6.03 6.04 5.544 58.17.716 63.52-4.14 4.59-57.723 2.64-66.28 2.64l-117.623.05c-75.978.03-156.107 3.23-231.34-8.94-59.633-9.65-85.61-37.36-88.637-97.54-3.562-70.841 4.243-126.83 84.468-143.829 36.604-8.133 68.687-10.06 106.225-11.162l236.941-.005c35.732.017 85.493-1.636 120.072.476 6.731 5.364 17.541 16.821 23.933 23.291l38.971 39.404L1023 1087.31c63.68-64.14 128.32-131.247 192.78-194.304"/><path fill="#dddcdc" d="M1362.79 902.118c36.7-.877 82.73-.369 119.28-.325 52.97.063 159.17-3.538 208.02 13.687 8.55 1.795 24.51 7.619 30.35 14.217 16.79 12.536 31.59 32.868 32.78 54.326 1.93 34.767 8.08 88.967-13.41 118.487-16.72 22.97-51.89 31.62-78.01 35.62-65.11 8-133.34 6.25-199.15 6.49-61.04.22-125.79 1.24-186.3-6.57-19.6-2.53-48.23-10.74-64.11-22.82-15.7-11.94-21.35-24.97-26.48-43.37-23.95 22.55-48.57 50.65-72.04 72.04-19.53 2.16-51.88.15-72.85.79-10.11.31-109.454 1.09-112.533-2.08-27.311-28.14-56.262-58.14-84.369-86.05-5.501-5.42-21.417-23.32-26.372-26.68-4.013-3.23-12.385-10.7-14.837-14.99-16.023-17.679-44.575-45.65-61.973-62.268-10.645-.984-29.45-.535-40.391-.543l-69.848-.019-222.523.073q.16 22.888-.159 45.775c94.422-1.068 191.64-.02 286.294-.068l-.084 50.74c-94.256-1.07-192.216 1.93-286.029-.5.069 15.78-.036 31.55-.312 47.32 39.777-1.75 89.508-.49 129.837-.5l241.614-.07c.639 16.14.372 33.25.346 49.48-45.361.97-92.645.33-138.121.33-60.338.32-120.679.01-181.011-.92-42.883-.92-119.118-3.33-148.985-35.96-19.385-20.47-19.653-47.53-19.646-74.05.011-38.475-2.867-70.77 27.794-99.071.667-1.144.358-.802 1.389-1.75 42.047-38.664 181.737-31.038 238.966-30.92 36.791.075 73.684-.695 110.46.137a991 991 0 0 1 38.272.044c36.615-1.435 80.303-.209 117.52-.225 6.286 5.841 31.835 29.822 35.373 36.073 2.476 9.108 18.154 21.88 25.747 29.355l4.237 3.86c17.99 17.884 35.453 36.227 53.347 54.137l78.127 78.54 77.94-78.43c27.33-26.861 55.07-57.66 82.61-83.671.72-2.534 3.16-3.022 4.14-7.176 3-5.957 20.49-22.119 26.19-27.338 1.61-2.289 4.44-3.801 6.85-5.396 37.6-.123 86.43-1.628 123.17.17 6.22-.03 12.7-.162 18.89.069"/><path fill="url(#a)" d="M319.562 934.639c.667-1.144.358-.802 1.389-1.75 42.047-38.664 181.737-31.038 238.966-30.92 36.791.075 73.684-.695 110.46.137a991 991 0 0 1 38.272.044c-7.039 2.319-8.185.85-14.338 1.601 5.48 4.601 43.769 42.564 44.458 46.199 6.3 2.563 18.703 17.032 24.427 22.461l6.947 6.812c12.825 13.175 32.954 34.397 46.269 46.257 38.143 39.13 76.532 78.02 115.164 116.66l181.384-.09 74.04-74.76c6.11 22.97 13.5 40.91 35.96 52.33 19.22 9.77 41.31 14.55 62.58 17.19 60.01 7.46 120.92 4.68 181.25 5.34 72.22-.73 154.43 3.92 224.66-12.52 19.06-4.46 40.68-16.33 50.23-33.82 10.37-18.98 12.21-43.18 10.99-64.51.79-29.96 1.87-64.863-19.4-87.668-3.29-3.529-12.06-11.438-12.83-13.935 16.79 12.536 31.59 32.868 32.78 54.326 1.93 34.767 8.08 88.967-13.41 118.487-16.72 22.97-51.89 31.62-78.01 35.62-65.11 8-133.34 6.25-199.15 6.49-61.04.22-125.79 1.24-186.3-6.57-19.6-2.53-48.23-10.74-64.11-22.82-15.7-11.94-21.35-24.97-26.48-43.37-23.95 22.55-48.57 50.65-72.04 72.04-19.53 2.16-51.88.15-72.85.79-10.11.31-109.454 1.09-112.533-2.08-27.311-28.14-56.262-58.14-84.369-86.05-5.501-5.42-21.417-23.32-26.372-26.68-4.013-3.23-12.385-10.7-14.837-14.99-16.023-17.679-44.575-45.65-61.973-62.268-10.645-.984-29.45-.535-40.391-.543l-69.848-.019-222.523.073q.16 22.888-.159 45.775c94.422-1.068 191.64-.02 286.294-.068l-.084 50.74c-94.256-1.07-192.216 1.93-286.029-.5.069 15.78-.036 31.55-.312 47.32 39.777-1.75 89.508-.49 129.837-.5l241.614-.07c.639 16.14.372 33.25.346 49.48-45.361.97-92.645.33-138.121.33-60.338.32-120.679.01-181.011-.92-42.883-.92-119.118-3.33-148.985-35.96-19.385-20.47-19.653-47.53-19.646-74.05.011-38.475-2.867-70.77 27.794-99.071"/><path fill="url(#b)" d="M319.562 934.639c.667-1.144.358-.802 1.389-1.75 42.047-38.664 181.737-31.038 238.966-30.92 36.791.075 73.684-.695 110.46.137a991 991 0 0 1 38.272.044c-7.039 2.319-8.185.85-14.338 1.601 5.48 4.601 43.769 42.564 44.458 46.199l-3.725-.057c-96.478 1.838-193.774-.952-290.343.161-12.824.147-25.902.111-38.732-.058.015 9.354.519 43.399-.847 50.624-1.079-5.75-.502-21.113-.405-27.612-4.96 1.963-29.085 1.991-34.345 1.583-10.191-.791-67.264 2.334-71.993-3.201l.721-2.542c6.018-16.433 9.809-20.474 21.071-33.302z"/><path fill="#dddcdc" d="M694.311 903.751c5.48 4.601 43.769 42.564 44.458 46.199l-3.725-.057c-3.153-.563-7.037-.782-10.28-1.069-7.15-6.176-37.193-36.346-41.396-42.848 1.969-1.357 7.123-1.472 9.869-1.769zM299.1 968.848c5.183-.466 10.506.194 15.785.301 29.609.602 58.994-.181 88.581-.709 1.095 2.236 1.2 2.119 1.251 4.568-4.96 1.963-29.085 1.991-34.345 1.583-10.191-.791-67.264 2.334-71.993-3.201z"/><path fill="#979595" d="M670.377 902.106a991 991 0 0 1 38.272.044c-7.039 2.319-8.185.85-14.338 1.601l-1.074.456c-7.94-.882-15.605.078-22.86-2.101"/><path fill="url(#c)" d="M298.379 971.39c4.729 5.535 61.802 2.41 71.993 3.201 5.26.408 29.385.38 34.345-1.583-.097 6.499-.674 21.862.405 27.612 30.813-1.143 66.099-.4 97.299-.39l189.502-.07-.003 25.47c-10.268.99-36.131.3-47.623.3l-96.969-.01-162.351-.01c-29.663.01-61.436.54-90.922-.22-.165-20.65-.738-34.108 4.324-54.3"/><path fill="#7c7b7d" d="M1720.44 929.697c16.79 12.536 31.59 32.868 32.78 54.326 1.93 34.767 8.08 88.967-13.41 118.487-16.72 22.97-51.89 31.62-78.01 35.62-65.11 8-133.34 6.25-199.15 6.49-61.04.22-125.79 1.24-186.3-6.57-19.6-2.53-48.23-10.74-64.11-22.82-15.7-11.94-21.35-24.97-26.48-43.37-23.95 22.55-48.57 50.65-72.04 72.04-19.53 2.16-51.88.15-72.85.79-10.11.31-109.454 1.09-112.533-2.08-27.311-28.14-56.262-58.14-84.369-86.05-5.501-5.42-21.417-23.32-26.372-26.68-4.013-3.23-12.385-10.7-14.837-14.99-16.023-17.679-44.575-45.65-61.973-62.268-10.645-.984-29.45-.535-40.391-.543l-69.848-.019-222.523.073q.16 22.888-.159 45.775c94.422-1.068 191.64-.02 286.294-.068l-.084 50.74c-94.256-1.07-192.216 1.93-286.029-.5.069 15.78-.036 31.55-.312 47.32 39.777-1.75 89.508-.49 129.837-.5l241.614-.07c.639 16.14.372 33.25.346 49.48-45.361.97-92.645.33-138.121.33-60.338.32-120.679.01-181.011-.92-42.883-.92-119.118-3.33-148.985-35.96-19.385-20.47-19.653-47.53-19.646-74.05.011-38.475-2.867-70.77 27.794-99.071l.609.907c-11.262 12.828-15.053 16.869-21.071 33.302l-.721 2.542c-5.062 20.192-4.489 33.65-4.324 54.3-.459 62.27 8.124 94.61 76.506 107.42 58.584 10.97 117.572 7.88 176.833 8.92 76.454.68 153.335-.75 229.654.09l.01-44.99-240.323.08c-41.975.01-89.729-.97-131.463.45.75-15.84.682-35.63.326-51.7l195.626.14h56.69c10.083 0 24.473-.39 34.175.56l-.169-21.03.003-25.47-189.502.07c-31.2-.01-66.486-.753-97.299.39 1.366-7.225.862-41.27.847-50.624 12.83.169 25.908.205 38.732.058 96.569-1.113 193.865 1.677 290.343-.161l3.725.057c6.3 2.563 18.703 17.032 24.427 22.461l6.947 6.812c12.825 13.175 32.954 34.397 46.269 46.257 38.143 39.13 76.532 78.02 115.164 116.66l181.384-.09 74.04-74.76c6.11 22.97 13.5 40.91 35.96 52.33 19.22 9.77 41.31 14.55 62.58 17.19 60.01 7.46 120.92 4.68 181.25 5.34 72.22-.73 154.43 3.92 224.66-12.52 19.06-4.46 40.68-16.33 50.23-33.82 10.37-18.98 12.21-43.18 10.99-64.51.79-29.96 1.87-64.863-19.4-87.668-3.29-3.529-12.06-11.438-12.83-13.935"/><path fill="#979595" d="M802.759 1014.89c3.919 3.56 11.451 10.98 14.837 14.99-4.013-3.23-12.385-10.7-14.837-14.99"/><path fill="url(#d)" d="M1362.79 902.118c36.7-.877 82.73-.369 119.28-.325 52.97.063 159.17-3.538 208.02 13.687 8.55 1.795 24.51 7.619 30.35 14.217.77 2.497 9.54 10.406 12.83 13.935 21.27 22.805 20.19 57.708 19.4 87.668l-.91-5.68c.32-5.98-.02-11.14-.32-17.11-5.02 1.87-9.14 3.64-14.55 3.19-16.74-1.41-82.08 1.99-94.31-1.63l-.87-2.33-.92.94c-.38-.97-.8-5.57-.85-6.98-1.07-27.543-18.39-38.913-44.47-42.64-31.8-3.817-64.33-3.929-96.36-3.684-46.01.353-92.3-1.244-138.22 1.911-19.35 1.33-39.15 3.799-53.21 18.559-9.18 15.529-9.07 25.794-9.15 43.404-1.05 2.23-1.07 3.37-1.26 5.83-7.24 2.13-43.01-1.4-55.31 2.02-8.57 8.64-17.94 15.84-26.56 24.28-7.79 7.63-15.44 15.67-23.05 23.5l-.93-.25c-.29-.78-1.75-4.93-1.69-5.34.69-4.98 13.67-15.86 17.03-19.52 7.77-8.49 12.85-16.55 20.65-24.17-41.44.56-84.96.17-126.47-.14 27.33-26.861 55.07-57.66 82.61-83.671.72-2.534 3.16-3.022 4.14-7.176 3-5.957 20.49-22.119 26.19-27.338 1.61-2.289 4.44-3.801 6.85-5.396 37.6-.123 86.43-1.628 123.17.17 6.22-.03 12.7-.162 18.89.069"/><path fill="#979595" d="M1362.79 902.118c36.7-.877 82.73-.369 119.28-.325 52.97.063 159.17-3.538 208.02 13.687-19.74 3.875-330.02 3.28-336.74-.158-.76-4.648 3.01-3.288 2.43-9.561-2.68-1.995-6.71-1.343-10.28-1.251-5.79 5.862-8.44 8.693-15.13 13.36-13.3-2.168-34.23-1.418-48.17-1.403l-74.6-.019c3.5-3.719 4.76-4.498 6.28-9.173 1.61-2.289 4.44-3.801 6.85-5.396 37.6-.123 86.43-1.628 123.17.17 6.22-.03 12.7-.162 18.89.069"/><path fill="url(#e)" d="M1183.55 941.789c-2.59 10.351-26.62 22.905-26.06 31.041 5.43 3.606 103.37 2.391 118.95 2.68-16.29 16.485-32.75 33.81-49.03 50.09-41.44.56-84.96.17-126.47-.14 27.33-26.861 55.07-57.66 82.61-83.671"/><path fill="url(#f)" d="M1241.96 1027.1c6.28-7.17 49.61-52.985 55.78-56.293l1.3 2.265c3.12 1.889 3.8 1.838 7.52 2.563l1.12.211c-9.18 15.529-9.07 25.794-9.15 43.404-1.05 2.23-1.07 3.37-1.26 5.83-7.24 2.13-43.01-1.4-55.31 2.02"/><path fill="#7c7b7d" d="M1307.68 975.846c14.06-14.76 33.86-17.229 53.21-18.559 45.92-3.155 92.21-1.558 138.22-1.911 32.03-.245 64.56-.133 96.36 3.684 26.08 3.727 43.4 15.097 44.47 42.64.05 1.41.47 6.01.85 6.98l.23 17.09c.66 46.6-9.37 59.3-57.37 63.74-17.16 1.59-34.12 1.98-51.38 2.31-29.84.27-59.67.35-89.51.22-35.35 0-75.22.74-110.2-5.73-8.07-1.5-18.09-6.75-23.94-12.58-12.15-12.08-10.03-38.01-10.09-54.48.08-17.61-.03-27.875 9.15-43.404"/><path fill="#dddcdc" d="M1396.26 957.511c.45-.034.9-.076 1.35-.101 23.95-1.331 48.42-.356 72.42-.355 31.16.002 133.45-4.586 155.26 15.546 9.64 8.894 12.36 21.808 12.84 34.379.74 19.01 4 51.46-10.07 66.13-16.04 16.71-64.14 15.45-86.06 16.12-28.18 1.38-60.59.35-89.16.51-35.38.2-73.87.51-108.85-3.79-9.18-1.14-24.39-4.66-31.06-11.01-9.16-8.72-11.79-22.3-11.78-34.34 0-19.26-3.7-52.435 11.22-66.871 15.85-15.342 62.49-15.653 83.89-16.218"/><path fill="#aa0617" d="M1390.45 967.434c29.73-1.43 63.68-.19 93.89-.497 37.17.301 74.08-1.041 110.99 4.16 35.65 5.022 33.79 26.057 33.87 55.513.02 10.05.13 31.65-7.46 38.69-15.56 14.45-50.5 13.36-70.95 14.01-11.16.75-23.55.92-34.81.72-57.89-1.01-116.38 3.11-173.94-4.07-39.65-5.3-29.26-29.36-31.76-56.54-5.07-55.26 38.15-50.016 80.17-51.986"/><path fill="url(#g)" d="M708.649 902.15c36.615-1.435 80.303-.209 117.52-.225 6.286 5.841 31.835 29.822 35.373 36.073 2.476 9.108 18.154 21.88 25.747 29.355l4.237 3.86c-13.28 9.283-111.06-1.096-121.383 8.01l-6.947-6.812c-5.724-5.429-18.127-19.898-24.427-22.461-.689-3.635-38.978-41.598-44.458-46.199 6.153-.751 7.299.718 14.338-1.601"/><path fill="#dddcdc" d="m887.289 967.353 4.237 3.86c-13.28 9.283-111.06-1.096-121.383 8.01l-6.947-6.812c17.063-6.427 47.151-1.163 65.31-2.928 16.25-1.58 43.886 1.34 58.783-2.13"/><path fill="url(#h)" d="M891.526 971.213c17.99 17.884 35.453 36.227 53.347 54.137-36.056.96-72.458-.17-108.544.26-6.373.08-13.59.22-19.917-.13-13.315-11.86-33.444-33.082-46.269-46.257 10.323-9.106 108.103 1.273 121.383-8.01"/><path fill="#7c7b7d" d="M1187.69 934.613c-.98 4.154-3.42 4.642-4.14 7.176-27.54 26.011-55.28 56.81-82.61 83.671l-77.94 78.43-78.127-78.54c-17.894-17.91-35.357-36.253-53.347-54.137l-4.237-3.86c-7.593-7.475-23.271-20.247-25.747-29.355a13984 13984 0 0 0 116.007 117.112c4.299 2.63 10.119 9.2 13.566 13.08l.137.94c9.768 10.56 21.568 21.88 31.818 32.17 54.28-55.74 110.9-110.68 164.62-166.687"/><path fill="#979595" d="M977.549 1055.11c4.299 2.63 10.119 9.2 13.566 13.08l.137.94c-2.184-1.43-11.775-11.65-13.703-14.02"/></svg>