<svg xmlns="http://www.w3.org/2000/svg" width="2048" height="600" preserveAspectRatio="none" style="display:block" viewBox="0 0 2048 600"><path fill="#c1000e" d="M1559.6 95.468c51.98-1.887 105.66.595 157.82-.297 37.06-.633 78.14-1.624 113.94 7.139 33.67 8.507 65 24.449 91.7 46.654a233.2 233.2 0 0 1 83.53 158.424 232.14 232.14 0 0 1-53.19 169.695c-44.14 52.906-99.31 77.678-166.75 83.765-43.91 1.019-90.01.008-134.05.182-93.91.372-165.65 8.38-241.61-60.069a232.8 232.8 0 0 1-76.75-161.08 232.14 232.14 0 0 1 59.92-167.627c44.03-48.691 100.41-73.512 165.44-76.786m225.16 373.466c11.57-2.106 21.79-4.716 32.2-10.524 52.17-29.119 81.76-97.421 70.87-155.794-8.98-48.099-44.29-103.156-95.52-113.669-13.64-2.801-31.22-1.99-45.36-1.998l-54.17-.012c-40.6-.001-93.83-1.556-133.57.336-32.09 4.101-54.23 19.814-74.02 44.828-53.12 67.143-41.99 162.505 24.15 216.47 35.86 29.258 92.28 20.596 136.75 20.867 45.12.275 93.85 1.482 138.67-.504"/><path fill="#036497" d="M1542.15 220.907c11.87-.843 34.32-.105 46.99-.104-21.45 7.732-44.37 26.744-58.93 44.197h47.17c4.89-16.439 12.74-30.081 22.19-44.197h31.37c-14.07 13.163-21.5 26.69-28.74 44.197h58.93v-44.197h23.74V265h54.98c-8.01-19.578-14.49-29.411-29.11-44.197h31.21c11.02 14.22 16.36 27.566 22.86 44.197h47.06c-18.84-22.219-33.03-31.358-58.86-44.197h46.7c61.03 47.683 78.35 115.049 31.1 179.739a173 173 0 0 1-29.16 28.491h-45.68c22.26-11.03 33.15-18.467 50.62-36.033h-44.41c-6.88 15.442-9.28 21.437-18.99 36.033h-30.6c11.92-11.623 17.11-21.344 24.41-36.033h-52.13v36.033h-23.74V393h-55.93c4.8 13.385 14.28 25.999 24.18 36.033h-30.62c-8.68-12.335-13.33-22.195-18.94-36.033h-44.4c16.7 17.051 29.1 25.863 50.85 36.033h-46.4c-35.97-30.3-60.77-67.357-54.96-116.735 4.58-38.931 27.14-67.748 57.24-91.391m-33.78 117.29c2.52 12.677 4.74 20.035 10.83 31.606h53.58c-1.96-10.492-3.87-20.907-4.26-31.606zm176.5-23.394h65.2c-.89-9.029-1.6-17.632-3.46-26.536l-61.74-.07zm-118.76 0 1.62-.498c1.95-6.678 2.49-18.487 3.77-26.108h-55.75c-3.46 9.373-5.86 16.618-7.39 26.606zm25.82 23.394c1.12 11.95 2.46 19.874 4.71 31.606h64.49v-31.606zm181.41-23.394h60.14c-1.72-9.709-3.43-17.423-7.52-26.549l-55.72-.057c1.56 9.351 2.81 17.106 3.1 26.606m-112.21-26.606h-65.91c-1.63 9.671-2.53 16.832-3.33 26.606h67.93c2.29-2.573 1.36-22.122 1.31-26.606m112.37 50c-.88 10.535-2.07 21.227-4.46 31.548 7.61.047 52.66 1.804 55.1-2.249 4.89-11.372 7.04-17.105 9.44-29.299zm-88.63 0v31.606c7.41.032 56.94.913 60-.962l.9-2.059c2.12-10.129 3.09-18.205 4.2-28.505z"/><path fill="#c1000e" d="M278.785 30.606c13.213-1.28 34.108-.748 47.805-.745l79.522.016 260.68.004V147.04l-257.229.001-72.126-.067c-24.057-.019-48.269-1.263-71.792 3.911a144.6 144.6 0 0 0-71.379 38.933 147.54 147.54 0 0 0-43.278 105.212 149.05 149.05 0 0 0 43.118 105.746 146.13 146.13 0 0 0 69.476 38.673c27.925 6.711 85.621 4.447 116.737 4.445l171.394-.012V378H337.881V261.122h328.911V561l-256.921.028-76.125.02c-31.08-.005-55.979 1.016-86.779-5.32a266.4 266.4 0 0 1-115.385-54.948 266.16 266.16 0 0 1-96.538-179.751 264.02 264.02 0 0 1 58.961-193.656c47.349-57.503 111.079-89.696 184.78-96.767m620.001 72.007c5.758-.636 14.196-.672 20.078-.682l182.496-.054 61.06.02c53.54.029 90.74.151 131.63 41.014 26.2 25.939 41 61.247 41.11 98.118a119.72 119.72 0 0 1-34.89 85.097c-40.07 39.992-84.56 40.236-136.99 40.205l-69.17-.065-245.902.021v-93.326l239.002.005q33.435-.223 66.87-.06c13.24.122 26.74.697 39.93.139 16.37-.694 25.54-15.57 23.63-30.858a28.47 28.47 0 0 0-10.94-19.357c-1.66-1.282-4.23-3.043-6.31-3.18-15.03-.989-30.91-.648-45.96-.658l-86.15-.022-102.892.032c-59.235.036-100.723-5.313-140.44 47.045-13.428 20.495-20.14 40.397-20.185 65.129a112.06 112.06 0 0 0 32.499 80.189c36.02 36.025 73.551 32.525 120.275 32.539l77.333.013 288.08-.036V561l-286.21.012-82.98.039c-27.895.005-53.684 1.076-81.268-4.454a229.8 229.8 0 0 1-100.099-47.375 229.8 229.8 0 0 1-83.735-155.153 228.37 228.37 0 0 1 50.866-167.647c40.672-49.606 95.803-77.558 159.262-83.809"/></svg>