<svg xmlns="http://www.w3.org/2000/svg" width="3840" height="2160" preserveAspectRatio="none" style="display:block" viewBox="0 0 2160 2160"><path fill="#3d3a3a" d="M752.331 950.794c10.557-.806 27.523-2.769 34.977 5.87 8.311 9.632 10.77 21.004 10.869 33.361.458 57.685.145 115.395.154 173.085.817 14.82-2.328 47.3-21.47 49.24-16.514 1.68-37.191 1.02-54.236 1l-100.623-.11c-11.375.21-24.061 2.05-31.753-8.14-11.932-15.81-9.767-37.74-9.778-56.45l-.024-56.17.014-67.39c.016-25.228-4.697-55.71 16.636-72.97 48.087-2.909 106.261-1.226 155.234-1.326m-143.29 208.996c52.579.03 107.943.93 160.297-.14l.047-155.6c-50.24.3-110.821 1.71-160.224-.07-1.092 43.18.32 86.85-.212 130.08-.102 8.35-.248 17.41.092 25.73M1661.49 950.536c58.63-1.798 119.03.616 177.76.272 29.12.329 26.4 50.062 25.58 70.082-1.06 25.79 5.17 63.12-11.08 84.43-5.25 6.88-19.61 6.46-27.35 6.27 3.21 6.6 6.32 13.97 9.03 20.79 10.55 26.5 22.8 52.96 32.61 79.69-13.04-.06-23.65.02-36.67.87-2.94-7.02-5.82-14.07-8.62-21.15-10.9-23.24-23.25-55.57-33.1-79.94-33.38-.33-66.75-.42-100.13-.29.54 33.45.04 68.21.03 101.77-5.17-.09-23.52.63-27.26.05-1.79-7.61-1.29-31.5-1.29-40.44l-.03-69.51.02-98.39c.01-15.425-.7-39.6.5-54.504m28.22 110.414c45.15-.22 101.09-1.68 145.35-.02.17-19.38.21-38.76.1-58.14l-145.64-.13c.05 18.79-.38 39.69.19 58.29M50.68 950.417l200.807-.007c1.148 12.133.295 40.001.278 53.3l-130.193.01c-19.844 0-43.688.6-63.258-.36v155.56c54.676 1.41 121.223.8 176.099-.04q-.368-25.365.15-50.73h-95.872l-37.989-.04c-.33-17.29-.069-35.41-.086-52.77h163.432c-1.658 29.24.703 60.15-.263 89.56-.843 25.68 4.933 48.76-17.606 66.84-28.813 1.8-73.519-.65-103.295.3-14.626.47-88.35.73-98.576-1.85-5.656-4.45-8.803-9.02-11.517-15.76a58.1 58.1 0 0 1-4.071-17.02c-.897-10.78-.476-25.66-.49-36.86l-.035-62.58.026-59.11c.021-22.709-3.991-59.035 22.46-68.443m266.622.107c23.532-.633 49.464-.101 73.146-.105l139.207-.015.02 53.386-120.598-.09c-19.02 0-45.377.75-63.623-.43l.108 52.03c59.882.04 120.842.65 180.636-.11-.301 16.8-.035 34.36-.026 51.22-33.134-1.36-74.234-.2-107.989-.19l-72.684-.08-.032 52.65c40.773 1.59 82.887-.48 123.794.32 19.598.38 40.914.34 60.415-.38l.011 55.91c-20.272.96-49.775.04-70.666.04l-142.024-.09c-2.021-53.65-.242-118.11-.264-172.6l-.148-58.513c-.02-8.575-.507-25.04.717-32.953m832.187 1.384c69.5 1.337 143.33.056 213.18.064.03 16.128.55 35.944-.41 51.758l-184.2-.09.43 51.87 180.43-.17c-.73 15.32-.17 35.28-.19 50.95-34.13-.75-70.9-.06-105.23-.07-25.12.09-50.23.03-75.34-.18l-.06 52.82 184.48-.01.06 53.26c-21.06-1.07-50.88-.13-72.48-.13l-140.59.01c1.08-85.07.67-174.92-.08-260.082m-83.69-.819 29.55-.021c1.64 40.732.18 89.422.22 131.002.03 41.46 1.43 91.76-.34 132.59l-28.28-.07v-158.32c-.1-11.55 0-23.11.32-34.66-13.59 21.5-28.98 43.71-43.07 65.09a6877 6877 0 0 1-50.585 77.09c-30.595-46.32-65.014-94.93-94.035-141.82.77 62.34.924 130.27-.046 192.53l-27.935.48c-.844-87.96-1.087-175.93-.731-263.893l29.172-.017 93.168 141.82a8172 8172 0 0 0 92.592-141.801m337.66-.12c23.27.792 50.53.111 74.04.112l141.79-.003-.04 53.112c-30.84.1-61.69.04-92.53-.19l.04 117.66c.14 30.71.08 61.43-.17 92.14-5.53-.82-23.22-.63-30.05-.81-.6-22.7-.08-47.53-.09-70.5l.09-138.8-92.79-.02zm482.09.199c13.73-.319 30.5-.402 44.01.689 23.99 36.569 53.49 85.673 78.15 119.453 3.42-4.34 6.95-9.86 9.94-14.53 22.28-34.8 45.62-69.365 67.13-104.619 15.48-.986 31-1.015 46.47-.087-7.53 9.51-17.44 26.03-24.27 36.705a5674 5674 0 0 1-44.92 69.891c-13.2 20.9-26.84 41.39-39.85 62.46 1.28 27.69.21 65.01.15 93.43-9.13.37-20.35.06-29.65.07-1.18-29.42-.18-65.64-.17-95.59-25.16-41.1-54.19-82.17-79.31-123.579-8.84-14.583-19.35-29.507-27.68-44.293"/></svg>