<svg xmlns="http://www.w3.org/2000/svg" width="3840" height="2160" preserveAspectRatio="none" style="display:block" viewBox="0 0 2160 2160"><path fill="#627b80" d="M1049.2 67.522c19.9-.431 43.87-.95 63.56.3 4.44.603 10.01 2.404 15.2 3.187 116.36 17.551 216.87 99.54 286.73 192.006 136.71 180.924 202.36 422.285 224.12 645.704 2.69 27.658 4.55 55.582 6.28 83.331.5 8.01 2.82 26.17 2.36 32.97 1.46 12.79.82 38.82.78 52.57-.04 15.05.67 40.41-.73 54.76.64 4.04-2.21 30.06-2.65 36.5-1.66 23.73-2.96 47.34-5.18 71.05-20.87 223.04-82.57 457.41-214.52 641.05-71.26 99.18-172.06 185.03-294.39 205.77-12.53 2.12-13.88 6.53-27.76 5.8-15.45.46-31.59.23-47.05.03-6.27.26-8.66.65-14.4-2.02-8.31-3.87-18.28-4.72-27.45-6.62a313 313 0 0 1-31.175-7.93c-55.836-17.12-109.271-49.84-152.943-88.56-207.946-184.37-295.723-517.62-313.997-786.12-21.895-321.715 42.318-724.628 259.019-976.013 60.689-70.402 151.592-136.231 243.886-151.876 8.63-1.463 22.34-5.35 30.31-5.889"/><path fill="#a0aaad" d="M1647.45 1025.02c1.46 12.79.82 38.82.78 52.57-.04 15.05.67 40.41-.73 54.76-1.18-1.58-1.77-1.77-1.74-3.98.14-14.65-2.84-97.36 1.69-103.35"/><path fill="#fcfdfc" d="m1055.95 2092.55-3.29-1.73v-1.6c5.55-3.37 27.14-.17 34.64-.61 5.32-.32 16.67-2.37 20.81.6-1.01 2.39-2.07 1.2-5.11 3.31-15.45.46-31.59.23-47.05.03"/><path fill="#a0aaad" d="M1049.2 67.522c19.9-.431 43.87-.95 63.56.3-5.13 5.178-60.58 4.293-63.99 1.55z"/><path fill="#fcfdfc" d="M1055.49 168.104c19.21-.28 34.34-1.184 53.75.64 69.95 6.576 139.09 42.216 191.89 88.205 184.77 160.951 266.22 454.942 285.13 690.602 23.73 295.679-31.56 661.149-226.85 894.599-63.23 75.58-154.83 139.45-255.41 147.19-92.31 6.18-172.946-26.1-242.434-85.4-185.297-158.13-267.496-449.76-287.901-683.43-25.882-296.398 27.983-663.124 221.264-899.439 64.785-79.209 156.455-143.82 260.561-152.967"/><path fill="#f69a0d" d="M920.862 239.221c87.168-58.738 222.728-61.432 310.988-3.617l5.13 2.624c56.96 30.676 120.28 99.863 156.19 152.745 8.19 12.051 16 24.593 23.57 37.026 1.82 2.986 8.19 13.982 9.8 15.782 1.36 2.527 7.15 12.982 7.75 15.05 4.36 7.031 6.91 11.477 10.49 18.907 1.12 2.064 3.75 6.37 4.04 8.375 21.39 37.118 47.34 106.251 60.58 146.622 83.19 253.613 89.55 566.035 20.22 824.045a1128.3 1128.3 0 0 1-66.24 185.74c-9.88 21.38-19.89 39.24-30.1 59.66l-3.66 5.46c-19.12 40.41-77.46 117.67-111.03 148.06-.82 7.33 2.77 5.08 3.17 12.32-4.63-.98-.35-3.55-9.89-5.81-9.04 8.62-23.72 22.16-34.04 29.09l-7.08 5.41c-31.38 24.98-77.03 47.26-115.39 57.71-10.21 2.78-58.59 12.88-65.41 8.95 5.26-5.59 12.46-10.33 15.49-17.99 7.84-19.77 14.04-40.32 20.6-60.56l35.78-110.61 87.15-268.77c16.65-51.46 34.1-109.56 52.3-159.94l.26-.6c.91-5.38 7.54-24.77 9.51-30.83l22.54-69.25c6.01-18.43 14.39-38.87 15.83-58.15 1.57-20.89-2.04-45.96-15.78-62.54-9.94-12-26.62-9.72-40.49-9.96-57.3-.99-115.58 1.81-172.76-.23-8.22 1.37-86.96 1.07-93.8-.07-13.77 1.03-33.575.46-47.952.47l-86.352-.06c6.2 22.6 14.31 47.02 21.121 69.6 5.209 17.27 11.65 40.33 17.839 56.92l321.764.05c-6.6 22.05-14.91 45.68-22.08 67.75l-45.52 140.12-106.07 326.71c-32.25-104.93-68.9-213.34-102.922-317.97l-148.354-457.25a514 514 0 0 1-7.251-23.331c-5.339-13.738-10.956-32.782-15.565-47.027l-28.096-86.892-18.86-58c-3.671-11.282-9.425-27.595-11.466-38.784 3.68-1.788 72.68-.985 82.907-.986l164.393-.017 419.374.199c-4.33 14.349-11.2 32.446-16.15 46.878 9.41 8.994 55.41 59.973 62.22 61.088l.29-.978 27.4-82.649c13.97-41.79 35.39-86.447 14.32-129.602-5.03-10.306-11.6-16.154-21.65-21.297l-801.248.004c-7.867 4.518-12.813 7.811-17.825 15.732-14.164 22.384-15.726 52.173-8.097 76.973 10.626 34.545 21.955 68.603 33.082 102.834l61.228 188.895 191.853 591.4 82.417 254.39 20.01 61.73c7.66 23.69 8.54 36.4 28.64 52.6-3.88 2.73-34.21-1.91-40.05-2.99-75.42-13.95-122.334-46.37-178.222-93.49l-9.075-8.93c-27.615-25.88-70.171-77.6-89.169-110.11l-3.155-5.35-.737-.46c-2.337-3.51-4.396-6.87-6.586-10.48-7.327-14.85-18.578-28.74-25.492-45.87l-1.183-1.46c-2.48-3.36-14.281-27.91-16.752-33.12A1144.5 1144.5 0 0 1 629.2 1456.4c-76.125-283.66-61.878-637.911 52.323-909.514 17.085-40.634 36.303-77.506 58.301-115.562.849-1.07 2.349-3.713 3.132-4.998 38.904-63.803 94.062-131.505 156.703-173.612 5.824-4.35 14.827-9.975 21.203-13.493"/><path fill="#f9a412" d="M920.862 239.221c2.602 3.224 4.495 5.573 6.776 9.015l-.367 1.42-1.213-.606c-3.131-1.54-4.481-2.549-7.964-2.566l-1.359.926c-6.421 4.322-9.029 5.347-17.076 5.304 5.824-4.35 14.827-9.975 21.203-13.493m505.678 204.56c1.36 2.527 7.15 12.982 7.75 15.05-6.25 3.767-2.03 6.31-6.1 7.14-.78-1.213-1.18-1.647-1.68-2.98 1.13-2.592 1.64-5.727 2.25-8.527l-1.65-.709c-3.32 1.397-2.1 1.455-5.26 1.114.3-4.145 3.54-4.685 4.69-11.088M842.633 1857.96c5.773-.32 5.448.83 8.602-4.43l6.448-1.83c-.371 4.88-7.947 3.08-5.975 15.19zm-99.647-126.4c4.641 1.61 5.332 1.8 10.175 1.18l.515.69-1.248 1.56c-2.536 3.19-2.626 2.96-2.856 7.05-2.337-3.51-4.396-6.87-6.586-10.48M1444.78 477.738c1.12 2.064 3.75 6.37 4.04 8.375-3.48 2.213-2.24 3.899-5.39 6.623l-1.36-.665c.16-7.342 3.68-6.087 2.71-14.333"/><path fill="#fafaf3" d="M1318.59 1855.7c-.82 7.33 2.77 5.08 3.17 12.32-4.63-.98-.35-3.55-9.89-5.81 1.39-1.13 5.25-5.08 6.72-6.51"/><path fill="#f9a412" d="M1270.75 1896.71c-1.79-2.85-3.2-4.31-2.94-7.6l2.04-.12c3.53 2.05 3.89 2.17 7.98 2.31z"/><path d="m1370.45 925.72 74.77-.039c-16.5 57.364-38.77 116.719-55.91 174.579l-16.64.05c9.18-25.73 17.96-54.99 26.45-81.2l3.65-9.93c-14.4.64-28.81.99-43.22 1.06-7.78 28.32-19.18 61.6-28.09 90.05l-16.94-.03c13.93-40.34 25.73-82.88 39.33-123.43 5.47-16.322 10.5-35.224 16.6-51.11"/><path fill="#f69a0d" d="M1378.73 951.313c14.06-.134 28.12-.057 42.17.233-2.58 9.519-7.26 22.605-10.43 32.256-11.25.793-30.65.233-42.39.223 1.62-6.899 7.77-26.639 10.65-32.712"/><path d="M841.278 926.065c-2.922-.742-8.644-.548-11.718-.463l-.456-1.135 2.617-4.119c3.89.299-.903.093 3.184-.253 29.872-2.525 60.617.838 90.621-.857l1.745-.307c3.42 2.287 2.184.844 4.015 4.348l-.979 1.388c-1.073 8.12-.517 26.049-.577 35.029-4.436.063-8.821.724-12.479-1.52-2.148-2.847-1.991-2.707-2.98-6.169-9.062-3.797-57.351-.459-70.962-.581l4.473 13.288 1.829 4.151c2.224 8.589 5.25 17.854 8.209 26.252 8.37 23.763 15.316 48.563 23.955 72.183 6.281-19.58 13.18-40 19.022-59.64l-23.486.03c-.214-7.37-.779-17.361-.361-24.49 8.455-.423 28.503-2.437 35.369.755 3.724 4.354 6.842 11.671 5.768 16.425-3.726 16.51-24.892 89.35-32.963 98.78-13.145 4.14-17.452-26.22-20.93-35.55-8.91-23.9-15.312-50.28-24.802-73.856-.89-5.305-9.312-29.121-11.485-35.597-1.414-5.05-3.402-15.826-.834-20.619 3.278-6.119 9.085-5.973 14.205-7.473"/><path fill="#f9a412" d="M841.278 926.065c-2.922-.742-8.644-.548-11.718-.463l-.456-1.135 2.617-4.119c3.89.299-.903.093 3.184-.253 29.872-2.525 60.617.838 90.621-.857l1.745-.307c3.42 2.287 2.184.844 4.015 4.348l-.979 1.388c-26.684.902-64.166-.355-89.029 1.398"/><path d="M1069.82 925.14c5.08-.086 10.69.057 15.8.089-2.2 8.307-4.75 16.617-7.23 24.861-14.75 49.109-28.73 98.48-43.79 147.49-.61 1.97-2.14 3.33-3.63 4.61l-2.06.37c-8.62-5.57-10.28-37.26-11.76-48.02-3.82-27.37-7.48-54.771-10.97-82.191l-37.763 127.921-16.563-.06c18.408-55.4 32.556-112.908 50.716-168.463.81-2.47 1.59-3.682 3.68-5.213 6.44-.846 8.11 3.614 9.08 9.329 6.58 38.879 9.38 79.337 16.51 118.047zm35.44-.084c19.43.065 38.86.018 58.28-.143-2.73 7.321-5.05 16.903-7.14 24.596l-42.47-.063-9.8 32.387q22.095-.023 44.19-.333c-2.65 7.52-4.89 16.763-6.99 24.58-14.4-.23-28.48.15-42.93-.49-6.1 20.36-11.41 43.21-18.08 63.03-.41 2.65-.68 2.67.42 5.03 5.5 2.54 33.32 1.19 41.33 1.26-1.77 9.05-4.46 15.19-6.03 25.38l-61-.08q17.52-58.427 33.57-117.264c4.44-15.868 11.13-43.258 16.65-57.89m87.58-.011 68.55.139-7.61 25.598c-8.42-.4-17.96-.281-26.46-.367-4.75 10.498-10.91 31.87-14.81 43.997l-27.04 84.248-7.13 21.57-15.69-.11c1.74-6.61 4.29-14.22 6.54-20.76 14.57-42.36 26.3-86.782 41.62-128.776-7.97-.375-17.86-.16-25.98-.213 2.23-7.614 5-18.244 8.01-25.326m89.07-.056 68.91.134c-2.22 7.661-4.95 18.099-7.8 25.306l-26.32.027c-4.72 11.298-9.29 27.131-13.16 39.186l-22.44 69.958c-3.97 12.38-8.79 28.85-13.45 40.68-5.29.01-10.77-.06-16.04.13 10.54-29.19 20.07-61.88 29.76-91.6 4.99-15.324 14.96-43.585 18.43-58.349-8.14.029-17.58-.171-25.6.208 2.46-8.057 4.87-16.135 7.2-24.231zm-315.562.07 15.292-.033c-6.631 20.857-12.772 44.21-18.898 65.308-5.392 18.566-12.029 40.106-16.563 58.706-.012 6.85 2.168 8.84 2.453 14.87l-1.468.69c-2.327-1.87-2.291-2.16-3.917-4.73-2.077 4.51-9.987 33.89-11.841 40.39-4.992-.2-11.315.11-16.409.21 17.802-56.34 32.767-120.687 51.351-175.411"/><path fill="#f9a412" d="M943.247 1059.87c.182-2.3 2.178-8.31 2.932-10.83-.012 6.85 2.168 8.84 2.453 14.87l-1.468.69c-2.327-1.87-2.291-2.16-3.917-4.73m502.493-139.886-.44 1.366c-3.84 1.562-66.26 1.659-73.41.878l-.85-1.489c5.21-3.378 57.77.243 68.59-1.364zm-164.34 6.454-1.95-2.202c.42-3.333-.35-2.083 2.11-4.018 6.5-1.154 61.09-1.393 68.4-.317l.79 1.507c-12.37 6.381-59.57-4.706-68.84 3.581zm-209.05 180.872c-4.49-2.58-10.81.31-16.17-2.26 6.76-2.05 51.65-2.5 58.4-.91.96 2.03.82.97.38 3.21-11.59-.83-30.46-.14-42.61-.04m117.52-188.384c13.46 2.464 54.11-.509 69.74.39a584 584 0 0 0 2.59 1.997c-7.34 2.558-53.31.874-63.94 1.167-4.93.136-5.66-.598-8.39-3.554m-85.84-.167c14.06 2.41 47.47-.862 57.43 1.63l.9 1.952c-14.85.559-41.04.745-56.29-.521-1.39-.115-1.38-1.342-2.04-3.061m-5.33 89.931c9.43 1.37 37.99-.59 43.29 1.54l-.13 2.29c-11.51-.28-31.8.57-42.06-1.03zm-222.421-31.503c6.325-.448 33.702-2.089 37.693 1.064-.635.371-1.651 1.036-2.345 1.022-7.865-.159-29.451 2.53-35.348-2.086M747.29 433.566l2.416.393c.455 3.661-3.17 8.934-5.975 11.351l-1.667-.56c-.884-2.549-.779-1.756-.958-4.416 2.204-2.267 4.097-4.392 6.184-6.768m217.908 486.669c5.613-.689 11.742-2.279 16.111 1.678-5.601.677-11.845 2.253-16.111-1.678m474.432-.86-.46-2.793c3.68-2.071 1.78-1.605 5.87-1.631l1.67 1.584c-.29 1.143-.54 2.384-.97 3.449zm15.9-54.73a2.874 2.874 0 0 1 4.04.597 2.885 2.885 0 0 1-.62 4.043 2.89 2.89 0 0 1-4.02-.623 2.89 2.89 0 0 1 .6-4.017"/><path d="M678.967 642.337c9.378-1.117 31.769-.544 42.216-.54l80.842.044 264.685-.001 280.95-.021 85.91-.046c12.67-.004 35.67-.632 47.26.759 31.36 23.792 11.26 67.687 1.27 96.775l-27.36 79.118a2031 2031 0 0 1-39.03-40.423c6.42-18.448 13.74-36.673 20.2-55.417l-712.782.027L1079.65 1821.07c11.12-38.82 26.83-82.09 39.12-121.19 31.16-99.16 65.42-198.22 96.36-297.39 2.9-7.9 5.62-16.69 8.13-24.77 16.78-53.93 35.91-107.55 52.22-161.59-111.42 1.42-224.46-.6-336.139.19-7.49-25.65-15.377-55.05-24.052-80.02 61.516 1.9 131.521.2 193.581.29 68.31.1 143.31 1.52 211.19-.3 22.84 16.86 19.32 47.18 11.08 70.68-5.65 16.13-10.83 32.88-16.06 49.16l-50.28 155.05-123.53 380.71c-13.83 42.08-27 84.54-40.91 126.6-2.58 7.78-5.51 14.21-11.44 20.04-7.13 7.02-20.64 2.52-24.16-5.95-12.19-29.29-21.3-61.13-31.16-91.54l-74.458-229.59-194.778-600.58-64.312-198.263c-11.888-36.596-23.953-73.237-35.509-109.923-3.41-10.879-4.281-22.063-1.991-33.248 2.626-12.829 5.406-19.65 16.415-27.099"/><path fill="#fafaf3" d="M1288.55 258.032c8.57.038 10.72 7.936 12.28 14.641l-2.46-1.087c-3.09-4.718-8.72-9.438-9.82-13.554M1094.4 1971.21c3.07-.18 3.79-.06 4.85 2.73-2.35 2-5.7 1.65-9.23 3.19l-.53 1.27-1.4.56-1.21-1.7c2.13-4.32 2.21-3.24 7.52-6.05m275.14-1632.067c2.89 1.782 2.02 1.228 4.36 3.91.09 4.506.14 3.021-2.64 7.469-1.66-2.191-2.95-3.577-4.97-5.438.07-3.311.54-2.724 3.25-5.941M681.917 512.044c1.935 1.111 1.529.976 3.133 2.648 1.059 3.51.432 4.466-.633 7.961l-3.377-3.729c-.791-4.457-.878-2.227.877-6.88M1286.83 1889.38c4.55 1.89 7.38 4.37 7.6 9.21-5.75-1.95-7.07-3.29-7.6-9.21"/></svg>