<svg xmlns="http://www.w3.org/2000/svg" width="1192" height="281" preserveAspectRatio="none" style="display:block" viewBox="0 0 2048 483"><path fill="#ee1c23" d="M1683.21 211.445c8.62-.686 23.96-1.35 25.77 9.324-5.38 23.841-74.08 38.332-88.05 47.649a119 119 0 0 0 4.81 3.55c30.52 21.245 77.5 1.243 109.54-9.816 20.3-7.004 38.92-21.611 61.5-24.73 45.34-6.264 4.92 24.499 7.12 37.222 14.27 8.228 120.31-50.279 143.44-49.823 4.1.081 7.05 1.251 9.91 4.221 2.1 11.552-29.64 44.172-37.52 57.715 18.96-9.135 80.46-38.029 97.92-31.968l.06 3.209c-16.03 12.642-78.47 31.471-99.95 41.413-36.63 16.849-66.69 44.721-102.81 62.918-7.12 3.584-14.59 7.653-22.22 10.046-7.51 2.353-36.19 9.944-40.59 1.687 2.07-7.993 21.11-16.75 28.38-20.782l44.51-24.986c11.45-6.443 23.25-12.548 33.53-20.715 7.33-5.827 30.46-35.555 27.39-43.968-4.38-1.297-36.16 13.875-43.61 16.251-21.33 6.881-43.41 15.569-65.8 18.068-21.82 2.435-21.61-11.885-22.73-27.924-9.47 3.372-18.99 7.784-28.51 11.365-39.2 14.752-117.86 37.021-146.14-5.841-10.76 3.738-23.2 8.862-35.06 12.289-20.69 5.978-79.82 36.73-97.27 18.433-15.34-16.077.84-50.26 27.05-23.077 3.85-6.559 13.44-28.43 8.53-35.103-12.78-6.648-175.58 69.488-201.46 65.403-6.04-.952-11.68-2.813-15.75-7.774-2.54-3.085-4.86-9.889-4.23-13.834.76-4.661 2.71-8.352 6.37-11.111 12.98-9.78 22.87 1.586 24.99 1.847 4.9-5.12 12.56-25.406 9.48-31.56-5.2-4.739-9.77-2.72-15.98-.598-47.58 16.257-195.8 85.966-231.49 27.472-17.44 6.564-30.85 10.07-48.8 13.466-28.57 5.407-40.813-23.062-57.369-25.235-23.015-3.02-58.13 20.319-79.151 29.136-11.632 4.879-50.271 21.901-61.488 12.757-7.166-12.301 23.924-38.909 23.423-49.07l-1.624-1.305c-13.015-1.034-78.791 34.718-100.029 35.387-26.513.835-30.606-1.181-51.53-16.165-21.553-15.595-33.061-3.685-57.106 4.911-19.262 6.886-76.785 37.495-97.328 28.959-12.063-5.013 24.622-41.522 23.198-51.531-2.552-1.07-11.774 1.215-14.491 2.583-36.103 18.174-180.442 70.65-204.204 20.233-7.178 2.466-47.869 15.732-52.531 9.523 3.157-9.87 42.669-18.665 53.274-21.129 16.994-40.573 67.197-53.465 107.05-54.898 6.574-.236 24.529 2.76 22.274 11.082-5.508 20.32-40.624 29.504-57.474 36.223-7.94 3.166-20.33 4.242-25.588 8.843-2.178 4.606.888 9.584 4.978 11.044 49.729 17.752 112.22-24.499 158.07-40.982 14.645-5.265 25.773-10.52 41.13-13.437 70.593-11.868 5.971 39.595-4.969 54.775 38.226-12.678 92.146-52.491 134.936-29.741 10.362 6.781 20.015 19.73 33.492 19.562 20.98-.262 140.724-71.803 154.002-41.443.184 13.987-26.17 35.064-35.255 47.616 35.639-6.686 96.879-55.53 135.009-25.055 7.671 6.134 10.411 11.84 20.261 17.813 15.36 1.297 25.24-1.687 39.14-7.71 11.52-16.817 24.52-28.582 43.24-37.483 23.38-11.111 54.25-16.019 79.5-9.668 14.8 3.725 4.17 18.538-3.85 22.69-14.24 10.151-29.64 15.645-46.3 20.891-6.64 2.093-25.25 5.695-28.77 13.385-.42.924.33 1.829.81 2.813 36.39 26.33 144.8-27.845 184.25-42.801 15.06-5.711 72.14-38.379 77.68-3.846 2.76 17.216-20.48 39.785-31.34 53.374 17.42-.446 32.71-8.233 48.89-14.804a5537 5537 0 0 0 62.89-25.905c24.53-10.345 55.38-27.163 81.3-28.725 51.32-3.092-3.33 58.157-13.88 70.449 17.72-1.745 52.15-16.55 70.09-23.399 22.3-38.032 61.49-47.606 103.06-49.655m-575.98 44.49c8.51-1.621 33.46-10.78 34.38-20.254-1.6-2.782-3.26-2.775-6.52-2.588-10.14 2.773-29.03 9.28-34.71 18.703l-.06 2.445c2.82 2.217 2.71 1.536 6.91 1.694m521.07-2.146c9.43-2.093 37.99-9.614 35.19-22.986-1.87-.626-2.36-.842-4.33-.78-7.1 2.323-37.15 12.687-34.83 22.057 1.24.584 2.67 1.327 3.97 1.709m-1249.608 5.388c8.968-3.009 29.073-10.615 33.922-18.976l-.041-2.332c-2.526-1.582-2.726-1.01-6.098-.788-8.224 3.355-30.285 11.095-33.995 18.65.678 3.923 2.567 3.387 6.212 3.446m-84.369-103.86c1.714-.368 9.292-.347 11.489-.379-.215 11.74-1.084 22.75-4.155 34.131-3.153 11.687-7.867 22.935-13.121 33.819-10.832 22.439-58.004 106.944-76.281 117.26-3.419 1.929-6.934 2.568-10.727 1.487-14.658-13.668 26.581-79.784 22.906-92.872-.245-.873-.604-1.005-1.371-1.433-11.433-6.39-110.203 5.959-127.584 10.911-5.855 1.669-14.64 3.899-17.76 9.542-3.753 6.793-4.058 16.954-1.877 24.293.893 3.006 2.428 5.91 5.296 7.426 6.804 3.599 21.779-2.833 28.845-4.898-14.635 14.441-24.53 23.097-43.402 30.941-37.86 9.232-35.75-25.28-34.634-51.632-6.16-8.788-11.903-11.433-20.825-17.049 4.62-4.111 17.634-11.844 20.188-15.906 13.49-22.818 11.996-53.032 27.501-74.808 6.112-8.584 44.031-11.533 49.118-6.56 2.938 6.678-5.268 20.208-8.037 26.901-7.152 17.287-17.844 35.041-23.14 52.918 15.85-.214 150.9-5.028 156.558-8.759 10.797-7.118 16.59-31.357 19.197-43.095 1.041-4.688-1.402-7.437-3.824-11.251 8.512-11.163 31.856-19.1 45.64-20.987"/></svg>