<svg xmlns="http://www.w3.org/2000/svg" width="1200" height="754" preserveAspectRatio="none" style="display:block" viewBox="0 0 2048 1287"><path d="M1051.16 578.378c33.51-1.651 70.79-.134 104.57-.223 59.61-.157 119.51-.478 179.1.208l-.14 112.814c-9.1 10.879-23.12 22.395-33.29 34.499-9.85.201-19.31.004-29.16-.214 1.34-7.241.87-29.856.87-38.46l-.03-74.675c-22.57-.47-45.55.326-68.25-.169-.54 5.901-.34 14.162-.37 20.246-.16 31.032.04 62.065.58 93.093-16.7.549-46.74.832-63.2-.313 1.22-10.743.7-29.301.71-40.73l-.01-72.214q-31.62.2-63.24.032c-1.26 31.505-.74 81.819.33 113.257-18.17.306-45.22 1.043-62.75-.439.97-10.142.5-27.403.5-37.871q-.195-37.686.18-75.371c9.45-10.122 23.46-24.184 33.6-33.47m-381.581-.063c75.093-1.449 150.881.79 226.044-.148 18.237-.228 39.234-.695 57.274.489 9.262 7.766 24.664 24.148 33.716 33.29 1.088 36.265-.01 76.798.359 113.542-17.263.782-45.639.528-62.724-.178 1.286-8.838.779-29.959.782-39.965l-.015-73.014a3212 3212 0 0 0-55.265.05q-3.596.014-7.189.165c-2.301 3.202-.947 102.484-.996 112.983-17.977.374-44.832.999-62.275-.331 1.015-10.264.487-28.557.49-39.511l-.008-73.363c-22.638-.456-45.909.2-68.696-.086q-.214 56.65.171 113.3c-9.673.283-19.352.275-29.024-.024-5.329-7.643-24.791-25.677-32.618-34.265-1.516-31.393-.501-80.972-.026-112.934m977.591-.066a903 903 0 0 1 37.05-.125c68.58 1.205 138.08-1.709 206.54.248-.17 20.946.42 42.642-.43 63.499-5.94 6.646-26.08 26.727-33.7 33.31l-4.63.327-.03.727c10.36 8.693 32.74 21.971 45.21 30.536-.08 6.532.2 12.238.55 18.722-22.33.959-53.58.498-76.07.013-5.37-4.806-17.77-12.772-23.96-16.917l-37.9-25.533c-12.02-7.833-24.14-16.157-36.06-24.177l-.22-18.715c34.57-.627 70.46-.139 105.13-.109.36-8.572.09-19.003.1-27.716-39.63-.778-80.12.623-119.87-.192-.8 35.882-.23 77.466.21 113.355-16 .54-47.22.966-62.31-.421 1.37-47.666-.01-98.712.39-146.832m-1530.009.154c17.554-.661 44.524-.606 61.871.134l-.112 56.296c39.479.959 82.2.153 121.935.166.277-18.631.043-37.88.062-56.563 18.042-.979 43.289-.358 61.739-.014.257 15.219 1.463 141.3-.512 147.115-17.484.723-44.637.44-61.893-.211 1.451-13.648.728-41.631.752-56.355-38.551-.995-83.285-.319-121.937.058q-.093 28.226.202 56.451c-16.406.888-46.288.523-62.666-.103 1.007-13.301.386-34.329.379-48.13q-.254-49.423.18-98.844m276.063.032c18.576-.872 43.064-.43 61.856.019l.018 112.668c39.801.813 81.887.118 121.866.112l.092-112.871c18.198-.67 43.612-.406 61.662.105l-.016 35.709c.034 25.371.607 53.06-.304 78.249-8.528 9.222-25.281 23.871-31.684 33.272-55.213.849-110.793-.571-166.047.037-15.743.173-32.312.366-47.973-.471 1.2-15.105.496-36.992.493-52.759zm972.276-.032c56.06-1.654 113.25.646 169.41-.249 26.7-.426 54.79-.378 81.45.311l-.1 33.709c-7.81.212-16.07.171-23.91.069-54.93-.715-110.35 1.13-165.22-.074l-.1 78.928c12.54.329 25.87.137 38.47.172 48.49-.02 102.85-1.28 150.86.313l.38 33.948c-31.31 1.081-68.05.205-99.73.214-38.54.01-80 .755-118.32-.25-10.31-11.677-22.59-22.361-33.12-34.205-.67-12.732-.23-29.575-.25-42.682a4832 4832 0 0 1 .18-70.204"/><path d="M1449.08 635.096c50.93-1.19 107.72-.352 158.94.019l-.16 33.682-93.37.068c-21.04.006-44.47.509-65.35-.369z"/></svg>