<svg xmlns="http://www.w3.org/2000/svg" width="2290" height="1424" style="shape-rendering:geometricPrecision;text-rendering:geometricPrecision;image-rendering:optimizeQuality;fill-rule:evenodd;clip-rule:evenodd"><path d="M161.5 145.5h221v221h-221zm32 32h156v157h-156z" style="opacity:.984"/><path d="M161.5 459.5h221v819h-221zm32 33q68.502-.25 137 .5L194 629.5q-.75-68.498-.5-137m155 29a15305 15305 0 0 1 .5 303L197.5 673a32325 32325 0 0 0 151-151.5m-155 194a26463 26463 0 0 1 137 136.5q-68.498.75-137 .5zm0 170q68.502-.25 137 .5L194 1022.5q-.75-68.498-.5-137m155 28c1.165 49.498 1.332 99.16.5 149-51.667 51.67-103.333 103.33-155 155-.667-49.67-.667-99.33 0-149a33638 33638 0 0 0 154.5-155m0 196c.999 45.16 1.332 90.5 1 136-45.335.17-90.668 0-136-.5 45.201-45.03 90.201-90.2 135-135.5" style="opacity:.973"/><path d="M711.5 591.5h40v40h-40z" style="opacity:.975"/><path d="M711.5 669.5h40v198h-40z" style="opacity:.989"/><path d="M907.5 669.5q132-.25 264 .5a2183 2183 0 0 1 39 39.5q-151.5 1.25-303 1.5-10.35 4.349-11.5 15.5a1806 1806 0 0 0 0 85q2.118 12.616 14.5 15.5l300 1a1044 1044 0 0 1-38 39c-89.33.667-178.667.667-268 0q-37.1-7.098-47.5-43.5a1396 1396 0 0 1-1-104q8.382-43.136 51.5-50" style="opacity:.977"/><path d="M1487.5 669.5q21.57-1.058 39 11.5L1669 813.5c.83 18.342.67 36.676-.5 55a6297 6297 0 0 1-69-64.5l-185-1 42-39 99-1c-18.33-17-36.67-34-55-51q-9.36-5.302-18 1a12231 12231 0 0 1-167 155.5 505 505 0 0 1-.5-55L1457.5 683q13.335-10.686 30-13.5" style="opacity:.976"/><path d="M1812.5 669.5c90.36-.482 180.69.018 271 1.5q43.935 12.957 45 59c-.69 29.742-15.02 49.409-43 59a4581 4581 0 0 1 43 80c-15.33.667-30.67.667-46 0a8497 8497 0 0 1-42-77.5 7705 7705 0 0 0-215-.5c-6.44 2.773-10.27 7.606-11.5 14.5-.5 20.997-.67 41.997-.5 63h-40c-.17-23.336 0-46.669.5-70 5.86-28.193 23.03-44.359 51.5-48.5l250-1c5.83-1.833 9.67-5.667 11.5-11.5q1.005-8 0-16c-2.26-5.257-6.09-8.757-11.5-10.5-100.67-.167-201.33-.667-302-1.5z" style="opacity:.969"/></svg>