<svg xmlns="http://www.w3.org/2000/svg" width="1280" height="720" preserveAspectRatio="none" style="display:block" viewBox="0 0 2048 1152"><defs><linearGradient id="j" x1="1017.92" x2="953.963" y1="479.45" y2="705.953" gradientUnits="userSpaceOnUse"><stop class="stop0" offset="0" stop-color="#979292"/><stop class="stop1" offset="1" stop-color="#edeff0"/></linearGradient><linearGradient id="i" x1="1303.08" x2="1184.63" y1="571.639" y2="690.854" gradientUnits="userSpaceOnUse"><stop class="stop0" offset="0" stop-color="#464646"/><stop class="stop1" offset="1" stop-color="#9e9d9e"/></linearGradient><linearGradient id="h" x1="1100.7" x2="1011.77" y1="422.66" y2="501.373" gradientUnits="userSpaceOnUse"><stop class="stop0" offset="0" stop-color="#5f5e5f"/><stop class="stop1" offset="1" stop-color="#939393"/></linearGradient><linearGradient id="g" x1="1163.06" x2="1097.89" y1="668.6" y2="738.09" gradientUnits="userSpaceOnUse"><stop class="stop0" offset="0" stop-color="#9c9c9c"/><stop class="stop1" offset="1" stop-color="#d1d0d0"/></linearGradient><linearGradient id="f" x1="1392.34" x2="1710.67" y1="576.937" y2="573.063" gradientUnits="userSpaceOnUse"><stop class="stop0" offset="0" stop-color="#a8560e"/><stop class="stop1" offset="1" stop-color="#c46713"/></linearGradient><linearGradient id="e" x1="1504.44" x2="1543.18" y1="740.568" y2="826.6" gradientUnits="userSpaceOnUse"><stop class="stop0" offset="0" stop-color="#9e9d95"/><stop class="stop1" offset="1" stop-color="#c4c4cd"/></linearGradient><linearGradient id="d" x1="608.713" x2="548.287" y1="425.788" y2="305.212" gradientUnits="userSpaceOnUse"><stop class="stop0" offset="0" stop-color="#7e8080"/><stop class="stop1" offset="1" stop-color="#bcb8b9"/></linearGradient><linearGradient id="c" x1="1423.68" x2="1502.94" y1="438.9" y2="292.807" gradientUnits="userSpaceOnUse"><stop class="stop0" offset="0" stop-color="#7d8281"/><stop class="stop1" offset="1" stop-color="#cbc4c7"/></linearGradient><linearGradient id="b" x1="1628.94" x2="1837.46" y1="575.346" y2="573.308" gradientUnits="userSpaceOnUse"><stop class="stop0" offset="0" stop-color="#c4c3c4"/><stop class="stop1" offset="1" stop-color="#f9f7f7"/></linearGradient><linearGradient id="a" x1="437.52" x2="211.623" y1="574.735" y2="574.179" gradientUnits="userSpaceOnUse"><stop class="stop0" offset="0" stop-color="#b9b8b9"/><stop class="stop1" offset="1" stop-color="#e5e3e4"/></linearGradient></defs><path fill="#343434" d="M247.464 361.376c5.418-.253 11.614-.051 17.107.028 57.834.831 116.039-.989 173.838.381 24.444-1.245 56.851-.206 82.081-.148l137.467-.119 128.392.076c19.172-.001 50.482-.839 69.239.385 19.277-1.199 49.74-.279 69.825-.256l133.307.073 74.35-.1c3.6-.005 27.84-.204 30.34.288 34.32-.968 70.82-.437 105.32-.464l202.81.144 98.71-.153c5.55 0 36.27-.362 40.38.283 26.03-1.669 67.85-.217 95.1-.199 26.12.017 69.21-1.581 94 .11 10.12 11.645 27.87 43.022 36.19 56.847 3.47 5.771 2.21 39.913 2.21 49.857l.01 77.305c.01 60.479.93 123.451-.17 183.758-11.86 18.87-25.34 41.471-37.75 59.508h-81.3c-12.12-.005-30.42.529-41.95-.16-16.94.817-35.85.278-52.88.169-79.4-.51-159.01.69-238.39-.217-9.98.426-20.33.168-30.35.059-17.9.976-44.03.183-62.44.175l-120-.062c-94.38-.052-193.472 1.466-287.594-.149-11.238.464-23.707.308-34.976.138-77.105-1.163-155.168 1.838-232.156-.125a2190 2190 0 0 1-50.814-.007c-9.509.664-26.424.138-36.311.138l-72.911.005-210.082-.077c-12.339-17.25-25.11-38.924-36.068-57.194-2.884-4.808-1.974-34.293-1.967-41.708l.006-78.548-.036-133.548c.001-9.248-1.07-53.081 1.82-58.769 8.212-16.16 25.453-41.759 35.643-57.724"/><path fill="url(#a)" d="M247.464 361.376c5.418-.253 11.614-.051 17.107.028 57.834.831 116.039-.989 173.838.381-23.262 11.032-33.598 5.679-58.263 6.53-4.761.165-10.276-.066-14.76 1.565-37.188.635-75.432.184-112.697.169a3086 3086 0 0 0-34.296 53.987l.118 302.768c10.78 16.994 23.821 36.41 33.9 53.505 63.983-.583 129.456 1.002 193.169-.169 7.361.719 14.326.449 21.683.583 31.932.579 64.468-.918 96.314.325-7.773 1.909-28.002 1.057-36.713 1.042l-68.169-.121c-4.681-.006-21.409-.371-25.021.542 1.668 2.442 3.188 3.624 6.101 3.905 13.364 1.29 131.54-1.031 134.251.818l-.716.78-.701-.014c-2.638-.029-2.848-.106-5.239.801-9.509.664-26.424.138-36.311.138l-72.911.005-210.082-.077c-12.339-17.25-25.11-38.924-36.068-57.194-2.884-4.808-1.974-34.293-1.967-41.708l.006-78.548-.036-133.548c.001-9.248-1.07-53.081 1.82-58.769 8.212-16.16 25.453-41.759 35.643-57.724"/><path fill="url(#b)" d="M1610.63 361.794c26.03-1.669 67.85-.217 95.1-.199 26.12.017 69.21-1.581 94 .11 10.12 11.645 27.87 43.022 36.19 56.847 3.47 5.771 2.21 39.913 2.21 49.857l.01 77.305c.01 60.479.93 123.451-.17 183.758-11.86 18.87-25.34 41.471-37.75 59.508h-81.3c-12.12-.005-30.42.529-41.95-.16-4.04-3.593-37.59-2.029-45.67-2.246 2.82-.839 8.01-2.059 10.03-3.766-3.86-.112-4.46-.106-7.64-2.527 53.15-.816 108.6-.113 161.89-.013a3741 3741 0 0 0 33.73-53.533c1.08-33.633.2-71.819.21-105.731l-.06-197.18c-10.21-17.301-23.08-36.502-33.85-53.789l-155.56.017c-5.53-9.297-18.68-6.782-29.42-8.258"/><path fill="#636263" d="M855.588 361.979c19.277-1.199 49.74-.279 69.825-.256l133.307.073 74.35-.1c3.6-.005 27.84-.204 30.34.288 21.44 5.553 116.42-4.406 128.36 4.492-5.35 6.314-121.48-.421-126.52 3.482-10.97.733-22.29.254-33.31.245-32.45-.027-64.92-1.515-97.33-1.591-58.212-.137-116.844 3.485-175.039 1.294-5.62-1.525-37.007-1.011-44.445-1.007l-92.234.101c19.239-8.231 29.346-6.213 49.602-6.114l55.244.299c6.851.03 21.766.369 27.85-1.206"/><path fill="#6b6b6b" d="M445.58 780.14c15.908-.88 35.209-.393 51.306-.38l88.656.102 314.358 1.067c7.029.645 57.839 1.312 60.756 2.566-4.367 7.956-71.313.846-75.34 5.3-11.238.464-23.707.308-34.976.138-77.105-1.163-155.168 1.838-232.156-.125a2190 2190 0 0 1-50.814-.007c2.391-.907 2.601-.83 5.239-.801l.701.014.716-.78c-2.711-1.849-120.887.472-134.251-.818-2.913-.281-4.433-1.463-6.101-3.905 3.612-.913 20.34-.548 25.021-.542l68.169.121c8.711.015 28.94.867 36.713-1.042-31.846-1.243-64.382.254-96.314-.325-7.357-.134-14.322.136-21.683-.583"/><path fill="#999899" d="M563.577 781.048c17.216-.985 41.441-.174 59.033-.081l112.458.629c-3.127.422-4.634.019-6.487 1.857 6.168 6.05 5.183 1.624 8.192 4.118-15.758-.016-111.831-.897-118.589 1.237a2190 2190 0 0 1-50.814-.007c2.391-.907 2.601-.83 5.239-.801l.701.014.716-.78c-2.711-1.849-120.887.472-134.251-.818-2.913-.281-4.433-1.463-6.101-3.905 3.612-.913 20.34-.548 25.021-.542l68.169.121c8.711.015 28.94.867 36.713-1.042"/><path fill="#636263" d="M899.9 780.929c7.655-1.37 45.592-.023 54.885.188 25.675.415 51.355.566 77.025.451l191.61-1.713c23.82-.041 53.42-.856 76.62.263l82.56.237c-2.33.51-4.63 1.078-6.99 1.363 12.15.892 24.05-.377 35.76.202l.49.659c-7.22 8.956-29.93.905-39.15 4.596l-.39.709c4.26-.282 8.1-.73 12.32-.045l1.06.933c-9.98.426-20.33.168-30.35.059-17.9.976-44.03.183-62.44.175l-120-.062c-94.38-.052-193.472 1.466-287.594-.149 4.027-4.454 70.973 2.656 75.34-5.3-2.917-1.254-53.727-1.921-60.756-2.566"/><path fill="#999899" d="m1300.04 780.118 82.56.237c-2.33.51-4.63 1.078-6.99 1.363 12.15.892 24.05-.377 35.76.202l.49.659c-7.22 8.956-29.93.905-39.15 4.596l-.39.709c4.26-.282 8.1-.73 12.32-.045l1.06.933c-9.98.426-20.33.168-30.35.059-25.76-1.615-60.15-1.042-86.76-1.395l-.01-.899c6.17 1.342 11.41-.315 17.56-.185 10 .21 45.5 3.269 52.12-3.346-2.04-1.494-52.86-1.115-59.84-1.126.19-.203 19.2-1.521 21.62-1.762"/><path fill="url(#c)" d="M1163.41 361.984c34.32-.968 70.82-.437 105.32-.464l202.81.144 98.71-.153c5.55 0 36.27-.362 40.38.283 10.74 1.476 23.89-1.039 29.42 8.258l-318.7.045-99.84.066c-17.83.025-38.62.535-56.26-.205 5.04-3.903 121.17 2.832 126.52-3.482-11.94-8.898-106.92 1.061-128.36-4.492"/><path fill="url(#d)" d="M438.409 361.785c24.444-1.245 56.851-.206 82.081-.148l137.467-.119 128.392.076c19.172-.001 50.482-.839 69.239.385-6.084 1.575-20.999 1.236-27.85 1.206l-55.244-.299c-20.256-.099-30.363-2.117-49.602 6.114l92.234-.101c7.438-.004 38.825-.518 44.445 1.007-20.393.983-46.302.186-67.048.162l-119.503.028c-102.23-.094-205.583.919-307.634-.216 4.484-1.631 9.999-1.4 14.76-1.565 24.665-.851 35.001 4.502 58.263-6.53"/><path fill="url(#e)" d="m1382.6 780.355 144.95-.108c34.86-.04 71.4-.597 106.14.034 3.18 2.421 3.78 2.415 7.64 2.527-2.02 1.707-7.21 2.927-10.03 3.766 8.08.217 41.63-1.347 45.67 2.246-16.94.817-35.85.278-52.88.169-79.4-.51-159.01.69-238.39-.217l-1.06-.933c-4.22-.685-8.06-.237-12.32.045l.39-.709c9.22-3.691 31.93 4.36 39.15-4.596l-.49-.659c-11.71-.579-23.61.69-35.76-.202 2.36-.285 4.66-.853 6.99-1.363"/><path fill="#f4f2f2" d="M554.154 421.392c33.16-1.097 71.88-.131 105.378-.126l205.501.046-.064 120.797-197.43.022.085 65.93 121.876-.019 75.414.029c.545 39.919.063 80.911.062 120.915l-310.916-.03z"/><path fill="#343434" d="m562.445 429.932 294.311-.012c-.937 33.441-.188 70.184-.184 103.876l-197.557-.035.027 82.797c35.22-.563 71.863-.044 107.199-.048l90.42.041.005 104.047-294.141-.09c-.817-31.538-.103-66.715-.108-98.608z"/><path fill="#f4f2f2" d="m1387.71 425.478 111.83-.003c22.22 34.818 47.7 77.209 70.86 110.487l15 .072c-8.86-13.256-17.87-28.248-26.41-41.845 14.55-22.786 29.18-46.166 44.03-68.713 40.82.825 84.97.118 125.87-.006l-89.03 149.618c20.05 35.005 41.42 69.731 61.71 104.605 3.56 6.115 24.1 39.549 25.16 44.137-1.88 1.541-2.59 1.035-5.48 1.106l-117.35.022-70.59-110.895-15.15.055c7.52 13.159 18.14 28.907 26.41 41.927-12.78 21.713-30.23 47.398-44.06 68.975l-125.66-.07 88.79-149.839-88.17-149.339z"/><path fill="url(#f)" d="m1390.49 434.133 104.99-.107c8.44 15.012 19.53 31.481 28.91 46.112l41.24 64.868q17.565-.135 35.1-.618c-10.37-15.427-21.17-35.513-32.07-49.975 12.74-18.985 26.8-40.503 38.66-60.01 10.72-.837 26.52-.39 37.77-.392l68.22.112c-6.91 13.722-18.03 30.826-25.94 44.47-18.7 32.269-38.82 64.205-57.16 96.679l81.87 139.238-.98 1.382c-4.12.845-25.44.47-31.33.457-23.85.027-47.7-.111-71.56-.414-8.27-11.795-18.54-29.106-26.5-41.593a5815 5815 0 0 1-43.61-68.55l-35.2.067c9.12 15.857 23.67 35.641 31.43 51.195-13.19 19.487-25.57 39.435-38.36 59.199-34.99-.427-70.76.078-105.87-.044 24.63-44.86 57.1-96.677 83.38-141.047-27.31-45.37-57.26-95.015-82.99-141.029"/><path fill="#6b6b6b" d="M315.017 421.06c39.05 1.307 82.408.432 121.768.248-.941 32.311.076 70.394.101 103.127l-.007 204.795q-60.914-.376-121.829-.082c-.666-36.182-.074-74.047-.079-110.379z"/><path fill="#343434" d="m324.038 429.877 104.018-.027-.013 290.668c-34.112.638-69.858.114-104.045.089z"/><path fill="url(#g)" d="m1095.7 618.86 42.21 66.002c6.74 10.556 16.68 25.174 22.62 35.878q27.09-.14 54.18.142l5.43 1.258c1.97 3.964-.29 3.832.87 6.827l-65.07.05c-16.96-27.271-34.84-54.815-52.23-81.873l.2 81.902-67.13-.205c-12.77.188-42.782 1.17-54.493-.274 6.413-1.061 14.545-.321 21.623-1.428L983.948 727c.035-3.735-.575-9.489 1.193-12.118l3.628.425.753 5.256 1.505 1.11c5.915.927 24.513.934 30.133-.706 5.1-.204 9.11-.404 14.24-.003 19.51-.592 41.04.433 59.96-.51-.08-29.596-1.45-73.03.34-101.594"/><path fill="#f4f2f2" d="M983.948 727c.035-3.735-.575-9.489 1.193-12.118l3.628.425.753 5.256 1.505 1.11c5.915.927 24.513.934 30.133-.706 5.1-.204 9.11-.404 14.24-.003 14.89 4.243 36.12-2.502 48.71 3.539l.23 1.133c-13.08 3.078-36.49-2.229-47.56 3.205-12.77.188-42.782 1.17-54.493-.274 6.413-1.061 14.545-.321 21.623-1.428z"/><path fill="url(#h)" d="M982.408 421.389q39.288-.395 78.572.124c12.82.062 30.25-.711 42.47.347.81 26.383.24 53.583.39 80.061 10.59-12.772 21.7-33.363 31.65-47.359 3.17-4.468 5.38-10.003 8.97-14.418 1.37 6.186-14.16 16.998-10.88 29.361 5.76-7.035 18.08-29.873 21.56-33.097-.63 4.644-53.46 86.69-60.01 95.919.7-33.585-.83-69.601.73-102.641l-105.018.112c.008 12.735.333 27.342-.113 39.926-1.69-2.138-1.277-9.741-1.299-12.834-.816 3.026-.496 10.099-.514 13.503-5.751.579-5.344-.072-6.654-4.822a1538 1538 0 0 1 .146-44.182"/><path fill="url(#i)" d="M1189.17 575.246c4.43-6.762 45.74-77.468 47.56-78.158-.91 3.083-1.81 3.965-.75 6.363l2.33.398c.78 8.898-32.46 59.668-38.6 71.075 5.28 12.364 19.03 32.576 26.19 45.322 20.23 36.028 44.5 72.803 64.24 108.722l-69.13-.001c-1.16-2.995 1.1-2.863-.87-6.827l-5.43-1.258c17.9-.042 43.72.681 60.88-.327l-54.57-92.234c-9.84-16.638-21.38-37.293-31.85-53.075"/><path fill="url(#j)" d="M982.262 465.571c1.31 4.75.903 5.401 6.654 4.822.018-3.404-.302-10.477.514-13.503.022 3.093-.391 10.696 1.299 12.834 1.026 82.994.139 167.786.191 250.967 8.562.019 22.07-.374 30.24.276-5.62 1.64-24.218 1.633-30.133.706l-1.505-1.11-.753-5.256-3.628-.425c-1.768 2.629-1.158 8.383-1.193 12.118l19.962.139c-7.078 1.107-15.21.367-21.623 1.428l.16-165.143c-.041-32.497-.739-65.435-.185-97.853"/></svg>