<svg xmlns="http://www.w3.org/2000/svg" xml:space="preserve" viewBox="0 0 2348.4 491.1"><path d="M0 490.4 254.1 0H820L563.6 490.4S1.6 492 0 490.4"/><path d="M20.9 478.9 261.6 11.3h538L554.8 480s-534.8-.2-533.9-1.1" style="fill:#fff"/><path d="m35.7 469.7 229-447.4h160.2s-63.3 44.2-85.8 109.3c-22.8 65.1-36.8 163.2-53.4 200.7s-45.3 100.6-90.9 137.4zm356.4.4s53.4-41.2 72.9-109.8c19.6-68.8 30.1-142.4 51.5-191C538 120.8 573 56.4 625.2 22.8h159L550 469.7z"/><path d="m275 469.7 149.8-354.2h-41.2L492.9 29l25.1 85.8h-39.4L331.4 469.7s-57.3.9-56.4 0M932.9 92l-176 347.5h114.8l177.9-346.1zm166.4 0L921.9 441.4h116.7l91.4-182.3 27.6 169.4 176.3-165-90.9 178.1h117.8L1537.4 93h-151.7L1233 235.9l-15.9-142.4c0-.1-117.8-2.6-117.8-1.5m350.5 264h322.9l14.7-23.9S1575.5 275.5 1540 264c-33.8-11-15.4-54.1 5.5-93.9 29.7-56.6 52.2-79.9 98.7-78.5 23.2.7 377.4.7 377.4.7l-42.3 85.4h-322.6l-4.8 10.4s211.7 58.2 242.5 67.4c30.6 9.2 20.9 43 14.7 57.1s-22.1 48.6-44.2 87.2-71.1 40.5-101.9 40.5h-354.8zm449.9 84.2 178.6-349.3H2225l123.3 350.5h-105.6l-93.2-264.6-134.4 263.5h-115.4z" style="fill:#e51b24"/></svg>