<svg xmlns="http://www.w3.org/2000/svg" width="3840" height="2160" preserveAspectRatio="none" style="display:block" viewBox="0 0 2160 2160"><path fill="#287c39" d="M1027.97 566.883c30.56.326 61.73-.518 92.35-.056 12.33.186 29.44-.862 41.16.332l-.51 1.476-4.16.704c-2.49 2.788 1.67 33.217-1.31 37.704-2.19 3.286-21.1 7.46-23.52 13.559-5.58 14.055-3.88 29.732-4.8 44.524-.26 57.86-.04 115.662-.16 173.491l.05 425.403-.06 145.34c-.23 40.07-1.07 83.44 3.21 123.46 1.83 17.1 25.33 11.36 24.6 30.08-.26 6.85 2.05 25.86-1.77 30.33-11.57-2.02-24.52-1.13-36.4-1.02-28 .08-55.55-.04-83.55-.64-12.49-.26-26.14 1.08-38.756 1.39l-.469-1.38 3.591-.48c-2.633-10.65-2.418-25.92-1.595-37.04.309-4.18 18.259-6.38 20.849-12.01 5.32-11.58 4.68-24.79 5.42-37.25 1.51-71.65 1.01-143.53.97-215.18l-1.07-405.792c-.09-40.931-.17-82.489.38-123.4.55-28.45.43-56.909-.35-85.354-.51-22.551.87-33.673-3.68-55.64-8.93-6.868-15.06-8.983-24.891-14.095-.229-39.761-1.317-33.144 34.471-38.456m32.74 232.584c8.71 11.722 12.42 23.585 17.71 36.987 3.76 9.537 8.07 28.292 21.36 22.452l.98-1.711c.25-9.796.52-104.637-.55-108.139-3.82-2.928-6.12-2.13-11.39-1.933l-.11 1.426c-.77 10.791 1.44 49.637-2.23 54.849-8.34-3.236-18.96-50.385-29.94-56.112-2.09-1.094-5.65-.363-7.6-.063-1.77 12.524-1.71 107.653 1.57 112.131 4.64 2.118 10.94.282 10.77-4.635-.62-18.178.24-37.154-.57-55.252m4 717.403c5.47.01 16.18-.24 21.19.32 3.87 10.99-3.09 25.77 13.62 25.68 3.57-3.14-.67-14.6-1.43-20.15-2.48-17.86-5.22-36.56-8.53-54.24-1.05-5.61-4.73-32.08-6.42-35.68-5.48-2.08-10.51-1.02-16.79-1.93-1.88 29.37-13.94 78.88-16.67 110.13.41.57.81 1.14 1.22 1.71 14.83 2.51 13.01-15.73 13.81-25.84m2.83-488.48c1.12 14.57-.64 103.43 2.03 111.17 4.59 1.35 7.25.9 12.05.67 1.54-14.59.09-42.03.65-58.07.3-8.86.78-45.92-.38-53.25-3.98-1.65-9.86-.85-14.35-.52m6.92-413.581c-4.18 1.6-4.16.78-5.93 3.776-.57 28.784-1.48 79.521.34 107.402 2.39 2.397 7.07 3.017 10.57 3.365 1.36-.456 2.03-.474 2.06-1.462.5-17.062 2.38-100.258.24-110.589-3.02-2.056-3.7-1.88-7.28-2.492m-13.06 683.061c-18.3 1.44-17.33 21.73 6.45 22.43 3.2 4.3.04 76.57.45 86.67.14 3.52 10.06 2.93 13.96 2.62-.01-20.79-1.44-70.24.54-88.9 4.97-4.78 18.73 4.61 17.6-9.65-.33-4.14-.93-15.51-8.28-13.78-9.94 2.35-20.42-.3-30.72.61m28.14-61.1c-3.98 7.25-11.84 18.95-21.01 11.3-15.62-13.02-16.62-65.29 7.19-69.59 9.09-.99 11.32 16.04 16.71 17.16 4.08.84 12.37-3.6 10.73-9.55-2.81-10.18-13.23-21.11-22.21-26.05h-13.62c-29.41 18.46-29.69 71.87-13.08 100.25 24.37 41.62 62.96-17.8 42.59-26.47-4.09.13-4.08.54-7.3 2.95m-.32-341.842c-1.11 7.301-12.51 76.406-13 76.887-1.43-1.987-1.33-.888-1.17-3.138l-.46 1.087c-7.6-9.274-8.58-58.972-14.31-72.484-1.17-2.764-9.54-2.825-12.08-2.957 2.5 27.53 8.83 58.288 13.65 85.565.83 4.731 2.66 19.99 4.07 23.442 4.55 1.22 12.53 2.25 17 .9 1.64-2.25 12.3-70.66 13.58-79.335 1.6-9.349 5.82-21.533 2.21-28.796-4.18-2.143-4.07-1.322-9.49-1.171"/><path fill="#287c39" d="M1073.39 1465.27c2.55 1.13 3.13 1.6 3.98 3.94 2 5.56 6.02 24.92 3.95 29.61l-1.86.29c-3.33-.6-6.67-1.23-9.99-1.9-1.47-2.83 3.12-26.12 3.92-31.94"/><path fill="#fc0029" d="M1975.98 577.597c-.13-.021 14.1-.006 16.65.181 37.78 2.783 80.6-2.423 117.19 7.844 15.81 4.437 21.52 11.072 28.15 24.224-1.13 7.316-2.51 15.534-7.77 21.131-9.64 8.923-34.05 15.75-46.69 16.883-90.32 8.095-183.19 9.245-273.56 14.917-31.97 2.756-66.39 3.224-98.77 6.27-17.65 1.66-28.56.153-47.52 3.431.92-4.887 3.88-14.064 5.53-19.228 4.89-15.256-.88-28.482-4.67-44.255 31.33-1.976 59.06-6.177 89.97-9.971l130.94-14.886c28.48-3.189 64.48-3.151 90.55-6.541m-1849.464.956c11.356-.751 25.847.128 37.488.487 93.567 2.889 186.964 15.65 279.822 27.018 13.599 1.665 26.604 1.714 40.09 4.346 3.068 5.084-5.36 16.672-5.726 24.679-.641 14.033 3.835 22.577 7.197 35.867-23.811.181-49.411-2.955-73.236-4.261-4.415-.242-20.226-.778-23.188-1.742-70.352-1.736-142.245-8.646-213.031-9.704-38.274-.572-80.11-4.175-118.252-8.358-15.221-1.669-46.398-13.21-45.974-32.29 1.54-42.947 83.834-35.168 114.81-36.042"/><path fill="#565e8a" d="M1644.83 617.619c9.95-2.935 15.7 14.263 17.27 21.033 2.47 10.642-.25 20.11-6.26 29.126-1.57 2.359-11.28 4.763-14.05 5.993-36.89 11.549-77.89 15.344-116.04 19.675a4886 4886 0 0 1-244.69 19.601c-33.68 1.878-67.22 2.177-101 5.664-8.79.908-17.46.406-26.6 1.505l-1.41.179h-16.86c-.12-10.788-.91-41.417.52-50.298 36.79-5.861 74.3-9.746 111.35-14.174 6.93-.828 12.92 3.575 20.61 2.5 13.31-1.862 26.49-4.525 39.79-6.384 35.83-4.755 71.68-9.286 107.57-13.593 61.9-6.823 124.53-12.464 186.48-19.064 13.4-1.429 26.85.103 43.32-1.763m-1136.729-.094c3.546-.826 26.239 2.472 32.329 2.175 5.199-.253 18.067 1.543 23.813 2.014 30.023 2.012 60.237 6.701 90.123 9.31 50.111 4.375 99.645 8.587 149.277 17.222 11.7 2.036 24.428 2.198 36.217 4.011 58.12 8.941 116.028 10.952 174.18 19.844 1.37 3.088 1.56 45.563.13 48.43-3.52 1.79-11.85.394-16.175-.031-31.465.019-69.049-5.051-101.282-6.291-14.728-.567-31.19-.701-46.294-1.759-35.224-2.466-64.755-4.486-100.887-8.209-32.588-3.358-59.766-2.313-93.812-6.525-47.734-5.906-115.905-9.88-160.083-28.76-4.52-3.648-9.266-15.676-9.087-20.716.589-16.586 3.806-29.213 21.551-30.715m940.039 236.216c16.82-1.226 52.39-.754 69.94-.229 31.54.943 108.01-4.709 132.69 9.354 2.06 3.349 4.05 6.506 4.48 10.489.94 8.605-1.21 20.522-7.18 27.128-19.46 21.529-150.7 15.763-181.13 15.104l-66.95-1.037c-17.71-.328-36.81.625-54.74.859-20.47.173-40.83-.869-61.32-1.131l-97.8-.822c-12.68-.196-40.1 1.731-50.08-.467l-.79-1.312c-.08-7.036-1.29-45.461.87-48.949 18.13-2.725 60.73-2.387 81.1-2.982 60.14-1.688 120.54-1.059 180.61-4.858 14.34-.907 37.13 1.395 50.3-1.147m-900.452.029c21.145-1.35 53.87-.239 76.199-.24q65.005-.036 129.997 1.284c33.717.919 67.584 2.828 101.304 3.655l92.379 2.128c15.298.237 52.893.017 67.143 2.799.73 4.59-.08 40.202.25 49.919q-32.607.205-65.214.039c-51.032-.296-102.609.82-153.671 1.979-33.54.761-68.245-.833-101.811.049-37.77.993-74.848 2.107-112.899.954-21.135-.64-55.049-3.719-75.299-11.379-2.21-.837-6.979-5.98-8.822-7.935a83 83 0 0 1-.69-3.691c-7.926-46.533 19.916-33.87 51.134-39.561m-21.733-81.122c-1.853.831 132.873 7.232 142.578 7.693l139.143 7.661c68.173 4.169 139.235 10.887 207.734 10.937-1.28 15.257-.1 33.131-.56 48.943-6.6.533-14.979.36-21.731.391-23.518.395-53.215-1.572-77.122-1.97l-209.374-4.818-118.861-3.218c-18.905-.428-57.469 1.582-76.199-5.255-8.146-2.974-16.183-27.256-18.289-36.621l1.039-4.384c4.08-17.094 16.261-18.356 31.642-19.359m1084.515.965c16.4-2.705 26.41-.487 40.67 7.078 3.86 7.058 4.22 8.581 5.92 16.208-3.68 11.143-8.69 24.69-16.55 33.762-4.44 5.123-17.48 5.041-24.55 5.821-19.77 2.181-39.72 1.23-59.55 1.742l-114.2 2.982c-25.32.601-51.17 2.967-76.58 3.653-17.05.461-33.99.022-50.95.366l-137.06 3.047c-14.16-.26-28.29.805-42.51 1.161.03-15.11.63-35.558-.46-50.218 11.52-.15 22.95-1.682 34.47-2.054 34.6-1.117 69.62-1.733 104.13-3.987 26.56-1.734 53-4.004 79.53-5.341l137.47-7.721c37.17-1.796 83.54-2.85 120.22-6.499M513.924 697.682c7.569-2.757 124.684 7.81 142.086 9.01a6235 6235 0 0 1 167.267 12.403c24.438 2.333 48.682 7.923 73.156 10.01 31.142 2.655 62.113 6.999 93.361 8.043 8.058.269 16.526.392 24.466 1.638l.92 1.472c-.1 5.941.59 42.914-.38 46.499l-21.548-.319c-25.049-.029-52.409-4.315-77.717-4.785-32.6-.605-65.103-5.176-97.616-6.94l-174.777-11.168c-30.865-1.752-62.775-.225-93.358-4.317-23.451-3.138-57.543-6.016-60.188-35.656-2.196-24.603 1.779-25.663 24.328-25.89m1118.336-.001c5.4-2.857 24.55-1.881 26.52 7.137 1.85 8.419 2.79 20.122-1.2 28.014-9.62 19.066-25.96 19.797-44.45 23.062-45.67 8.829-92.06 6.266-138.28 9.095-73.25 4.483-146.89 11.664-220.09 15.715l-68.89 3.767c-4.35.264-19.8.665-23.03 1.649-6.9.451-22.69 2.618-27.75-.821-.16-15.306-.01-30.615.44-45.915 5.2-2.323 63.34-5.168 73.54-6.132l257.99-24.364c14.22-1.293 29.53-3.447 43.7-3.985 40.41-1.535 81.15-6.737 121.5-7.222M674.751 926.543c10.631-2.65 76.382-.662 91.22-.648l248.969-.029c-1.1 14.961-.39 35.336-.03 50.388l-190.935 2.017c-39.831-.775-85.413 3.633-125.337 6.42-28.681.67-55.616 4.121-84.581 3.894-27.688-.217-77.551 10.863-100.382-6.776-12.967-10.016-20.927-29.993-8.05-42.954 9.453-9.514 19.183-7.568 31.659-9.358 44.999-5.178 92.751-.226 137.467-2.954m460.769-1.019c5.37.751 20.61.43 26.59.436l53.87-.104 240.79-.026c55.33.036 112.98.205 168.15 5.115 14.71 1.308 26.8 8.549 25.27 24.759-.98 10.433-5.67 15.668-12.02 23.412-9.53 6.415-13.98 12.307-27.46 12.176-48.08-.469-99.13-1.677-146.89-6.002-57.68-5.223-113.13-6.518-170.77-8.05a3637 3637 0 0 0-94.28-2.041c-21.22-.004-42.49 1.092-64.26 1.051 1.58-15.394-1.04-34.227 1.01-50.726"/><path fill="#fc0029" d="M1969.15 668.111c10.97-.68 26.92-.403 38.15-.379 27.62.059 59.87-2.162 85.01 10.639 5.79 7.908 6.17 9.913 7.63 19.217l-5.26 11.722c-45.48 26.231-142.99 23.913-196 29.065-41.84 4.067-84.46 6.628-126.43 8.922-33.13 3.8-67.94 3.705-101.13 7.736-4.36.529-10.29 2.461-14.22.235.33-3.927 9.54-20.402 11.68-32.38l.35-1.978c1.76-9.698-5.65-23.294-4.15-30.836 9.42-2.162 39.03-3.777 50.71-5.041 37.02-3.708 74.1-6.748 111.22-9.12 21.2-1.512 42.77-3.715 63.94-4.873 18.06-.851 36.12-1.547 54.19-2.088 7.14-.225 17.74.265 24.31-.841m-1849.391-.977c15.524-1.195 41.029.975 57.567 1.293 82.314 1.58 167.278 8.885 249.346 16.392 14.736 1.348 45.321 2.006 57.587 6.355.511 3.248-2.4 11.866-3.054 16.403-3.817 26.45 6.962 31.422 12.797 47.836-1.789.488-46.118-2.41-51.049-2.797-45.191-4.99-87.701-7.122-133.118-8.555-23.246-1.85-46.585-4.471-69.884-5.661-47.61-2.431-96.143-6.002-143.127-14.257-24.138-4.241-66.934-18.185-37.255-48.495 4.998-1.049 9.827-2.764 14.768-4.053 14.892-3.883 30.115-3.977 45.422-4.461"/><path fill="#565e8a" d="M984.765 988.749c8.36.555 21.015.067 29.685 0-.03 14.731-.28 29.571.64 44.251-35.781-.02-71.619-.51-107.342 1.08-12.426-.22-25.339 3.7-37.565 3.81-63.382.62-125.988 8.94-188.293 20.02-3.499.63-16.65 2.5-19.579 2.5-22.83.07-105.922 25.58-124.822 14.94-28.574-4.5-22.459-29.05-20.336-51.35 4.364-4.16 13.359-13.98 18.919-14.99 64.202-11.618 130.528-9.049 195.478-14.362 9.59-.784 20.584.257 30.355-.01l162.427-4.52c7.481-.166 57.426.152 60.433-1.369m149.725-2.044c6.19 2.982 59.98 2.869 71.41 3.191l251.02 7.544c48.89 1.726 98.38 1.089 146.57 9.77 20.98 3.78 30.11 12.23 30.7 33.5.14 19.92-.1 30.15-22.1 34.38-35.91 6.89-70.41-7.34-104.95-12.2-57.46-8.07-114.84-18.63-172.65-22.92-26.38-1.93-53.1-2.63-79.49-4.85-39.36-4.27-79.17-.21-118.29-2.72-2.58-3.71-1.31-36.029-2.09-44.455zm-127.67 60.095c3.18-.77 4.91-.4 7.33 1.07 1.24 2.92.73 35.83.17 40.56-6.18 4.69-23.584.65-31.643 2.6-8.211 2.07-18.113.17-26.181 1.56-43.418 7.46-87.639 9.67-131.452 14.3-29.374 3.1-57.583 10.71-86.543 16.15-19.576 3.55-41.477 4.93-60.173 11.96-21.789 8.19-44.24 17.12-66.076 25.08-18.542 6.76-41.919 12.02-60.478 2.9-11.74-11.66-12.635-16.13-15.442-32.07 8.415-23.05 20.383-28.44 40.98-38.41 10.35-5.01 10.167-2.73 19.092-5.52 34.744-10.87 71.959-13.13 108.069-16.92 25.73-2.7 52.287-5.94 78.094-8.26 31.614-2.83 64.106-3.69 95.784-5.87 29.187-2.02 58.565-4.76 87.731-7.23 12.817-1.08 26.701-.33 39.628-1.77zm128.3-1.23c8.03 3.19 50.42 3.04 63.09 4.22 58.3 5.42 116.9 8.61 175.29 12.97 18.62 1.39 36.36 4.27 55.12 6.04 49.87 4.71 103.29 7.16 150.15 26.43 13.39 5.51 29.18 18.39 33.71 32.17 2.92 8.89-4.93 22.21-9.07 30.22-19.18 32.74-120.65-23.07-147.17-27.37-48.29-7.83-96.17-19.65-144.72-25.11-16.19-1.83-32.43-2.88-48.55-4.39-23.13-2.36-46.25-4.88-69.35-7.56-14.47-1.58-28.35-2.55-42.9-2.78-3.82-.06-12.63.81-15.11-.62-1.01-4-.48-37.92-.49-44.22"/><path fill="#fc0029" d="M2007.68 752.511c10.12-.188 38.39-2.359 46.72 2.691 2.3 2.007 3.19 7.343 3.34 10.008 2.46 18.13-36.35 42.388-51.48 44.395-55.84 7.412-117.55 8.424-173.83 10.994-44.65 2.039-89.93 9.747-133.59 10.502-14.53.964-30.85 2.039-45.08 4.543 1.99-14.29 8.37-19.167 9.14-34.835.57-11.453-4.32-21.594-3.57-30.903 8.33-6.143 111.91-7.013 131.42-7.807l149.88-7.217c21.34-.986 46.3-.434 67.05-2.371m-1906.883-.753c8.859 1.384 22.139.918 31.559 1.212 20.859.651 41.895.688 62.761 1.424l141.364 6.132c41.219 1.656 82.021 1.58 123.129 5.745 9.457.958 22.118-.584 31.036 2.383-.203 10.857-5.602 22.981-4.736 35.254.735 10.411 10.401 22.538 10.445 29.05-11.497 1.977-38.145-1.252-50.752-2.154-27.869-1.996-55.968-3.288-83.781-5.789-15.086-1.356-30.017-3.569-45.15-4.618-34.429-2.385-156.169-2.195-181.642-13.386-19.91-8.747-35.237-19.668-43.352-40.26 1.908-8.757 1.995-9.856 9.119-14.993"/><path fill="#565e8a" d="M1135 1101.06c9.91 3.98 27.16 2.9 38.03 4.22 120.95 14.75 245.05 17.59 359.05 65.54 30.09 12.65 57.88 45.32 41.85 79-3.52 1.42-6.95 4.05-10.47 5.17-21.43 6.81-41.71 4.48-57.12-13.33-1.69-1.96-12.18-11.78-14.54-13.26-12.71-7.95-28.57-16.72-41.47-23.98-37.06-20.89-76.43-31.43-117.6-40.82-64.06-10.98-132.73-23.85-197.62-23.34zm-125.27 1.7 2.82-.47 1.62 1.19c1.65 8.02.83 27.42.68 36.65-71.045-.55-144.176 14.1-213.937 26.78-9.34 1.92-18.51 5.93-27.771 7.93-40.361 8.7-78.782 32.01-113.8 53.17-10.528 6.36-21.095 22.97-33.716 27.38-10.881 3.8-25.388 2.68-36.413.05-2.067-.49-1.364-.81-4.251-.96-1.372-.63-4.052-1.97-5.153-2.91-20.815-17.68-4.926-43.51 8.219-59.79 14.902-18.47 44.182-27.23 65.962-34.34a818 818 0 0 1 153.778-34.05c12.653-1.64 25.617-2 38.072-3.69 54.372-7.35 109.243-11.9 163.89-16.94"/><path fill="#fc0029" d="M1890.58 831.621c2.87-.58 14.42-.49 17.64-.144 25.68 2.757 86.92-11.633 98.17 18.081-.18 4.355-1.41 7.24-4.41 10.436-25.64 27.275-56.88 31.897-91.92 35.082-31.92 2.903-61.66 4.63-93.59 5.93-20.21.822-42.14 3.987-62.6 5.499-1.94.519-21.15 1.038-24.95 1.305-23.68 1.668-51.74 5.683-75.3 5.129.28-6.376 3.41-11.307 6.34-16.681 10.42-19.137.95-33.683-2.56-51.159 8.08-5.625 208.82-12.007 233.18-13.478m-1702.388-1.069c8.18-1.364 52.97.864 61.24 1.208 27.336 1.137 232.321 5.702 243.719 14.92-2.06 10.341-7.93 12.653-8.786 25.796-1.338 20.538 8.371 23.429 13.165 40.954-12.671-1.753-25.463-1.146-36.955-2.656-40.125-3.203-80.285-2.65-120.311-9.169-7.904-1.288-18.852.433-27.003-.705-41.642-5.81-88.299-.699-127.61-16.133-10.448-4.144-35.872-19.782-40.574-30.089-2.311-5.067 4.071-12.971 7.183-17.513 13.726-6.59 21.108-5.952 35.932-6.613"/><path fill="#565e8a" d="M1135.03 1150.72c37.53 5.87 76.87 7.88 114.72 12.18 63.7 7.24 131.91 22.94 190.6 48.6 19.96 8.73 38.52 16.47 55.83 30 18.22 14.24 36.64 31.9 39.17 56.34.97 9.37-2.31 20.18-8.09 27.61-27.75 21.59-59.71-22.09-79.98-38.21-15.67-12.47-29.51-23.1-47.21-32.93-18.01-10.01-35.22-21.6-54.85-28.68-15.94-5.32-33.02-8.96-49.29-14.33-28.34-9.35-59.23-13.77-88.34-20.16-19.65-4.31-38.59-7.82-58.73-8.89-4.97-.24-7.82-2.24-13.2-1.64-1.19-4.01-.66-24.33-.63-29.89m-123.91.19c2.61-.3 1.36-.49 3.75.54.44 7.16.43 21.49-1.01 28.24-4.86 1.61-11.96 2-17.183 2.4-33.477 3.38-65.676 11.17-98.706 18.26-32.602 7-77.305 17.92-107.673 30.97-29.816 12.82-61.271 36.01-87.106 55.28-20.706 15.46-45.686 54.15-75.514 43.21-6.79-5.25-9.972-9.12-12.078-17.83-8.697-34.91 32.192-71.39 58.905-84.97 94.61-48.09 197.355-62.45 301.714-72.36 10.445-.99 23.282-1.14 33.301-3.37z"/><path fill="#565e8a" d="M1135.11 1195.89c1.04.43 55.55 6.78 64.45 8.5 14.77 2.84 33.55 6.65 49.43 10.77 15.94 4.13 38.98 7.65 54.33 12.91 37.58 12.87 88.54 35.73 119.76 59.3 19.16 14.47 55.71 52.82 57.06 77.81.53 9.73-.85 13.34-6.94 20.32-10.32 16.05-44.16 2.95-52.57-6.46-76.49-85.54-167.05-147.8-285.52-146.97zm-122.87.89c1.19-.02.46-.07 2.18.39.97 4.23.82 28.19-.02 32.76-5.94 3.57-24.08.93-31.876 1.73-37.738 3.88-80.655 16.76-114.48 34.33a445 445 0 0 0-98.13 70.58c-19.139 18.19-33.705 41.18-55.856 52.79-12.643 6.62-18.19 5.67-31.166 1.5-5.389-3.73-8.423-7.53-12.758-12.37-4.469-25 15.679-52.61 32.393-69.39 46.799-46.98 119.672-76.75 183.604-90.73 40.236-8.8 85.424-19.43 126.109-21.59"/><path fill="#565e8a" d="M1135.11 1242.34c73.92 1.3 142.08 29.45 199.75 75.22 23.65 18.78 65.57 48.99 67.52 82.93.66 11.61-1.43 23.4-9.53 32.28-26.91 24.71-67.29-31.11-83.89-47.3-31.33-30.56-61.79-58.17-97.69-83.4-31.66-22.24-41.12-20.17-75.17-30.01-1.73-2.7-1.01-24.82-.99-29.72"/><path fill="#fc0029" d="M1861.22 908.626c23.43-1.683 54.6-.697 77.58 3.355 4.47 4.689 6.52 7.645 10.2 12.833-4.35 33.632-41.47 40.057-69.2 42.407-46.89 3.972-94.22 8.759-140.84 14.602-5.46.683-9.99 1.442-15.57 1.745-9.87 1.595-71.19 10.98-75.66 5.644 5.12-12.197 7.68-16.406 9.04-29.938.95-9.361-5.23-26.562-2.27-31.18 9.11-2.335 17.65-2.074 26.63-3.542 26.4-4.321 52.18-5.455 78.78-7.086 22.91-1.405 46.4-6.168 69.33-7.988 10.5-.833 21.5.692 31.98-.852m-1629.934.02c42.083-2.963 95.581 1.756 137.41 6.162 27.916 2.941 56.325 2.806 84.318 7.702 11.236 1.965 31.578 2.051 41.665 6.171 3.741 6.749-3.267 23.286-1.861 31.26 1.711 9.709 5.727 19.136 9.177 28.341-3.289 3.037-16.888 1.78-22.171 1.603-26.361-.128-64.568-8.671-91.371-11.193-28.943-3.06-57.897-5.19-86.807-8.639-37.617-4.488-81.319-.764-100.616-40.535 6.226-19.223 13.26-17.357 30.256-20.872"/><path fill="#565e8a" d="M1014.4 1241.58c2.12 4.64 1.07 23.84.3 29.2-4.69 3.49-34.409 7.26-42.418 11.14-39.971 19.4-76.143 49.52-107.367 80.9-13.007 13.07-25.623 22.09-37.11 37.29-11.763 15.57-31.715 32.7-50.662 38.1-8.257 2.31-13.012-.26-19.715-4.55-15.541-14.68-10.103-50.04 2.464-65.86 16.752-21.09 34.046-33.77 54.632-49.84 47.346-36.95 100.352-61.64 159.634-72.02 13.962-2.55 27.112-2.42 40.242-4.36"/><path fill="#fc0029" d="M1838.31 986.648c11.29-.182 22.59-.15 33.88.097 18.36 16.165 3.41 25.265-11.03 36.555-28.58 22.37-65.48 21.04-99.03 26.76-29.11 4.97-58.6 6.61-87.38 11.3-13.62 1.16-17.61 2.95-32.76 2.89.82-12.3 4.08-22.07 3-34.76-.72-8.48-6.68-15.13-6.24-21.09 14.33-6.06 180.86-22.094 199.56-21.752m-1556.008-.35c15.913 1.448 35.681.549 51.975 1.901 35.77 2.968 72.093 6.856 107.752 10.946 21.046 2.415 48.542 4.015 68.671 8.305-4.356 13.46-5.617 16.95-6.236 30.78-.377 8.42 4.348 23.58 2.903 26.62l-2.402-.53c-15.923.08-36.555-4.16-53.043-6.12l-64.373-8.18c-23.606-3.03-45.104-5.15-68.401-11.85-15.541-4.47-39.969-17.94-48.752-32.16-7.513-12.17 3.384-15.918 11.906-19.712"/><path fill="#565e8a" d="M1135.11 1281.01c1.69.94 12.15 4.34 14.52 5.12 68.74 22.56 129.08 76.82 164.66 139.23 8.81 15.45 13.06 28.3 2.86 44.67-4.59 6.87-13.89 5.69-21.09 5.59-19.73-11.13-49.79-63.92-66.84-83.59-16.42-19.21-33.57-38.65-54.14-53.52-12.45-8.99-26.93-8.54-39.97-15.48zm-121.37.43 1.08 1.54c.03 41.25 8.33 40.37-29.842 49.24-4.515 1.05-14.787 7.52-18.412 10.87-16.341 15.11-32.267 31.22-46.664 48.23-13.77 16.66-48.015 73.97-62.909 81.85a28 28 0 0 1-4.209 1.79c-7.765 2.33-12.239.29-19.045-3.68-11.57-10.5-7.366-28.36-1.094-40.7 28.699-56.48 80.429-102.39 136.15-131.37 12.751-6.63 31.215-12.62 44.945-17.77"/><path fill="#fc0029" d="M348.659 1058.88c31.786-.79 68.882 5.75 100.244 11.3 16.587 2.94 88.761 10.52 96.463 18.6-1.804 11.09-15.573 11.2-18.664 31.31-1.279 6.03-1.232 12.25-1.411 18.42-17.529-.45-29.462-6.24-46.104-8.79-47.649-7.3-83.896-12.36-127.198-35.79-3.428-7.2-8.993-19.66-8.366-27.61.357-4.53 2.06-5.11 5.036-7.44m1439.561.58c4.87-.61 12.67.32 17.8.71.59 10.28.53 21.68-6.77 30.24-12.01 11.18-56.59 28.58-72.19 30.22-33.87 3.55-67.94 13.48-100.3 17.92-1.67-2.54-5.41-27.63-8.37-32.96-3.5-6.33-11.58-8.52-13.81-14.39 6.52-12.79 82.66-17.86 98.46-21.09 27.49-5.62 57.18-9.32 85.18-10.65"/><path fill="#565e8a" d="M1135.11 1333.84c57.07 9.13 103.4 85.6 120.62 135.48 2.22 6.44.35 10.96-3.1 16.12-5.28 3.71-12.48 6.16-18.88 4.59-28.41-6.94-36.28-42.24-49.54-63.94-7.19-11.78-15.41-21.8-22.69-32.57-3.84-8.41-19.29-12.76-24.4-16.89-3.68-2.99-2.06-37.27-2.01-42.79m-123.14.44 1.35.16c2.54 4.29 1.57 34.74 1.55 41.39-27.112 12.05-28.406 18.91-45.067 42.77-14.96 21.44-32.627 85.13-68.535 70.03-17.093-8.69-.296-40.26 6.17-52.24 23.846-44.18 54.077-87.21 104.532-102.11"/><path fill="#fc0029" d="M444.537 1138.26c16.811-.84 66.564 9.74 83.497 15.59 8.628 13.63 8.726 21.78 25.691 28.69 4.695 1.91 12.59 6.74 17.065 9.35l-.229.79c-4.11 2.56-6.913 4.16-11.248 6.3-35.861 6.22-68.766-5.45-101.2-19.5-12.922-5.59-29.972-22.58-22.188-37.69 2.872-2.71 4.741-2.7 8.612-3.53m1262.513.4c.35-.07 4.25.43 4.9.5 3.88 3.41 3.35 7.13 3.78 12.77-4.45 10.18-7.12 18.02-17.05 23.23-28.62 14.98-74.2 31.78-106.4 23.15-4.84-2.03-8.86-3.36-13.01-6.56l-.09-1.71 3.21.5c6.66-4.09 13.67-7.73 20.31-11.8 9.2-5.64 14.08-17.07 20.3-25.53 28.47-9.56 54.42-12.83 84.05-14.55"/><path fill="#565e8a" d="M1135.11 1386.87c2.74 2.28 9.19 6.5 12.64 9.29 26.8 21.73 36.71 40.39 44.62 73.17 2.98 12.35 2.54 14.38-3.41 24.68-14.05 18.68-46.99-28.5-53.85-37.85-.13-23.1-.13-46.2 0-69.29m-120.43.95c.25 18.7.88 51.06-.46 68.33-11.28 11.19-31.828 51.38-54.113 39.81-1.908-3.92-3.811-9.47-5.387-13.66 4.127-17.35 3.93-22.23 11.205-39.79 7.089-17.11 32.107-48.47 48.755-54.69"/><path fill="#734a5f" fill-opacity=".047" d="M1275.03 649.931c2.68-.158 9.16-.509 11 1.254l-2.62.41c-4.31.78-5.04.836-9.43.864l-.66-.964z"/></svg>