<svg xmlns="http://www.w3.org/2000/svg" width="3840" height="2160" preserveAspectRatio="none" style="display:block" viewBox="0 0 2160 2160"><path fill="#8ebee2" d="m731.222 84.996 458.008-.067c79.47.003 162.78-1.25 241.94.073-.79 48.747-.2 98.967-.2 147.79l.01 269.397.01 807.291v682.38c0 25.97-1.05 61.21.17 86.22H898.813l-115.867.07c-9.711.01-45.193.73-52.358-1.13 2.321-6.78.807-100.03.801-114.84l-.01-340.02.008-1018.343.015-335.794c.013-60.316.867-122.843-.18-183.027"/><path fill="#fbfcfd" d="m730.588 2077.02 1.583-3.54c4.764-1.39 42.676-.51 50.148-.5l134.217.04 341.544-.02h112.9c18.16-.01 40.47-.62 58.39.14.89 2.05 1.19 2.79 1.79 4.94H898.813l-115.867.07c-9.711.01-45.193.73-52.358-1.13m.634-1992.024 458.008-.067c79.47.003 162.78-1.25 241.94.073l-1.54 5.18c-64.16-1.189-694.368 1.055-697.926-1.08.038-1.558.085-.808-.226-2.661z"/><path d="M741.346 102.941c74.921 1.169 153.151.054 228.299.054l451.035-.005v1957.03l-679.335.03z"/><path fill="#8ebee2" d="m751.091 120.338 659.899.001V2042.87H751.069z"/><path d="M1195.81 134.442c7.78 3.152 13.46 13.83 16.15 21.61 18.77 54.26 5.69 114.986 5.06 171.104-.04 3.732-.2 9.306 3.6 10.727 3.73-3.115 5.21-11.42 6.3-16.08 12.56-53.33 5.6-109.13 13.72-163.01.42-2.804 1.68-3.827 3.91-5.005 5.48 3.108 6.55 12.259 8.25 18.447 13.05 47.45 10.88 98.963 8.45 147.7-.5 9.988-9.22 52.133-5.36 57.375l2.31-.781c4.51-4.987 6.09-14.047 7.52-20.631a329 329 0 0 0 6.17-44.546c1.5-20.323.57-40.782 3.08-61.042.64-5.211.75-9.581 5.93-12.024 5.6 3.312 6.34 17.868 7.46 24.144 9.52 53.828 6.05 105.066-7.55 157.886-2.14 8.315-10.42 46.127-.88 49.752 13.31-6.777 21.36-82.308 21.31-98.345-.02-5.766-.19-23.52 5.57-25.864 15.67 7.941 6.7 75.425 4.27 91.127-1.44 9.301-10.73 42.559-6.95 49.028 8.53 5.959 7.87 7.086 5.94 16.606-4.12 20.337-47.51 88.179-28.4 107.423 9.81 1.44 17.03-17.675 25.45-22.283l1.68.634c12.12 32.202-13.73 65.585-8.96 75.366 2.01 1.656 6.17 4.527 7.12 6.975 6.02 15.425-23.9 78.22-30.35 93.639-1.92 4.58-5.16 10.84-3.15 15.693 1.37 1.385 5.59 5.538 6.19 7.14 7.89 21.078-27.08 57.319-23.72 73.272 3.49.43 10.96-14.417 16.76-17.935l1.65.716c15.36 36.458-49.21 90.504-35.92 109.969 10.24 3.216 9.72-19.106 17.5-22.421.63.472 1.36.954 1.67 1.625 9.12 20.181-11.74 39.725-18.34 54.828-2.99 6.857 1.13 29.859-2.79 39.679-3.3 8.27-12.2 17.61-13.21 24.34-2.41 15.96 7.34 27.44 1.93 45.17-4.46 14.62-18.67 25.41-21.91 39.02-.37 1.58.45 1.93 1.6 3.37 3.85 1.28 7.03 1.79 9.63 4.76 3.49 10.69-11.62 24.1-15.68 36.66 8.06 30.73 11.89 61.64-19.84 81.36-13.62 8.46-11.14 11.84-21 21.29-4.46 4.27-16.48-10.37-22.14-13.15-3.33.68-5.94 3.13-5.56 6.8.6 5.68 5.24 9.99 8.58 13.81 13.17 15.08 26.39 6.18 42.82 7.26 9.35.7 16.03 7.3 23.76 9.53 8.33 2.4 21.71-.86 31.16-1.01 12.61-.92 22.56 9.66 33.64 13.03 19.36 5.83 39.09 8.19 56.7 19.05 4.9 3.02 14.51 6.28 13.92 12.7-1.12 1.44-4.01 4.98-3.74 6.08 2.42 9.81 35.18 11.48 41.22 20.42l-.74 1.63c-2.96 1.46-19.69 9.73-21.66 11.29-15.98 12.65-35.76-11.9-48.6-4.16-2.14 3.49-1.82 1.71-1.48 5.4 5.76 6.85 24.54 12.32 32.98 14.78-10.83 8.27-22.14 19.17-33.27 27.07-13.22 5.75-43.39-20.59-52.91-5.31-6.68 10.71 31.64 18.11 39.57 21.3l1.22.5c-5.25 5.82-20.17 21.19-25.9 25.07-8.39.79-21.61-8.57-29.19-4.15-.4 6.45 9.93 13.7 14.69 17.82-4.4 6.62-8.43 14.22-12.33 21.21-11.29-6.42-18.58-14.33-29.5-20.68-2.53-1.47-3.74-.49-5.69.48-7.15 11.26 16.14 30.62 24.14 39.01-11.55 10.05-14.23 21.41-17.77 35.7-4.25-5.02-13.5-17.91-19.95-18.3l-1.31 2.13c-.5 6.13 1.85 11.27 3.83 17.23-5.26-2.87-8.88-3.31-14.76-3.33-.65 0-1.32.18-1.94.01-8.18-2.31-22.08-85.29-38.88-94.09-5.1-2.67-10.84 8.24-16.41 9.18-11.24 1.9-10.72-22.41-18.89-27.76l-1.84 1.03c-3.95 8.84-.62 30.64-1.9 43.95-3.49 3.61-2.58-.95-7.82 1.67-5.1 8.83 12.77 74.43-1.37 80.38-4.72-4.52-2-27.41-13.44-35.31-4.29-.65-2.48-1.13-5.75.69-3.63 7.99 3.35 26.74 3.77 36.42.3 7.19 2.89 36.26-8.04 35.81-4.72-4.07-5.09-9.01-9.47-14.58-6.12 2.12-1.8 30.9-11.87 41.26l-1.44-.25c-2.64-6.2-1.05-14.38-3.67-22.52l-1.4-.19c-2.78 4.25-5.07 11.71-7.06 16.85-5-20.17-15.05-31.99-17.52-52.33-.55-4.52-1.17-8.09-4.96-10.74-7.96-1.13-14.465 5.95-9.42 12.51 1.9.43 4.07.82 5.4 1.8 1.81 1.34 6.89 19.91 7.02 21.53.87 10.15-3.15 39.35-8.29 46.8l-1.76.1c-3.323-6.23-.24-13.5-5.73-18.7-5.197 1.49-3.97 4.33-9.735 7.51l-1.466-1.28c-2.638-10.66-5.863-21.5-7.99-32.21-1.093-5.51 3.738-15.68-.817-21l-2.316.13c-4.347 4.47-3.159 8.38-3.127 14.82.088 18.03-9.248 36.54-21.767 49.22 1.208-6.17 3.581-14.4 5.198-20.65 1.007-6.02 1.033-12.65 1.267-18.79-6.572 7.85-18.364 32.98-18.2 43.6.18 11.57-2.741 51.72-11.36 59.27-5.814-3.55 8.167-42.28-11.887-44.14-17.815 9.42-.135 36.35-5.458 42.47-3.276-1.24-7.158-7.98-9.926-11.53l-1.442.12c-3.131 11.95 4.542 20.61 2.813 27.1l-1.535-.08c-6.722-5.73-6.106-17.19-10.366-26.24l-1.545-.4c-2.736 3.1-3.32 7.08-4.39 11.15-2.646-11.52-5.543-24.71-1.37-36.07 4.885-2.75-.417 1.77 5.205 1.49 3.21-7.9 1.29-14.66 3.872-22.29 4.705-13.9 17.327-15.48 28.369-21.57 8.428-4.65 10.023-12.22 12.151-20.67l-1.077-1.24c-6.98-7.88-5.235-11.83-10.274-16.97l-1.452.54c-1.702 6.56-2.002 12.92-2.61 19.67-1.956-8.42-7.794-37.67 2.849-41.25 1.63 1.77 2.075 2.58 4.458 3.14l-1.31.08 1.285-.14c3.666-5.82 2.775-9.8 5.38-15.11 6.258-12.75 21.631-7.1 32.021-11.14 3.37-6.32-3.682-12.04-3.956-17.29-.608-11.62 5.679-23.89 5.451-36.54-.297-16.57-4.581-30.92-6.884-46.95-2.549-17.73-2.68-34.98-8.805-52.12-4.823-13.49-15.5-24.75-22.495-37.08-5.556-9.79-9.392-20.88-14.675-30.75-9.521-17.8-24.32-38.03-38.446-52.47-7.396 4.78-9.099 5.86-17.803 7.51-3.031 5.45-5.15 11.34-8.451 17.25-5.734 10.25-17.565 21.23-18.818 32.97-.302 2.83.212 2.23-1.227 5.31l-1.4.34c-12.97-9.95 14.529-52.65 9.762-64.21l-1.892.48c-7.919 7.33-25.995 34.83-29.227 45.9 1.121 6.48 2.972 13.81 4.459 20.29l-1.183-1.67c-16.574-22.89-12.482-50.67-5.633-76.58.902-3.41 4.588-16.2 4.554-19.07-.236-19.98-.171-34.99 12.203-51.95 21.179-31.23 39.649-56.11 78.603-63.59 25.885-4.98 30.855-2.05 52.709 11.93-1.137-4.61-2.982-10.82-2.998-15.45-.15-13.5 2.241-27.76-.393-41.15-8.712-44.28-20.874-87.82-27.595-132.531-3.224-21.446 1.733-42.228 1.15-63.741-.527-19.418-4.081-38.535-6.189-57.81-3.26-30.384-2.281-64.838 4.84-94.744.963-4.045 3.367-10.121 7.229-12.156 3.195 1.996 4.061 6.664 5.821 10.975l1.378.361c8.09-11.192-13.549-199.514-19.86-222.325-2.3-8.311-5.561-31.162 2.266-36.586 19.701 2.846 27.598 68.403 30.74 83.969.914 4.527 2.255 9.85 6.391 12.395 2.431-2.317 2.788-6.521 3.368-9.92a102.7 102.7 0 0 0 1.341-25.285c-1.947-24.317-22.93-101.634-12.798-119.082l1.939-.465c24.095 15.318 35.114 134.359 43.506 141.305l1.517-1.066c22.223-42.683-12.669-143.75 3.856-162.172l1.842.217c3.951 4.999 4.344 8.699 7.015 13.989 15.18 29.925 14.68 64.435 17.52 97.106 2.71 31.249 4.71 62.588 6.36 93.907.17 3.224.74 6.07 3.3 8.033 17.96-7.957-1.42-97.906 9.09-111.336l1.78.652c6.38 11.295 14.98 94.22 13.94 109.991-1.92 28.871-13.97 65.598-12.19 96.776.52 9.095-1.69 16.254 1.1 26.491l1.58.53c4.31-5.022 5.01-54.566 7.06-67.208 6.52-40.157 22.48-67.837 28.68-108.588 2.54-16.738 5.42-46.181 10.63-62.05.59-1.815 3.24-3.113 5.31-3.642 6.02 5.69-.04 23.851 6.15 28.049 14.93-5.588 11.96-85.829 18.18-103.582 9.36-26.712 18.75-55.778 24.45-83.315 5.04-24.326 5.95-130.136 17.27-144.075l1.96-.079c15.98 15.775 12.4 91.585 13.02 113.999.33 11.825-1.58 32.74 2.61 43.632l1.44.299c11.74-20.781 9.62-126.507 10.56-154.101.56-16.457-3.48-46.294 4.32-60.665"/><path fill="#8ebee2" d="M1043.49 812.452c1.54.923 2.42.903 3 2.718 2.19 5.569.32 12.205.37 17.776.48 46.37-22.73 83.166-33.05 126.625-3.61 15.221-1.32 33.463-2.67 49.089-.66 7.63-6.13 15.1-6.78 22.84-1.37 18.28.99 27.14-6.545 44.13l-1.664-.13-1.317-1.75c-2.965-34.77 5.02-116.656 17.566-149.999 5.88-15.628 16.8-30 21.62-47.819 5.41-19.958 3.38-45.031 9.47-63.48m-80.464-200c9.527 8.667 16.678 110.204 11.664 121.765l-2.475.492c-4.919-1.049-10.444-.791-15.54-.813.48-12.462 3.904-36.005 4.494-49.773.551-12.873-.472-64.188 1.857-71.671m142.304 44.359c13.95-.079 11.93 27.297 12.78 36.865.69 7.701.58 28.095-5.89 32.717-3.43-3.932-4.63-21.995-7.64-29.67-2.14-3.657-2.26-3.992-6-4.371-8.02 3.855-9.89 15.973-18.46 15.255-1.7-2.003-1.81-2.916-1.77-5.678.29-19.131 14.11-33.095 26.98-45.118M1004.05 1431.7c2.16 1.14 3.54 2.41 4.43 4.72 9.25 23.93 11.18 66.66 2.83 90.52-6.54 5.95-25.971 17.94-34.069 23.19-3.89-.27-4.613-1.39-5.366-4.7 3.303-10.82 24.929-20.7 35.005-28.63l.86-.69c-.4-19.71-10.686-67.36-3.69-84.41m168.08-915.379c13.7.793 10.09 20.031 8.06 29.302-2.06 9.413-4.68 23.641-14.73 26.962-6.1-27.311-23.8-30.559 6.67-56.264M992.503 666.245c8.837 6.556 11.897 85.22 4.1 92.773l-9.322-17.722c1.19-13.526 2.935-66.462 5.222-75.051m193.567-65.576c16.05 6.985 8.89 43.522-5.12 52.548-5.69-5.31-5.11-20.98-7.59-28.914-3.64-11.59 3.95-17.507 12.71-23.634m-51.94 93.991c17.16.656 6.15 41.087 4.24 51.127-.71 3.704-1.94 5.662-5.06 7.385-2.58-6.641-2.29-13.228-4.2-18.716-7.36-21.114-13.11-22.296 5.02-39.796m-145.833 405.06c.441.26 1.677 1.5 2.109 1.9.386 3.99-13.211 50.92-18.605 53.14-4.155.13-6.205-1.2-10.152-2.89-3.615-2.52-5.112-3.23-6.597-6.89 2.757-6.28 13.4-12.62 15.681-16.56 8.882-15.35 4.308-15.97 17.564-28.7m149.213-621.516c1.58.662 4.19 2.029 4.73 3.743 2.67 8.385 5.18 37.184-2.98 41.694-3.8-1.284-3.25-1.778-6.35-5.316-4.61-3.614-7.5-3.537-13.15-4.667 3.58-14.53 8.51-23.514 17.75-35.454m5.88 280.495 3.58.614c12.01 8.794 4.01 49.287-2.74 60.771-2.96 1.263-1.6 1.377-4.19.343-1.82-4.242.64-39.141-1.95-47.284-1.76-5.521 1.6-10.118 5.3-14.444m5.64 139.003c16.98 2.222 6.72 45.079.65 55.071-2.62 1.348-1.57 1.013-4.55 1.204-5.38-5.627.89-40.453.96-49.211.01-1.401 2.13-5.564 2.94-7.064m-4.51-61.928c18.79 2.289 11.02 41.054 4.78 52.309-2.78 1.506-1.31 1.294-4.36 1.19-4.61-5.401-1.33-38.619-2.97-46.91-.21-1.039 1.9-5.318 2.55-6.589M950.406 1350.38c10.817 4.27 13.139 27.3 10.251 37.27-1.471 5.08-3.594 6.45-7.938 8.99-3.418-2.72-8.582-8.4-10.7-12.29-3.268-6.01 5.336-9.98 6.574-16.53 1.399-7.41-.609-9.94 1.813-17.44m66.414-615.84c2.03 2.062 2.5 3.795 2.17 6.788-1.21 10.89 2.37 66.827-2.92 72.428l-2.25-.875c-9.01-28.843-3.04-47.882 3-78.341m133.3 230.89c10.2 4.986 7.03 18.669 5.44 28.005-1.52 8.915-3.99 20.225-8.17 28.235-2.8.46-1.5.63-3.91-.85-2.04-7.01 3.58-41.142 3.81-50.307.04-1.227 2.07-4.052 2.83-5.083m-2.31 72.11c14.59 6.47 2.74 38.45-4.05 48.28l-3.02.16c-5.01-5.18 1.26-41.54 7.07-48.44m36.33-297.446c22.75-.281 13.51 24.428 7.83 37.213-3.09 3.148-2.98 3.132-5.86 3.164l-1.68-2.155c-1.34-7.192-2.06-31.488-.29-38.222m2.77-63.253c16.25 2.583 9.49 29.367 1.72 38.43-1.34-.134-3.44-.532-3.97-1.926-3.47-9.115-5.3-20.578-4.3-30.327.31-3.006 4.2-4.874 6.55-6.177M971.881 1319.6c3.606.86 5.579 2.33 6.951 5.78 5.723 14.41 3.047 27.24-10.708 34.09-4.964-1.63-7.956-3.38-7.346-8.8 2.329-4.23 5.228-5.58 9.265-8.28 1.109-7.92.429-14.7 1.838-22.79m-139.525-103.75c6.713 6.22 6.415 29.79-2.742 34.99-3.082 1.75-5.649.52-8.808-.12-10.364-11.51 4.352-11.23 7.804-14.17 1.386-6.09-.436-6.92-1.317-13.5 1.065-3.98 2.052-4.45 5.063-7.2m352.014-403.269c12.62 6.972 5.12 29.427-.89 38.732l-2.26.089c-5.38-4.061.06-33.727 3.15-38.821m-7.29 60.154c11.11 5.653 6.56 29.274 2.01 38.192-2.37.002-1.44.13-3.71-1.048-1.96-4.16.11-32.128 1.7-37.144M936.81 1583.76c7.218.67 16.591 10.42 11.146 16.81-6.473 1.45-1.949-3.72-9.385-4.35-1.39 3.49-2.341 7.04-5.126 9.43l-1.769-.51c-2.342-7.43.786-15.39 5.134-21.38m201.9-471.44c9.44 6.96 1.15 25.92-4.99 33.04l-2.02-1.04c-3.33-6.2 2.94-26.3 7.01-32m35.64-164.909c9.56 3.5 3.86 26.604-.2 33.395-8.99-2.016-2.21-27.376.2-33.395M980.279 1283.85c1.985.28 2.022.49 3.922 1.28 6.587 7.06 3.211 16.1-1.999 22.88-11.3-3.11-5.755-17.45-1.923-24.16m186.591-274.92c9.97 5.15 1.89 21.91-2.2 28.55l-1.84-.86c-5.27-6.24-.22-21.54 4.04-27.69m-356.981 253.91c5.01 2.47 8.345 4.02 8.005 9.87-1.811 3.59-4.708 4.63-8.298 6.7-3.101 1.62-1.603 1.57-4.536 1.15-1.923-4.72 2.78-13.16 4.829-17.72m343.171-178.3 3.05 1.64c4.04 6.36 1.72 12.01-2.36 17.65-8.1-4.75-4.91-12.92-.69-19.29"/><path d="m1062.83 1759.92 217.36.02c13.95 0 109.64-1.16 113.18 1.83 3.26 8.54 1.98 36.63 1.88 47.51l-332.42.01zm-59.48.04 46.28-.13-.03 164.48c.01 14.17 1.06 63.86-.87 74.83-6.91 1.77-36.84 1-45.39.91zm-165.097 87.82c11.385-.37 24.616-.09 36.14-.11.031 8.16-1.104 29.8 1.237 36.68 4.308 12.67 40.935 18.34 50.611 32.64 9.887 14.62 5.714 45.06 5.384 62.6-.154 8.17-5.691 15.68-11.991 20.33-11.17.42-24.617.11-35.956.13.439-42.33 3.872-41.17-37.493-58.49-20.052-8.39-21.181-23.69-20.732-43.59.401-17.8-2.808-37.51 12.8-50.19m-12.477-87.87c41.131.48 82.429-.43 123.573-.03 11.666.11 26.518-.86 37.833 1.56 3.926 4.79 2.255 40.19 2.175 47.85H825.773zm355.914 87.71 46.25.05.1 99.58c0 10.15.76 44.05-1.34 52.54-12.68.86-31.86.27-45.02.26zm-225.206.08 36.092-.03.079 98.8c.021 12.76.773 40.65-.538 52.33-2.671 1.81-7.238 1.27-10.73 1.25-7.143.04-23.357 1.65-28.745-3.15-3.107-2.78-6.575-14.93-6.768-19.35-1.518-34.69-.515-69.75-.472-104.5.022-11.32 2.934-17.84 11.082-25.35m-189.659-.02 46.239-.01.07 100.05c.005 12.29.742 40.36-.822 51.11-6.237 2.24-37.177 1.31-45.481 1.22zm572.825 0c9.92.04 36.01-1.2 43.99.71 15.42 3.69 11.71 54.46 11.71 66.62l-.1 85c-7.85.04-39.69 1.55-43.99-1.9-11.19-21.62 9.99-130.85-11.61-150.43m-265.93.09c11.45-.36 24.59-.08 36.18-.1-.01 16.05 1.57 142.62-1.36 150.37-3.22 2.58-2.19 1.77-7.18 2.01-7.93-.01-27.97 2.06-32.34-4.22-6.66-9.59-6.34-27.65-6.28-38.74.17-29.38-.45-58.53.36-87.86.26-9.14 3.91-15.62 10.62-21.46m194.65 75.04 68.76-.01c-.18 12.62 1.69 68.53-1.92 75.72-3.2 2.06-2.64 1.38-7.09 1.53-19.25-.15-39.8 1.21-58.76-.62-14.18-2.72-12.18-28.96-12.08-39.67.12-13.36-1.47-29.96 11.09-36.95m-146.31-75.14c38.28.31 47.93-7.23 47.43 41.39-.14 13.1-.09 27.64-.17 40.88-14.74.53-32.29.08-47.26.1zm179.91-.8c27.4-.52 36.91-3.98 36.42 29.95-.16 10.9.65 24.19-9.76 30.33-26.16.72-37.6 4.81-37.03-28.72.19-11.57-.91-25.07 10.37-31.56m-55.84 0c26.7-.59 37.26-3.54 36.33 29.59-.31 10.96.86 24.42-9.78 30.66-6.54.2-20.35.73-26.14-.47-15.21-3.14-10.91-38.38-8.75-49.45 1.03-5.27 4.02-7.98 8.34-10.33m-479.303-86.88 46.237-.03v49.32l-46.235.01z"/><path d="M885.338 1847.67c31.959.38 51.626-10.86 47.076 27.71-.842 7.14.064 18.17-.479 26.17-8.554-3.84-38.58-17.85-44.634-22.96-3.255-6.57-2.09-22.97-1.963-30.92m-59.543 98.37c10.239 4.17 35.503 16.49 44.537 23.01 3.536 2.55 2.341 24.6 2.254 31-58.803-.22-46.815 6.57-46.791-54.01m317.925 5.19 25.6-.05c.05 16.86 4.55 48.86-19.45 48.87h-27.81c-.05-7.29-1.71-27.14 2.65-32.08 12.45-4.94 13.17-5.95 19.01-16.74"/></svg>