<svg xmlns="http://www.w3.org/2000/svg" width="1696" height="262.667" viewBox="0 0 1272 197"><path d="M143 98.5V169h32.7l11.6-11.9 11.7-11.9V28h-56zm111.5-69.3c-.3.7-6.6 31.7-14 68.8-7.5 37.1-13.8 68.3-14.1 69.2-.5 1.7.8 1.8 18.5 1.8 10.5 0 19.1-.2 19.1-.4 0-.5 19.5-97 21.1-104.4l1.1-5.2h24.4c13.4 0 24.4-.4 24.4-.9 0-.8-4.5-23.5-5.5-27.9L329 28h-37.1c-28.6 0-37.1.3-37.4 1.2m82.5-.3c0 .5 6.3 32.1 14 70.2s14 69.4 14 69.6 8.5.3 18.9.3h18.8l-14.2-70.2-14.1-70.3-18.7-.3c-11.4-.1-18.7.1-18.7.7m100 69.6V169h36l-.2-70.2-.3-70.3-17.7-.3L437 28zm43-55V59h131V28H480zm186.7-10.8c-2.4 2.7-7.6 8.4-11.5 12.8l-7.2 8v90.8l12.2 12.4 12.2 12.3H684V28h-6.4c-6.4 0-6.5 0-10.9 4.7m24.7-3.4c-.2.7-.3 7.6-.2 15.2l.3 14h131v-30l-65.3-.3c-52.9-.2-65.4 0-65.8 1.1m185.3 3.4c-2.4 2.7-7.6 8.4-11.5 12.8l-7.2 8v90.8l12.2 12.4 12.2 12.3H943v-30h-36.6l-6.2-6.9-6.2-7V71.8l5.6-6.4 5.6-6.4H943V28h-61.9zm73.7-3.4c-.2.7-.3 7.6-.2 15.2l.3 14 18.7.3 18.7.2 5.5 6.2 5.6 6.1v54.9l-6.2 6.4-6.1 6.4H950v30h61.5l11.8-12.4 11.7-12.4V53.1l-11.2-12.6-11.2-12.5h-30.8c-24.4 0-31 .3-31.4 1.3m134.7 11.1L1074 52.8v45.9l.1 45.8 11.5 12.2 11.6 12.3h61.8v-30h-36.6l-6.2-6.3-6.2-6.3V70.8l5.2-5.7 5.1-5.6 19.1-.5 19.1-.5v-30l-31.2-.3-31.1-.2zm80.3-11.1c-.2.7-.3 7.6-.2 15.2l.3 14 19.1.5 19.1.5 5.1 5.6 5.2 5.7v55.8l-6.3 6.2-6.3 6.2H1165v30h61.8l11.6-12.2 11.6-12.3v-46l-.1-46-11-12.3-11.1-12.2h-30.9c-24.5 0-31.1.3-31.5 1.3M480 99v15h122V84H480zM22 139.5c0 .4 5.5 7.1 12.3 15L46.5 169H136v-30H79c-31.4 0-57 .2-57 .5M480 154v15h131v-30H480zm211 0v15h132v-30H691z"/></svg>