<svg xmlns="http://www.w3.org/2000/svg" width="7467" height="1216" style="shape-rendering:geometricPrecision;text-rendering:geometricPrecision;image-rendering:optimizeQuality;fill-rule:evenodd;clip-rule:evenodd"><path fill="#090505" d="M965.5 270.5c65.33-.167 130.67 0 196 .5q3.255 1.25 4.5 4.5 1.005 306.5 0 613-7.845 57.352-64.5 69.5-459 1-918 0-57.291-12.293-64.5-70.5-1-94.5 0-189 .832-4.563 5.5-5.5a4877 4877 0 0 1 197 1l2.5 2.5 1 118 1.5 1.5q316 1 632 0l1.5-1.5 1-540q2.096-2.356 4.5-4m453 0c322.75-.499 645.41.001 968 1.5a7 7 0 0 1 2.5 3.5 4401 4401 0 0 1 0 133c-.83 1.5-2 2.667-3.5 3.5l-829 1c-1.17.5-2 1.333-2.5 2.5q-1.005 62.5 0 125 .555 1.375 1.5 2.5l776 1q2.685 1.177 4.5 3.5 1.005 67 0 134-.555 1.375-1.5 2.5a151655 151655 0 0 1-778 2c-1.17.5-2 1.333-2.5 2.5q-1.005 62.5 0 125 .555 1.375 1.5 2.5l829 1q3.255 1.25 4.5 4.5c.99 45.084.66 90.084-1 135a9.4 9.4 0 0 1-2.5 1.5c-324.33.667-648.67.667-973 0q-46.65-9.428-61.5-54.5a86.7 86.7 0 0 1-3-20q-1.005-269 0-538 6.735-64.486 70.5-75m1158 0c351.67-.167 703.33 0 1055 .5q2.985.861 4.5 3.5 1.005 67.5 0 135c-.83.833-1.67 1.667-2.5 2.5-141.71.168-283.37.668-425 1.5-.5 180.721-1.34 361.388-2.5 542-.83.833-1.67 1.667-2.5 2.5-66.33.667-132.67.667-199 0-1.99-1.319-3.15-3.152-3.5-5.5q-.255-269.502-1.5-539c-141.63-.832-283.29-1.332-425-1.5-.83-.833-1.67-1.667-2.5-2.5q-1.005-67.5 0-135 1.365-3.163 4.5-4m1312 0q469.5-.25 939 .5c38.71 5.376 61.88 27.21 69.5 65.5q1.005 278 0 556c-4.82 29.493-20.99 49.993-48.5 61.5a83 83 0 0 1-15 4c-316.67.667-633.33.667-950 0q-55.275-11.774-64.5-67.5-1.005-276 0-552c4.46-28.457 19.63-48.957 45.5-61.5q11.805-4.697 24-6.5m139 142c220.67-.167 441.33 0 662 .5l1.5 1.5a40001 40001 0 0 1 0 401c-221.76 1.333-443.6 1.333-665.5 0a26934 26934 0 0 1-.5-401c.99-.566 1.83-1.233 2.5-2m1057-142c65.33-.167 130.67 0 196 .5q3.255 1.25 4.5 4.5c.33 180 .67 360 1 540 104.76.666 209.6.999 314.5 1 104.9-.001 209.74-.334 314.5-1 .33-180 .67-360 1-540q1.245-3.25 4.5-4.5 99.12-1.489 198 1c.83.833 1.67 1.667 2.5 2.5q1.005 309.5 0 619c-5.1 29.027-21.27 49.194-48.5 60.5a83 83 0 0 1-15 4c-304.67.667-609.33.667-914 0q-41.31-8.037-58.5-46.5a79.6 79.6 0 0 1-5-19q-1.005-309 0-618 2.1-2.356 4.5-4m1224 0q490.5-.25 981 .5c33.16 4.157 55.32 21.991 66.5 53.5a111.5 111.5 0 0 1 3 16q1.005 134.5 0 269c-5.81 38.141-27.64 60.974-65.5 68.5l-312 1c127.33 87.333 254.67 174.667 382 262a46.4 46.4 0 0 1 8.5 7.5c1.29 4.172.12 7.339-3.5 9.5l-141 .5q-72.09.24-144-1.5c-191.17-131.167-382.33-262.333-573.5-393.5 0 131.08-.67 262.08-2 393a9.4 9.4 0 0 1-2.5 1.5c-66.33.667-132.67.667-199 0a7 7 0 0 1-2.5-3.5q-1.005-340 0-680 2.1-2.356 4.5-4m203 142q319.5-.25 639 .5a9.4 9.4 0 0 1 2.5 1.5q1.005 60 0 120l-1.5 1.5c-213.67.667-427.33.667-641 0a2473 2473 0 0 1-.5-121.5q1.08-.816 1.5-2" style="opacity:1"/></svg>