<svg xmlns="http://www.w3.org/2000/svg" width="400" height="400" preserveAspectRatio="none" style="display:block" viewBox="0 0 1600 1600"><defs><linearGradient id="b" x1="640.628" x2="367.233" y1="740.031" y2="741.809" gradientUnits="userSpaceOnUse"><stop class="stop0" offset="0" stop-color="#503c63"/><stop class="stop1" offset="1" stop-color="#5b2e85"/></linearGradient><linearGradient id="a" x1="-143.434" x2="1742.43" y1="1341.02" y2="257.984" gradientUnits="userSpaceOnUse"><stop class="stop0" offset="0" stop-color="#462e7c"/><stop class="stop1" offset="1" stop-color="#812d8e"/></linearGradient></defs><path fill="url(#a)" d="M0 0h1600v1600H0z"/><path fill="#fefefe" d="M860.917 457.675c44.235-14.852 134.846 16.105 175.623 37.098 4.3-3.743 10.84-8.592 16.98-8.791 21.29-.689 39.33 10.206 58.54 18.621 26.1 11.432 49.39 26.388 71.62 44.652 25.06-8.697 86.18 37.843 105.88 53.908 26.62 20.984 50.95 51.488 63.42 83.019a134.78 134.78 0 0 1-2.23 103.02c-47.65 109.351-215.55 167.066-322.52 190.635a1274 1274 0 0 1-60.514 11.994c-10.751 1.91-37.257 5.789-46.34 9.819-34.636 15.35 30.43 50.62 20.771 71.88-5.353 11.78-18.88 14-29.697 17.1a173.4 173.4 0 0 0-57.498 28.96c-11.29 8.64-25.137 21.67-38.672 26.45-38.911 13.72-60.104-26.16-91.297-40.74-8.409-4.28-16.605-7.95-25.513-11.11-11.676-4.52-34.965-7.66-40.421-21.27-8.551-21.34 53.404-52.91 22.61-70.75-5.246-3.039-24.981-6.189-31.077-7.254-90.572-15.83-181.87-36.767-263.953-79.498-55.69-29.112-121.556-77.664-141.125-140.655a137.57 137.57 0 0 1 10.873-105.85c27.971-52.463 89.675-96.956 144.036-120.453 4.904-2.12 16.684.685 16.655.707 29.517-23.02 59.726-40.745 94.639-54.642 16.322-6.491 36.747-14.929 51.528-.755l.865.838c46.907-21.439 90.176-36.131 142.122-41.189 6.618-.91 23.981-1.28 29.2 3.314-.334 6.232-30.553 15.297-37.293 17.822-239.457 89.694-280.32 354.148-18.632 448.128 21.748 9.89 51.875 13.78 72.524 24.89 46.417 27.649-14.761 66.167-1.576 105.667 15.623 46.8 111.268 36.35 101.561-17.86-7.471-41.725-51.139-79.049 22.093-97 295.571-72.452 301.791-359.614 24.44-465.731-9.924-3.798-26.165-9.572-36.212-14.302z"/><path fill="url(#b)" d="M652.856 954.526a47 47 0 0 1-5.721-1.03c-99.79-24.165-200.209-65.774-257.6-155.812-46.9-73.579-21.436-159.578 37.486-216.524 21.785-21.055 41.893-34.926 67.781-50.485l1.59 2.892c-86.484 61.96-137.403 183.974-68.878 278.508 36.716 50.651 90.918 86.553 147.14 112.337 25.105 11.514 52.234 20.452 78.202 30.114"/><path fill="#653181" d="M1117.23 537.184c93.5 58.94 158.45 157.057 92.26 264.587-36.14 58.698-121.11 114.6-187.38 131.348l-.04-.714c-2.09-1.391-3.48 1.121-8.46 1.511.45-1.644 3.11-2.539 5.15-3.705l.04-1.545c11.21-6.261 23.71-11.474 35.1-17.621 80.43-43.412 162.34-113.169 150.79-214.351-7.67-67.112-40.73-114.352-91.18-156.655z"/><path fill="#653181" d="M1206.66 573.769c38.19 18.796 91.02 70.992 102.85 111.718 34.44 118.632-75.37 194.368-169.49 227.666-.57-1.645.17-2.694.77-4.769 13.64-7.373 27.81-14.054 41.03-22.155 143.04-87.676 151.21-206.656 24.84-312.46m-829.483 10.934 1.876 2.277c-77.57 68.357-102.84 159.331-28.778 244.165 27.012 30.94 60.604 50.851 96.462 70.03l-2.893 5.447c-46.781-19.86-93.611-45.146-125.028-86.393-23.129-30.365-38.499-72.757-32.511-110.98 8.944-57.096 47.696-91.951 90.872-124.546"/><path fill="#4f435c" d="M446.737 901.175c11.696 5.76 47.217 23.336 58.159 27.255-8.238.077-50.603-18.025-61.052-21.808z"/><path fill="#342538" d="m1018.8 928.666-.04 1.545c-2.04 1.166-4.7 2.061-5.15 3.705 4.98-.39 6.37-2.902 8.46-1.511l.04.714c-9.89 4.88-54.094 17.492-65.393 18.382a1042 1042 0 0 0 62.083-22.835m121.99-20.282c-.6 2.075-1.34 3.124-.77 4.769-14.74 6.073-28.06 11.166-43.33 15.734 12.47-6.569 30.71-14.296 44.1-20.503m-54.97-390.094q15.75 9.368 31.41 18.894l-3.72 2.855c-6.49-5.469-22.27-16.38-29.45-20.218z"/><path fill="#4f435c" d="M494.802 530.675c9.896-6.243 23.603-15.01 34.997-17.531-12.756 6.737-21.672 11.823-33.407 20.423zm-117.625 54.028c4.145-2.963 10.419-7.794 14.82-9.729l-.571.955-.488-.637 1.108-.048-.697.941-.678-.639c-.554 2.938-8.64 8.936-11.618 11.434z"/><path fill="#8b8ea1" d="M1068.95 511.126c6.9 2.347 10.52 3.734 16.87 7.164l-1.76 1.531c-5.44-2.65-9.96-5.517-15.11-8.695"/></svg>