<svg xmlns="http://www.w3.org/2000/svg" width="2500" height="2481" viewBox="-15.659 -10.086 121.426 93.502"><path fill="#1a377a" d="M42.734 65.626c11.943-9.397 17.556-21.56 20.055-31.122 2.556-9.793 2.945-19.202 2.936-19.538l-.016-.53-.395-.324C55.582 5.112 43.017.3 42.425.105L42.11 0l-.314.105C41.204.3 28.942 5.111 18.907 14.112l-.396.324-.015.53c-.01.336.268 9.773 2.926 19.538 2.46 9.031 7.682 22.082 20.065 31.122l.623.455z"/><g fill="#cb9f18"><path fill-rule="evenodd" d="M42.125 8.947c-2.09.68-14.171 4.733-21.531 10.219.022 3.906 1.324 29.235 21.531 44.969 19.739-15.734 21.477-41.064 21.5-44.97-7.36-5.485-19.41-9.538-21.5-10.218"/><path d="m41.625 1.688.031 1.187c-.439-.306-1.033-.469-1.718-.469-.322 0-.74.08-1.094.219l.062.813c.369-.21.713-.25 1.063-.25 1.005 0 1.718.752 1.718 1.75 0 .99-.71 1.75-1.75 1.75-.383 0-.832-.07-1.062-.188l-.031.813c.356.083.723.156 1.093.156.668 0 1.27-.149 1.72-.438l-.032 1.063h.969V7.063c.436.256.996.406 1.625.406.37 0 .737-.073 1.093-.157l-.03-.812c-.23.119-.68.188-1.063.188-1.039 0-1.657-.76-1.657-1.75 0-1 .622-1.75 1.626-1.75.35 0 .692.04 1.062.25l.063-.813a3.2 3.2 0 0 0-1.094-.219c-.644 0-1.197.166-1.625.438V1.688h-.5zm.469 7.25v3.187l7.437-.438a110 110 0 0 0-7.437-2.75zm0 3.187v6.156l11.812-1.093 9.625 3.718c.043-.765.06-1.367.063-1.75-1.099-.818-2.304-1.595-3.563-2.343l-6.125.343zm0 6.156v6.188l11.812-1.563L63 26.094c.229-1.575.35-2.965.438-4.094l-9.532.875zm0 6.188v6.187l11.812-2 8.157 2.532c.294-1.314.526-2.558.718-3.72l-8.875 1.126zm0 6.187v6.157l11.812-2.438 6.813 1.875c.335-1.091.613-2.155.875-3.188l-7.688 1.282zm0 6.157V43l11.812-2.906 5.032 1.187a64 64 0 0 0 .906-2.437l-5.938 1.218zm0 6.187v6.156l11.812-3.312 2.719.531c.241-.472.463-.936.688-1.406l-3.407.812zm0 6.156v6.188l11.437-3.657c.045-.067.082-.15.125-.218zm0 6.188v6.187L47 59.75a51 51 0 0 0 2.875-3.156zm0 6.187v2.594a51 51 0 0 0 2.718-2.281z"/></g><path fill="#e3b80f" d="M42.094 8.938a107 107 0 0 0-7.469 2.75l7.469.437zm0 3.187L30.28 17.156l-6.125-.343c-1.26.75-2.463 1.523-3.562 2.343.002.384-.013.982.031 1.75l9.656-3.718 11.813 1.093zm0 6.156L30.28 22.875 20.72 22c.087 1.131.238 2.515.468 4.094l9.094-3.188 11.813 1.563zm0 6.188L30.28 28.594l-8.906-1.125c.194 1.163.455 2.4.75 3.718l8.156-2.53 11.813 2zm0 6.187L30.28 34.344l-7.718-1.313c.262 1.035.57 2.124.906 3.219l6.812-1.875 11.813 2.438zm0 6.157-11.813 3.25-5.968-1.22c.286.81.606 1.61.937 2.438l5.031-1.187L42.094 43zm0 6.187L30.28 45.781l-3.437-.812c.226.473.443.93.687 1.406l2.75-.531 11.813 3.312zm0 6.188L30.5 51.468l.125.188 11.469 3.688zm0 6.156-7.813 1.25a52 52 0 0 0 2.875 3.156l4.938 1.781zm0 6.187-2.75.344c.867.779 1.8 1.51 2.75 2.25z"/><path fill="#da442d" d="M34.656 11.697c-3.262 1.338-7.086 3.095-10.5 5.125l6.125.344 11.813-5.031zm-4.375 5.5-9.625 3.719c.019.33.032.701.063 1.094l9.562.875 11.813-4.594zm0 5.719-9.093 3.187c.063.44.11.908.187 1.375l8.906 1.125 11.813-4.125zm0 5.75-8.156 2.531c.135.604.278 1.213.438 1.844l7.718 1.312 11.813-3.687zm0 5.719L23.47 36.26c.26.85.532 1.715.843 2.593l5.97 1.22 11.812-3.25zm0 5.718-5.031 1.188a62 62 0 0 0 1.594 3.687l3.437.813 11.813-2.781zm0 5.75-2.75.532a57 57 0 0 0 2.969 5.093l11.594-2.312zm.344 5.813a53 53 0 0 0 3.656 4.937l7.813-1.25zm6.531 8.094c.708.716 1.418 1.435 2.188 2.125l2.75-.344z"/><path fill="#c83e29" d="m49.531 11.697-7.437.438 11.812 5.03 6.125-.343c-3.412-2.03-7.237-3.786-10.5-5.125m4.375 5.5-11.812 1.094 11.812 4.594 9.563-.875c.031-.398.045-.76.062-1.094zm0 5.719-11.812 1.562 11.812 4.125 8.875-1.125c.078-.47.155-.932.219-1.375zm0 5.75-11.812 2 11.812 3.687 7.688-1.28c.161-.636.332-1.268.468-1.876zm0 5.719-11.812 2.437 11.812 3.25 5.938-1.219c.311-.88.612-1.738.875-2.593zm0 5.718L42.094 43.01l11.812 2.78 3.407-.812a61 61 0 0 0 1.624-3.687zm0 5.75-11.812 3.313 11.562 2.312a56 56 0 0 0 2.969-5.093zm-.375 5.844-11.437 3.656 7.781 1.25a53 53 0 0 0 3.656-4.906M47 59.76l-4.906 1.78 2.718.313A50 50 0 0 0 47 59.76"/><path fill="#181a21" fill-opacity=".941" d="m37.344 71.603-.157 1.25 3.032-.03.125-1.22zm-35.875.032-1.157 9.25h3.032l.469-3.844h.03l1.876 3.812h3.343l-2.437-4.812 3.281-4.406H6.75l-2.688 3.687h-.03l.437-3.687zm59.312 1.718c-1.34.003-2.173.412-2.343 1.782l-.5 4c-.187 1.5.67 1.75 1.75 1.75h3.874c1.21-.003 2.02-.393 2.188-1.75l.063-.563H62.78c-.116.624-.643.811-.968.813-.793 0-.798-.617-.75-1l.062-.532h4.781l.344-2.75c.175-1.405-.604-1.75-1.813-1.75zm8.563 0c-1.131.002-1.928.405-2.094 1.75l-.469 3.938c-.17 1.369.519 1.751 1.625 1.75h1c.507-.001 1.078-.065 1.5-.438.22-.192.239-.267.531-.843h.032l-.25 2h-4.563l-.187 1.843h5.375c.897 0 2.21-.146 2.406-1.718l1-8.22h-3.031l-.125 1.063h-.031c-.193-.648-.598-1.126-1.626-1.125zm8.375 0c-.912.098-1.511.573-1.656 1.75l-.5 3.938c-.17 1.369.55 1.751 1.656 1.75h.969c.506 0 1.076-.096 1.5-.469.218-.192.27-.236.562-.812l-.219 1.968-4.562.032-.219 1.843 5.406-.03c.898-.002 2.21-.116 2.406-1.688l1-8.22h-3.03l-.157 1.032c-.193-.649-.629-1.095-1.656-1.094h-1.063c-.141 0-.307-.014-.437 0m-44.438.032c-.883 0-1.198.205-1.531.468-.278.253-.328.338-.5.782h-.031l.125-1.157h-3.032l-.906 7.375h3.032l.593-4.843c.035-.29.142-1.124 1-1.125.884-.002.789.718.75 1.03l-.593 4.938 3.03-.03.688-5.657c.181-1.453-.59-1.783-1.656-1.781zm9.657 0c-1.132 0-1.928.405-2.094 1.75l-.469 3.937c-.17 1.369.55 1.751 1.656 1.75H43c.506 0 1.077-.065 1.5-.437.22-.193.239-.268.531-.844h.032l-.25 2H40.28l-.218 1.844h5.406c.897 0 2.18-.147 2.375-1.72l1-8.218h-3.032l-.124 1.063h-.032c-.192-.65-.597-1.127-1.625-1.125zm8.406 0c-.912.1-1.542.574-1.688 1.75l-.125 1c-.225 1.813.869 1.85 2.063 1.875l2.531.062-.031.219c-.028.216-.15 1.061-1.125 1.062-.209 0-.409-.036-.563-.156-.155-.109-.255-.279-.25-.531h-3l-.062.437c-.207 1.67.922 1.783 1.937 1.782h3.719c1.274-.002 2.089-.485 2.25-1.782l.125-.968c.209-1.682-1.006-1.728-2.031-1.75l-2.563-.032.063-.562c.113-.913.922-.906 1-.906.117 0 .301.036.468.156s.312.309.282.656h3.031l.063-.562c.163-1.322-.5-1.752-1.657-1.75H51.75c-.141 0-.276-.015-.406 0m-38.532.03c-.858.002-2.076.095-2.28 1.75l-.5 4c-.192 1.537.72 1.783 1.812 1.782l3.75-.031c1.249-.001 2.087-.443 2.25-1.75l.5-4c.171-1.38-.502-1.751-1.75-1.75zm8.844 0c-1.339.003-2.173.383-2.343 1.75l-.5 4c-.187 1.5.67 1.752 1.75 1.75h3.875c1.208-.002 2.018-.393 2.187-1.75l.063-.53h-3.032c-.116.625-.643.78-.968.78-.793 0-.798-.614-.75-1l.062-.5h4.781l.344-2.75c.175-1.404-.604-1.75-1.813-1.75zm18.469.032-3.031.031-.907 7.344h3.032zm31.063 1.281c.87 0 .784.787.75 1.063l-.313 2.469c-.024.192-.129 1.03-1 1.03-.715 0-.8-.572-.75-.968l.344-2.625c.055-.444.292-.967.969-.969m8.562 0c.072-.015.165 0 .25 0 .871 0 .754.787.719 1.063l-.313 2.437c-.023.193-.129 1.062-1 1.063-.715.001-.769-.573-.719-.969L79 75.697c.048-.388.249-.86.75-.969m-34.969.032c.871 0 .785.786.75 1.062l-.312 2.469c-.024.192-.129 1.03-1 1.031-.715.001-.799-.572-.75-.969l.343-2.625c.056-.445.293-.967.97-.968zm17.563.093c.506 0 .872.3.781 1.032l-.063.5h-1.75l.063-.625c.069-.553.474-.905.969-.907m-47.875.032c.871-.002.775.765.75.968l-.313 2.594c-.045.373-.129.969-1 .969-.871.001-.796-.596-.75-.969l.313-2.594c.025-.203.13-.968 1-.968m8.75.03c.506 0 .872.268.781 1l-.063.5h-1.75l.063-.593c.069-.551.474-.905.969-.906zm42.343 6.563-16.593.032s-.093 1.255-.688 1.843l17.063-.03zm-26.437.032L.25 81.572 0 83.416l38.906-.063z"/><path fill="#cb9f18" d="M42.094 1.697v6.406h.5v-1.03c.436.255.996.405 1.625.405.37 0 .737-.072 1.093-.156l-.03-.812c-.23.118-.68.187-1.063.187-1.039 0-1.657-.76-1.657-1.75 0-.999.622-1.75 1.626-1.75.35 0 .692.04 1.062.25l.063-.812a3.2 3.2 0 0 0-1.094-.22c-.644 0-1.197.167-1.625.438V1.697z"/><path fill="#e3b80f" d="m41.625 1.697.031 1.188c-.439-.307-1.033-.47-1.718-.47-.322 0-.74.08-1.094.22l.062.812c.369-.209.713-.25 1.063-.25 1.005 0 1.718.753 1.718 1.75 0 .991-.71 1.75-1.75 1.75-.383 0-.832-.069-1.062-.187l-.031.812c.356.084.723.156 1.093.156.668 0 1.27-.148 1.72-.437l-.032 1.062h.469V1.697z"/></svg>