<svg xmlns="http://www.w3.org/2000/svg" width="3840" height="2160" preserveAspectRatio="none" style="display:block" viewBox="0 0 2160 2160"><path fill="#4d5863" d="M1055.4 317.967c314.55-3.931 646.84 86.177 880 307.851 123.09 117.026 206.74 273.43 209.35 445.572 2.56 169.04-72.16 322.81-189.08 442.54-217.14 222.34-546.29 323.73-851.07 328.1-68.24 1.28-136.479-2.2-204.234-10.4-244.498-29.77-495.483-124.5-675.515-297.21-123.326-118.31-206.676-271.85-209.598-445.23-2.854-169.349 72.191-323.359 189.14-443.163 217.055-222.354 546.396-323.678 851.007-328.06M526.75 1623.87c4.82-25.74 9.062-52.26 15.559-77.54 3.653-14.22 11.364-11.63 21.922-8.34 33.854 10.54 69.995 17.02 105.02 22.4a1105.1 1105.1 0 0 0 431.259-18.72c24.89-6.33 48.99-13.17 73.06-22.12 92.73-34.51 124.88-122.71 126.84-214.37.36-14.7.12-29.41-.72-44.08-1.44-21.22-9.63-70.9.96-86.47 19.87-29.21 53.5-64.45 76.29-91.76 59.47 4 123.44 13.94 182.02 17.39-4.89 27.11-9.63 56.38-15.28 83.23-30.45 10.34-62.47 20.11-91.85 32.62-7.14 3.04-5.15 26.62-1.6 32.4 16.1 26.2 31.48 49.64 44.4 77.9a424.55 424.55 0 0 1 8.72 332.68c-4.09 10.18-8.48 19.07-13.57 28.76a940.3 940.3 0 0 0 197.17-94.38c148.88-95.65 270.84-227.92 310.69-405.13 30.87-137.29.48-277.729-75.32-395.283-92.22-143.029-239.43-245.314-395.84-307.789-28.41-11.348-63.15-24.156-92.68-32.197 45.66 207.133-3.44 401.911-116.06 578.249a1288 1288 0 0 1-92.34 125.82c-20.84 25.27-42.75 50.66-65.26 74.49-11.47 12.15-30.74 25.49-44.63 35.12a588.4 588.4 0 0 1-212.284 91.69c-109.323 24.11-207.369 22.21-317.829 22.14L745.22 723.638l49.66-204.134c5.273-21.984 18.254-68.046 21.04-87.891l-.941-1.16-1.121.163c-38.775 7.088-87.752 21.588-125.111 34.25-170.843 57.899-334.824 160.188-439.034 310.15-81.309 117.008-116.898 255.844-90.656 396.924 31.401 168.82 145.188 306.63 284.109 401.87 30.517 20.92 51.332 32.44 83.584 50.06m178.873-396.44c34.538-7.9 51.841-26.45 75.937-52.03 110.299-127.82 180.49-311.949 221.64-474.438 17.42-68.813 43.26-191.296-15.993-247.552-21.57-20.478-61.082-15.855-89.551-15.689L763.273 990.252c-18.921 77.728-40.243 159.398-57.65 237.178"/></svg>