<svg xmlns="http://www.w3.org/2000/svg" viewBox="0 0 150 150.2"><path fill="none" d="M0 .2h150v150H0z"/><path fill="#0a4595" d="m136.3 101.2-28 29.2h18.3c6 0 9.7-4.3 9.8-10.5v-18.7zm-1-60.4v21.1c0 4-1.2 7.4-4 10.1l-24.1 24.3c-1.5 1.6-2.2 3.5-1.4 5.2l29.8-30v17.6c.1 5.1-1.1 9.8-4 13.4l-26.5 27.8H75.9V85.8c0-13.6 1.7-16.6 5.7-21.1l53.2-54.3v20.7c0 3.8-1.5 7.5-4.2 10.1l-23.5 24.3c-1.5 1.6-2.2 3.5-1.4 5.2l19.4-19.6zM13.2 101.2l28 29.2H22.9c-6 0-9.7-4.3-9.8-10.5v-18.7zm.9-60.4v21.1c0 4 1.2 7.4 4 10.1l24.1 24.3c1.5 1.6 2.2 3.5 1.4 5.2L24.1 81.9 13.7 71.5v17.6c-.1 5.1 1.1 9.8 4 13.4l26.5 27.8h29.3V85.8c0-13.6-1.7-16.6-5.7-21.1L14.6 10.4v20.7c0 3.8 1.4 7.5 4.1 10.1l23.5 24.3c1.5 1.6 2.2 3.5 1.4 5.2L24.2 51.1z"/></svg>