<svg xmlns="http://www.w3.org/2000/svg" width="800" height="800"><path d="M451.841 284.52a65.76 65.76 0 1 1-131.522 0 65.76 65.76 0 1 1 131.522 0" style="opacity:1;fill:#fff;fill-opacity:1;fill-rule:nonzero;stroke:#000;stroke-width:4;stroke-linecap:round;stroke-linejoin:round;stroke-miterlimit:4;stroke-dasharray:none;stroke-dashoffset:0;stroke-opacity:1" transform="translate(-1674.812 -1121.98)scale(5.37462)"/><path d="M451.841 284.52a65.76 65.76 0 1 1-131.522 0 65.76 65.76 0 1 1 131.522 0" style="opacity:1;fill:#000;fill-opacity:1;fill-rule:nonzero;stroke:none;stroke-width:4;stroke-linecap:round;stroke-linejoin:round;stroke-miterlimit:4;stroke-dasharray:none;stroke-dashoffset:0;stroke-opacity:1" transform="translate(-1529.56 -1014.937)scale(4.9984)"/><path d="M415.753 172.347c-7.832 0-14.214 6.226-14.214 14.058v94.501c0 7.832 6.382 14.214 14.214 14.214h81.224c7.833 0 14.215-6.382 14.215-14.214v-38.894h-23.118v19.37c0 3.948-3.08 7.184-7.029 7.184h-44.36c-3.95 0-7.03-3.236-7.03-7.185v-59.668c0-3.949 3.08-7.185 7.03-7.185h44.36c3.949 0 7.029 3.236 7.029 7.185v15.464h23.118v-30.772c0-7.832-6.382-14.058-14.215-14.058zm-235.861.469a10.925 10.925 0 0 0-10.934 10.934v101.217a10.925 10.925 0 0 0 10.934 10.934h3.905a10.925 10.925 0 0 0 10.934-10.934V246.23h65.447a10.925 10.925 0 0 0 10.934-10.934V183.75a10.925 10.925 0 0 0-10.934-10.934zm101.217 0v112.151a10.925 10.925 0 0 0 10.934 10.934h87.94a10.925 10.925 0 0 0 10.935-10.934V172.816H363.27v87.003c0 6.046 1.36 10.934-4.686 10.934H313.6c-6.046 0-4.999-4.888-4.999-10.934v-87.003zm242.422 0V295.9h27.492v-53.73h54.67v53.73h27.647V172.816h-27.647v45.142h-54.67v-45.142zm-328.8 20.462h42.955c6.046 0 10.777-.266 10.777 5.78v21.086c0 6.046-4.731 5.78-10.777 5.78H194.73z" style="opacity:1;fill:#fff;fill-opacity:1;fill-rule:nonzero;stroke:none;stroke-width:4;stroke-linecap:round;stroke-linejoin:round;stroke-miterlimit:4;stroke-dasharray:none;stroke-dashoffset:0;stroke-opacity:1"/><path d="M168.122 307.084h468.616v145.917c0 14.622-.716 28.676-2.092 42.161-16.222 158.979-124.177 238.88-232.15 239.134-117.177.276-234.374-93.247-234.374-281.295z" style="fill:#fff;fill-rule:evenodd;stroke:none;stroke-width:1px;stroke-linecap:butt;stroke-linejoin:miter;stroke-opacity:1"/><path d="M168.122 307.084H402.43V495.03H170.18c-1.354-13.442-2.058-27.451-2.058-42.03zm466.524 188.078c-16.222 158.979-124.177 238.88-232.15 239.134l-.066-239.204z" style="fill:#42a500;fill-opacity:1;fill-rule:evenodd;stroke:none;stroke-width:1px;stroke-linecap:butt;stroke-linejoin:miter;stroke-opacity:1"/></svg>