<svg xmlns="http://www.w3.org/2000/svg" width="2500" height="2424" viewBox="-2.6 0 965.1 930.9"><path fill="#151515" d="M951.9 442.5c-27.1 0-90.1.1-127.9.1-13.4 0-17.3-2.4-25.7-11.4s-50.2-53.8-50.2-53.8C695 320.2 565.5 193.8 518.2 153.9c-17.8-15-37.9-14.5-38.2-14.5s-20.4-.5-38.2 14.5C394.5 193.8 265 320.2 211.9 377.4c0 0-41.8 44.8-50.2 53.8s-12.3 11.4-25.7 11.4c-37.9 0-100.8-.1-127.9-.1-6.6 0-10.7-8-6.2-13.1C56.2 373.4 350 70.4 405 26.7 424.2 11.3 448.9 0 480 0c31 0 55.8 11.3 75 26.7 55 43.7 348.8 346.7 403.1 402.7 4.4 5.1.5 13.1-6.2 13.1M8 488.4c27.1 0 90.1-.1 127.9-.1 13.4 0 17.3 2.3 25.7 11.3s50.2 53.8 50.2 53.8c53.1 57.2 182.6 183.6 229.9 223.5 17.8 15 37.9 14.5 38.2 14.5s20.4.5 38.2-14.5c47.3-39.8 176.8-166.2 229.9-223.5 0 0 41.8-44.8 50.2-53.8s12.3-11.3 25.7-11.3c37.9 0 100.8.1 127.9.1 6.6 0 10.7 8 6.2 13.1-54.3 56-348 358.9-403.1 402.7-19.1 15.4-43.9 26.7-75 26.7-31 0-55.7-11.3-74.9-26.7C349.9 860.4 56.2 557.5 1.9 501.5c-4.5-5.1-.5-13.1 6.1-13.1M456.8 592v125.5c0 5.9-5.7 8.5-10.5 4.3-54-50-174.3-169.2-214.7-215.4-19.2-20.5-17.5-41.2-17.5-41.2s-1.8-20.9 17.5-41.3c40.4-46.2 160.7-165.4 214.7-215.4 4.6-4.3 10.5-1.1 10.5 3.9v125.8c0 11.4-2.4 17.2-12.3 26.4-24.2 22.2-66.9 63.5-82.8 82.1-7.2 8.2-6.7 18.4-6.7 18.4s-.5 10.3 6.7 18.5c15.9 18.5 58.6 59.9 82.8 82 9.9 9.2 12.3 15 12.3 26.4m58.7-26.3c24.2-22.1 66.9-63.5 82.8-82 7.2-8.2 6.7-18.5 6.7-18.5s.5-10.2-6.7-18.4c-15.9-18.6-58.6-59.9-82.8-82.1-9.9-9.2-12.3-15-12.3-26.4V212.9c0-5.9 5.7-8.6 10.5-4.4 54 50 174.3 169.2 214.6 215.4 19.3 20.5 17.5 41.3 17.5 41.3s1.8 20.8-17.5 41.3C688 552.7 567.7 671.9 513.7 721.9c-4.8 4.2-10.5 1.6-10.5-4.4V592.1c.1-11.4 2.4-17.2 12.3-26.4"/></svg>