<svg xmlns="http://www.w3.org/2000/svg" width="2500" height="2500" viewBox="0 0 192.755 192.755"><path fill="#fff" d="M0 0h192.755v192.755H0z"/><path fill="#903035" d="M145.27 37.273c-9.599-2.399-37.204-4.836-66.601-2.999-28.801 1.8-29.4 15.3-30.6 24.9s.899 58.799.899 58.799 29.1 3.994 47.4 3.797c18.301-.196 47.521 2.82 50.399-18.196 3.003-21.9-1.497-66.301-1.497-66.301M91.465 142.574v-3.6H56.066v20.399h35.399v-3.6H64.467v-4.8h25.499v-3.6H64.467v-4.799zm-49.095 5.4s-16.35-.601-18.75-.601-4.05-.6-4.05-2.999c0-1.645 2.239-1.795 4.2-1.802v.002h23.296v-3.601H19.653s-8.184-.3-8.184 5.7c0 4.949 2.85 6.149 7.35 6.149s15.9.751 18 .751c0 0 2.85.276 2.85 2.25 0 1.199-.75 1.949-2.1 1.949h-25.8v3.6h29.597c1.604 0 6.253-.75 6.253-5.699 0-4.65-2.549-5.399-5.249-5.699m139.816-8.955h-36.54v4.26h14.233v16.094h7.767v-16.094h14.54zm-73.815-.045c-3.895 0-7.65 2.702-7.65 5.851l-.002 14.645h7.202v-7.746h21.642v7.65h7.2v-20.399h-28.392zm-.451 9.149v-1.499c0-1.574 1.499-3.749 4.199-3.749h17.442v5.248z"/><path fill="#cc2229" d="M144.371 36.373c-9.6-2.399-37.205-4.837-66.602-2.999-28.8 1.8-29.4 15.3-30.6 24.899s.9 58.8.9 58.8 29.1 3.993 47.4 3.797 47.52 2.819 50.399-18.196c3.003-21.901-1.497-66.301-1.497-66.301"/><path fill="#b3b3b3" stroke="#b3b3b3" stroke-width=".45" d="M50.769 58.574s-.276-12.872 6.6-16.801c8.4-4.799 30.3-9 83.102-2.399 0 0 .599 16.799.599 18 0 0-39.312-3.369-46.499-2.801-5.1.402-2.7 3.102 0 3.496 0 0 39.6 6.506 46.499 8.004v6.902c-.001 0-62.101-12.301-90.301-14.401zm-.299 4.799s69.6 10.801 90.599 15.9v6.301s-70.8-15.901-90.3-17.701zm.299 9.602s68.101 10.5 90.3 19.199c0 0 1.8 14.4-5.399 18.9-10.301 6.438-49.199 6.3-84 2.1 0 0-.9-16.5 0-24.602 0 0 38.418 2.853 46.801 3.901 4.799.601 4.801-1.8 1.8-3.601 0 0-37.2-10.2-49.201-11.699z"/><path fill="#4d4d4d" stroke="#4d4d4d" stroke-width=".45" d="M52.57 60.374s-.277-12.872 6.6-16.801c8.4-4.799 30.299-9 83.1-2.399 0 0 .6 16.799.6 18 0 0-39.312-3.37-46.499-2.803-5.1.402-2.7 3.104 0 3.496 0 0 39.601 6.506 46.499 8.006v6.9c-.001 0-62.101-12.299-90.3-14.399zm-.301 4.799s69.602 10.801 90.6 15.901v6.3S72.07 71.473 52.57 69.673zm.301 9.6s68.1 10.501 90.299 19.2c0 0 1.801 14.4-5.399 18.9-10.301 6.438-49.2 6.3-84 2.1 0 0-.899-16.5 0-24.601 0 0 38.418 2.852 46.801 3.9 4.799.601 4.801-1.8 1.8-3.6 0 0-37.2-10.201-49.201-11.7z"/><linearGradient id="a" x1="-6.043" x2="94.457" y1="179.732" y2="179.732" gradientTransform="matrix(.9 0 0 .9 56.959 -106.39)" gradientUnits="userSpaceOnUse"><stop offset="0" stop-color="#929496"/><stop offset=".07" stop-color="#97999b"/><stop offset=".165" stop-color="#a4a6a8"/><stop offset=".274" stop-color="#bbbdbf"/><stop offset=".393" stop-color="#dcddde"/><stop offset=".489" stop-color="#fff"/><stop offset=".565" stop-color="#f8f8f8"/><stop offset=".661" stop-color="#eaeaeb"/><stop offset=".768" stop-color="#d4d5d7"/><stop offset=".881" stop-color="#b6b8ba"/><stop offset="1" stop-color="#929496"/></linearGradient><path fill="url(#a)" d="M51.669 59.475s-.277-12.872 6.6-16.802c8.4-4.799 30.299-9 83.101-2.399 0 0 .6 16.799.6 18 0 0-39.312-3.369-46.499-2.802-5.1.402-2.701 3.103 0 3.496 0 0 39.6 6.506 46.499 8.005v6.901c-.001 0-62.101-12.3-90.301-14.399"/><linearGradient id="b" x1="-6.043" x2="94.457" y1="201.959" y2="201.959" gradientTransform="matrix(.9 0 0 .9 56.959 -106.39)" gradientUnits="userSpaceOnUse"><stop offset="0" stop-color="#929496"/><stop offset=".07" stop-color="#97999b"/><stop offset=".165" stop-color="#a4a6a8"/><stop offset=".274" stop-color="#bbbdbf"/><stop offset=".393" stop-color="#dcddde"/><stop offset=".489" stop-color="#fff"/><stop offset=".565" stop-color="#f8f8f8"/><stop offset=".661" stop-color="#eaeaeb"/><stop offset=".768" stop-color="#d4d5d7"/><stop offset=".881" stop-color="#b6b8ba"/><stop offset="1" stop-color="#929496"/></linearGradient><path fill="url(#b)" d="M51.37 64.273s69.601 10.801 90.6 15.9v6.301s-70.8-15.902-90.3-17.701z"/><linearGradient id="c" x1="-6.043" x2="94.512" y1="224.277" y2="224.277" gradientTransform="matrix(.9 0 0 .9 56.959 -106.39)" gradientUnits="userSpaceOnUse"><stop offset="0" stop-color="#929496"/><stop offset=".07" stop-color="#97999b"/><stop offset=".165" stop-color="#a4a6a8"/><stop offset=".274" stop-color="#bbbdbf"/><stop offset=".393" stop-color="#dcddde"/><stop offset=".489" stop-color="#fff"/><stop offset=".565" stop-color="#f8f8f8"/><stop offset=".661" stop-color="#eaeaeb"/><stop offset=".768" stop-color="#d4d5d7"/><stop offset=".881" stop-color="#b6b8ba"/><stop offset="1" stop-color="#929496"/></linearGradient><path fill="url(#c)" d="M51.669 73.874s68.1 10.501 90.3 19.2c0 0 1.8 14.399-5.4 18.899-10.301 6.438-49.199 6.3-83.999 2.101 0 0-.9-16.5 0-24.602 0 0 38.418 2.853 46.801 3.9 4.799.601 4.801-1.799 1.8-3.6 0 0-37.2-10.201-49.201-11.699z"/><path fill="#cc2229" d="M90.566 141.674v-3.6h-35.4v20.399h35.4v-3.6H63.567v-4.801h25.499v-3.599H63.567v-4.799zm-49.096 5.4s-16.351-.601-18.75-.601-4.05-.601-4.05-3c0-1.644 2.239-1.794 4.2-1.802v.002h23.296v-3.6H18.753s-8.184-.301-8.184 5.699c0 4.95 2.85 6.15 7.35 6.15s15.9.75 18 .75c0 0 2.85.277 2.85 2.25 0 1.199-.75 1.949-2.1 1.949h-25.8v3.6h29.597c1.603 0 6.253-.749 6.253-5.699 0-4.649-2.55-5.397-5.249-5.698m139.817-8.955h-36.54v4.26h14.233v16.094h7.766v-16.094h14.541zm-73.817-.045c-3.894 0-7.65 2.701-7.65 5.85l-.002 14.645h7.202v-7.746h21.643v7.65h7.2v-20.398H107.47zm-.45 9.149v-1.499c0-1.573 1.499-3.749 4.2-3.749h17.442v5.248z"/></svg>