<svg xmlns="http://www.w3.org/2000/svg" width="2500" height="2500" viewBox="-0.8 -0.1 301 300.5"><path fill="#f60" d="M123.3 1.1C86.2 2.8 63.8 8.6 44.7 21.4c-13.6 9-23.6 20.7-30.8 36.1C6 74.4 2.5 93 1 127.6c-1.8 38.7.8 77.3 6.6 97.8 5.2 18.6 13.5 32.8 26.2 44.7 15.7 14.6 33.3 22.3 60.6 26.4 25 3.7 82.9 3.9 108.2.4 30.8-4.2 50.4-12.9 66.5-29.6 8-8.2 11.7-13.6 16.9-24.5 8.1-17.1 11.4-34.8 13-70.2 1.2-25.3 0-61.3-2.5-78.1-5.9-39.4-22.7-65-52-79.8C229 7 206.2 2.5 174.5 1c-23.9-1.1-27.1-1.1-51.2.1m36.9 93.2c13.2 3.1 19.6 7.5 23.8 16.5 4.3 9.2 5 16.8 5 58.3v39l-14.2-.3-14.3-.3-.5-38c-.5-41.5-.7-42.8-6.5-47.3-5.2-4.1-9.6-4.6-38-4.7h-27l-.5 45-.5 45h-28l-.3-56.9c-.2-44.9.1-57.2 1-57.8.7-.5 22-.7 47.3-.5 37.1.4 47.3.8 52.7 2m78.6-.6c.7 1.4 1 110.1.3 113.6 0 .4-6.5.6-14.3.5l-14.3-.3-.3-56.4c-.1-40.8.1-56.8.9-57.7.9-1.1 4.4-1.4 14-1.4 11.2 0 12.9.2 13.7 1.7M139 172.5v35.6l-14.7-.3-14.8-.3-.3-34c-.1-18.7 0-34.6.3-35.2.3-1 4.2-1.3 15-1.3H139z"/></svg>