<svg xmlns="http://www.w3.org/2000/svg" width="130" height="210.056" viewBox="0 0 130 210.056"><path d="M8.536 0A8.54 8.54 0 0 0 0 8.553v192.95a8.54 8.54 0 0 0 8.536 8.552h68.479a1.418 1.418 0 0 0 1.07-2.344v-.008c-7.22-8.341-31.05-37.302-34.825-60.299a43.4 43.4 0 0 1 .552-18.024q.057-.352.127-.697c1.822-8.78 11.074-21.314 14.788-26.968a40.06 40.06 0 0 0 7.127-19.519 35.2 35.2 0 0 0-1.35-10.898v-.025l-.026-.094-.12-.433q-.072-.255-.152-.51l-.145-.458-.033-.11a32 32 0 0 0-1.215-3.33c-.822-2.03-1.579-3.476-1.818-3.95 0 0-.257-.442-.348-.611a2.08 2.08 0 0 0-1.784-.969 2.11 2.11 0 0 0-1.732.935 91.3 91.3 0 0 1-11.501 14.6 15.75 15.75 0 0 1-11.382 5.378 14.58 14.58 0 0 1-12.58-6.447 171 171 0 0 1-11.586-22.832c-.304-.644-1.641-3.577 1.003-4.97 1.796-.947 3.576-.001 5.181 2.609A189 189 0 0 0 27.69 66.72a6.593 6.593 0 0 0 9.964.866 89.4 89.4 0 0 0 13.395-22.178 24.1 24.1 0 0 0 1.571-15.62A61.7 61.7 0 0 0 36.422 3.184l-.442-.407A10.34 10.34 0 0 0 29.202 0zm46.692.008a1.44 1.44 0 0 0-.96.484 1.4 1.4 0 0 0-.221 1.53l.238.432A88.1 88.1 0 0 1 66.898 36.1a44.6 44.6 0 0 0 4.145 13.208 64.9 64.9 0 0 1 6.651 23.265 53.4 53.4 0 0 1-.518 12.18 54.3 54.3 0 0 1-9.13 23.393c-6.437 10.367-11.472 17.484-12.377 27.834a39.7 39.7 0 0 0 1.742 14.72 67.3 67.3 0 0 0 4.884 11.204s.79 1.481.968 1.707a2.1 2.1 0 0 0 1.733.91 2.2 2.2 0 0 0 .603-.086 2 2 0 0 0 1.172-.985l.4-.722c.143-.265.325-.602.56-1.019a191 191 0 0 1 14.915-22.696v-.034a36 36 0 0 1 6.235-6.107 13.43 13.43 0 0 1 7.772-2.735 14.53 14.53 0 0 1 12.834 5.937 149.6 149.6 0 0 1 11.824 20.896c.33.63 1.789 3.51-.799 5.01-1.74 1.019-3.582.15-5.292-2.42-.339-.509-8.946-12.14-11.577-14.95a6 6 0 0 0-.56-.543 6.7 6.7 0 0 0-3.619-1.656 7 7 0 0 0-.832-.051 7 7 0 0 0-.68.034c-.104 0-.205.03-.306.042-.1.013-.226.03-.34.051a8 8 0 0 0-.432.102l-.196.06c-.17.052-.332.104-.492.17l-.102.042c-.179.074-.357.15-.527.238h-.034a6.7 6.7 0 0 0-1.682 1.231s-.431.474-.492.57a78.8 78.8 0 0 0-10.94 19.374c-1.192 3.123-2.603 7.918-2.66 8.214-2.035 8.863-.46 12.503 5.607 19.391.226.257 10.296 10.712 15.297 15.392a10.35 10.35 0 0 0 7.076 2.786h13.735A8.54 8.54 0 0 0 130 201.52V8.553a8.546 8.546 0 0 0-8.52-8.545H55.373a1 1 0 0 0-.144 0z"/></svg>